<svg width="40" height="40" viewBox="0 0 40 40" fill="none" xmlns="http://www.w3.org/2000/svg">
<g clip-path="url(#clip0_779_1798)">
<path d="M32.4617 34.8387L30.9682 30.3574C30.4462 28.7929 29.1146 27.6381 27.4914 27.3426L23.1798 26.5581V26.2239C23.9301 25.7884 24.583 25.2058 25.103 24.5161H26.4056C27.4727 24.5161 28.3411 23.6477 28.3411 22.5806V14.8387C28.3411 10.2142 24.5785 6.4516 19.954 6.4516C15.3295 6.4516 11.5669 10.2142 11.5669 14.8387V19.3548C11.5669 20.5987 12.4514 21.6393 13.6243 21.8819C13.9862 23.7361 15.1449 25.3051 16.7282 26.2239V26.5581L12.4159 27.3426C10.7933 27.6381 9.46107 28.7929 8.93978 30.3574L8.68171 31.1322L6.48429 28.9348C6.23268 28.6832 6.23268 28.2735 6.48429 28.0219L9.03268 25.4742L4.24946 20.691L1.36946 23.571C0.516552 24.4239 0.046875 25.5581 0.046875 26.7645C0.046875 27.971 0.516552 29.1045 1.36946 29.9574L10.0888 38.6768C10.9417 39.5297 12.0759 40 13.2824 40C14.4888 40 15.6224 39.5297 16.4553 38.6961L19.5978 35.8168L18.6178 34.8387H32.4617ZM27.0507 22.5806C27.0507 22.9368 26.7611 23.2258 26.4056 23.2258H25.863C26.0501 22.7993 26.192 22.3497 26.2836 21.8819C26.5598 21.8245 26.814 21.7148 27.0507 21.5768V22.5806ZM26.4056 20.4658V18.2439C26.7895 18.4677 27.0507 18.8793 27.0507 19.3548C27.0507 19.8303 26.7895 20.2419 26.4056 20.4658ZM13.5024 20.4658C13.1185 20.2419 12.8572 19.8303 12.8572 19.3548C12.8572 18.8793 13.1185 18.4677 13.5024 18.2439V20.4658ZM13.5024 16.129V16.8658C13.2727 16.9258 13.0572 17.0161 12.8572 17.1329V14.8387C12.8572 10.9258 16.0411 7.74192 19.954 7.74192C23.8669 7.74192 27.0507 10.9258 27.0507 14.8387V17.1329C26.8507 17.0161 26.6353 16.9251 26.4056 16.8658V16.129H25.7604C23.8527 16.129 22.0591 15.3858 20.7095 14.0368L19.954 13.2813L19.1985 14.0368C17.8488 15.3858 16.0553 16.129 14.1475 16.129H13.5024ZM14.7927 20.6451V17.3948C16.7301 17.249 18.5366 16.4497 19.954 15.1019C21.3714 16.4497 23.1778 17.2497 25.1153 17.3948V20.6451C25.1153 21.5858 24.8585 22.4658 24.4172 23.2258H19.954V24.5161H23.3566C22.4469 25.3168 21.2578 25.8064 19.954 25.8064C17.1082 25.8064 14.7927 23.491 14.7927 20.6451ZM21.8895 26.7993V26.8297L19.954 28.7651L18.0185 26.8297V26.7993C18.6301 26.9916 19.2798 27.0968 19.954 27.0968C20.6282 27.0968 21.2778 26.9916 21.8895 26.7993ZM10.163 30.7651C10.5353 29.6477 11.4869 28.8226 12.6462 28.611L17.1559 27.7916L19.954 30.5897L22.7514 27.7922L27.2604 28.6116C28.4198 28.8232 29.3714 29.6477 29.7437 30.7658L30.672 33.5484H17.3275L14.8146 31.0355L12.0224 33.5613C11.7791 33.8058 11.354 33.8058 11.1101 33.5613L9.70107 32.1522L10.163 30.7651ZM4.24881 22.5155L7.20752 25.4742L6.50687 26.1748L3.54816 23.2161L4.24881 22.5155ZM15.5617 37.7658C14.9527 38.3735 14.1424 38.7097 13.2811 38.7097C12.4198 38.7097 11.6095 38.3735 10.9998 37.7645L2.28042 29.0458C1.67139 28.4368 1.33591 27.6264 1.33591 26.7651C1.33591 25.9032 1.67139 25.0929 2.28042 24.4839L2.63526 24.129L5.59397 27.0877L5.57075 27.111C4.81655 27.8658 4.81655 29.0935 5.57075 29.8484L10.1972 34.4748C10.563 34.84 11.0488 35.0419 11.5662 35.0419C12.0836 35.0419 12.5695 34.8406 12.9114 34.4974L12.9598 34.4542L15.932 37.4264L15.5617 37.7658ZM16.8843 36.5529L13.9185 33.5871L14.7707 32.8168L17.7314 35.7774L16.8843 36.5529Z" fill="white"/>
<path d="M38.0185 0H28.9863C27.9192 0 27.0508 0.868387 27.0508 1.93548V7.09677C27.0508 8.16387 27.9192 9.03226 28.9863 9.03226H30.7095L30.0424 12.9232L36.2682 9.03226H38.0185C39.0856 9.03226 39.954 8.16387 39.954 7.09677V1.93548C39.954 0.868387 39.0856 0 38.0185 0ZM38.6637 7.09677C38.6637 7.45226 38.374 7.74194 38.0185 7.74194H35.8979L31.8005 10.3026L32.2398 7.74194H28.9863C28.6308 7.74194 28.3411 7.45226 28.3411 7.09677V1.93548C28.3411 1.58 28.6308 1.29032 28.9863 1.29032H38.0185C38.374 1.29032 38.6637 1.58 38.6637 1.93548V7.09677Z" fill="white"/>
<path d="M37.3733 2.58063H29.6313V3.87095H37.3733V2.58063Z" fill="white"/>
<path d="M34.7926 5.16132H29.6313V6.45164H34.7926V5.16132Z" fill="white"/>
<path d="M37.3733 5.16132H36.083V6.45164H37.3733V5.16132Z" fill="white"/>
<path d="M19.9536 1.93549C11.524 1.93549 4.26267 7.76645 2.37493 15.9L1.15235 13.8619L0.0458984 14.5258L2.31364 18.3045L6.09235 16.0368L5.42848 14.9303L3.68009 15.9794C5.50848 8.53871 12.1994 3.22581 19.9536 3.22581C21.6485 3.22581 23.3207 3.47742 24.924 3.9742L25.3059 2.74194C23.5788 2.20645 21.7782 1.93549 19.9536 1.93549Z" fill="white"/>
<path d="M39.6404 14.2851L35.8617 12.0174L33.5946 15.7968L34.701 16.4606L35.83 14.5787C36.4242 16.3174 36.7281 18.1361 36.7281 20C36.7281 23.8368 35.3991 27.5877 32.9868 30.5613L33.9888 31.3742C36.5875 28.1716 38.0184 24.1316 38.0184 20C38.0184 18.0264 37.7004 16.0993 37.0804 14.2542L38.9765 15.3916L39.6404 14.2851Z" fill="white"/>
</g>
<defs>
<clipPath id="clip0_779_1798">
<rect width="40" height="40" fill="white"/>
</clipPath>
</defs>
</svg>
