<svg width="40" height="40" viewBox="0 0 40 40" fill="none" xmlns="http://www.w3.org/2000/svg">
<g clip-path="url(#clip0_779_1863)">
<path d="M17.2645 33.1059V28.1224C17.2645 27.2944 16.8971 26.5186 16.2567 25.9939L8.15171 19.3546C7.63815 18.9339 6.98801 18.7879 6.38091 18.907L6.05131 12.7339C5.98106 11.4183 4.89393 10.3878 3.57652 10.3878C2.20996 10.3878 1.09814 11.4996 1.09814 12.8661V22.9154C1.09814 23.7665 1.39524 24.5979 1.93474 25.2563L2.91106 26.4477C3.02687 26.589 3.19511 26.6623 3.36468 26.6623C3.49541 26.6623 3.62685 26.6188 3.73586 26.5295C3.98623 26.3244 4.02288 25.9551 3.81767 25.7047L2.84136 24.5133C2.47315 24.0639 2.27029 23.4964 2.27029 22.9154V12.866C2.27029 12.1457 2.85628 11.5597 3.57652 11.5597C4.2709 11.5597 4.84384 12.1029 4.88081 12.7963L5.24058 19.5345C4.44063 20.3733 4.45204 21.7061 5.27597 22.5302L8.94744 26.2017C9.1764 26.4306 9.54742 26.4306 9.7763 26.2017C10.0052 25.9728 10.0052 25.6017 9.7763 25.3729L6.10484 21.7014C5.72561 21.3222 5.72561 20.7052 6.10484 20.326C6.45992 19.9711 7.02036 19.9433 7.4088 20.2613L15.5138 26.9006C15.8814 27.2018 16.0923 27.6471 16.0923 28.1224V32.9242H7.59955V30.7955C7.59955 30.4889 7.4925 30.1894 7.29815 29.9521L5.40843 27.6461C5.2033 27.3957 4.83392 27.3593 4.58363 27.5643C4.33326 27.7694 4.29661 28.1387 4.50181 28.3891L6.39146 30.6951C6.41467 30.7233 6.42741 30.759 6.42741 30.7955V33.106C5.77281 33.4136 5.31833 34.0789 5.31833 34.8487V39.414C5.31833 39.7377 5.58065 40.0001 5.9044 40.0001C6.22814 40.0001 6.49047 39.7377 6.49047 39.414V34.8487C6.49047 34.4338 6.82797 34.0963 7.24291 34.0963H16.4492C16.864 34.0963 17.2015 34.4338 17.2015 34.8487V39.414C17.2015 39.7377 17.4638 40.0001 17.7876 40.0001C18.1113 40.0001 18.3737 39.7377 18.3737 39.414V34.8487C18.3736 34.0788 17.9191 33.4134 17.2645 33.1059Z" fill="white"/>
<path d="M36.4235 10.3876C35.1061 10.3876 34.019 11.4181 33.9487 12.7337L33.6192 18.9068C33.0121 18.7877 32.362 18.9337 31.8483 19.3545L23.7434 25.9937C23.1029 26.5184 22.7355 27.2942 22.7355 28.1223V33.1058C22.0809 33.4134 21.6265 34.0787 21.6265 34.8486V39.4138C21.6265 39.7375 21.8888 39.9999 22.2125 39.9999C22.5363 39.9999 22.7986 39.7375 22.7986 39.4138V34.8486C22.7986 34.4336 23.1361 34.0961 23.551 34.0961H32.7572C33.1721 34.0961 33.5096 34.4336 33.5096 34.8486V35.6657C33.5096 35.9894 33.772 36.2518 34.0957 36.2518C34.4195 36.2518 34.6818 35.9894 34.6818 35.6657V34.8486C34.6818 34.0787 34.2272 33.4134 33.5727 33.1058V30.8144C33.5727 30.7656 33.5897 30.7179 33.6206 30.6802L38.0654 25.2561C38.6049 24.5977 38.902 23.7663 38.902 22.9152V12.8659C38.9019 11.4993 37.7902 10.3876 36.4235 10.3876ZM37.7298 22.9154C37.7298 23.4964 37.5269 24.0639 37.1587 24.5133L32.7138 29.9374C32.5118 30.1842 32.4004 30.4957 32.4004 30.8145V32.9241H23.9077V28.1224C23.9077 27.6471 24.1185 27.2017 24.4862 26.9006L32.5912 20.2613C32.9796 19.9431 33.5402 19.971 33.8951 20.326C34.2744 20.7052 34.2744 21.3223 33.8951 21.7014L30.2237 25.3729C29.9948 25.6018 29.9948 25.9729 30.2237 26.2017C30.4526 26.4305 30.8236 26.4305 31.0525 26.2017L34.724 22.5302C35.5479 21.7062 35.5593 20.3734 34.7595 19.5345L35.1192 12.7963C35.1562 12.103 35.7291 11.5598 36.4234 11.5598C37.1437 11.5598 37.7297 12.1457 37.7297 12.866V22.9154H37.7298Z" fill="white"/>
<path d="M34.0958 37.5773C33.7721 37.5773 33.5098 37.8397 33.5098 38.1634V39.4139C33.5098 39.7376 33.7721 40 34.0958 40C34.4196 40 34.6819 39.7376 34.6819 39.4139V38.1634C34.6819 37.8397 34.4196 37.5773 34.0958 37.5773Z" fill="white"/>
<path d="M27.1398 18.2076V14.1014C27.3327 14.1375 27.5085 14.2001 27.6644 14.2885C28.054 14.5093 28.4974 14.626 28.9469 14.626C29.6637 14.626 30.3562 14.3262 30.847 13.8035C31.3446 13.2734 31.5934 12.5804 31.5473 11.8521C31.465 10.5486 30.4198 9.50292 29.1162 9.41986C28.6153 9.38774 28.122 9.49847 27.6872 9.73931C27.5162 9.83394 27.3328 9.90051 27.1398 9.93818V6.63102C27.1398 5.52545 26.2404 4.62603 25.1349 4.62603H20.8371C20.8601 4.34815 20.9327 4.10005 21.0526 3.88844C21.2734 3.49882 21.3902 3.05528 21.3902 2.60588C21.3902 1.88923 21.0904 1.19673 20.5678 0.705992C20.0378 0.2083 19.3447 -0.0407415 18.6167 0.00536274C17.3131 0.0874909 16.2673 1.13257 16.1841 2.43647C16.1522 2.9365 16.2627 3.43075 16.5036 3.86585C16.6325 4.09849 16.7093 4.35425 16.7318 4.62603H12.7496C11.6441 4.62603 10.7446 5.52545 10.7446 6.63102V8.61155C10.7446 8.93522 11.007 9.19762 11.3307 9.19762C11.6544 9.19762 11.9168 8.93522 11.9168 8.61155V6.63102C11.9168 6.17185 12.2904 5.79817 12.7496 5.79817H16.8982C17.1823 5.79817 17.4556 5.6783 17.648 5.46927C17.8404 5.26024 17.9372 4.97798 17.9137 4.69495L17.8999 4.52952C17.8636 4.09114 17.7388 3.67675 17.529 3.29791C17.3968 3.05919 17.3362 2.78701 17.3538 2.51101C17.3988 1.80632 17.9859 1.21955 18.6904 1.17516C19.0913 1.15 19.4739 1.28667 19.7654 1.56041C20.0573 1.83445 20.218 2.20571 20.218 2.6058C20.218 2.85304 20.154 3.09662 20.0329 3.31034C19.8285 3.67097 19.706 4.08129 19.6689 4.52968L19.6551 4.69495C19.6317 4.97806 19.7285 5.26024 19.9209 5.46927C20.1133 5.6783 20.3866 5.79809 20.6706 5.79809H25.1349C25.594 5.79809 25.9676 6.17169 25.9676 6.63094V10.2758C25.9676 10.5189 26.0702 10.7528 26.2492 10.9175C26.4281 11.082 26.6697 11.1649 26.9118 11.1449L27.0233 11.1357C27.4616 11.0994 27.8759 10.9745 28.255 10.7647C28.4935 10.6326 28.765 10.5721 29.0417 10.5896C29.7463 10.6345 30.333 11.2214 30.3776 11.926C30.4029 12.3277 30.2662 12.7096 29.9924 13.0011C29.7183 13.2931 29.3471 13.4538 28.9469 13.4538C28.6997 13.4538 28.4562 13.3898 28.2424 13.2686C27.8817 13.0643 27.4714 12.9418 27.023 12.9046L26.9118 12.8954C26.6705 12.8756 26.428 12.9582 26.2491 13.1229C26.0702 13.2875 25.9676 13.5214 25.9676 13.7645V18.2075C25.9676 18.6667 25.594 19.0403 25.1349 19.0403H20.8161L20.837 18.79C20.8601 18.5117 20.9327 18.2632 21.0526 18.0516C21.2734 17.6621 21.3902 17.2185 21.3902 16.769C21.3902 16.0524 21.0904 15.3599 20.5678 14.8691C20.0378 14.3715 19.3447 14.1226 18.6167 14.1685C17.3131 14.2506 16.2673 15.2957 16.1841 16.5996C16.1522 17.0997 16.2627 17.5939 16.5036 18.029C16.6325 18.2617 16.7093 18.5176 16.7318 18.7895L16.7526 19.0403H12.7496C12.2904 19.0403 11.9168 18.6667 11.9168 18.2074V11.109C11.9168 10.7853 11.6544 10.5229 11.3307 10.5229C11.007 10.5229 10.7446 10.7853 10.7446 11.109V18.2074C10.7446 19.313 11.6441 20.2124 12.7496 20.2124H17.1029C17.3398 20.2124 17.5678 20.1124 17.7282 19.938C17.8887 19.7637 17.9693 19.5283 17.9497 19.2923L17.8999 18.6927C17.8636 18.2543 17.7388 17.8399 17.529 17.4611C17.3968 17.2223 17.3362 16.9502 17.3538 16.6742C17.3988 15.9695 17.9859 15.3827 18.6904 15.3383C19.0911 15.3123 19.4738 15.4498 19.7654 15.7236C20.0573 15.9976 20.218 16.3689 20.218 16.769C20.218 17.0162 20.154 17.2598 20.0328 17.4735C19.8287 17.834 19.7061 18.2442 19.6689 18.6929L19.6191 19.2923C19.5995 19.5284 19.6803 19.7638 19.8408 19.9381C20.0013 20.1124 20.2291 20.2124 20.466 20.2124H25.1349C26.2404 20.2126 27.1398 19.3131 27.1398 18.2076Z" fill="white"/>
</g>
<defs>
<clipPath id="clip0_779_1863">
<rect width="40" height="40" fill="white"/>
</clipPath>
</defs>
</svg>
