<svg width="125" height="109" viewBox="0 0 125 109" fill="none" xmlns="http://www.w3.org/2000/svg">
<path d="M63.3418 105.427C52.7024 109.725 41.1838 106.293 31.4103 101.443C20.3941 95.9182 8.24119 88.0422 4.32861 75.7818C1.25545 66.1849 3.71223 55.5733 9.19237 47.3112C15.1622 38.326 24.798 32.7878 35.3512 30.8739C46.4634 28.8939 58.2948 30.7465 68.5198 35.3301C74.667 38.1509 80.691 42.0396 84.4194 47.7153C86.2284 50.4026 88.1647 53.9988 87.4925 57.3123C86.785 61.1844 82.6903 62.4635 79.231 62.7619C73.1774 63.2841 66.3919 61.3426 60.8208 59.0635C54.8917 56.7436 49.1323 53.2024 45.5143 47.8278C39.5028 38.9203 41.0579 27.0664 47.0391 18.4863C54.539 7.68462 68.4508 3.70097 81.0634 4.3154C95.6647 4.92554 109.219 11.8503 121.459 19.2169C123.793 20.6224 125.779 16.8671 123.445 15.4616C110.529 7.65741 96.3637 0.749557 80.9444 0.0606494C68.2298 -0.550964 54.318 3.43269 45.826 13.4001C38.319 22.1237 35.2084 34.8824 39.9461 45.6499C45.6053 58.3689 60.9767 64.6352 74.1216 66.0459C79.6968 66.6522 87.2239 65.9372 89.971 60.2345C92.7209 54.6332 88.8595 47.846 85.2727 43.5858C76.7262 33.3798 62.204 28.3066 49.1696 27.1969C36.8514 26.1688 23.8284 29.1141 14.2606 37.0837C5.59008 44.3187 -0.0116913 55.5241 1.83225e-05 66.8786C0.0373606 82.7944 12.1705 93.611 25.2236 100.854C36.7749 107.276 50.9856 112.155 63.7806 106.53C64.4883 106.307 63.9971 105.155 63.3418 105.427Z" fill="#0162CA"/>
<path d="M123.802 17.2766C118.454 19.3506 112.636 20.9815 106.83 21.2434C107.015 22.4042 107.204 23.6662 107.389 24.827C112.8 23.2074 118.15 21.2346 123.506 19.4644C124.619 19.1295 125.444 17.6367 124.65 16.5941C121.311 12.0736 117.823 7.70921 113.886 3.71208C111.998 1.83803 109.175 4.80548 111.013 6.73159C114.638 10.5346 118.112 14.3924 121.239 18.6147C121.621 17.6917 122 16.6674 122.382 15.7444C117.029 17.6159 111.621 19.3368 106.323 21.3588C104.104 22.2312 105.007 25.3491 107.34 24.8791C113.423 23.5957 118.988 22.0225 124.514 19.0311C125.519 18.4964 124.81 16.8432 123.802 17.2766Z" fill="#0162CA"/>
</svg>
