<svg width="60" height="60" viewBox="0 0 60 60" fill="none" xmlns="http://www.w3.org/2000/svg">
<path d="M55.3125 54.375H52.3312C51.6188 50.925 51.1969 46.875 46.5187 44.7844C48.9937 42.9 48.75 40.5094 48.75 38.4375C48.75 36.9457 48.1574 35.5149 47.1025 34.46C46.0476 33.4051 44.6168 32.8125 43.125 32.8125C41.6332 32.8125 40.2024 33.4051 39.1475 34.46C38.0926 35.5149 37.5 36.9457 37.5 38.4375C37.5 40.6687 37.275 42.9094 39.7219 44.7844C37.95 45.5625 39.4219 45.6281 37.1531 43.7813C36.1476 42.9723 35.013 42.3384 33.7969 41.9063C36.7781 39.7781 36.6094 36.9281 36.6094 34.6875C36.6094 32.947 35.918 31.2778 34.6873 30.0471C33.4566 28.8164 31.7874 28.125 30.0469 28.125C28.3064 28.125 26.6372 28.8164 25.4065 30.0471C24.1758 31.2778 23.4844 32.947 23.4844 34.6875C23.4844 36.7688 23.1656 39.7125 26.2969 41.9156C24.3834 42.5927 22.6868 43.7713 21.3844 45.3281C21.058 45.1213 20.7164 44.9396 20.3625 44.7844C22.7531 42.8906 22.5 40.5 22.5 38.4375C22.5 36.9457 21.9074 35.5149 20.8525 34.46C19.7976 33.4051 18.3668 32.8125 16.875 32.8125C15.3832 32.8125 13.9524 33.4051 12.8975 34.46C11.8426 35.5149 11.25 36.9457 11.25 38.4375C11.25 40.6687 11.025 42.9187 13.4812 44.7937C8.78437 46.875 8.35313 51.0562 7.66875 54.375H4.6875C4.43886 54.375 4.2004 54.4738 4.02459 54.6496C3.84877 54.8254 3.75 55.0639 3.75 55.3125C3.75 55.5611 3.84877 55.7996 4.02459 55.9754C4.2004 56.1512 4.43886 56.25 4.6875 56.25H55.3125C55.5611 56.25 55.7996 56.1512 55.9754 55.9754C56.1512 55.7996 56.25 55.5611 56.25 55.3125C56.25 55.0639 56.1512 54.8254 55.9754 54.6496C55.7996 54.4738 55.5611 54.375 55.3125 54.375ZM39.375 40.3125V38.4375C39.375 37.4429 39.7701 36.4891 40.4734 35.7859C41.1766 35.0826 42.1304 34.6875 43.125 34.6875C44.1196 34.6875 45.0734 35.0826 45.7766 35.7859C46.4799 36.4891 46.875 37.4429 46.875 38.4375V40.3125C46.875 41.3071 46.4799 42.2609 45.7766 42.9641C45.0734 43.6674 44.1196 44.0625 43.125 44.0625C42.1304 44.0625 41.1766 43.6674 40.4734 42.9641C39.7701 42.2609 39.375 41.3071 39.375 40.3125ZM25.3125 36.5625V34.6875C25.3125 33.4443 25.8064 32.252 26.6854 31.3729C27.5645 30.4939 28.7568 30 30 30C31.2432 30 32.4355 30.4939 33.3146 31.3729C34.1936 32.252 34.6875 33.4443 34.6875 34.6875V36.5625C34.6875 37.8057 34.1936 38.998 33.3146 39.8771C32.4355 40.7561 31.2432 41.25 30 41.25C28.7568 41.25 27.5645 40.7561 26.6854 39.8771C25.8064 38.998 25.3125 37.8057 25.3125 36.5625ZM13.125 40.3125V38.4375C13.125 37.4429 13.5201 36.4891 14.2233 35.7859C14.9266 35.0826 15.8804 34.6875 16.875 34.6875C17.8696 34.6875 18.8234 35.0826 19.5266 35.7859C20.2299 36.4891 20.625 37.4429 20.625 38.4375V40.3125C20.625 41.3071 20.2299 42.2609 19.5266 42.9641C18.8234 43.6674 17.8696 44.0625 16.875 44.0625C15.8804 44.0625 14.9266 43.6674 14.2233 42.9641C13.5201 42.2609 13.125 41.3071 13.125 40.3125ZM10.1437 51.6656C10.3299 50.5902 10.7713 49.5752 11.4308 48.7056C12.0904 47.8361 12.9488 47.1374 13.9342 46.6681C14.9195 46.1988 16.003 45.9727 17.0938 46.0087C18.1846 46.0447 19.2509 46.3418 20.2031 46.875C18.9187 49.0312 18.7031 51.0656 17.9906 54.375H13.3875L14.0625 51.7875C14.1222 51.5389 14.0806 51.2767 13.947 51.0587C13.8134 50.8407 13.5986 50.6847 13.35 50.625C13.1014 50.5653 12.8392 50.6069 12.6212 50.7405C12.4032 50.8741 12.2472 51.0889 12.1875 51.3375L11.4563 54.375H9.58125L10.1437 51.6656ZM37.4062 54.375L36.4688 50.4187C36.4078 50.1776 36.2536 49.9705 36.04 49.843C35.8264 49.7155 35.5709 49.6781 35.3297 49.7391C35.0885 49.8 34.8814 49.9542 34.7539 50.1678C34.6265 50.3814 34.5891 50.6369 34.65 50.8781L35.475 54.375H24.5812L25.3125 50.8125C25.3622 50.5639 25.3111 50.3056 25.1705 50.0947C25.0298 49.8837 24.8111 49.7372 24.5625 49.6875C24.3139 49.6378 24.0556 49.6889 23.8447 49.8295C23.6337 49.9702 23.4872 50.1889 23.4375 50.4375L22.6688 54.375H19.9125C20.1912 52.7672 20.5511 51.1746 20.9906 49.6031C21.5521 47.943 22.5611 46.4701 23.9064 45.347C25.2517 44.2239 26.8811 43.4941 28.6148 43.2381C30.3485 42.9821 32.1192 43.2099 33.7317 43.8963C35.3442 44.5827 36.7358 45.7011 37.7531 47.1281C39.2062 49.1531 39.3469 50.8781 40.0875 54.375H37.4062ZM48.5437 54.375L47.8125 51.3375C47.7452 51.1047 47.5904 50.9069 47.3805 50.7858C47.1706 50.6646 46.9219 50.6295 46.6867 50.6877C46.4514 50.7459 46.2478 50.8929 46.1186 51.098C45.9895 51.303 45.9447 51.5502 45.9938 51.7875L46.6125 54.375H42.0094C41.2125 50.625 40.9875 48.8438 39.7969 46.875C40.7503 46.3372 41.8194 46.0372 42.9134 46.0006C44.0075 45.964 45.0942 46.1918 46.0814 46.6647C47.0687 47.1377 47.9273 47.8417 48.5844 48.7172C49.2416 49.5927 49.6778 50.6137 49.8563 51.6937L50.4094 54.375H48.5437Z" fill="#0162CA"/>
<path d="M49.6875 3.75H10.3125C8.57202 3.75 6.90282 4.4414 5.67211 5.67211C4.4414 6.90282 3.75 8.57202 3.75 10.3125V15.9375C3.75 17.678 4.4414 19.3472 5.67211 20.5779C6.90282 21.8086 8.57202 22.5 10.3125 22.5H13.4812L16.0406 27.6094C16.1193 27.7629 16.2388 27.8918 16.386 27.9818C16.5333 28.0718 16.7025 28.1194 16.875 28.1194C17.0475 28.1194 17.2167 28.0718 17.364 27.9818C17.5112 27.8918 17.6307 27.7629 17.7094 27.6094L20.2688 22.5H27.5437L29.1656 25.7344C29.2443 25.8879 29.3638 26.0168 29.511 26.1068C29.6583 26.1968 29.8275 26.2444 30 26.2444C30.1725 26.2444 30.3417 26.1968 30.489 26.1068C30.6362 26.0168 30.7557 25.8879 30.8344 25.7344L32.4562 22.5H39.7313L42.2906 27.6094C42.3693 27.7629 42.4888 27.8918 42.636 27.9818C42.7833 28.0718 42.9525 28.1194 43.125 28.1194C43.2975 28.1194 43.4667 28.0718 43.614 27.9818C43.7612 27.8918 43.8807 27.7629 43.9594 27.6094L46.5187 22.5H49.6875C51.428 22.5 53.0972 21.8086 54.3279 20.5779C55.5586 19.3472 56.25 17.678 56.25 15.9375V10.3125C56.25 8.57202 55.5586 6.90282 54.3279 5.67211C53.0972 4.4414 51.428 3.75 49.6875 3.75ZM54.375 15.9375C54.375 17.1807 53.8811 18.373 53.0021 19.2521C52.123 20.1311 50.9307 20.625 49.6875 20.625H45.9375C45.1688 20.625 45.2062 20.925 43.125 25.0875C40.9969 20.8406 41.0719 20.625 40.3125 20.625C30.9375 20.625 31.3875 20.4469 31.0406 21.1406L30 23.2125L28.9594 21.1406C28.6125 20.4375 28.9031 20.625 19.6875 20.625C18.9187 20.625 18.9563 20.925 16.875 25.0875C14.7469 20.8406 14.8219 20.625 14.0625 20.625H10.3125C9.0693 20.625 7.87701 20.1311 6.99794 19.2521C6.11886 18.373 5.625 17.1807 5.625 15.9375V10.3125C5.625 9.0693 6.11886 7.87701 6.99794 6.99794C7.87701 6.11886 9.0693 5.625 10.3125 5.625H49.6875C50.9307 5.625 52.123 6.11886 53.0021 6.99794C53.8811 7.87701 54.375 9.0693 54.375 10.3125V15.9375Z" fill="#0162CA"/>
<path d="M20.7375 10.9312L18.6563 10.5281L17.625 8.65307C17.5439 8.50654 17.4251 8.38439 17.2808 8.29934C17.1366 8.21429 16.9722 8.16943 16.8047 8.16943C16.6372 8.16943 16.4728 8.21429 16.3286 8.29934C16.1843 8.38439 16.0654 8.50654 15.9844 8.65307L14.9531 10.5281C12.7406 10.9593 12.3844 10.9031 12.1406 11.5593C11.8969 12.2156 12.3656 12.4968 13.7906 14.0437C13.5094 16.2843 13.3406 16.6124 13.9125 17.0156C14.4844 17.4187 14.85 17.0906 16.7813 16.2187C18.8813 17.1562 18.8156 17.1562 19.0969 17.1562C19.2301 17.1572 19.3619 17.1297 19.4837 17.0757C19.6054 17.0218 19.7143 16.9425 19.803 16.8431C19.8917 16.7438 19.9582 16.6267 19.9981 16.4996C20.038 16.3725 20.0504 16.2384 20.0344 16.1062L19.8 14.0624L21.2438 12.5062C21.362 12.3842 21.4449 12.2323 21.4835 12.0669C21.5221 11.9014 21.5151 11.7286 21.4631 11.5668C21.4111 11.4051 21.3161 11.2605 21.1883 11.1485C21.0605 11.0366 20.9047 10.9614 20.7375 10.9312ZM17.9906 14.6812C16.6594 14.0624 16.9219 14.0718 15.6281 14.6812C15.7969 13.2562 15.8906 13.5093 14.8969 12.4312C16.3313 12.1499 16.1156 12.2906 16.7719 11.0343C17.4656 12.2906 17.2406 12.1499 18.6469 12.4312C17.7469 13.4906 17.8125 13.2374 17.9906 14.6999V14.6812Z" fill="#0162CA"/>
<path d="M31.9969 9.37502C31.6261 9.37411 31.2588 9.44654 30.9161 9.58812C30.5733 9.72971 30.262 9.93766 30 10.2C29.7432 9.92313 29.4332 9.70079 29.0886 9.54629C28.7439 9.39178 28.3717 9.30827 27.9941 9.30073C27.6165 9.29319 27.2413 9.36178 26.8907 9.50241C26.5402 9.64304 26.2216 9.85282 25.9539 10.1192C25.6862 10.3857 25.475 10.7033 25.3327 11.0531C25.1904 11.403 25.12 11.7779 25.1258 12.1555C25.1316 12.5332 25.2133 12.9058 25.3662 13.2511C25.5191 13.5965 25.7399 13.9075 26.0156 14.1656L29.3625 17.5125C29.5381 17.6871 29.7758 17.7851 30.0234 17.7851C30.2711 17.7851 30.5087 17.6871 30.6844 17.5125L34.0031 14.2031C34.407 13.8103 34.6835 13.3052 34.7969 12.7533C34.9104 12.2014 34.8554 11.6282 34.6392 11.1079C34.423 10.5877 34.0555 10.1443 33.5844 9.83532C33.1133 9.52634 32.5602 9.36598 31.9969 9.37502ZM32.6719 12.8719L30 15.525L27.3375 12.8438C27.2095 12.7133 27.1225 12.5483 27.087 12.369C27.0516 12.1897 27.0693 12.004 27.1381 11.8347C27.2068 11.6653 27.3235 11.5198 27.4739 11.4159C27.6242 11.312 27.8017 11.2544 27.9844 11.25C28.4437 11.25 28.5656 11.4375 29.3344 12.1875C29.51 12.3621 29.7476 12.4601 29.9953 12.4601C30.243 12.4601 30.4806 12.3621 30.6562 12.1875L31.3219 11.5219C31.5009 11.3429 31.7437 11.2423 31.9969 11.2423C32.25 11.2423 32.4928 11.3429 32.6719 11.5219C32.8509 11.7009 32.9515 11.9437 32.9515 12.1969C32.9515 12.4501 32.8509 12.6929 32.6719 12.8719Z" fill="#0162CA"/>
<path d="M46.9875 11.8687L44.9063 11.4656L43.875 9.59057C43.7939 9.44404 43.6751 9.32189 43.5308 9.23684C43.3866 9.15179 43.2222 9.10693 43.0547 9.10693C42.8872 9.10693 42.7228 9.15179 42.5786 9.23684C42.4343 9.32189 42.3154 9.44404 42.2344 9.59057L41.2031 11.4656C38.9906 11.8968 38.6344 11.8406 38.3906 12.4968C38.1469 13.1531 38.6156 13.4343 40.0406 14.9812C39.7594 17.2218 39.5906 17.5499 40.1625 17.9531C40.7344 18.3562 41.1469 18.0281 43.0313 17.1562C45.1313 18.0937 45.0656 18.0937 45.3469 18.0937C45.4801 18.0947 45.6119 18.0672 45.7337 18.0132C45.8554 17.9593 45.9643 17.88 46.053 17.7806C46.1417 17.6813 46.2082 17.5642 46.2481 17.4371C46.288 17.31 46.3004 17.1759 46.2844 17.0437L46.05 14.9999L47.4937 13.4437C47.612 13.3217 47.6949 13.1698 47.7335 13.0044C47.7721 12.8389 47.7651 12.6661 47.7131 12.5043C47.6611 12.3426 47.5661 12.198 47.4383 12.086C47.3105 11.9741 47.1547 11.8989 46.9875 11.8687ZM44.2406 15.6187C42.9094 14.9999 43.1719 15.0093 41.8781 15.6187C42.0469 14.1937 42.1406 14.4468 41.1469 13.3687C42.5812 13.0874 42.3656 13.2281 43.0219 11.9718C43.7156 13.2281 43.4906 13.0874 44.8969 13.3687C43.9969 14.4281 44.0625 14.1749 44.2406 15.6374V15.6187Z" fill="#0162CA"/>
</svg>
