<svg width="60" height="58" viewBox="0 0 60 58" fill="none" xmlns="http://www.w3.org/2000/svg">
<path d="M0.468725 36.5231L7.07553 40.3375C7.18217 40.399 7.29988 40.4389 7.42195 40.455C7.54403 40.471 7.66806 40.4629 7.78698 40.431C7.9059 40.3991 8.01737 40.3441 8.11503 40.2691C8.21269 40.1941 8.29462 40.1006 8.35615 39.994L8.59416 39.5817L12.4203 41.8219C12.3299 42.1472 12.284 42.4833 12.284 42.8209C12.2822 43.3058 12.3765 43.7862 12.5616 44.2343C12.7467 44.6825 13.0188 45.0895 13.3622 45.4317C13.7048 45.7748 14.1118 46.0468 14.5599 46.2321C15.0079 46.4174 15.4881 46.5123 15.973 46.5115C16.0441 46.5115 16.1154 46.5087 16.1865 46.5047C16.1825 46.575 16.1799 46.6453 16.1799 46.7168C16.1789 47.2015 16.2736 47.6817 16.4586 48.1298C16.6436 48.5778 16.9153 48.9849 17.2581 49.3276C17.6008 49.6704 18.0079 49.9421 18.456 50.1271C18.904 50.3121 19.3842 50.4068 19.8689 50.4058C19.9404 50.4058 20.0115 50.4032 20.0824 50.3992C20.0784 50.4701 20.0757 50.5412 20.0757 50.6127C20.0747 51.0975 20.1694 51.5776 20.3544 52.0257C20.5394 52.4737 20.8111 52.8808 21.1538 53.2236C21.4966 53.5664 21.9037 53.8381 22.3517 54.0231C22.7998 54.2081 23.2799 54.3028 23.7647 54.3018C24.0243 54.3017 24.2832 54.2746 24.5372 54.2209C24.655 54.9442 25.0266 55.6018 25.5854 56.0758C26.1442 56.5498 26.8536 56.8092 27.5864 56.8075C27.957 56.8079 28.3246 56.7419 28.6719 56.6127L28.8581 56.7987C29.2599 57.2011 29.7649 57.4849 30.3176 57.6188C30.8703 57.7526 31.4492 57.7314 31.9906 57.5574C32.532 57.3834 33.0149 57.0634 33.3861 56.6327C33.7574 56.2019 34.0025 55.677 34.0947 55.1159C34.3485 55.17 34.6073 55.1975 34.8668 55.1979C35.3696 55.1985 35.8672 55.0963 36.329 54.8975C36.7908 54.6986 37.207 54.4074 37.5521 54.0417C37.8971 53.676 38.1637 53.2436 38.3354 52.7711C38.5072 52.2985 38.5804 51.7958 38.5506 51.2939C38.6209 51.2979 38.6912 51.3004 38.7627 51.3004C39.2655 51.3014 39.7631 51.1994 40.225 51.0008C40.6868 50.8022 41.1031 50.5112 41.4483 50.1456C41.7934 49.78 42.06 49.3476 42.2317 48.8751C42.4034 48.4026 42.4765 47.8999 42.4466 47.398C42.5169 47.402 42.5872 47.4045 42.6587 47.4045C43.3348 47.4038 43.9977 47.2175 44.5751 46.866C45.1526 46.5145 45.6225 46.0112 45.9335 45.4109C46.2446 44.8107 46.3849 44.1366 46.3392 43.4621C46.2934 42.7876 46.0634 42.1386 45.6742 41.5859L50.846 38.6121L51.6438 39.994C51.7682 40.2093 51.9729 40.3664 52.2131 40.4308C52.4533 40.4951 52.7091 40.4614 52.9245 40.3371L59.5313 36.5231C59.7466 36.3988 59.9037 36.194 59.9681 35.9539C60.0324 35.7137 59.9987 35.4578 59.8744 35.2425L51.2094 20.2344C51.0851 20.0191 50.8804 19.862 50.6402 19.7977C50.4001 19.7333 50.1442 19.767 49.9289 19.8913L43.3221 23.7057C43.1068 23.8301 42.9497 24.0348 42.8853 24.275C42.821 24.5152 42.8547 24.771 42.979 24.9864L43.7453 26.3136L42.65 26.7284C42.1475 26.9294 41.589 26.9407 41.0788 26.7601L33.7763 24.326C33.371 24.1873 32.9422 24.1309 32.5149 24.16C32.0876 24.1892 31.6704 24.3033 31.2878 24.4957L29.8346 25.212C29.8209 25.2037 29.8077 25.195 29.7933 25.1873L28.0623 24.2733C27.5959 24.0234 27.0756 23.891 26.5464 23.8878C26.0173 23.8846 25.4954 24.0105 25.026 24.2548L22.7153 25.4384C22.5401 25.5363 22.3432 25.5891 22.1425 25.5918L16.6346 25.6548L17.0207 24.986C17.145 24.7707 17.1787 24.5148 17.1143 24.2746C17.05 24.0345 16.8928 23.8297 16.6775 23.7054L10.0711 19.8913C9.85576 19.767 9.5999 19.7333 9.35977 19.7977C9.11964 19.862 8.91489 20.0191 8.79057 20.2344L0.125599 35.2425C0.00128454 35.4578 -0.0324042 35.7137 0.0319439 35.9539C0.0962919 36.194 0.253406 36.3988 0.468725 36.5231ZM14.6879 44.1063C14.349 43.7645 14.1588 43.3026 14.1588 42.8213C14.1588 42.3399 14.349 41.878 14.6879 41.5362L17.9846 38.2395C18.3259 37.9006 18.7875 37.7107 19.2685 37.7116C19.7494 37.7124 20.2104 37.9039 20.5504 38.2439C20.8905 38.584 21.0818 39.0451 21.0826 39.526C21.0834 40.0069 20.8935 40.4685 20.5546 40.8097L17.2581 44.1063C16.917 44.4466 16.4548 44.6377 15.973 44.6377C15.4912 44.6377 15.029 44.4466 14.6879 44.1063ZM18.5839 48.0022C18.2452 47.6606 18.055 47.1989 18.0549 46.7177C18.0547 46.2366 18.2446 45.7748 18.5831 45.4329L18.5839 45.4321L21.8807 42.1355C22.2223 41.7989 22.6832 41.6111 23.1628 41.6129C23.6425 41.6147 24.1019 41.806 24.441 42.1451C24.7802 42.4843 24.9715 42.9437 24.9733 43.4233C24.9751 43.903 24.7873 44.3638 24.4507 44.7055L21.154 48.0022C20.8129 48.3425 20.3508 48.5336 19.869 48.5336C19.3872 48.5336 18.925 48.3425 18.5839 48.0022ZM22.4798 51.8981C22.1395 51.5571 21.9484 51.0949 21.9484 50.6131C21.9484 50.1312 22.1395 49.6691 22.4798 49.328L25.7764 46.0314C26.1173 45.6906 26.5795 45.4991 27.0615 45.4991C27.5435 45.4991 28.0058 45.6906 28.3466 46.0314C28.6874 46.3722 28.8789 46.8345 28.8789 47.3165C28.8789 47.7985 28.6874 48.2607 28.3466 48.6015C28.3152 48.6334 28.2861 48.6675 28.2595 48.7036C28.1611 48.7804 28.0674 48.863 27.979 48.9511L25.3995 51.5304C25.3112 51.6191 25.2284 51.713 25.1515 51.8117C25.1156 51.8381 25.0817 51.8671 25.0499 51.8984C24.7088 52.2387 24.2466 52.4297 23.7648 52.4297C23.283 52.4296 22.8209 52.2385 22.4798 51.8981ZM26.7255 54.5788C26.4973 54.3503 26.369 54.0405 26.369 53.7175C26.369 53.3945 26.4973 53.0847 26.7255 52.8562L29.3048 50.2769C29.5333 50.0484 29.8431 49.9201 30.1662 49.9201C30.4892 49.9201 30.7991 50.0484 31.0275 50.2769C31.2559 50.5053 31.3843 50.8151 31.3843 51.1382C31.3843 51.4612 31.2559 51.7711 31.0275 51.9995L28.4482 54.5788C28.219 54.8058 27.9094 54.9331 27.5869 54.9331C27.2643 54.9331 26.9548 54.8058 26.7255 54.5788ZM31.9063 55.4733C31.6796 55.6994 31.373 55.8272 31.0529 55.829C30.7327 55.8309 30.4247 55.7068 30.1954 55.4834L31.9167 53.762C32.1402 53.9914 32.2643 54.2996 32.2624 54.6198C32.2604 54.94 32.1325 55.2466 31.9063 55.4733ZM36.1523 52.7928C35.8113 53.133 35.3492 53.3241 34.8674 53.3241C34.3856 53.3241 33.9235 53.133 33.5824 52.7928C33.5505 52.7613 33.5164 52.7322 33.4802 52.7057C33.4035 52.6073 33.3208 52.5136 33.2327 52.4251L33.0533 52.2457C33.2182 51.8175 33.2856 51.3578 33.2505 50.9003C33.2154 50.4427 33.0789 49.9987 32.8507 49.6006C32.6225 49.2024 32.3084 48.8601 31.9313 48.5986C31.5543 48.3371 31.1236 48.1628 30.6708 48.0886C30.7733 47.6065 30.779 47.1089 30.6875 46.6246C31.0327 46.4327 31.4308 46.3584 31.8219 46.4128C32.213 46.4671 32.5758 46.6473 32.8555 46.926L36.1523 50.2227C36.4927 50.5638 36.6838 51.0259 36.6838 51.5077C36.6838 51.9896 36.4927 52.4517 36.1523 52.7928ZM40.0484 48.8969C39.7065 49.2356 39.2447 49.4257 38.7634 49.4257C38.2821 49.4257 37.8203 49.2356 37.4784 48.8969L34.1816 45.6001C33.8508 45.2575 33.6678 44.7986 33.6719 44.3224C33.676 43.8461 33.8669 43.3905 34.2035 43.0536C34.5401 42.7166 34.9955 42.5253 35.4717 42.5207C35.948 42.5162 36.407 42.6987 36.75 43.0292V43.0299L40.0467 46.3265C40.3873 46.6674 40.5787 47.1295 40.5789 47.6114C40.5791 48.0933 40.3881 48.5556 40.0478 48.8969H40.0484ZM43.9441 45.0009C43.6031 45.3412 43.141 45.5324 42.6592 45.5324C42.1775 45.5324 41.7154 45.3412 41.3743 45.0009L38.0775 41.7042C37.7409 41.3625 37.5531 40.9017 37.5549 40.422C37.5567 39.9424 37.748 39.483 38.0872 39.1438C38.4263 38.8047 38.8858 38.6134 39.3654 38.6116C39.845 38.6098 40.3059 38.7976 40.6475 39.1342L43.9438 42.4315C44.2827 42.7733 44.4728 43.2352 44.4728 43.7165C44.4728 44.1978 44.2827 44.6597 43.9438 45.0015L43.9441 45.0009ZM50.0551 21.9839L57.7825 35.368L52.7994 38.245L45.0714 24.8607L50.0551 21.9839ZM32.1168 26.1776C32.2798 26.0922 32.4587 26.0417 32.6423 26.0292C32.8259 26.0167 33.0101 26.0425 33.1832 26.1049L40.4858 28.5391C41.4058 28.8546 42.4078 28.8344 43.3143 28.4821L44.6953 27.9588L49.9089 36.9887L44.3496 40.1851L41.9729 37.8083C41.7212 37.5566 41.4343 37.3427 41.1211 37.1734L33.6475 31.5705C33.1725 31.2151 32.6055 31.0036 32.0138 30.9612L30.9156 30.8643C30.3007 30.8052 29.6817 30.923 29.1315 31.2039C28.5813 31.4849 28.1228 31.9172 27.8101 32.4499L26.3543 34.844C26.3328 34.8844 26.299 34.9169 26.2577 34.9368C26.2165 34.9567 26.17 34.9629 26.125 34.9546L23.9101 34.6757C23.8767 34.6714 23.8445 34.66 23.8159 34.6422C23.7872 34.6245 23.7627 34.6007 23.7441 34.5726C23.7255 34.5445 23.7132 34.5127 23.708 34.4794C23.7027 34.446 23.7048 34.412 23.7139 34.3795L24.8741 30.2663C24.9234 30.0746 25.0146 29.8963 25.1411 29.7442C25.2677 29.5921 25.4264 29.47 25.6058 29.3866L32.1168 26.1776ZM22.164 27.4666C22.6548 27.4612 23.1371 27.338 23.5703 27.1072L25.881 25.9236C26.082 25.8155 26.307 25.7595 26.5352 25.7609C26.7635 25.7622 26.9878 25.8209 27.1875 25.9315L27.7607 26.2339L24.7764 27.705C24.3608 27.904 23.9931 28.1904 23.6985 28.5446C23.4038 28.8988 23.1891 29.3125 23.0691 29.7573L21.9089 33.8706C21.8265 34.1628 21.8081 34.4693 21.855 34.7693C21.9019 35.0692 22.013 35.3555 22.1807 35.6086C22.3484 35.8616 22.5688 36.0755 22.8267 36.2356C23.0847 36.3957 23.3742 36.4982 23.6754 36.5361L25.8902 36.8149C26.2942 36.8692 26.7053 36.8037 27.0724 36.6266C27.4396 36.4496 27.7468 36.1687 27.9559 35.8188L29.4118 33.4249C29.5441 33.1924 29.7409 33.0033 29.9785 32.8804C30.2161 32.7575 30.4842 32.7062 30.7504 32.7326L31.8484 32.8295C32.0921 32.8413 32.3268 32.9255 32.5223 33.0714L37.8386 37.0568C37.1918 37.349 36.6432 37.8219 36.2589 38.4186C35.8747 39.0153 35.671 39.7104 35.6726 40.4201C35.6726 40.4911 35.6752 40.5618 35.679 40.6322C35.1772 40.6023 34.6745 40.6754 34.202 40.8471C33.7295 41.0188 33.2971 41.2854 32.9315 41.6305C32.5659 41.9756 32.2749 42.3919 32.0762 42.8538C31.8776 43.3156 31.7757 43.8132 31.7767 44.316C31.7767 44.3871 31.7793 44.4577 31.7831 44.5281C31.1233 44.4897 30.4652 44.6287 29.8772 44.9306C29.812 44.854 29.7443 44.7783 29.672 44.7065C29.3038 44.3381 28.8618 44.0521 28.3749 43.8671C27.8881 43.6822 27.3676 43.6025 26.8478 43.6335C26.8518 43.5632 26.8542 43.4929 26.8542 43.4214C26.8554 42.9187 26.7536 42.4211 26.5552 41.9592C26.3568 41.4973 26.0659 41.0809 25.7005 40.7357C25.3351 40.3904 24.9028 40.1237 24.4304 39.9518C23.958 39.7799 23.4555 39.7065 22.9536 39.7362C22.9833 39.2344 22.91 38.7319 22.7383 38.2596C22.5665 37.7872 22.2998 37.355 21.9548 36.9896C21.6097 36.6241 21.1934 36.3332 20.7317 36.1347C20.27 35.9361 19.7725 35.8342 19.2698 35.8351C18.785 35.8333 18.3045 35.9276 17.8564 36.1127C17.4082 36.2977 17.0012 36.5698 16.6589 36.9132L13.3681 40.2049L9.53166 37.9583L15.545 27.5427L22.164 27.4666ZM9.94545 21.9839L14.9285 24.8607L7.20104 38.245L2.2181 35.368L9.94545 21.9839ZM30 22.7896C32.1729 22.7896 34.2971 22.1453 36.1038 20.9381C37.9105 19.7309 39.3187 18.015 40.1502 16.0075C40.9818 14 41.1994 11.791 40.7755 9.65983C40.3516 7.52866 39.3052 5.57105 37.7688 4.03455C36.2323 2.49806 34.2747 1.45169 32.1435 1.02777C30.0123 0.603841 27.8033 0.821403 25.7958 1.65294C23.7883 2.48447 22.0724 3.89264 20.8652 5.69935C19.658 7.50607 19.0137 9.63019 19.0137 11.8031C19.017 14.7159 20.1755 17.5084 22.2351 19.568C24.2948 21.6276 27.0872 22.7862 30 22.7896ZM30 2.69189C31.8021 2.69187 33.5637 3.22623 35.0621 4.2274C36.5605 5.22857 37.7283 6.65158 38.418 8.31649C39.1076 9.98139 39.2881 11.8134 38.9365 13.5809C38.5849 15.3483 37.7172 16.9718 36.4429 18.2461C35.1686 19.5204 33.5451 20.3882 31.7776 20.7397C30.0102 21.0913 28.1782 20.9108 26.5133 20.2212C24.8484 19.5316 23.4253 18.3637 22.4242 16.8653C21.423 15.3669 20.8886 13.6053 20.8887 11.8032C20.8914 9.38758 21.8522 7.07165 23.5603 5.36351C25.2684 3.65538 27.5844 2.69465 30 2.69189ZM25.8295 11.8473C25.6833 11.6462 25.623 11.3952 25.6619 11.1496C25.7008 10.904 25.8356 10.6839 26.0367 10.5377C26.2378 10.3915 26.4888 10.3312 26.7344 10.3701C26.98 10.4089 27.2001 10.5438 27.3463 10.7449L28.7812 12.7198L33.5582 8.80662C33.7507 8.65095 33.997 8.57777 34.2433 8.60305C34.4896 8.62833 34.7159 8.75002 34.8728 8.94156C35.0297 9.13309 35.1045 9.37892 35.0808 9.62538C35.0571 9.87185 34.9369 10.0989 34.7463 10.2571L29.2009 14.7997C29.1021 14.8806 28.9879 14.9405 28.8651 14.9757C28.7424 15.0109 28.6138 15.0206 28.4871 15.0043C28.3605 14.988 28.2385 14.946 28.1287 14.8809C28.0189 14.8158 27.9235 14.729 27.8484 14.6257L25.8295 11.8473Z" fill="white"/>
</svg>
