<svg width="50" height="50" viewBox="0 0 50 50" fill="none" xmlns="http://www.w3.org/2000/svg">
<path fill-rule="evenodd" clip-rule="evenodd" d="M37.7699 27.0069C37.3962 27.0069 37.0557 26.7578 36.956 26.3813C36.8342 25.93 37.1027 25.4678 37.5512 25.3459L41.4018 24.3162C41.8503 24.1944 42.3126 24.4629 42.4344 24.9113C42.5562 25.3626 42.2876 25.8249 41.8364 25.9467L37.9886 26.9764C37.9166 26.9958 37.8418 27.0069 37.7699 27.0069ZM39.4225 49.8311H10.5774C10.093 49.8311 9.69712 49.402 9.73587 48.9175L10.4916 39.5C10.5082 39.3228 10.8985 37.41 13.4592 36.8092L19.588 35.3365L20.4185 31.8126C18.4946 29.4596 18.2012 27.1149 18.1569 26.4283C16.2108 22.0767 16.5928 18.3285 19.2143 16.1305C19.851 15.5962 21.5258 14.3034 23.3003 13.8245C26.0906 13.0743 29.5343 13.3595 31.2894 15.4689C32.2445 16.6149 31.9787 17.4398 32.9005 18.5361C34.6418 20.6123 33.1774 23.8179 32.106 26.1598C32.023 26.3397 31.9427 26.5141 31.8652 26.6858C31.8126 27.3363 31.4915 29.4872 29.5842 31.8126L30.4119 35.3365L36.5518 36.812C39.1042 37.41 39.4945 39.3228 39.5083 39.5L40.2641 48.9175C40.3028 49.402 39.9069 49.8311 39.4225 49.8311ZM21.2352 35.7019L25 38.639L28.7648 35.7019L28.1447 33.0666C26.027 34.5144 23.9729 34.5144 21.8552 33.0666L21.2352 35.7019ZM11.4937 48.1424H15.289V46.2379H11.646L11.4937 48.1424ZM16.9776 48.1424H33.0223V44.0205C33.0223 43.5527 33.3988 43.1762 33.8666 43.1762C34.3317 43.1762 34.711 43.5527 34.711 44.0205V44.5492H38.2183L37.8308 39.7131C37.7699 39.5277 37.4432 38.747 36.1643 38.4563L29.9081 36.9504L25.5204 40.3747C25.2131 40.6128 24.7868 40.6128 24.4795 40.3747L20.0919 36.9504L13.8439 38.4536C12.5595 38.747 12.2301 39.5277 12.1692 39.7131L11.7816 44.5492H15.289V44.0205C15.289 43.5527 15.6682 43.1762 16.1333 43.1762C16.6011 43.1762 16.9776 43.5527 16.9776 44.0205V48.1424ZM34.711 48.1424H38.5062L38.354 46.2379H34.711V48.1424ZM19.8566 26.4892C19.9285 27.1564 20.2607 29 21.7971 30.8298L21.9604 30.9932C22.5307 31.5357 23.793 32.4935 24.9778 32.4631H25.0221C26.2069 32.4935 27.4692 31.5357 28.0395 30.9932L28.2028 30.8298C29.9385 28.7647 30.16 26.8713 30.1849 26.5225C29.5565 22.3701 28.0506 20.8199 27.245 20.8199C27.018 20.8199 26.7799 20.9334 26.5391 21.1548C25.501 22.1154 24.51 22.5832 23.5079 22.5832C22.6663 22.5832 22.2428 22.323 21.6642 22.1182C21.6089 22.2261 21.523 22.431 21.4234 22.8019C21.1272 23.9175 20.6234 25.4179 19.8566 26.4892ZM26.1349 15.1339C25.3488 15.1339 24.5211 15.2446 23.7404 15.455C22.2899 15.8453 20.8504 16.9609 20.2995 17.4232C18.096 19.2724 18.4835 22.2261 19.1424 24.2912C19.3804 23.7376 19.6019 23.0898 19.7929 22.3673C19.9507 21.7777 20.3189 20.3908 21.5424 20.3908C22.8158 20.3908 23.3584 21.7971 25.3903 19.9174C25.9467 19.4025 26.5889 19.1312 27.245 19.1312C28.9475 19.1312 30.434 20.8891 31.306 23.7819C31.9399 22.2012 32.3773 20.5403 31.605 19.6212C30.4839 18.2869 30.6804 17.3762 29.9939 16.5512C29.2326 15.6377 27.8623 15.1339 26.1349 15.1339ZM25.0692 47.2455C24.6041 47.2455 24.2249 46.869 24.2249 46.4012V45.7424C24.2249 45.2773 24.6041 44.898 25.0692 44.898C25.537 44.898 25.9135 45.2773 25.9135 45.7424V46.4012C25.9135 46.869 25.537 47.2455 25.0692 47.2455ZM25.0692 44.087C24.6041 44.087 24.2249 43.7077 24.2249 43.2426V42.5838C24.2249 42.116 24.6041 41.7395 25.0692 41.7395C25.537 41.7395 25.9135 42.116 25.9135 42.5838V43.2426C25.9135 43.7077 25.537 44.087 25.0692 44.087ZM28.1641 11.5961C28.0395 11.5961 27.9149 11.5684 27.7987 11.513L25 10.1649L22.2013 11.513C21.6006 11.8037 20.9085 11.3027 20.9999 10.6383L21.4179 7.56276L19.2697 5.31771C18.8074 4.83604 19.0732 4.02217 19.7292 3.90314L22.7854 3.34949L24.2581 0.614467C24.5737 0.0275995 25.4263 0.0275995 25.7446 0.614467L27.2146 3.34949L30.2707 3.90314C30.9268 4.02217 31.1925 4.83604 30.7302 5.31771L28.5848 7.56276L29.0001 10.6383C29.0693 11.1421 28.6651 11.5961 28.1641 11.5961ZM25 8.38492C25.1245 8.38492 25.2519 8.41261 25.3654 8.46797L27.1177 9.31229L26.8547 7.38559C26.8215 7.13091 26.9045 6.87346 27.0817 6.68799L28.4243 5.28449L26.5142 4.93846C26.2595 4.8914 26.0436 4.73361 25.9218 4.50662L25 2.79584L24.0809 4.50662C23.9591 4.73361 23.7404 4.8914 23.4857 4.93846L21.5756 5.28449L22.9182 6.68799C23.0954 6.87623 23.1785 7.13091 23.1452 7.38559L22.8823 9.31229L24.6346 8.46797C24.7508 8.41261 24.8754 8.38492 25 8.38492ZM13.0799 14.5194C12.9553 14.5194 12.8308 14.4917 12.7145 14.4363L8.9663 12.6314L5.2181 14.4363C4.61739 14.7242 3.92533 14.2231 4.01668 13.5615L4.57587 9.43962L1.69966 6.43331C1.23737 5.95164 1.50312 5.13778 2.15919 5.01874L6.25342 4.27685L8.22164 0.614467C8.53999 0.0275995 9.39261 0.0275995 9.71096 0.614467L11.6792 4.27685L15.7734 5.01874C16.4295 5.13778 16.6952 5.95164 16.2329 6.43331L13.3567 9.43962L13.9159 13.5615C13.9851 14.0626 13.5782 14.5194 13.0799 14.5194ZM8.9663 10.8487C9.09087 10.8487 9.21821 10.8763 9.33171 10.9317L12.0335 12.2328L11.6293 9.26246C11.5961 9.00778 11.6792 8.7531 11.8563 8.56763L13.927 6.40009L10.9788 5.86582C10.7269 5.82153 10.5082 5.66097 10.3864 5.43675L8.9663 2.79584L7.54619 5.43675C7.42439 5.66097 7.2057 5.82153 6.95379 5.86582L4.00561 6.40009L6.07625 8.56763C6.25342 8.7531 6.33647 9.00778 6.30325 9.26246L5.89909 12.2328L8.60089 10.9317C8.71439 10.8763 8.84173 10.8487 8.9663 10.8487ZM36.92 14.5194C36.4217 14.5194 36.0148 14.0626 36.084 13.5615L36.6432 9.43962L33.767 6.43331C33.3075 5.95164 33.5704 5.13778 34.2265 5.01874L38.3207 4.27685L40.2917 0.614467C40.6073 0.0275995 41.4599 0.0275995 41.7783 0.614467L43.7493 4.27685L47.8407 5.01874C48.4968 5.13778 48.7626 5.95164 48.3003 6.43331L45.4241 9.43962L45.9832 13.5615C46.0746 14.2231 45.3825 14.727 44.7818 14.4363L41.0336 12.6314L37.2882 14.4363C37.1719 14.4917 37.0446 14.5194 36.92 14.5194ZM36.0729 6.40009L38.1436 8.56763C38.3207 8.7531 38.4038 9.00778 38.3706 9.26246L37.9692 12.2328L40.6682 10.9317C40.898 10.821 41.1693 10.821 41.4018 10.9317L44.1008 12.2328L43.6967 9.26246C43.6635 9.00778 43.7465 8.7531 43.9237 8.56763L45.9943 6.40009L43.0461 5.86582C42.7942 5.82153 42.5755 5.66097 42.4537 5.43675L41.0336 2.79584L39.6135 5.43675C39.4917 5.66097 39.273 5.82153 39.0211 5.86582L36.0729 6.40009ZM11.7844 30.8326H7.80087C7.33304 30.8326 6.95656 30.4534 6.95656 29.9883C6.95656 29.5205 7.33304 29.144 7.80087 29.144H11.7844C12.2494 29.144 12.6287 29.5205 12.6287 29.9883C12.6287 30.4534 12.2494 30.8326 11.7844 30.8326ZM8.49293 35.6743C8.12199 35.6743 7.78149 35.4251 7.67907 35.0486C7.55726 34.5974 7.82578 34.1351 8.27701 34.0161L12.1249 32.9835C12.5761 32.8617 13.0384 33.1302 13.1574 33.5815C13.2792 34.0299 13.0107 34.495 12.5622 34.614L8.71439 35.6466C8.63965 35.666 8.56767 35.6743 8.49293 35.6743ZM12.2301 27.0069C12.1581 27.0069 12.0833 26.9958 12.0114 26.9764L8.16351 25.9467C7.71229 25.8249 7.44653 25.3626 7.56557 24.9113C7.68737 24.4629 8.14967 24.1944 8.60089 24.3162L12.4487 25.3459C12.9 25.4678 13.1657 25.93 13.0439 26.3813C12.9443 26.7578 12.6038 27.0069 12.2301 27.0069ZM42.2018 30.8326H38.2156C37.7505 30.8326 37.3712 30.4534 37.3712 29.9883C37.3712 29.5205 37.7505 29.144 38.2156 29.144H42.2018C42.6669 29.144 43.0461 29.5205 43.0461 29.9883C43.0461 30.4534 42.6669 30.8326 42.2018 30.8326ZM41.507 35.6743C41.435 35.6743 41.3603 35.666 41.2883 35.6466L37.4377 34.614C36.9892 34.495 36.7207 34.0299 36.8425 33.5815C36.9615 33.1302 37.4266 32.8617 37.8751 32.9835L41.7229 34.0161C42.1741 34.1351 42.4427 34.5974 42.3209 35.0486C42.2212 35.4251 41.8779 35.6743 41.507 35.6743Z" fill="white"/>
</svg>
