<svg width="50" height="50" viewBox="0 0 50 50" fill="none" xmlns="http://www.w3.org/2000/svg">
<g clip-path="url(#clip0_1711_1645)">
<path d="M26.9841 19.7306L24.7107 17.8093L25.0047 14.8471C25.0372 14.52 24.884 14.2089 24.605 14.035C24.3261 13.8612 23.9793 13.8607 23.6998 14.0339L21.1699 15.6023L18.4437 14.4074C18.1425 14.2754 17.7994 14.3248 17.5477 14.5365C17.296 14.7482 17.1884 15.0781 17.2669 15.3972L17.9768 18.2879L15.9981 20.5113C15.7794 20.7569 15.7204 21.0987 15.8438 21.4034C15.9672 21.7081 16.2477 21.9124 16.5755 21.9365L19.5442 22.1546L21.0475 24.724C21.203 24.9896 21.4819 25.1482 21.7859 25.1482C21.8065 25.1482 21.8274 25.1474 21.8482 25.146C22.176 25.1227 22.4569 24.9193 22.5812 24.6148L23.706 21.8588L26.6144 21.223C26.9354 21.1526 27.1839 20.9106 27.2629 20.5916C27.3419 20.2727 27.2351 19.9428 26.9841 19.7306ZM23.0861 20.5018C22.8103 20.5621 22.582 20.7542 22.4754 21.0154L21.6913 22.9366L20.6429 21.145C20.5004 20.902 20.2477 20.7445 19.9661 20.7236L17.8965 20.5715L19.2763 19.021C19.4637 18.8103 19.5354 18.5209 19.4682 18.2469L18.9733 16.2317L20.8734 17.0644C21.1318 17.178 21.4293 17.1569 21.6698 17.008L23.4335 15.9146L23.2287 17.9795C23.2007 18.2604 23.3127 18.5368 23.5284 18.7192L25.1133 20.0585L23.0861 20.5018Z" fill="#0162CA"/>
<path d="M48.0414 37.7776L45.6112 35.631C44.9914 35.0836 44.0468 35.0722 43.4139 35.6043L43.3049 35.696C43.1975 35.3089 43.0012 34.9425 42.7132 34.6324C42.3613 34.2534 41.9145 33.9941 41.4224 33.8775C41.7062 33.0056 41.5227 32.009 40.856 31.2908C40.3818 30.7799 39.7371 30.4844 39.0406 30.4587C39.0196 30.4579 38.9988 30.4582 38.9779 30.4579C39.0099 29.7818 38.7815 29.0939 38.2858 28.5598C37.8175 28.0552 37.1826 27.7613 36.4959 27.7292C36.5578 27.0199 36.3318 26.288 35.8104 25.7264C35.3362 25.2156 34.6915 24.92 33.995 24.8944C33.2983 24.8681 32.6337 25.1157 32.123 25.59L31.7769 25.9115C31.2742 25.5486 30.6727 25.3425 30.034 25.3215C29.9535 25.3188 29.8735 25.32 29.7938 25.3231L30.0532 24.4575C30.5184 22.9052 30.8078 20.091 30.7992 20.242C30.8243 20.2541 30.8489 20.2667 30.8746 20.2782C31.2314 20.4373 31.6159 20.5164 31.9988 20.5164C32.4378 20.5164 32.8747 20.4124 33.2651 20.2057C34.0779 19.7754 34.6548 18.876 34.7007 17.9675C34.7443 17.103 34.3372 16.3396 33.5544 15.8178C33.2192 15.5947 32.7666 15.6851 32.5434 16.0201C32.3201 16.3552 32.4107 16.8078 32.7458 17.0312C33.0939 17.2631 33.2617 17.5533 33.2444 17.8939C33.2242 18.2945 32.946 18.7247 32.5829 18.9169C32.25 19.0933 31.823 19.1045 31.4686 18.9463C31.2422 18.8454 30.9487 18.6307 30.8364 18.1812C30.502 16.8424 31.2689 15.5136 32.1569 13.9751C33.7654 11.1883 35.7672 7.72024 31.5769 2.76751L29.8416 0.716335C29.4921 0.303152 29.0026 0.0512961 28.4634 0.00696019C27.9241 -0.0373758 27.4001 0.131179 26.9878 0.481765C25.8697 1.43245 25.2885 2.872 25.4328 4.33245L25.5194 5.20862C25.5639 5.65794 25.3908 6.09934 25.0578 6.40149L25.9974 7.51868C26.6984 6.90637 27.0622 5.99309 26.9704 5.06516L26.8838 4.18899C26.7864 3.20423 27.1783 2.23362 27.9322 1.5926C28.0472 1.49485 28.1929 1.44759 28.3438 1.46018C28.4942 1.47249 28.6308 1.5428 28.7283 1.65803L30.4637 3.70921C33.9916 7.87923 32.4869 10.4863 30.8939 13.2461C30.6447 13.6779 30.3936 14.1136 30.1663 14.5554C29.5639 12.4851 28.5556 10.5603 27.1614 8.90276L23.8245 4.93528L23.8433 4.91956C24.111 4.69436 24.2751 4.37844 24.3052 4.02991C24.3352 3.68128 24.2278 3.34192 24.0026 3.07425L22.9364 1.80657C22.7112 1.5388 22.3953 1.37473 22.0468 1.34466C21.6982 1.31468 21.3589 1.4219 21.091 1.6471L4.24169 15.8183C3.68906 16.283 3.61757 17.1108 4.08232 17.6636L5.14853 18.9313C5.37373 19.1991 5.68964 19.3631 6.03828 19.3932C6.07675 19.3965 6.11503 19.3982 6.15312 19.3982C6.46084 19.3982 6.75576 19.291 6.99384 19.0907L7.01269 19.0747L8.26591 20.5649C7.91298 20.8367 7.45302 20.9303 7.02138 20.812L6.17246 20.579C4.75742 20.1906 3.24033 20.5208 2.11474 21.4627C1.6998 21.8101 1.44521 22.2981 1.39804 22.8372C1.35078 23.3763 1.5166 23.9011 1.86494 24.3153L3.59433 26.3714C7.77001 31.3364 11.526 29.9479 14.5439 28.8321C15.906 28.3285 17.1161 27.8813 18.2026 28.0381C18.4043 28.0949 18.6072 28.1485 18.8117 28.1979C18.8454 28.2111 18.879 28.2246 18.9125 28.2393C19.3366 28.4256 19.4988 28.7511 19.5602 28.9912C19.6563 29.3672 19.5732 29.7862 19.3434 30.0847C19.0928 30.4102 18.6218 30.6115 18.2234 30.5643C17.8849 30.5239 17.627 30.3096 17.457 29.9274C17.2935 29.5595 16.8627 29.3941 16.4945 29.5575C16.1267 29.7211 15.961 30.152 16.1246 30.5199C16.5069 31.3795 17.1909 31.9095 18.0504 32.0121C18.1453 32.0235 18.2409 32.029 18.3369 32.029C19.1555 32.0289 19.9964 31.6264 20.4984 30.9743C21.0031 30.3191 21.1805 29.4427 20.9727 28.6302C20.968 28.6117 20.9622 28.5936 20.957 28.5752C21.6201 28.6499 22.2928 28.6892 22.9727 28.6892C23.7011 28.6892 24.4378 28.6456 25.1782 28.5573L25.2428 28.5495C24.9107 28.9456 24.6522 29.4009 24.4852 29.8888L21.6192 36.9382L6.33193 48.693C6.08447 48.8832 5.98554 49.2101 6.08613 49.5056C6.18662 49.8012 6.46416 50 6.77636 50H24.0978C24.2945 50 24.4829 49.9205 24.6201 49.7797L25.5849 48.7892C25.8658 48.5007 25.8598 48.0391 25.5713 47.7581C25.2828 47.4773 24.8212 47.4832 24.5403 47.7717L23.7902 48.5419H8.9207L22.665 37.9739C22.6752 37.966 22.6843 37.9576 22.6938 37.9493C22.7004 37.9438 22.7071 37.9384 22.7135 37.9325C22.7367 37.9113 22.7583 37.8888 22.7782 37.8652C22.7821 37.8605 22.7857 37.8555 22.7895 37.8506C22.8077 37.828 22.8243 37.8044 22.8394 37.78C22.8423 37.7754 22.8454 37.771 22.8481 37.7663C22.8653 37.7372 22.8802 37.7073 22.8931 37.6764C22.8939 37.6743 22.8952 37.6725 22.896 37.6704L25.8444 30.4181C25.8501 30.4041 25.8554 30.39 25.8602 30.3757C26.0033 29.9495 26.2534 29.5603 26.5833 29.2497L28.6773 27.2788C29.0369 26.9404 29.5006 26.7626 29.9858 26.7788C30.4439 26.794 30.865 26.9835 31.1715 27.3127L31.2494 27.3964L31.2495 27.3965L31.2496 27.3966L33.8109 30.1477L33.8111 30.148L33.8114 30.1483L33.8115 30.1484C33.8117 30.1486 33.8118 30.1488 33.812 30.149C33.8122 30.1492 33.8124 30.1493 33.8126 30.1495L34.1755 30.5393C34.3284 30.7035 34.4079 30.9205 34.3996 31.1502C34.3907 31.3969 34.2837 31.6277 34.0984 31.7998L33.6763 32.1921C33.3842 32.4634 32.9691 32.5147 32.6469 32.3504C32.6385 32.3458 32.6297 32.342 32.621 32.3377C32.5462 32.2962 32.4769 32.2427 32.4158 32.1772L31.3526 31.0334C30.9727 30.6247 30.4535 30.3893 29.8909 30.3705C29.3144 30.3517 28.7621 30.5607 28.3377 30.9601C28.2981 30.9974 28.2632 31.0385 28.2333 31.0827C28.1586 31.1933 28.1153 31.3228 28.1091 31.4571C28.1078 31.4839 28.1081 31.511 28.1099 31.5381C28.11 31.5391 28.11 31.5401 28.11 31.541C28.1135 31.5964 28.1159 31.6512 28.1174 31.7057C28.1182 31.7364 28.1181 31.7667 28.1183 31.7972C28.1185 31.8206 28.1188 31.8442 28.1186 31.8674C28.1182 31.9063 28.1168 31.9448 28.1153 31.9831C28.1148 31.9971 28.1144 32.0111 28.1138 32.025C28.1116 32.0684 28.1086 32.1115 28.1051 32.1541C28.1046 32.1597 28.1042 32.1654 28.1037 32.1709C28.1017 32.1892 28.1 32.2075 28.0993 32.2258C28.0312 32.9008 27.7873 33.5049 27.361 34.0581C27.1152 34.3771 27.1746 34.8349 27.4935 35.0806C27.8124 35.3263 28.2703 35.2669 28.516 34.948C28.7685 34.6202 28.9757 34.275 29.1384 33.9139L35.3394 42.3952L35.1915 42.5197C35.0989 42.5514 35.0111 42.602 34.9346 42.6725C34.4192 43.1466 33.7885 43.4661 33.1085 43.5982L28.543 43.9263C28.3648 43.9391 28.1976 44.0168 28.0729 44.1448L26.9074 45.3414C26.6265 45.6299 26.6325 46.0915 26.921 46.3725C27.0627 46.5105 27.2462 46.5792 27.4296 46.5792C27.6193 46.5792 27.809 46.5056 27.9519 46.3589L28.9239 45.3608L33.2547 45.0496C33.263 45.0491 33.2711 45.0474 33.2793 45.0465C33.2981 45.3076 33.3763 45.5665 33.52 45.8003L35.2183 48.5623C35.475 48.9799 35.8997 49.2642 36.3835 49.3423C36.4731 49.3569 36.563 49.364 36.6523 49.364C37.0457 49.364 37.4295 49.2261 37.7352 48.969L48.0103 40.3272C48.3854 40.0117 48.6039 39.5497 48.61 39.0596C48.616 38.5693 48.4087 38.1022 48.0414 37.7776ZM14.0385 27.4645C11.0493 28.5696 8.22607 29.6132 4.71044 25.433L2.98105 23.3769C2.88398 23.2614 2.83769 23.115 2.85087 22.9646C2.86406 22.8142 2.93505 22.678 3.05087 22.5812C3.80976 21.9461 4.83271 21.7235 5.78681 21.9853L6.63574 22.2183C7.52988 22.4635 8.48564 22.2627 9.20595 21.6825L10.3497 23.0424C11.7472 24.704 13.4755 26.0298 15.4176 26.9786C14.9553 27.1257 14.4948 27.2957 14.0385 27.4645ZM28.6562 24.039L28.1058 25.876C27.9558 25.977 27.8124 26.0904 27.6778 26.2169L26.9803 26.8735L25.0055 27.1094C19.697 27.7437 14.635 25.8723 11.4655 22.1038L8.12871 18.1364L9.43134 17.0408C9.73955 16.7816 9.77919 16.3216 9.52002 16.0135C9.26093 15.7053 8.80087 15.6654 8.49277 15.9247L6.63242 17.4893L6.63212 17.4895L6.63183 17.4898L6.16894 17.8791L5.29375 16.8386L21.9162 2.85852L22.7914 3.89915L22.3292 4.28792C22.3289 4.28821 22.3285 4.28841 22.3282 4.2886C22.3279 4.2888 22.3276 4.28919 22.3273 4.28938L11.1224 13.7132C10.8143 13.9725 10.7745 14.4324 11.0337 14.7405C11.2928 15.0487 11.7526 15.0881 12.0609 14.8292L22.7088 5.87376L26.0456 9.84124C29.2151 13.6099 30.191 18.9175 28.6562 24.039ZM40.8633 35.2663C41.163 35.2775 41.4405 35.4046 41.6445 35.6244C41.9924 35.9992 42.04 36.5609 41.7697 36.9871L38.5931 39.6589C38.2509 39.6876 37.9185 39.5615 37.681 39.3055C37.26 38.852 37.2863 38.1405 37.7395 37.7193L38.1998 37.2916C38.2839 37.2303 38.3652 37.1642 38.4427 37.0923L40.2206 35.4407C40.4108 35.3197 40.6323 35.2588 40.8633 35.2663ZM38.2469 32.1503C38.447 31.9974 38.6892 31.915 38.943 31.915C38.9574 31.915 38.972 31.9153 38.9865 31.9158C39.2937 31.9272 39.5781 32.0575 39.7873 32.2827C40.2188 32.7475 40.1919 33.4769 39.7272 33.9085L39.3073 34.2987C39.2234 34.3598 39.1424 34.4255 39.0651 34.4973L37.2851 36.151C37.0895 36.2763 36.8612 36.3401 36.6245 36.3308C36.3173 36.3194 36.0329 36.1891 35.8237 35.9638C35.4205 35.5294 35.4179 34.8642 35.7985 34.4267C35.8233 34.4053 35.8481 34.3837 35.8723 34.3614L38.1493 32.2459C38.183 32.2147 38.2153 32.1828 38.2469 32.1503ZM34.3826 28.6221L32.8145 26.9378L33.1154 26.6582C33.3406 26.4491 33.6338 26.3421 33.941 26.3514C34.2482 26.3628 34.5326 26.4931 34.7418 26.7184C35.1733 27.1831 35.1463 27.9125 34.6816 28.3443L34.3826 28.6221ZM34.6686 33.2605L35.0909 32.8681C35.5617 32.4308 35.8337 31.8394 35.8567 31.2032C35.8768 30.6506 35.7049 30.1228 35.3705 29.6961L35.5907 29.4915C35.8159 29.2824 36.1085 29.1728 36.4163 29.1847C36.7234 29.1961 37.0078 29.3264 37.217 29.5517C37.6204 29.9863 37.6228 30.6518 37.2419 31.0894C37.2172 31.1107 37.1926 31.132 37.1686 31.1542L34.8915 33.2697C34.8578 33.301 34.8252 33.333 34.7936 33.3657C34.6223 33.4967 34.4197 33.575 34.206 33.5947C34.3691 33.5033 34.5253 33.3936 34.6686 33.2605ZM29.5725 32.037C29.5746 31.9821 29.5766 31.9272 29.577 31.8717C29.598 31.8638 29.6195 31.857 29.6412 31.8511C29.7063 31.8336 29.774 31.8257 29.8424 31.8282C30.0141 31.8338 30.1711 31.9044 30.2848 32.0266L31.3479 33.1702C31.4567 33.2872 31.5752 33.3903 31.7009 33.4793C31.818 33.7543 31.98 34.0043 32.1849 34.225C32.6591 34.7359 33.3038 35.0314 34.0004 35.0572C34.0214 35.0578 34.0422 35.058 34.0631 35.0583C34.0312 35.7343 34.2596 36.4221 34.7552 36.956C35.1104 37.3387 35.5614 37.6005 36.0582 37.7187C35.768 38.5859 35.9476 39.5817 36.6122 40.2976C36.7977 40.4974 37.0118 40.6635 37.2447 40.7929L36.4579 41.4546L29.5725 32.037ZM47.0718 39.2111L36.7966 47.8529C36.728 47.9107 36.6538 47.9088 36.616 47.9028C36.578 47.8966 36.5073 47.8749 36.4603 47.7986L34.7621 45.0365C34.7033 44.9409 34.7229 44.819 34.8089 44.7467L44.3518 36.7206C44.3521 36.7203 44.3518 36.7206 44.3521 36.7203C44.3936 36.6854 44.4453 36.6679 44.4969 36.6679C44.5503 36.6679 44.6036 36.6867 44.6457 36.7239L47.0759 38.8704C47.1431 38.9298 47.1523 39.0033 47.1519 39.0418C47.1516 39.0802 47.1404 39.1534 47.0718 39.2111Z" fill="#0162CA"/>
</g>
<defs>
<clipPath id="clip0_1711_1645">
<rect width="50" height="50" fill="white"/>
</clipPath>
</defs>
</svg>
