<svg width="60" height="60" viewBox="0 0 60 60" fill="none" xmlns="http://www.w3.org/2000/svg">
<path fill-rule="evenodd" clip-rule="evenodd" d="M45.3238 32.4083C44.8754 32.4083 44.4668 32.1093 44.3472 31.6576C44.201 31.1161 44.5233 30.5613 45.0614 30.4152L49.6822 29.1794C50.2203 29.0333 50.7751 29.3555 50.9212 29.8936C51.0674 30.4351 50.7452 30.9899 50.2037 31.136L45.5863 32.3718C45.4999 32.395 45.4102 32.4083 45.3238 32.4083ZM47.307 59.7973H12.6929C12.1116 59.7973 11.6365 59.2824 11.683 58.7011L12.5899 47.4C12.6099 47.1874 13.0782 44.892 16.151 44.1711L23.5057 42.4039L24.5022 38.1751C22.1935 35.3515 21.8414 32.5379 21.7882 31.714C19.4529 26.492 19.9114 21.9942 23.0572 19.3566C23.8212 18.7155 25.831 17.1642 27.9603 16.5895C31.3088 15.6892 35.4412 16.0314 37.5473 18.5627C38.6933 19.9379 38.3744 20.9279 39.4806 22.2433C41.5701 24.7348 39.8128 28.5815 38.5272 31.3918C38.4276 31.6077 38.3313 31.817 38.2382 32.023C38.1751 32.8036 37.7898 35.3847 35.501 38.1751L36.4943 42.4039L43.8622 44.1745C46.925 44.892 47.3934 47.1874 47.41 47.4L48.3169 58.7011C48.3634 59.2824 47.8883 59.7973 47.307 59.7973ZM25.4822 42.8424L30 46.3669L34.5177 42.8424L33.7736 39.6799C31.2324 41.4173 28.7675 41.4173 26.2263 39.6799L25.4822 42.8424ZM13.7924 57.771H18.3468V55.4855H13.9752L13.7924 57.771ZM20.3731 57.771H39.6268V52.8247C39.6268 52.2633 40.0786 51.8115 40.64 51.8115C41.198 51.8115 41.6531 52.2633 41.6531 52.8247V53.4591H45.862L45.3969 47.6558C45.3238 47.4332 44.9319 46.4965 43.3971 46.1477L35.8897 44.3406L30.6245 48.4497C30.2557 48.7354 29.7442 48.7354 29.3754 48.4497L24.1102 44.3406L16.6127 46.1443C15.0714 46.4965 14.6761 47.4332 14.603 47.6558L14.1379 53.4591H18.3468V52.8247C18.3468 52.2633 18.8019 51.8115 19.3599 51.8115C19.9213 51.8115 20.3731 52.2633 20.3731 52.8247V57.771ZM41.6531 57.771H46.2075L46.0248 55.4855H41.6531V57.771ZM23.8279 31.7871C23.9142 32.5877 24.3129 34.8001 26.1565 36.9959L26.3525 37.1918C27.0368 37.8429 28.5516 38.9923 29.9734 38.9558H30.0265C31.4483 38.9923 32.9631 37.8429 33.6474 37.1918L33.8434 36.9959C35.9262 34.5177 36.192 32.2455 36.2219 31.827C35.4678 26.8442 33.6607 24.9839 32.694 24.9839C32.4216 24.9839 32.1359 25.1201 31.8469 25.3858C30.6012 26.5385 29.412 27.0999 28.2095 27.0999C27.1996 27.0999 26.6913 26.7877 25.9971 26.5419C25.9306 26.6714 25.8277 26.9172 25.7081 27.3624C25.3526 28.7011 24.748 30.5016 23.8279 31.7871ZM31.3619 18.1607C30.4185 18.1607 29.4253 18.2936 28.4885 18.5461C26.7478 19.0145 25.0204 20.3532 24.3594 20.9079C21.7152 23.127 22.1802 26.6714 22.9708 29.1495C23.2565 28.4852 23.5223 27.7078 23.7515 26.8408C23.9408 26.1333 24.3826 24.469 25.8509 24.469C27.379 24.469 28.0301 26.1565 30.4683 23.901C31.136 23.2831 31.9067 22.9575 32.694 22.9575C34.737 22.9575 36.5208 25.0669 37.5672 28.5383C38.3279 26.6415 38.8528 24.6484 37.926 23.5455C36.5806 21.9444 36.8165 20.8515 35.9926 19.8615C35.0791 18.7653 33.4348 18.1607 31.3619 18.1607ZM30.083 56.6947C29.5249 56.6947 29.0698 56.2429 29.0698 55.6815V54.8909C29.0698 54.3328 29.5249 53.8777 30.083 53.8777C30.6444 53.8777 31.0962 54.3328 31.0962 54.8909V55.6815C31.0962 56.2429 30.6444 56.6947 30.083 56.6947ZM30.083 52.9044C29.5249 52.9044 29.0698 52.4493 29.0698 51.8912V51.1006C29.0698 50.5392 29.5249 50.0874 30.083 50.0874C30.6444 50.0874 31.0962 50.5392 31.0962 51.1006V51.8912C31.0962 52.4493 30.6444 52.9044 30.083 52.9044ZM33.7969 13.9154C33.6474 13.9154 33.4979 13.8821 33.3584 13.8157L30 12.1979L26.6415 13.8157C25.9207 14.1645 25.0902 13.5632 25.1998 12.766L25.7014 9.07536L23.1236 6.3813C22.5689 5.80329 22.8878 4.82666 23.6751 4.68382L27.3424 4.01944L29.1097 0.737409C29.4884 0.0331683 30.5115 0.0331683 30.8935 0.737409L32.6575 4.01944L36.3248 4.68382C37.1121 4.82666 37.431 5.80329 36.8763 6.3813L34.3018 9.07536L34.8001 12.766C34.8831 13.3706 34.3981 13.9154 33.7969 13.9154ZM30 10.062C30.1494 10.062 30.3022 10.0952 30.4384 10.1616L32.5412 11.1748L32.2256 8.86276C32.1858 8.55714 32.2854 8.24821 32.498 8.02564L34.1091 6.34144L31.817 5.9262C31.5114 5.86973 31.2523 5.68038 31.1061 5.40799L30 3.35506L28.8971 5.40799C28.7509 5.68038 28.4885 5.86973 28.1829 5.9262L25.8908 6.34144L27.5019 8.02564C27.7145 8.25153 27.8141 8.55714 27.7743 8.86276L27.4587 11.1748L29.5615 10.1616C29.701 10.0952 29.8505 10.062 30 10.062ZM15.6959 17.4233C15.5464 17.4233 15.3969 17.39 15.2574 17.3236L10.7596 15.1577L6.26172 17.3236C5.54087 17.6691 4.7104 17.0678 4.82002 16.2739L5.49104 11.3276L2.0396 7.72002C1.48484 7.14202 1.80374 6.16538 2.59103 6.02254L7.50411 5.13227L9.86597 0.737409C10.248 0.0331683 11.2711 0.0331683 11.6531 0.737409L14.015 5.13227L18.9281 6.02254C19.7154 6.16538 20.0343 7.14202 19.4795 7.72002L16.0281 11.3276L16.6991 16.2739C16.7821 16.8752 16.2938 17.4233 15.6959 17.4233ZM10.7596 13.0184C10.909 13.0184 11.0619 13.0517 11.198 13.1181L14.4402 14.6794L13.9552 11.115C13.9154 10.8094 14.015 10.5038 14.2276 10.2812L16.7124 7.68016L13.1746 7.03904C12.8723 6.98589 12.6099 6.79322 12.4637 6.52414L10.7596 3.35506L9.05543 6.52414C8.90927 6.79322 8.64684 6.98589 8.34454 7.03904L4.80673 7.68016L7.29151 10.2812C7.50411 10.5038 7.60376 10.8094 7.5639 11.115L7.0789 14.6794L10.3211 13.1181C10.4573 13.0517 10.6101 13.0184 10.7596 13.0184ZM44.304 17.4233C43.7061 17.4233 43.2178 16.8752 43.3008 16.2739L43.9718 11.3276L40.5204 7.72002C39.9689 7.14202 40.2845 6.16538 41.0718 6.02254L45.9849 5.13227L48.3501 0.737409C48.7288 0.0331683 49.7519 0.0331683 50.1339 0.737409L52.4991 5.13227L57.4089 6.02254C58.1962 6.16538 58.5151 7.14202 57.9603 7.72002L54.5089 11.3276L55.1799 16.2739C55.2895 17.0678 54.459 17.6724 53.7382 17.3236L49.2403 15.1577L44.7458 17.3236C44.6063 17.39 44.4535 17.4233 44.304 17.4233ZM43.2875 7.68016L45.7723 10.2812C45.9849 10.5038 46.0846 10.8094 46.0447 11.115L45.563 14.6794L48.8019 13.1181C49.0776 12.9852 49.4031 12.9852 49.6822 13.1181L52.921 14.6794L52.436 11.115C52.3961 10.8094 52.4958 10.5038 52.7084 10.2812L55.1932 7.68016L51.6554 7.03904C51.3531 6.98589 51.0906 6.79322 50.9445 6.52414L49.2403 3.35506L47.5362 6.52414C47.3901 6.79322 47.1276 6.98589 46.8253 7.03904L43.2875 7.68016ZM14.1412 36.9992H9.36104C8.79964 36.9992 8.34787 36.5441 8.34787 35.986C8.34787 35.4246 8.79964 34.9728 9.36104 34.9728H14.1412C14.6993 34.9728 15.1544 35.4246 15.1544 35.986C15.1544 36.5441 14.6993 36.9992 14.1412 36.9992ZM10.1915 42.8092C9.74638 42.8092 9.33779 42.5102 9.21488 42.0584C9.06872 41.5169 9.39094 40.9622 9.93241 40.8193L14.5498 39.5803C15.0913 39.4341 15.6461 39.7563 15.7889 40.2978C15.9351 40.836 15.6128 41.394 15.0747 41.5369L10.4573 42.7759C10.3676 42.7992 10.2812 42.8092 10.1915 42.8092ZM14.6761 32.4083C14.5897 32.4083 14.5 32.395 14.4136 32.3718L9.79621 31.136C9.25474 30.9899 8.93584 30.4351 9.07868 29.8936C9.22485 29.3555 9.7796 29.0333 10.3211 29.1794L14.9385 30.4152C15.48 30.5613 15.7989 31.1161 15.6527 31.6576C15.5331 32.1093 15.1245 32.4083 14.6761 32.4083ZM50.6422 36.9992H45.8587C45.3006 36.9992 44.8455 36.5441 44.8455 35.986C44.8455 35.4246 45.3006 34.9728 45.8587 34.9728H50.6422C51.2003 34.9728 51.6554 35.4246 51.6554 35.986C51.6554 36.5441 51.2003 36.9992 50.6422 36.9992ZM49.8084 42.8092C49.722 42.8092 49.6323 42.7992 49.546 42.7759L44.9252 41.5369C44.3871 41.394 44.0648 40.836 44.211 40.2978C44.3538 39.7563 44.9119 39.4341 45.4501 39.5803L50.0675 40.8193C50.609 40.9622 50.9312 41.5169 50.785 42.0584C50.6654 42.5102 50.2535 42.8092 49.8084 42.8092Z" fill="white"/>
</svg>
