<svg width="60" height="60" viewBox="0 0 60 60" fill="none" xmlns="http://www.w3.org/2000/svg">
<g clip-path="url(#clip0_1711_1645)">
<path d="M32.3807 23.6766L29.6525 21.3711L30.0054 17.8164C30.0443 17.424 29.8605 17.0506 29.5257 16.8419C29.1911 16.6333 28.7748 16.6327 28.4394 16.8406L25.4036 18.7226L22.1322 17.2888C21.7707 17.1304 21.3589 17.1897 21.057 17.4436C20.755 17.6977 20.6258 18.0936 20.72 18.4765L21.5719 21.9454L19.1974 24.6134C18.935 24.9081 18.8641 25.3183 19.0123 25.684C19.1604 26.0497 19.497 26.2948 19.8904 26.3236L23.4527 26.5854L25.2567 29.6686C25.4433 29.9874 25.778 30.1777 26.1428 30.1777C26.1675 30.1777 26.1926 30.1768 26.2175 30.1751C26.6109 30.1471 26.948 29.903 27.0972 29.5376L28.4469 26.2305L31.937 25.4675C32.3222 25.383 32.6204 25.0926 32.7152 24.7099C32.81 24.3271 32.6818 23.9313 32.3807 23.6766ZM27.703 24.602C27.3721 24.6745 27.0981 24.905 26.9702 25.2183L26.0292 27.5239L24.7712 25.374C24.6002 25.0823 24.297 24.8933 23.959 24.8682L21.4755 24.6857L23.1313 22.8251C23.3562 22.5722 23.4422 22.225 23.3616 21.8962L22.7677 19.4779L25.0478 20.4772C25.3579 20.6134 25.7149 20.5881 26.0034 20.4095L28.12 19.0974L27.8741 21.5753C27.8406 21.9124 27.975 22.2441 28.2338 22.4629L30.1357 24.0701L27.703 24.602Z" fill="#0162CA"/>
<path d="M57.6495 45.3331L54.7333 42.7572C53.9895 42.1003 52.8559 42.0866 52.0964 42.7252L51.9657 42.8352C51.8368 42.3707 51.6012 41.931 51.2556 41.5588C50.8334 41.104 50.2973 40.7929 49.7066 40.653C50.0473 39.6067 49.8271 38.4108 49.0271 37.5489C48.458 36.9359 47.6843 36.5813 46.8485 36.5505C46.8234 36.5495 46.7984 36.5499 46.7733 36.5495C46.8116 35.7381 46.5377 34.9126 45.9428 34.2718C45.3808 33.6662 44.6189 33.3135 43.7949 33.2751C43.8692 32.4238 43.598 31.5456 42.9723 30.8717C42.4033 30.2587 41.6296 29.9041 40.7938 29.8732C39.9578 29.8417 39.1602 30.1388 38.5475 30.708L38.1321 31.0937C37.5289 30.6583 36.8071 30.411 36.0406 30.3858C35.944 30.3825 35.848 30.3839 35.7524 30.3877L36.0637 29.3491C36.6218 27.4862 36.9692 24.1093 36.9589 24.2904C36.989 24.305 37.0185 24.3201 37.0493 24.3338C37.4775 24.5248 37.9389 24.6197 38.3984 24.6197C38.9252 24.6197 39.4494 24.4949 39.918 24.2468C40.8933 23.7305 41.5855 22.6512 41.6406 21.561C41.693 20.5235 41.2044 19.6075 40.2651 18.9814C39.8629 18.7136 39.3197 18.8221 39.0518 19.2242C38.7839 19.6262 38.8927 20.1694 39.2948 20.4374C39.7125 20.7157 39.9139 21.064 39.8931 21.4726C39.8689 21.9534 39.535 22.4697 39.0993 22.7003C38.6998 22.9119 38.1875 22.9254 37.7621 22.7356C37.4904 22.6145 37.1383 22.3568 37.0035 21.8174C36.6021 20.2109 37.5225 18.6163 38.5881 16.7701C40.5183 13.426 42.9204 9.26429 37.8921 3.32101L35.8097 0.859602C35.3903 0.363782 34.803 0.0615554 34.1559 0.00835223C33.5087 -0.0448509 32.8799 0.157415 32.3852 0.578118C31.0435 1.71894 30.346 3.4464 30.5192 5.19894L30.6231 6.25034C30.6764 6.78952 30.4688 7.31921 30.0692 7.68179L31.1966 9.02241C32.0379 8.28765 32.4744 7.19171 32.3643 6.0782L32.2603 5.02679C32.1435 3.84507 32.6138 2.68034 33.5185 1.91113C33.6564 1.79382 33.8312 1.7371 34.0124 1.75222C34.1929 1.76699 34.3567 1.85136 34.4738 1.98964L36.5562 4.45105C40.7897 9.45507 38.9841 12.5835 37.0725 15.8953C36.7735 16.4134 36.4721 16.9363 36.1994 17.4665C35.4764 14.9821 34.2665 12.6723 32.5935 10.6833L28.5892 5.92234L28.6117 5.90347C28.933 5.63323 29.1299 5.25413 29.166 4.83589C29.2021 4.41753 29.0732 4.01031 28.803 3.68909L27.5235 2.16788C27.2533 1.84656 26.8742 1.64968 26.4559 1.61359C26.0377 1.57761 25.6305 1.70628 25.309 1.97652L5.08984 18.9819C4.42667 19.5396 4.34089 20.5329 4.89859 21.1963L6.17804 22.7175C6.44828 23.0389 6.82738 23.2357 7.24574 23.2718C7.29191 23.2758 7.33785 23.2778 7.38355 23.2778C7.75281 23.2778 8.10671 23.1493 8.39242 22.9088L8.41503 22.8897L9.9189 24.6778C9.49538 25.0041 8.94343 25.1164 8.42546 24.9744L7.40675 24.6948C5.70871 24.2287 3.8882 24.625 2.53749 25.7553C2.03956 26.1721 1.73406 26.7577 1.67746 27.4047C1.62074 28.0516 1.81972 28.6813 2.23773 29.1783L4.313 31.6457C9.32382 37.6036 13.831 35.9375 17.4525 34.5985C19.0869 33.9942 20.5391 33.4575 21.843 33.6457C22.085 33.7138 22.3285 33.7782 22.5739 33.8375C22.6143 33.8533 22.6546 33.8696 22.6948 33.8871C23.2037 34.1107 23.3984 34.5013 23.4721 34.7895C23.5874 35.2407 23.4877 35.7434 23.2118 36.1016C22.9111 36.4922 22.3459 36.7337 21.8679 36.6771C21.4616 36.6286 21.1523 36.3715 20.9482 35.9128C20.7519 35.4714 20.235 35.2729 19.7932 35.4691C19.3518 35.6653 19.153 36.1824 19.3493 36.6239C19.8081 37.6554 20.6289 38.2914 21.6603 38.4146C21.7742 38.4282 21.8889 38.4348 22.0041 38.4348C22.9864 38.4347 23.9955 37.9517 24.5979 37.1692C25.2035 36.3829 25.4164 35.3312 25.1671 34.3562C25.1614 34.334 25.1544 34.3123 25.1482 34.2903C25.9439 34.3799 26.7511 34.427 27.5671 34.427C28.4411 34.427 29.3252 34.3748 30.2137 34.2687L30.2911 34.2594C29.8927 34.7348 29.5825 35.2811 29.382 35.8666L25.9429 44.3259L7.59812 58.4316C7.30117 58.6599 7.18246 59.0521 7.30316 59.4067C7.42374 59.7614 7.75679 60 8.13144 60H28.9172C29.1532 60 29.3793 59.9046 29.5439 59.7357L30.7016 58.547C31.0388 58.2009 31.0315 57.6469 30.6853 57.3098C30.3392 56.9727 29.7852 56.9799 29.4482 57.326L28.5481 58.2503H10.7046L27.1978 45.5686C27.21 45.5592 27.2209 45.5491 27.2324 45.5392C27.2403 45.5325 27.2484 45.5261 27.256 45.5191C27.2839 45.4935 27.3098 45.4666 27.3337 45.4382C27.3384 45.4326 27.3427 45.4266 27.3473 45.4207C27.3691 45.3935 27.389 45.3653 27.4071 45.336C27.4105 45.3305 27.4143 45.3252 27.4176 45.3196C27.4382 45.2847 27.456 45.2487 27.4715 45.2117C27.4725 45.2092 27.4741 45.207 27.475 45.2045L31.0131 36.5017C31.0199 36.485 31.0262 36.468 31.032 36.4509C31.2038 35.9394 31.5039 35.4723 31.8998 35.0997L34.4126 32.7346C34.8441 32.3284 35.4005 32.1151 35.9828 32.1346C36.5325 32.1528 37.0378 32.3802 37.4056 32.7753L37.4991 32.8757L37.4992 32.8758L37.4993 32.8759L40.5729 36.1772L40.5732 36.1776L40.5735 36.1779L40.5736 36.178C40.5739 36.1783 40.574 36.1785 40.5742 36.1787C40.5744 36.179 40.5747 36.1792 40.5749 36.1794L41.0104 36.6471C41.1939 36.8442 41.2893 37.1046 41.2793 37.3803C41.2687 37.6763 41.1402 37.9532 40.9179 38.1598L40.4113 38.6305C40.0608 38.9561 39.5628 39.0176 39.1761 38.8205C39.166 38.815 39.1554 38.8104 39.145 38.8053C39.0552 38.7555 38.972 38.6912 38.8988 38.6126L37.623 37.2401C37.167 36.7497 36.544 36.4671 35.8689 36.4446C35.1771 36.422 34.5143 36.6728 34.005 37.1521C33.9576 37.1969 33.9156 37.2462 33.8798 37.2993C33.7901 37.4319 33.7382 37.5873 33.7307 37.7485C33.7292 37.7807 33.7295 37.8132 33.7316 37.8457C33.7318 37.8469 33.7318 37.8481 33.7318 37.8493C33.736 37.9157 33.7389 37.9814 33.7407 38.0468C33.7416 38.0836 33.7415 38.1201 33.7417 38.1566C33.7419 38.1848 33.7424 38.213 33.7421 38.2409C33.7416 38.2875 33.74 38.3337 33.7382 38.3798C33.7376 38.3965 33.7371 38.4133 33.7363 38.43C33.7337 38.4821 33.7301 38.5337 33.7259 38.585C33.7253 38.5916 33.7248 38.5984 33.7243 38.6051C33.7218 38.627 33.7198 38.6489 33.719 38.671C33.6373 39.481 33.3446 40.2059 32.833 40.8698C32.5381 41.2525 32.6093 41.8019 32.9921 42.0967C33.3747 42.3916 33.9242 42.3203 34.219 41.9376C34.5221 41.5443 34.7706 41.13 34.9659 40.6967L42.4071 50.8743L42.2296 51.0236C42.1185 51.0617 42.0132 51.1224 41.9213 51.207C41.3029 51.7759 40.546 52.1594 39.73 52.3178L34.2514 52.7116C34.0376 52.7269 33.8369 52.8202 33.6873 52.9737L32.2887 54.4097C31.9516 54.7559 31.9588 55.3098 32.305 55.647C32.475 55.8126 32.6952 55.8951 32.9153 55.8951C33.143 55.8951 33.3706 55.8067 33.542 55.6307L34.7085 54.4329L39.9054 54.0596C39.9154 54.0589 39.9251 54.0569 39.935 54.0558C39.9576 54.3692 40.0513 54.6798 40.2238 54.9604L42.2617 58.2748C42.5698 58.7759 43.0794 59.117 43.66 59.2108C43.7676 59.2282 43.8754 59.2368 43.9826 59.2368C44.4546 59.2368 44.9152 59.0713 45.282 58.7628L57.6122 48.3926C58.0623 48.0141 58.3245 47.4597 58.3318 46.8715C58.339 46.2831 58.0902 45.7226 57.6495 45.3331ZM16.846 32.9574C13.259 34.2835 9.87109 35.5359 5.65234 30.5196L3.57706 28.0523C3.46058 27.9136 3.40503 27.738 3.42085 27.5575C3.43667 27.377 3.52187 27.2135 3.66085 27.0974C4.57152 26.3353 5.79906 26.0682 6.94398 26.3823L7.96269 26.6619C9.03566 26.9562 10.1826 26.7153 11.0469 26.0189L12.4194 27.6509C14.0964 29.6448 16.1704 31.2358 18.5009 32.3744C17.9461 32.5509 17.3936 32.7549 16.846 32.9574ZM34.3873 28.8468L33.7267 31.0512C33.5467 31.1724 33.3747 31.3084 33.2132 31.4603L32.3761 32.2482L30.0064 32.5313C23.6362 33.2924 17.5618 31.0468 13.7584 26.5246L9.75425 21.7636L11.3174 20.4489C11.6873 20.1379 11.7348 19.5859 11.4238 19.2162C11.1129 18.8464 10.5609 18.7984 10.1911 19.1097L7.95871 20.9871L7.95835 20.9874L7.958 20.9877L7.40253 21.455L6.3523 20.2063L26.2993 3.43023L27.3495 4.67898L26.7948 5.1455C26.7945 5.14585 26.794 5.14609 26.7937 5.14632C26.7933 5.14656 26.793 5.14702 26.7926 5.14726L13.3466 16.4559C12.9769 16.767 12.9292 17.3188 13.2402 17.6885C13.5511 18.0584 14.103 18.1057 14.4729 17.7951L27.2503 7.04851L31.2545 11.8095C35.058 16.3319 36.229 22.701 34.3873 28.8468ZM49.0357 42.3196C49.3954 42.333 49.7284 42.4855 49.9732 42.7493C50.3907 43.1991 50.4478 43.873 50.1235 44.3846L46.3115 47.5907C45.9009 47.6251 45.5021 47.4737 45.2169 47.1666C44.7118 46.6224 44.7434 45.7685 45.2873 45.2631L45.8396 44.75C45.9405 44.6764 46.0381 44.597 46.131 44.5108L48.2645 42.5288C48.4928 42.3836 48.7586 42.3106 49.0357 42.3196ZM45.8961 38.5804C46.1362 38.3969 46.4268 38.298 46.7314 38.298C46.7487 38.298 46.7662 38.2983 46.7836 38.2989C47.1523 38.3126 47.4935 38.4689 47.7446 38.7393C48.2624 39.297 48.2301 40.1723 47.6725 40.6902L47.1686 41.1584C47.0679 41.2317 46.9707 41.3106 46.878 41.3968L44.7419 43.3812C44.5073 43.5316 44.2333 43.6081 43.9492 43.5969C43.5805 43.5832 43.2393 43.4269 42.9883 43.1566C42.5044 42.6353 42.5012 41.837 42.958 41.312C42.9878 41.2864 43.0176 41.2605 43.0465 41.2336L45.779 38.6951C45.8194 38.6576 45.8582 38.6194 45.8961 38.5804ZM41.2589 34.3465L39.3773 32.3254L39.7383 31.9899C40.0086 31.7389 40.3603 31.6105 40.729 31.6217C41.0977 31.6354 41.4389 31.7917 41.69 32.0621C42.2078 32.6198 42.1753 33.495 41.6178 34.0131L41.2589 34.3465ZM41.6022 39.9126L42.1089 39.4417C42.6739 38.9169 43.0002 38.2073 43.0279 37.4438C43.0519 36.7807 42.8457 36.1473 42.4444 35.6353L42.7087 35.3898C42.9789 35.1388 43.33 35.0073 43.6994 35.0216C44.0679 35.0353 44.4092 35.1917 44.6602 35.462C45.1443 35.9835 45.1472 36.7821 44.6901 37.3073C44.6604 37.3328 44.6309 37.3584 44.6021 37.3851L41.8696 39.9236C41.8292 39.9612 41.79 39.9996 41.7521 40.0388C41.5465 40.196 41.3035 40.29 41.0469 40.3136C41.2428 40.2039 41.4302 40.0723 41.6022 39.9126ZM35.4868 38.4444C35.4893 38.3785 35.4917 38.3126 35.4923 38.246C35.5175 38.2366 35.5432 38.2284 35.5693 38.2213C35.6474 38.2003 35.7286 38.1909 35.8107 38.1938C36.0167 38.2006 36.2051 38.2853 36.3415 38.4319L37.6173 39.8043C37.7479 39.9447 37.89 40.0683 38.0409 40.1752C38.1814 40.5052 38.3758 40.8052 38.6216 41.07C39.1907 41.683 39.9644 42.0376 40.8003 42.0686C40.8255 42.0694 40.8504 42.0696 40.8755 42.07C40.8373 42.8812 41.1113 43.7065 41.706 44.3472C42.1323 44.8064 42.6735 45.1206 43.2696 45.2624C42.9214 46.303 43.1369 47.498 43.9344 48.3571C44.1571 48.5969 44.414 48.7962 44.6935 48.9515L43.7493 49.7455L35.4868 38.4444ZM56.4859 47.0533L44.1557 57.4234C44.0734 57.4928 43.9844 57.4906 43.939 57.4833C43.8934 57.4759 43.8086 57.4499 43.7522 57.3583L41.7143 54.0437C41.6438 53.929 41.6673 53.7828 41.7705 53.696L53.2219 44.0648C53.2224 44.0644 53.2219 44.0648 53.2224 44.0644C53.2722 44.0225 53.3342 44.0015 53.3961 44.0015C53.4602 44.0015 53.5241 44.024 53.5746 44.0686L56.4909 46.6445C56.5715 46.7158 56.5826 46.8039 56.582 46.8502C56.5817 46.8962 56.5683 46.9841 56.4859 47.0533Z" fill="#0162CA"/>
</g>
<defs>
<clipPath id="clip0_1711_1645">
<rect width="60" height="60" fill="white"/>
</clipPath>
</defs>
</svg>
