<svg width="50" height="50" viewBox="0 0 50 50" fill="none" xmlns="http://www.w3.org/2000/svg">
<g clip-path="url(#clip0_614_1752)">
<path d="M14.8018 20.4033C14.6201 20.2217 14.3682 20.1172 14.1113 20.1172C13.8545 20.1172 13.6026 20.2216 13.4209 20.4033C13.2393 20.585 13.1348 20.8369 13.1348 21.0937C13.1348 21.3506 13.2393 21.6025 13.4209 21.7841C13.6025 21.9657 13.8545 22.0703 14.1113 22.0703C14.3682 22.0703 14.6201 21.9658 14.8018 21.7841C14.9834 21.6025 15.0879 21.3506 15.0879 21.0937C15.0879 20.8369 14.9834 20.585 14.8018 20.4033Z" fill="#0162CA"/>
<path d="M47.0703 0H8.20329C6.58787 0 5.27361 1.31425 5.27361 2.92968V19.1405C5.27361 20.756 6.58787 22.0702 8.20329 22.0702H9.96109C10.5004 22.0702 10.9377 21.6329 10.9377 21.0937C10.9377 20.5544 10.5004 20.1171 9.96109 20.1171H8.20329C7.66481 20.1171 7.22673 19.679 7.22673 19.1405V2.92968C7.22673 2.3912 7.66481 1.95312 8.20329 1.95312H47.0703C47.6088 1.95312 48.0469 2.3912 48.0469 2.92968V19.1405C48.0469 19.679 47.6088 20.1171 47.0703 20.1171H40.5384C40.2794 20.1171 40.031 20.22 39.8479 20.4031L36.6322 23.6189L33.4165 20.4031C33.2334 20.22 32.9849 20.1171 32.7259 20.1171H25.1103C25.0385 19.9327 24.9573 19.7508 24.8654 19.5723C24.1662 18.2138 22.976 17.2209 21.5143 16.7765L20.1024 16.3472C19.6053 16.1958 19.0768 16.4607 18.9 16.9492L16.6815 23.081C16.0661 24.7816 14.8525 26.1945 13.2642 27.0595L11.1816 28.1934C10.6698 27.5722 9.89488 27.1754 9.02897 27.1754H2.78876C1.25126 27.1754 0.000488304 28.4263 0.000488304 29.9637V47.2113C0.000292992 48.7489 1.25117 49.9998 2.78866 49.9998H9.02887C10.0009 49.9998 10.8579 49.4995 11.3571 48.7432L12.3536 49.134C13.8186 49.7087 15.3595 50 16.9334 50H30.1099C32.087 50 33.6954 48.3916 33.6954 46.4146C33.6954 45.7602 33.5183 45.1467 33.2108 44.6181C34.6653 44.161 35.7234 42.8002 35.7234 41.1968C35.7234 40.5258 35.5377 39.8975 35.2156 39.3599C36.6082 38.8673 37.6087 37.5381 37.6087 35.979C37.6087 34.3549 36.523 32.9804 35.0396 32.5412C35.3413 32.0162 35.5147 31.4087 35.5147 30.761C35.5147 28.7841 33.9063 27.1756 31.9293 27.1756H24.0984L25.1936 23.9242C25.3982 23.3164 25.4951 22.6914 25.4885 22.0703H32.3215L35.9417 25.6905C36.1324 25.8811 36.3823 25.9766 36.6322 25.9766C36.8821 25.9766 37.1321 25.8811 37.3227 25.6905L40.943 22.0702H47.0703C48.6857 22.0702 50 20.756 50 19.1405V2.92968C50 1.31425 48.6857 0 47.0703 0ZM9.86412 47.2114C9.86403 47.672 9.48942 48.0467 9.02887 48.0467H2.78866C2.32812 48.0467 1.95351 47.672 1.95351 47.2114V29.9638C1.95351 29.5033 2.32812 29.1286 2.78866 29.1286H4.93221V41.1521C4.93221 41.6913 5.36941 42.1286 5.90877 42.1286C6.44812 42.1286 6.88532 41.6913 6.88532 41.1521V29.1286H9.02887C9.39362 29.1286 9.70367 29.364 9.81725 29.6906C9.82535 29.7379 9.83707 29.7847 9.8525 29.8311C9.85943 29.8745 9.86412 29.9185 9.86412 29.9638V47.2114ZM31.9294 29.1285V29.1286C32.8295 29.1286 33.5617 29.8608 33.5617 30.7609C33.5617 31.661 32.8295 32.3933 31.9294 32.3933H26.6314C26.0921 32.3933 25.6549 32.8306 25.6549 33.3699C25.6549 33.9091 26.0921 34.3464 26.6314 34.3464L34.0234 34.3466C34.9235 34.3466 35.6557 35.0789 35.6557 35.979C35.6557 36.8791 34.9235 37.6114 34.0234 37.6114H26.6314C26.0921 37.6114 25.6549 38.0487 25.6549 38.5879C25.6549 39.1272 26.0921 39.5645 26.6314 39.5645H32.1381C33.0382 39.5645 33.7704 40.2967 33.7704 41.1968C33.7704 42.0969 33.0382 42.8291 32.1381 42.8291H26.6314C26.0921 42.8291 25.6549 43.2664 25.6549 43.8057C25.6549 44.3449 26.0921 44.7822 26.6314 44.7822H30.11C31.0101 44.7822 31.7424 45.5146 31.7424 46.4147C31.7424 47.3148 31.0101 48.047 30.11 48.047H16.9334C15.6046 48.047 14.3037 47.8009 13.0666 47.3158L11.8171 46.8258V30.0713L14.1981 28.7748C16.206 27.6814 17.7401 25.8954 18.5179 23.7455L20.4211 18.4856L20.9461 18.6451C21.8983 18.9347 22.6734 19.5814 23.1289 20.4661C23.5844 21.3509 23.6603 22.3576 23.3426 23.3007L21.8136 27.8402C21.7132 28.1383 21.7625 28.4664 21.9459 28.7217C22.1294 28.977 22.4245 29.1285 22.7391 29.1285H31.9294Z" fill="#0162CA"/>
<path d="M45.5271 9.47035C45.3422 8.9016 44.8596 8.49486 44.2676 8.40902L42.5402 8.15854L41.7673 6.5936C41.5025 6.05737 40.9666 5.72437 40.3686 5.72437H40.3682C39.77 5.72456 39.2341 6.05786 38.9696 6.59428L38.1975 8.15971L36.4701 8.41117C35.8783 8.4974 35.3958 8.90433 35.2112 9.47328C35.0265 10.0421 35.1779 10.6549 35.6064 11.0724L36.8566 12.2904L36.5619 14.0108C36.461 14.6004 36.6989 15.1849 37.1829 15.5364C37.4564 15.735 37.7761 15.8358 38.0982 15.8358C38.3462 15.8358 38.5956 15.7759 38.826 15.6547L40.3708 14.842L41.916 15.6538C42.4455 15.9319 43.075 15.8863 43.5589 15.5346C44.0427 15.1828 44.2803 14.5982 44.179 14.0086L43.8835 12.2884L45.1332 11.0697C45.561 10.6519 45.7121 10.0391 45.5271 9.47035ZM42.3716 11.0345C42.0039 11.393 41.8364 11.9093 41.9234 12.4155L42.119 13.5543L41.0956 13.0166C40.6409 12.7781 40.0983 12.7781 39.6441 13.0172L38.6213 13.5553L38.8163 12.4163C38.903 11.91 38.7352 11.3938 38.3673 11.0355L37.5395 10.229L38.6831 10.0625C39.1914 9.98861 39.6304 9.66947 39.8574 9.20892L40.3687 8.1725L40.8804 9.20863C41.1078 9.66908 41.547 9.98792 42.0552 10.0617L43.1988 10.2275L42.3716 11.0345Z" fill="#0162CA"/>
<path d="M33.1043 9.47035C32.9192 8.9016 32.4367 8.49496 31.8447 8.40902L30.1174 8.15854L29.3444 6.5936C29.0796 6.05737 28.5438 5.72437 27.9457 5.72437H27.9453C27.3472 5.72456 26.8112 6.05786 26.5466 6.59438L25.7746 8.15971L24.0473 8.41117C23.4554 8.4974 22.973 8.90433 22.7883 9.47328C22.6037 10.0421 22.755 10.6549 23.1835 11.0724L24.4337 12.2904L24.1391 14.0108C24.0381 14.6004 24.2761 15.185 24.7601 15.5364C25.0334 15.735 25.3532 15.8358 25.6752 15.8358C25.9233 15.8358 26.1726 15.7759 26.403 15.6547L27.9478 14.842L29.4931 15.6538C30.0227 15.9319 30.652 15.8863 31.1359 15.5346C31.6197 15.1828 31.8573 14.5982 31.7561 14.0086L31.4605 12.2884L32.7103 11.0697C33.1383 10.6519 33.2894 10.0392 33.1043 9.47035ZM29.9487 11.0345C29.5811 11.393 29.4136 11.9093 29.5005 12.4155L29.6961 13.5543L28.6728 13.0167C28.218 12.778 27.6753 12.7782 27.2211 13.0172L26.1984 13.5553L26.3934 12.4163C26.4801 11.91 26.3122 11.3938 25.9444 11.0355L25.1165 10.229L26.2601 10.0625C26.7683 9.98861 27.2072 9.66956 27.4346 9.20882L27.9457 8.1724L28.4573 9.20843C28.6847 9.66898 29.1239 9.98792 29.6322 10.0617L30.7759 10.2275L29.9487 11.0345Z" fill="#0162CA"/>
<path d="M20.681 9.47035C20.496 8.9016 20.0134 8.49486 19.4215 8.40902L17.6941 8.15854L16.9212 6.5936C16.6563 6.05737 16.1205 5.72437 15.5225 5.72437H15.5221C14.9239 5.72456 14.3879 6.05786 14.1233 6.59438L13.3514 8.15971L11.624 8.41117C11.032 8.4974 10.5497 8.90443 10.365 9.47337C10.1803 10.0422 10.3318 10.655 10.7602 11.0724L12.0104 12.2904L11.7157 14.0108C11.6148 14.6004 11.8527 15.185 12.3367 15.5364C12.6101 15.735 12.9299 15.8358 13.2519 15.8358C13.4999 15.8358 13.7492 15.7759 13.9796 15.6547L15.5244 14.842L17.0696 15.6538C17.5991 15.9319 18.2286 15.8863 18.7125 15.5346C19.1963 15.1828 19.4339 14.5982 19.3326 14.0086L19.0371 12.2884L20.2868 11.0697C20.715 10.6519 20.866 10.0392 20.681 9.47035ZM17.5255 11.0345C17.1578 11.393 16.9903 11.9093 17.0772 12.4155L17.2728 13.5543L16.2495 13.0167C15.7948 12.778 15.252 12.7782 14.7979 13.0172L13.7751 13.5553L13.9702 12.416C14.0567 11.9099 13.8889 11.3939 13.5211 11.0355L12.6933 10.229L13.8368 10.0625C14.345 9.98861 14.784 9.66956 15.0113 9.20882L15.5225 8.1724L16.0341 9.20843C16.2614 9.66898 16.7007 9.98792 17.209 10.0617L18.3527 10.2275L17.5255 11.0345Z" fill="#0162CA"/>
<path d="M5.90869 43.6873C5.36933 43.6873 4.93213 44.1246 4.93213 44.6638V44.679C4.93213 45.2183 5.36933 45.6556 5.90869 45.6556C6.44804 45.6556 6.88525 45.2183 6.88525 44.679V44.6638C6.88525 44.1246 6.44804 43.6873 5.90869 43.6873Z" fill="#0162CA"/>
</g>
<defs>
<clipPath id="clip0_614_1752">
<rect width="50" height="50" fill="white"/>
</clipPath>
</defs>
</svg>
