<svg width="40" height="40" viewBox="0 0 40 40" fill="none" xmlns="http://www.w3.org/2000/svg">
<path fill-rule="evenodd" clip-rule="evenodd" d="M26.4333 33.5632L26.4533 33.5432L30.1767 29.8198C30.3767 29.6232 30.4567 29.3332 30.3867 29.0598C30.33 28.8365 30.1933 28.5532 29.9667 28.2498C29.59 27.7365 28.92 27.0932 28.1333 26.4598C26.9867 25.5365 25.5833 24.6298 24.51 24.1698C23.95 23.9265 23.4567 23.8032 23.1 23.8032C22.8067 23.8032 22.54 23.9598 22.4 24.2165L20.1767 28.2165C19.5633 28.5598 18.82 28.5632 18.0267 28.3598C17.02 28.1032 15.9467 27.5165 14.9267 26.7432C13.0367 25.3065 11.32 23.2198 10.5233 21.2165C10.09 20.1265 9.92 19.0665 10.24 18.1898C10.24 18.1865 14.1833 15.9998 14.1833 15.9998C14.4367 15.8598 14.5967 15.5898 14.5967 15.2998C14.5967 14.9432 14.4733 14.4498 14.23 13.8865C13.7667 12.8165 12.8633 11.4132 11.94 10.2665C11.3067 9.47651 10.6633 8.80984 10.15 8.42984C9.84333 8.20318 9.56333 8.06651 9.33666 8.01318C9.06666 7.94318 8.77666 8.02318 8.57666 8.22318L4.85666 11.9432C3.48333 13.3165 2.97333 15.7332 3.27666 18.4898C3.7 22.3698 5.68333 26.9265 8.57666 29.8198C11.4667 32.7098 16.0167 34.6932 19.89 35.1232C22.6433 35.4298 25.06 34.9265 26.4333 33.5632ZM25.3233 32.4098L25.3067 32.4265C24.2133 33.5098 22.26 33.7765 20.0667 33.5332C16.52 33.1398 12.3533 31.3332 9.71 28.6898C7.06 26.0398 5.25333 21.8665 4.86666 18.3165C4.62666 16.1232 4.89666 14.1665 5.98666 13.0765L9.28333 9.77984C9.31 9.80318 9.34 9.82651 9.36666 9.85318C9.76666 10.1865 10.23 10.6932 10.6933 11.2698C11.41 12.1598 12.1167 13.2165 12.57 14.1098C12.71 14.3932 12.8333 14.6532 12.91 14.8765L9.22333 16.9232C9.08 17.0032 8.96333 17.1265 8.89333 17.2765C8.27666 18.5565 8.38 20.1565 9.03666 21.8065C9.93 24.0565 11.8367 26.4065 13.96 28.0165C15.42 29.1265 16.9833 29.8798 18.38 30.0532C19.44 30.1865 20.4133 29.9998 21.2267 29.4465C21.33 29.3765 21.4167 29.2832 21.4767 29.1732L23.5233 25.4898C23.7467 25.5665 24.0067 25.6865 24.2867 25.8298C25.1833 26.2832 26.24 26.9898 27.13 27.7065C27.7067 28.1698 28.2133 28.6332 28.5467 29.0298C28.5733 29.0598 28.5967 29.0898 28.62 29.1165L25.3233 32.4098Z" fill="#0162CA"/>
<path fill-rule="evenodd" clip-rule="evenodd" d="M32.8 3.19995H18.4C17.0767 3.19995 16 4.27662 16 5.59995V15.2C16 16.5233 17.0767 17.6 18.4 17.6H19.3267C18.8933 18.6666 18.31 20.2133 18.2233 21.0166C18.12 21.9966 18.67 22.4 19.2 22.4C19.7833 22.4 20.7367 21.9433 21.74 21.21C23.34 20.04 25.1933 18.2433 25.8433 17.6H32.8C34.1233 17.6 35.2 16.5233 35.2 15.2V5.59995C35.2 4.27662 34.1233 3.19995 32.8 3.19995ZM19.98 20.4633C19.99 20.4233 20 20.3833 20.0133 20.3466C20.4267 18.9766 21.2633 17.13 21.2633 17.13C21.3733 16.88 21.3533 16.5933 21.2067 16.3666C21.0567 16.1366 20.8033 16 20.5333 16H18.4C17.96 16 17.6 15.64 17.6 15.2V5.59995C17.6 5.15995 17.96 4.79995 18.4 4.79995H32.8C33.24 4.79995 33.6 5.15995 33.6 5.59995V15.2C33.6 15.64 33.24 16 32.8 16H25.51C25.2967 16 25.09 16.0866 24.94 16.24C24.94 16.24 22.6867 18.54 20.7967 19.9166C20.5133 20.1233 20.2367 20.31 19.98 20.4633Z" fill="#0162CA"/>
<path fill-rule="evenodd" clip-rule="evenodd" d="M22.4 7.9999H31.2C31.64 7.9999 32 7.6399 32 7.1999C32 6.7599 31.64 6.3999 31.2 6.3999H22.4C21.96 6.3999 21.6 6.7599 21.6 7.1999C21.6 7.6399 21.96 7.9999 22.4 7.9999Z" fill="#0162CA"/>
<path fill-rule="evenodd" clip-rule="evenodd" d="M28.8 12.8H20C19.56 12.8 19.2 13.16 19.2 13.6C19.2 14.04 19.56 14.4 20 14.4H28.8C29.24 14.4 29.6 14.04 29.6 13.6C29.6 13.16 29.24 12.8 28.8 12.8Z" fill="#0162CA"/>
<path fill-rule="evenodd" clip-rule="evenodd" d="M20 11.1999H31.2C31.64 11.1999 32 10.8399 32 10.3999C32 9.95985 31.64 9.59985 31.2 9.59985H20C19.56 9.59985 19.2 9.95985 19.2 10.3999C19.2 10.8399 19.56 11.1999 20 11.1999Z" fill="#0162CA"/>
<path fill-rule="evenodd" clip-rule="evenodd" d="M20 7.9999C20.44 7.9999 20.8 7.6399 20.8 7.1999C20.8 6.7599 20.44 6.3999 20 6.3999C19.56 6.3999 19.2 6.7599 19.2 7.1999C19.2 7.6399 19.56 7.9999 20 7.9999Z" fill="#0162CA"/>
<path fill-rule="evenodd" clip-rule="evenodd" d="M31.2 14.4C30.76 14.4 30.4 14.04 30.4 13.6C30.4 13.16 30.76 12.8 31.2 12.8C31.64 12.8 32 13.16 32 13.6C32 14.04 31.64 14.4 31.2 14.4Z" fill="#0162CA"/>
</svg>
