<svg width="70" height="55" viewBox="0 0 70 55" fill="none" xmlns="http://www.w3.org/2000/svg">
<path opacity="0.6" d="M46.7508 53.7237L44.2939 50.0742C50.3698 46.4869 54.167 42.4341 56.5515 38.4806C59.054 34.3316 59.9692 30.3441 60.3737 27.2242L60.6437 25.1421L58.8569 26.2446C57.1435 27.3018 54.645 27.6999 52.0555 27.3194L52.0396 27.3171L52.0236 27.3153C45.4297 26.5619 40.3258 21.3097 40.3258 14.1544C40.3258 10.8062 41.7744 7.39863 44.002 4.71389C46.5453 2.11128 49.4184 1 53.0899 1C57.1091 1 60.782 2.88355 62.9746 5.1289C66.7446 9.39933 69 14.0177 69 21.8382C69 35.2449 59.852 47.2737 46.7508 53.7237ZM7.42492 53.7237L4.96802 50.0742C11.044 46.4869 14.8412 42.4341 17.2257 38.4806C19.7282 34.3316 20.6434 30.3441 21.0479 27.2242L21.3178 25.1421L19.5311 26.2446C17.8177 27.3018 15.3192 27.6999 12.7296 27.3194L12.7137 27.3171L12.6978 27.3153C6.12186 26.5639 1 20.9231 1 14.1544C1 10.8062 2.4486 7.39862 4.67621 4.71388C7.21949 2.11128 10.0926 1 13.764 1C17.7833 1 21.4562 2.88355 23.6488 5.1289C27.4188 9.39933 29.6742 14.0177 29.6742 21.8382C29.6742 35.2449 20.5262 47.2737 7.42492 53.7237Z" stroke="#0162CA" stroke-width="2"/>
</svg>
