<svg width="51" height="47" viewBox="0 0 51 47" fill="none" xmlns="http://www.w3.org/2000/svg">
<path d="M16.3765 46.7835C16.5244 46.7869 18.0314 46.7898 18.0863 46.7887C25.4741 46.5789 31.3259 40.9699 32.1337 33.5462C32.9197 33.8458 33.7263 34.0882 34.5472 34.2715C34.6674 34.2985 34.7922 34.2985 34.9124 34.2715C35.074 34.2352 38.9152 33.3398 42.7803 29.7883C45.0413 27.7106 46.8428 25.1489 48.1354 22.1743C49.738 18.4855 50.5547 14.1516 50.5625 9.29315C50.5628 9.14429 50.5231 8.99808 50.4477 8.86972C50.3724 8.74136 50.264 8.63554 50.1338 8.56325L35.1338 0.229861C35.01 0.161089 34.8707 0.125 34.7291 0.125C34.5875 0.125 34.4482 0.161089 34.3244 0.229861L19.3243 8.56325C19.1947 8.63532 19.0867 8.74067 19.0114 8.86843C18.9361 8.99619 18.8962 9.14173 18.8959 9.29002C18.8959 9.45086 18.9029 12.3142 19.6668 16.0874C17.3902 14.4984 16.3959 12.6537 16.3959 10.1221C16.3959 8.23491 17.0305 5.98667 17.9047 4.77666C18.0098 4.63106 18.0651 4.45539 18.0623 4.27584C18.0595 4.09628 17.9987 3.92243 17.8891 3.78019C17.7795 3.63794 17.6268 3.53492 17.4539 3.48645C17.281 3.43799 17.0971 3.44668 16.9295 3.51124C13.9372 4.66499 11.7099 7.95199 10.6213 10.6478C10.5851 10.7394 9.73027 12.9179 9.73027 15.1843C9.73704 16.6126 10.1834 19.2509 10.6147 20.4124C11.0288 21.5561 11.5975 22.6377 12.305 23.6272C11.4608 24.5347 10.7086 25.5236 10.0593 26.5793C9.60847 27.3035 9.20125 28.054 8.83984 28.8267C6.94827 28.1217 5.73722 26.7379 5.55795 25.035C5.49407 24.2566 5.49452 23.4743 5.5593 22.696C5.64587 21.7225 6.06972 19.5995 6.35587 18.7106C6.41407 18.5296 6.4086 18.3341 6.34039 18.1566C6.27217 17.9791 6.1453 17.8303 5.98084 17.7348C5.81638 17.6394 5.62422 17.603 5.43626 17.6318C5.2483 17.6606 5.07585 17.7529 4.94753 17.8932C4.29679 18.605 2.66105 21.4916 2.30386 22.2774C1.22917 24.6424 0.5625 26.7798 0.5625 30.1222C0.5625 34.5213 2.16668 38.6521 5.07982 41.7538C6.53233 43.303 8.28001 44.546 10.22 45.4098C12.1601 46.2736 14.2533 46.7406 16.3765 46.7835ZM34.7294 1.91133L48.8925 9.77982C48.8332 14.1848 48.0733 18.1098 46.6321 21.4528C45.4439 24.2074 43.7908 26.5786 41.7186 28.5003C38.6171 31.3765 35.4732 32.3882 34.7174 32.6003C31.5561 31.8514 28.855 30.2139 26.6861 27.7309C24.8918 25.677 23.4481 23.038 22.3953 19.8886C20.9031 15.4254 20.6257 11.176 20.5743 9.77534L34.7294 1.91133ZM12.1772 19.832C11.8112 18.8465 11.4029 16.41 11.397 15.1804C11.397 13.244 12.163 11.2818 12.1687 11.2674C12.7813 9.75013 13.8629 7.90772 15.2637 6.56948C14.9182 7.72222 14.7383 8.91821 14.7294 10.1216C14.7294 12.0829 15.247 13.7372 16.3116 15.1789C17.1858 16.3629 18.4442 17.4003 20.1588 18.3505C20.1692 18.3561 20.1796 18.3617 20.19 18.367L20.2018 18.3728C20.3769 19.028 20.5752 19.6976 20.8005 20.3745C21.9217 23.7429 23.474 26.5805 25.4144 28.8082C26.8422 30.4665 28.5775 31.8328 30.5246 32.8316C30.2156 37.1434 28.012 40.8177 24.7497 42.9984C25.0809 42.4304 25.3421 41.8245 25.5278 41.1939C25.5331 41.1763 25.5378 41.1585 25.5418 41.1405C27.3697 33.1258 22.7472 31.1013 22.5494 31.0191C22.4227 30.9664 22.285 30.9458 22.1485 30.9591C22.012 30.9724 21.8808 31.0192 21.7667 31.0954C21.6526 31.1715 21.5591 31.2747 21.4944 31.3957C21.4297 31.5166 21.3959 31.6517 21.396 31.7889C21.396 32.3754 21.2759 34.2889 19.7293 34.2889C17.4272 34.2889 16.3959 30.522 16.3959 26.7889C16.3959 25.4511 16.8139 23.1833 17.1876 22.0493C17.2353 21.9045 17.2425 21.7494 17.2082 21.6009C17.1739 21.4524 17.0996 21.3161 16.9932 21.2069C16.8869 21.0977 16.7526 21.0198 16.6051 20.9815C16.4575 20.9433 16.3023 20.9463 16.1563 20.9902C15.2992 21.247 14.4109 21.755 13.5332 22.474C12.9717 21.6539 12.5161 20.7662 12.1772 19.832ZM11.4742 27.4603C12.6042 25.6457 13.9025 24.2019 15.1459 23.3401C14.9098 24.5051 14.7293 25.8297 14.7293 26.7889C14.7293 29.2793 15.1181 31.4378 15.8543 33.0308C16.9707 35.4482 18.5779 35.9556 19.7293 35.9556C21.4608 35.9556 22.4732 34.7722 22.8688 33.3033C23.7886 34.2982 24.8944 36.4539 23.9231 40.743C23.0189 43.7307 20.6262 45.1223 16.3959 45.1223C15.1552 45.1223 12.7084 44.4224 11.1518 42.8663C9.69704 41.4117 8.89588 38.6614 8.89588 35.1223C8.89588 32.9166 9.85985 30.0528 11.4742 27.4603ZM3.82117 22.967C3.83721 22.9316 3.85565 22.8925 3.87627 22.8501C3.82534 23.636 3.83342 24.4247 3.90044 25.2094C4.14263 27.5115 5.76201 29.4275 8.19609 30.3635C7.57296 32.0458 7.22921 33.696 7.22921 35.1223C7.22921 38.3626 7.8739 41.0636 9.06651 42.9111C8.05009 42.2639 7.11889 41.4917 6.29472 40.6127C3.67294 37.8213 2.22918 34.0957 2.22918 30.1222C2.22918 27.0671 2.81251 25.1851 3.82117 22.967Z" fill="#0162CA"/>
<path d="M24.818 19.2482C25.771 22.0462 27.0507 24.367 28.6214 26.1462C30.2437 27.9836 32.1255 29.2171 34.3755 29.9169C34.555 29.9728 34.7482 29.9663 34.9235 29.8985C36.7834 29.1567 38.4909 28.0792 39.9611 26.7198C43.7423 23.2449 45.88 18.2094 46.3134 11.754C46.324 11.5962 46.2894 11.4387 46.2138 11.2998C46.1382 11.1609 46.0246 11.0464 45.8863 10.9696L35.1344 4.99646C35.0106 4.92769 34.8713 4.8916 34.7297 4.8916C34.5881 4.8916 34.4488 4.92769 34.325 4.99646L23.6454 10.9296C23.5028 11.0088 23.3866 11.1282 23.3112 11.2728C23.2358 11.4174 23.2045 11.581 23.2212 11.7433C23.4103 13.5835 23.8409 16.3801 24.818 19.2482ZM34.7297 6.67814L44.6112 12.1678C44.131 17.9289 42.1885 22.4101 38.8336 25.4928C37.588 26.6436 36.1537 27.5714 34.5933 28.2354C32.765 27.6149 31.2176 26.5687 29.8708 25.0428C28.4466 23.4296 27.277 21.2991 26.3956 18.7106C25.6848 16.5686 25.1969 14.359 24.9394 12.1168L34.7297 6.67814Z" fill="#0162CA"/>
<path d="M33.3073 23.2142C33.3847 23.2916 33.4765 23.353 33.5776 23.3949C33.6787 23.4367 33.7871 23.4583 33.8965 23.4583C34.006 23.4583 34.1144 23.4367 34.2155 23.3949C34.3166 23.353 34.4084 23.2916 34.4858 23.2142L41.9859 15.7142C42.0633 15.6368 42.1246 15.5449 42.1665 15.4438C42.2084 15.3427 42.23 15.2343 42.23 15.1249C42.23 15.0154 42.2084 14.9071 42.1665 14.806C42.1246 14.7049 42.0633 14.613 41.9859 14.5356L39.4859 12.0356C39.4085 11.9582 39.3166 11.8968 39.2155 11.8549C39.1144 11.8131 39.006 11.7915 38.8966 11.7915C38.7871 11.7915 38.6788 11.8131 38.5777 11.8549C38.4766 11.8968 38.3847 11.9582 38.3073 12.0356L33.8965 16.4465L32.8191 15.369C32.7418 15.2916 32.6499 15.2302 32.5488 15.1883C32.4477 15.1464 32.3393 15.1249 32.2299 15.1249C32.1204 15.1249 32.0121 15.1464 31.911 15.1883C31.8098 15.2302 31.718 15.2916 31.6406 15.369L29.1406 17.869C29.0632 17.9464 29.0018 18.0382 28.9599 18.1393C28.918 18.2404 28.8965 18.3488 28.8965 18.4582C28.8965 18.5677 28.918 18.676 28.9599 18.7772C29.0018 18.8783 29.0632 18.9701 29.1406 19.0475L33.3073 23.2142ZM32.2299 17.1367L33.3073 18.2142C33.3847 18.2916 33.4765 18.353 33.5776 18.3948C33.6787 18.4367 33.7871 18.4583 33.8965 18.4583C34.006 18.4583 34.1144 18.4367 34.2155 18.3948C34.3166 18.353 34.4084 18.2916 34.4858 18.2142L38.8966 13.8033L40.2182 15.1249L33.8965 21.4465L30.9083 18.4582L32.2299 17.1367Z" fill="#0162CA"/>
</svg>
