<svg width="50" height="50" viewBox="0 0 50 50" fill="none" xmlns="http://www.w3.org/2000/svg">
<path d="M0.390604 31.0529L5.89627 34.2315C5.98513 34.2828 6.08323 34.3161 6.18496 34.3295C6.28668 34.3428 6.39005 34.336 6.48915 34.3095C6.58824 34.2829 6.68114 34.237 6.76252 34.1746C6.8439 34.1121 6.91218 34.0342 6.96345 33.9453L7.16179 33.6017L10.3503 35.4685C10.2749 35.7396 10.2367 36.0197 10.2367 36.3011C10.2352 36.7051 10.3138 37.1054 10.468 37.4789C10.6222 37.8524 10.849 38.1915 11.1351 38.4767C11.4206 38.7626 11.7598 38.9893 12.1332 39.1437C12.5066 39.2981 12.9068 39.3773 13.3108 39.3766C13.3701 39.3766 13.4295 39.3742 13.4887 39.3709C13.4854 39.4295 13.4833 39.4881 13.4833 39.5476C13.4824 39.9516 13.5613 40.3517 13.7155 40.7251C13.8697 41.0985 14.0961 41.4377 14.3817 41.7233C14.6674 42.009 15.0066 42.2354 15.38 42.3895C15.7533 42.5437 16.1535 42.6226 16.5574 42.6218C16.617 42.6218 16.6762 42.6196 16.7353 42.6163C16.732 42.6754 16.7298 42.7347 16.7298 42.7942C16.7289 43.1982 16.8078 43.5983 16.962 43.9717C17.1161 44.3451 17.3425 44.6843 17.6282 44.97C17.9138 45.2556 18.253 45.482 18.6264 45.6362C18.9998 45.7904 19.3999 45.8693 19.8039 45.8684C20.0202 45.8684 20.236 45.8458 20.4476 45.8011C20.5458 46.4038 20.8555 46.9518 21.3212 47.3468C21.7868 47.7418 22.378 47.958 22.9887 47.9565C23.2975 47.9569 23.6038 47.9019 23.8932 47.7942L24.0484 47.9492C24.3832 48.2846 24.8041 48.521 25.2647 48.6326C25.7252 48.7442 26.2077 48.7265 26.6588 48.5815C27.11 48.4365 27.5124 48.1698 27.8218 47.8109C28.1311 47.4519 28.3354 47.0145 28.4122 46.5469C28.6237 46.592 28.8394 46.6149 29.0556 46.6152C29.4746 46.6157 29.8893 46.5305 30.2741 46.3648C30.6589 46.1991 31.0058 45.9565 31.2934 45.6517C31.5809 45.347 31.8031 44.9866 31.9462 44.5928C32.0893 44.1991 32.1503 43.7802 32.1255 43.3619C32.1841 43.3652 32.2427 43.3673 32.3022 43.3673C32.7212 43.3681 33.1359 43.2832 33.5208 43.1177C33.9057 42.9522 34.2526 42.7096 34.5402 42.405C34.8278 42.1003 35.05 41.74 35.1931 41.3462C35.3361 40.9524 35.3971 40.5335 35.3721 40.1153C35.4307 40.1186 35.4893 40.1207 35.5489 40.1207C36.1123 40.1201 36.6647 39.9649 37.1459 39.672C37.6271 39.379 38.0187 38.9596 38.2779 38.4594C38.5371 37.9592 38.6541 37.3975 38.6159 36.8354C38.5778 36.2733 38.3862 35.7325 38.0618 35.2719L42.3717 32.7937L43.0365 33.9453C43.1401 34.1247 43.3107 34.2557 43.5109 34.3093C43.711 34.3629 43.9243 34.3348 44.1037 34.2312L49.6094 31.0529C49.7888 30.9493 49.9197 30.7787 49.9733 30.5785C50.027 30.3784 49.9989 30.1652 49.8953 29.9857L42.6745 17.479C42.5709 17.2996 42.4003 17.1687 42.2002 17.1151C42 17.0614 41.7868 17.0895 41.6074 17.1931L36.1017 20.3718C35.9223 20.4754 35.7914 20.646 35.7378 20.8461C35.6841 21.0463 35.7122 21.2595 35.8158 21.439L36.4544 22.545L35.5417 22.8906C35.1229 23.0582 34.6575 23.0676 34.2323 22.9171L28.1469 20.8887C27.8092 20.7731 27.4518 20.7261 27.0957 20.7504C26.7397 20.7746 26.392 20.8697 26.0731 21.0301L24.8622 21.6269C24.8508 21.6201 24.8397 21.6128 24.8277 21.6064L23.3852 20.8447C22.9966 20.6364 22.5629 20.5262 22.122 20.5235C21.6811 20.5208 21.2461 20.6258 20.855 20.8293L18.9294 21.8156C18.7834 21.8973 18.6193 21.9412 18.452 21.9434L13.8622 21.996L14.1839 21.4387C14.2875 21.2592 14.3155 21.046 14.2619 20.8459C14.2083 20.6457 14.0774 20.4751 13.8979 20.3715L8.39256 17.1931C8.21313 17.0895 7.99991 17.0614 7.7998 17.1151C7.59969 17.1687 7.42907 17.2996 7.32547 17.479L0.104666 29.9857C0.00107045 30.1652 -0.0270035 30.3784 0.0266199 30.5785C0.0802432 30.7787 0.211171 30.9493 0.390604 31.0529ZM12.2399 37.3723C11.9575 37.0874 11.799 36.7025 11.799 36.3014C11.799 35.9002 11.9575 35.5153 12.2399 35.2305L14.9872 32.4832C15.2715 32.2008 15.6563 32.0426 16.057 32.0433C16.4578 32.044 16.842 32.2035 17.1253 32.4869C17.4087 32.7703 17.5682 33.1545 17.5688 33.5553C17.5695 33.9561 17.4112 34.3408 17.1288 34.6251L14.3817 37.3723C14.0974 37.6558 13.7123 37.815 13.3108 37.815C12.9093 37.815 12.5242 37.6558 12.2399 37.3723ZM15.4866 40.6188C15.2043 40.3341 15.0458 39.9494 15.0457 39.5484C15.0456 39.1474 15.2038 38.7626 15.4859 38.4777L15.4866 38.477L18.2339 35.7299C18.5186 35.4494 18.9027 35.2929 19.3024 35.2944C19.702 35.2959 20.0849 35.4553 20.3675 35.7379C20.6501 36.0205 20.8096 36.4034 20.8111 36.8031C20.8126 37.2028 20.656 37.5868 20.3756 37.8716L17.6283 40.6188C17.3441 40.9024 16.9589 41.0617 16.5574 41.0617C16.1559 41.0617 15.7708 40.9024 15.4866 40.6188ZM18.7332 43.8654C18.4496 43.5812 18.2903 43.1961 18.2903 42.7945C18.2903 42.393 18.4496 42.0079 18.7332 41.7236L21.4804 38.9765C21.7644 38.6924 22.1496 38.5329 22.5512 38.5329C22.9529 38.5329 23.3381 38.6924 23.6221 38.9765C23.9062 39.2605 24.0657 39.6457 24.0657 40.0474C24.0657 40.449 23.9062 40.8342 23.6221 41.1183C23.596 41.1448 23.5717 41.1733 23.5496 41.2033C23.4676 41.2673 23.3895 41.3362 23.3158 41.4096L21.1662 43.559C21.0927 43.6329 21.0237 43.7112 20.9596 43.7933C20.9297 43.8154 20.9014 43.8396 20.8749 43.8656C20.5906 44.1492 20.2055 44.3084 19.804 44.3084C19.4025 44.3083 19.0174 44.149 18.7332 43.8654ZM22.2713 46.0993C22.081 45.9089 21.9742 45.6507 21.9742 45.3815C21.9742 45.1124 22.081 44.8542 22.2713 44.6638L24.4207 42.5143C24.611 42.324 24.8692 42.217 25.1385 42.217C25.4077 42.217 25.6659 42.324 25.8562 42.5143C26.0466 42.7047 26.1535 42.9629 26.1535 43.2321C26.1535 43.5013 26.0466 43.7595 25.8562 43.9499L23.7068 46.0993C23.5158 46.2884 23.2578 46.3945 22.989 46.3945C22.7202 46.3945 22.4623 46.2884 22.2713 46.0993ZM26.5886 46.8447C26.3996 47.0331 26.1442 47.1396 25.8774 47.1412C25.6106 47.1427 25.3539 47.0393 25.1628 46.8531L26.5972 45.4186C26.7834 45.6098 26.8869 45.8666 26.8853 46.1335C26.8837 46.4003 26.7771 46.6558 26.5886 46.8447ZM30.1269 44.6109C29.8427 44.8945 29.4576 45.0537 29.0561 45.0537C28.6546 45.0537 28.2696 44.8945 27.9853 44.6109C27.9587 44.5847 27.9303 44.5605 27.9002 44.5384C27.8362 44.4564 27.7673 44.3783 27.6939 44.3046L27.5444 44.1551C27.6818 43.7982 27.7379 43.4152 27.7087 43.0339C27.6795 42.6526 27.5657 42.2826 27.3755 41.9508C27.1854 41.619 26.9237 41.3337 26.6094 41.1158C26.2952 40.8978 25.9363 40.7527 25.559 40.6908C25.6444 40.2891 25.6491 39.8744 25.5729 39.4708C25.8605 39.3109 26.1923 39.249 26.5182 39.2943C26.8442 39.3396 27.1465 39.4897 27.3796 39.722L30.1269 42.4692C30.4105 42.7534 30.5698 43.1386 30.5698 43.5401C30.5698 43.9416 30.4105 44.3267 30.1269 44.6109ZM33.3736 41.3643C33.0887 41.6467 32.7039 41.8051 32.3028 41.8051C31.9017 41.8051 31.5169 41.6467 31.232 41.3643L28.4846 38.6171C28.209 38.3315 28.0565 37.9492 28.0599 37.5523C28.0633 37.1554 28.2224 36.7757 28.5029 36.4949C28.7834 36.2142 29.1629 36.0547 29.5598 36.0509C29.9566 36.0471 30.3391 36.1992 30.625 36.4746V36.4752L33.3722 39.2224C33.656 39.5065 33.8155 39.8916 33.8157 40.2932C33.8159 40.6947 33.6567 41.08 33.3731 41.3643H33.3736ZM36.6201 38.1178C36.3359 38.4013 35.9508 38.5606 35.5493 38.5606C35.1479 38.5606 34.7628 38.4013 34.4786 38.1178L31.7312 35.3705C31.4508 35.0858 31.2942 34.7017 31.2957 34.302C31.2972 33.9023 31.4567 33.5195 31.7393 33.2368C32.0219 32.9542 32.4048 32.7948 32.8044 32.7933C33.2041 32.7918 33.5882 32.9483 33.8729 33.2288L36.6198 35.9766C36.9022 36.2614 37.0606 36.6463 37.0606 37.0474C37.0606 37.4485 36.9022 37.8334 36.6198 38.1183L36.6201 38.1178ZM41.7126 18.9369L48.152 30.0903L43.9995 32.4878L37.5595 21.3343L41.7126 18.9369ZM26.7639 22.4316C26.8998 22.3605 27.0489 22.3184 27.2019 22.308C27.3549 22.2976 27.5084 22.319 27.6526 22.3711L33.7382 24.3996C34.5048 24.6625 35.3398 24.6457 36.0952 24.352L37.2461 23.916L41.5907 31.4409L36.958 34.1046L34.9774 32.1239C34.7677 31.9141 34.5285 31.7359 34.2676 31.5948L28.0395 26.9258C27.6437 26.6296 27.1712 26.4533 26.6781 26.418L25.763 26.3372C25.2505 26.288 24.7347 26.3862 24.2762 26.6203C23.8177 26.8544 23.4357 27.2146 23.1751 27.6586L21.9619 29.6536C21.944 29.6873 21.9158 29.7144 21.8814 29.731C21.8471 29.7476 21.8083 29.7527 21.7708 29.7458L19.9251 29.5134C19.8972 29.5098 19.8704 29.5003 19.8465 29.4855C19.8227 29.4707 19.8023 29.4509 19.7868 29.4275C19.7712 29.404 19.761 29.3775 19.7566 29.3498C19.7523 29.322 19.754 29.2936 19.7616 29.2666L20.7284 25.8389C20.7695 25.6792 20.8455 25.5306 20.9509 25.4039C21.0564 25.2771 21.1886 25.1753 21.3382 25.1059L26.7639 22.4316ZM18.47 23.5058C18.879 23.5013 19.2809 23.3986 19.6419 23.2063L21.5675 22.22C21.735 22.1299 21.9224 22.0832 22.1127 22.0844C22.3029 22.0855 22.4898 22.1344 22.6562 22.2266L23.1339 22.4786L20.647 23.7045C20.3007 23.8703 19.9943 24.109 19.7487 24.4042C19.5032 24.6993 19.3242 25.044 19.2242 25.4147L18.2574 28.8425C18.1887 29.086 18.1734 29.3414 18.2125 29.5914C18.2516 29.8413 18.3442 30.0799 18.4839 30.2908C18.6237 30.5017 18.8073 30.6799 19.0223 30.8133C19.2372 30.9467 19.4785 31.0321 19.7295 31.0638L21.5752 31.2961C21.9118 31.3413 22.2544 31.2867 22.5603 31.1392C22.8663 30.9916 23.1223 30.7576 23.2966 30.466L24.5098 28.4711C24.62 28.2773 24.7841 28.1197 24.9821 28.0173C25.18 27.9149 25.4035 27.8721 25.6253 27.8941L26.5403 27.9749C26.7434 27.9847 26.9389 28.0549 27.1019 28.1765L31.5321 31.4976C30.9931 31.7411 30.536 32.1352 30.2158 32.6325C29.8955 33.1297 29.7258 33.7089 29.7271 34.3004C29.7271 34.3596 29.7293 34.4184 29.7325 34.4771C29.3143 34.4522 28.8954 34.5131 28.5016 34.6562C28.1079 34.7993 27.7476 35.0215 27.4429 35.3091C27.1382 35.5966 26.8957 35.9436 26.7302 36.3284C26.5647 36.7133 26.4797 37.128 26.4805 37.547C26.4805 37.6062 26.4827 37.665 26.4859 37.7237C25.936 37.6917 25.3876 37.8075 24.8976 38.0592C24.8433 37.9953 24.7869 37.9322 24.7266 37.8724C24.4198 37.5654 24.0514 37.327 23.6458 37.1729C23.2401 37.0188 22.8063 36.9524 22.3731 36.9782C22.3764 36.9196 22.3785 36.861 22.3785 36.8015C22.3795 36.3825 22.2946 35.9679 22.1293 35.583C21.9639 35.198 21.7215 34.8511 21.417 34.5634C21.1125 34.2757 20.7524 34.0534 20.3587 33.9101C19.965 33.7669 19.5462 33.7057 19.128 33.7305C19.1528 33.3123 19.0917 32.8936 18.9485 32.4999C18.8054 32.1063 18.5832 31.7462 18.2956 31.4416C18.008 31.1371 17.6612 30.8946 17.2764 30.7292C16.8916 30.5637 16.477 30.4788 16.0582 30.4796C15.6541 30.478 15.2538 30.5566 14.8803 30.7109C14.5068 30.8651 14.1677 31.0918 13.8824 31.378L11.1401 34.1211L7.94304 32.2489L12.9542 23.5692L18.47 23.5058ZM8.28787 18.9369L12.4404 21.3343L6.00086 32.4878L1.84842 30.0903L8.28787 18.9369ZM25 19.6083C26.8107 19.6083 28.5809 19.0714 30.0865 18.0654C31.5921 17.0594 32.7655 15.6295 33.4585 13.9566C34.1515 12.2837 34.3328 10.4428 33.9795 8.66686C33.6263 6.89088 32.7543 5.25954 31.4739 3.97913C30.1935 2.69872 28.5622 1.82675 26.7862 1.47348C25.0103 1.12021 23.1694 1.30151 21.4965 1.99445C19.8236 2.6874 18.3937 3.86086 17.3877 5.36646C16.3817 6.87205 15.8447 8.64216 15.8447 10.4529C15.8475 12.8802 16.8129 15.2073 18.5293 16.9237C20.2456 18.64 22.5727 19.6055 25 19.6083ZM25 2.86025C26.5017 2.86023 27.9697 3.30553 29.2184 4.13983C30.467 4.97414 31.4403 6.15999 32.015 7.54741C32.5897 8.93482 32.74 10.4615 32.4471 11.9344C32.1541 13.4073 31.4309 14.7602 30.369 15.8221C29.3072 16.884 27.9542 17.6071 26.4813 17.9001C25.0085 18.1931 23.4818 18.0427 22.0944 17.468C20.7069 16.8933 19.5211 15.9201 18.6868 14.6714C17.8525 13.4228 17.4072 11.9548 17.4072 10.453C17.4095 8.43998 18.2102 6.51004 19.6336 5.0866C21.057 3.66315 22.9869 2.86255 25 2.86025ZM21.5246 10.4897C21.4028 10.3221 21.3525 10.113 21.3849 9.90832C21.4173 9.70366 21.5296 9.52025 21.6972 9.39843C21.8649 9.27661 22.074 9.22636 22.2787 9.25874C22.4833 9.29112 22.6667 9.40347 22.7886 9.57109L23.9844 11.2168L27.9651 7.95585C28.1256 7.82613 28.3308 7.76514 28.5361 7.78621C28.7413 7.80727 28.9299 7.90868 29.0607 8.0683C29.1914 8.22791 29.2537 8.43277 29.234 8.63815C29.2142 8.84354 29.114 9.03277 28.9553 9.16454L24.3341 12.9501C24.2518 13.0175 24.1565 13.0674 24.0543 13.0967C23.952 13.1261 23.8448 13.1342 23.7393 13.1206C23.6337 13.107 23.5321 13.072 23.4406 13.0178C23.349 12.9635 23.2696 12.8911 23.207 12.8051L21.5246 10.4897Z" fill="#0162CA"/>
</svg>
