<svg width="100" height="100" viewBox="0 0 100 100" fill="none" xmlns="http://www.w3.org/2000/svg">
<g opacity="0.1" clip-path="url(#clip0_940_6390)">
<path d="M58.7383 55.2167C58.1759 55.4126 57.7608 55.8937 57.6492 56.4787C57.5377 57.0637 57.7467 57.6637 58.1976 58.0528C58.6484 58.4419 59.2726 58.561 59.835 58.3651C73.6776 53.5676 82.0326 39.4758 79.6001 25.0288C77.1676 10.5817 64.6587 0.00292969 50.0083 0.00292969C35.3579 0.00292969 22.849 10.5817 20.4165 25.0288C17.984 39.4758 26.339 53.5676 40.1817 58.3651C41.0515 58.6674 42.0018 58.2074 42.3042 57.3376C42.6065 56.4677 42.1465 55.5174 41.2767 55.2151C38.3951 54.2094 35.7081 52.7154 33.3333 50.7984V48.9834C33.3265 43.7843 36.5278 39.1199 41.3817 37.2567C46.545 40.9147 53.455 40.9147 58.6183 37.2567C63.4722 39.1199 66.6735 43.7843 66.6667 48.9834V50.805C64.296 52.7188 61.6142 54.211 58.7383 55.2167ZM38.3333 25C38.3333 18.5567 43.5567 13.3334 50 13.3334C56.4433 13.3334 61.6667 18.5567 61.6667 25C61.6667 31.4434 56.4433 36.6667 50 36.6667C43.5597 36.6594 38.3407 31.4403 38.3333 25ZM61.3333 34.7884C66.5734 28.7364 66.1376 19.636 60.3431 14.1125C54.5487 8.58891 45.438 8.58891 39.6435 14.1125C33.8491 19.636 33.4133 28.7364 38.6533 34.7884C33.7457 37.2975 30.4905 42.1722 30.0533 47.6667C20.5524 36.959 21.2008 20.6599 31.5224 10.7408C41.844 0.821627 58.156 0.821627 68.4776 10.7408C78.7992 20.6599 79.4476 36.959 69.9467 47.6667C69.5081 42.169 66.247 37.2931 61.3333 34.7884Z" fill="white"/>
<path d="M35.6667 99.3518C36.6858 100.104 38.0448 100.208 39.1667 99.6201L50.0117 93.9851L60.855 99.6218C61.9795 100.206 63.3382 100.103 64.361 99.3543C65.3838 98.6058 65.8937 97.3421 65.6767 96.0935L63.6167 84.2068L72.3333 75.8051C73.2491 74.9223 73.5826 73.5953 73.193 72.3845C72.8034 71.1736 71.7587 70.29 70.5 70.1068L58.4 68.3685L53 57.5135C52.4393 56.3768 51.2791 55.6598 50.0117 55.6668C48.748 55.6622 47.5916 56.3764 47.03 57.5085L41.6 68.3685L29.5267 70.1051C28.2672 70.2879 27.2218 71.1718 26.8321 72.3833C26.4424 73.5948 26.7766 74.9224 27.6933 75.8051L36.4133 84.2068L34.3517 96.0935C34.1314 97.3416 34.6418 98.6062 35.6667 99.3518ZM30 73.4051L42.9367 71.5435C43.4772 71.4659 43.9454 71.1284 44.19 70.6401L50.01 59.0001L55.805 70.6368C56.0491 71.1268 56.5182 71.4657 57.06 71.5435L70.0233 73.4051L60.6667 82.4201C60.2687 82.804 60.087 83.3603 60.1817 83.9051L62.3933 96.6668L50.7817 90.6318C50.3 90.3816 49.7267 90.3816 49.245 90.6318L37.6317 96.6668L39.8433 83.9085C39.938 83.3637 39.7563 82.8074 39.3583 82.4235L30 73.4051Z" fill="white"/>
<path d="M7.83333 73.7034L6.205 83.1184C6.04783 83.9962 6.28708 84.8985 6.85849 85.5831C7.4299 86.2677 8.27493 86.6644 9.16666 86.6667C9.65354 86.6659 10.1331 86.5482 10.565 86.3234L19.1667 81.8467L27.7633 86.3334C28.2915 86.6085 28.9263 86.5809 29.4286 86.2611C29.9309 85.9412 30.2244 85.3777 30.1986 84.7827C30.1728 84.1878 29.8315 83.6518 29.3033 83.3767L19.9367 78.4934C19.4541 78.242 18.8792 78.242 18.3967 78.4934L9.60166 83.0751L11.2683 73.4084C11.363 72.8636 11.1813 72.3073 10.7833 71.9234L3.705 65.09L13.5 63.6834C14.0409 63.6054 14.5092 63.2673 14.7533 62.7784L19.1667 53.955L23.5633 62.7767C23.8077 63.2671 24.2775 63.6061 24.82 63.6834L35.285 65.1834C36.1963 65.3136 37.0406 64.6805 37.1708 63.7692C37.3011 62.8579 36.6679 62.0136 35.7567 61.8834L26.1567 60.5084L21.8617 51.8884C21.3529 50.8629 20.3048 50.2163 19.16 50.2217H19.15C18.0177 50.2194 16.983 50.8623 16.4833 51.8784L12.1667 60.5084L2.595 61.8817C1.4491 62.0345 0.492939 62.8321 0.137099 63.932C-0.218742 65.0319 0.0890609 66.2384 0.928331 67.0334L7.83333 73.7034Z" fill="white"/>
<path d="M99.85 63.9268C99.5021 62.8325 98.5546 62.0369 97.4167 61.8834L87.8333 60.5084L83.5267 51.8801C83.0286 50.8612 81.9941 50.2146 80.86 50.2134H80.85C79.7046 50.2074 78.6557 50.854 78.1467 51.8801L73.8533 60.4984L64.2517 61.8734C63.6622 61.9577 63.1624 62.35 62.9406 62.9027C62.7189 63.4553 62.8088 64.0843 63.1765 64.5527C63.5442 65.021 64.1339 65.2577 64.7233 65.1734L75.19 63.6734C75.7325 63.5961 76.2023 63.2572 76.4467 62.7668L80.8333 53.9551L85.2383 62.7784C85.4825 63.2673 85.9508 63.6055 86.4917 63.6834L96.2817 65.0884L89.2033 71.9218C88.8053 72.3056 88.6236 72.8619 88.7183 73.4068L90.3933 83.0734L81.5983 78.4868C81.1158 78.2354 80.5409 78.2354 80.0583 78.4868L70.6917 83.3701C70.1635 83.6452 69.8222 84.1811 69.7964 84.7761C69.7706 85.371 70.0641 85.9346 70.5664 86.2544C71.0687 86.5743 71.7035 86.6019 72.2317 86.3268L80.8333 81.8468L89.4333 86.3334C90.4513 86.8623 91.6812 86.7674 92.6059 86.0885C93.5306 85.4097 93.9896 84.2647 93.79 83.1351L92.1667 73.7034L99.0767 67.0368C99.9129 66.2361 100.214 65.0258 99.85 63.9268Z" fill="white"/>
<path d="M40.8333 78.5651C40.9137 78.5646 40.9939 78.5585 41.0733 78.5467L47.3417 77.6451C47.8822 77.5675 48.3504 77.23 48.595 76.7417L51.495 70.9434C51.9092 70.1196 51.5772 69.1159 50.7533 68.7017C49.9295 68.2875 48.9259 68.6196 48.5117 69.4434L46.0117 74.4617L40.6033 75.2401C39.737 75.3635 39.1137 76.1359 39.176 77.0087C39.2383 77.8815 39.965 78.5576 40.84 78.5567L40.8333 78.5651Z" fill="white"/>
</g>
<defs>
<clipPath id="clip0_940_6390">
<rect width="100" height="100" fill="white"/>
</clipPath>
</defs>
</svg>
