<svg width="70" height="70" viewBox="0 0 70 70" fill="none" xmlns="http://www.w3.org/2000/svg">
<g clip-path="url(#clip0_1018_2226)">
<path d="M56.808 60.9677L54.1943 53.1255C53.2809 50.3876 50.9506 48.3666 48.1099 47.8495L40.5646 46.4766V45.8918C41.8777 45.1297 43.0203 44.1102 43.9303 42.9032H46.2098C48.0772 42.9032 49.5969 41.3835 49.5969 39.5161V25.9677C49.5969 17.8748 43.0124 11.2903 34.9194 11.2903C26.8265 11.2903 20.242 17.8748 20.242 25.9677V33.871C20.242 36.0477 21.7899 37.8689 23.8425 38.2934C24.4759 41.5382 26.5036 44.284 29.2743 45.8918V46.4766L21.7278 47.8495C18.8883 48.3666 16.5569 50.3876 15.6446 53.1255L15.193 54.4814L11.3475 50.636C10.9072 50.1956 10.9072 49.4787 11.3475 49.0384L15.8072 44.5798L7.43655 36.2092L2.39655 41.2492C0.903967 42.7418 0.0820312 44.7266 0.0820312 46.8379C0.0820312 48.9492 0.903967 50.9329 2.39655 52.4255L17.6554 67.6843C19.148 69.1769 21.1328 70 23.2441 70C25.3554 70 27.3391 69.1769 28.7967 67.7182L34.2962 62.6793L32.5812 60.9677H56.808ZM47.3388 39.5161C47.3388 40.1393 46.8319 40.6452 46.2098 40.6452H45.2603C45.5877 39.8989 45.8361 39.1119 45.9964 38.2934C46.4796 38.1929 46.9245 38.001 47.3388 37.7593V39.5161ZM46.2098 35.8152V31.9268C46.8816 32.3185 47.3388 33.0389 47.3388 33.871C47.3388 34.7031 46.8816 35.4234 46.2098 35.8152ZM23.6291 35.8152C22.9574 35.4234 22.5001 34.7031 22.5001 33.871C22.5001 33.0389 22.9574 32.3185 23.6291 31.9268V35.8152ZM23.6291 28.2258V29.5152C23.2272 29.6202 22.8501 29.7782 22.5001 29.9826V25.9677C22.5001 19.1202 28.0719 13.5484 34.9194 13.5484C41.767 13.5484 47.3388 19.1202 47.3388 25.9677V29.9826C46.9888 29.7782 46.6117 29.619 46.2098 29.5152V28.2258H45.0807C41.7422 28.2258 38.6035 26.9252 36.2415 24.5643L34.9194 23.2422L33.5974 24.5643C31.2354 26.9252 28.0967 28.2258 24.7582 28.2258H23.6291ZM25.8872 36.129V30.441C29.2777 30.1858 32.439 28.7869 34.9194 26.4284C37.3999 28.7869 40.5612 30.1869 43.9517 30.441V36.129C43.9517 37.7752 43.5024 39.3152 42.7301 40.6452H34.9194V42.9032H40.874C39.282 44.3043 37.2012 45.1613 34.9194 45.1613C29.9393 45.1613 25.8872 41.1092 25.8872 36.129ZM38.3066 46.8989V46.9519L34.9194 50.339L31.5324 46.9519V46.8989C32.6027 47.2353 33.7396 47.4193 34.9194 47.4193C36.0993 47.4193 37.2362 47.2353 38.3066 46.8989ZM17.7853 53.839C18.4367 51.8835 20.102 50.4395 22.1309 50.0692L30.0228 48.6353L34.9194 53.5319L39.8149 48.6364L47.7057 50.0703C49.7346 50.4406 51.3999 51.8835 52.0514 53.8402L53.6761 58.7097H30.3232L25.9256 54.3121L21.0391 58.7322C20.6135 59.1602 19.8695 59.1602 19.4427 58.7322L16.9769 56.2664L17.7853 53.839ZM7.43542 39.4021L12.6132 44.5798L11.387 45.806L6.20929 40.6282L7.43542 39.4021ZM27.233 66.0902C26.1672 67.1537 24.7491 67.7419 23.2419 67.7419C21.7346 67.7419 20.3165 67.1537 19.2496 66.0879L3.99074 50.8302C2.92493 49.7643 2.33784 48.3463 2.33784 46.839C2.33784 45.3306 2.92493 43.9126 3.99074 42.8468L4.61171 42.2258L9.78945 47.4035L9.7488 47.4442C8.42897 48.7652 8.42897 50.9137 9.7488 52.2347L17.8451 60.331C18.4853 60.97 19.3354 61.3234 20.2409 61.3234C21.1464 61.3234 21.9965 60.9711 22.5949 60.3705L22.6796 60.2948L27.8811 65.4963L27.233 66.0902ZM29.5475 63.9676L24.3574 58.7774L25.8488 57.4293L31.0299 62.6105L29.5475 63.9676Z" fill="#0162CA"/>
<path d="M66.5324 0H50.726C48.8585 0 47.3389 1.51968 47.3389 3.3871V12.4194C47.3389 14.2868 48.8585 15.8065 50.726 15.8065H53.7416L52.5742 22.6156L63.4693 15.8065H66.5324C68.3998 15.8065 69.9195 14.2868 69.9195 12.4194V3.3871C69.9195 1.51968 68.3998 0 66.5324 0ZM67.6614 12.4194C67.6614 13.0415 67.1545 13.5484 66.5324 13.5484H62.8213L55.6508 18.0295L56.4197 13.5484H50.726C50.1039 13.5484 49.5969 13.0415 49.5969 12.4194V3.3871C49.5969 2.765 50.1039 2.25806 50.726 2.25806H66.5324C67.1545 2.25806 67.6614 2.765 67.6614 3.3871V12.4194Z" fill="#0162CA"/>
<path d="M65.4029 4.51614H51.8545V6.77421H65.4029V4.51614Z" fill="#0162CA"/>
<path d="M60.8868 9.03226H51.8545V11.2903H60.8868V9.03226Z" fill="#0162CA"/>
<path d="M65.4036 9.03226H63.1455V11.2903H65.4036V9.03226Z" fill="#0162CA"/>
<path d="M34.9191 3.38708C20.1672 3.38708 7.45992 13.5913 4.15637 27.825L2.01686 24.2584L0.0805664 25.4201L4.04911 32.0329L10.6619 28.0643L9.50008 26.1281L6.44041 27.9639C9.64008 14.9427 21.3493 5.64515 34.9191 5.64515C37.8851 5.64515 40.8115 6.08547 43.6172 6.95483L44.2856 4.79838C41.2631 3.86128 38.112 3.38708 34.9191 3.38708Z" fill="#0162CA"/>
<path d="M69.3703 24.999L62.7575 21.0305L58.7901 27.6444L60.7264 28.8061L62.7022 25.5127C63.742 28.5555 64.2738 31.7382 64.2738 35C64.2738 41.7144 61.948 48.2785 57.7266 53.4823L59.4799 54.9048C64.0277 49.3003 66.5319 42.2303 66.5319 35C66.5319 31.5463 65.9753 28.1739 64.8903 24.9448L68.2085 26.9353L69.3703 24.999Z" fill="#0162CA"/>
</g>
<defs>
<clipPath id="clip0_1018_2226">
<rect width="70" height="70" fill="white"/>
</clipPath>
</defs>
</svg>
