<svg width="70" height="70" viewBox="0 0 70 70" fill="none" xmlns="http://www.w3.org/2000/svg">
<g clip-path="url(#clip0_1656_1658)">
<path d="M64.1665 35C63.3601 35 62.7085 34.3469 62.7085 33.5415C62.7085 18.2626 50.2789 5.83353 35 5.83353C19.7211 5.83353 7.29149 18.2626 7.29149 33.5415C7.29149 34.3469 6.63834 35 5.83351 35C5.02815 35 4.375 34.3469 4.375 33.5415C4.375 16.6541 18.1126 2.9165 35 2.9165C51.8858 2.9165 65.625 16.6541 65.625 33.5415C65.625 34.3469 64.9729 35 64.1665 35Z" fill="#0162CA"/>
<path d="M49.5835 35C48.7771 35 48.125 34.3469 48.125 33.5415C48.125 18.5222 42.1152 5.83353 35 5.83353C27.8863 5.83353 21.875 18.5222 21.875 33.5415C21.875 34.3469 21.2218 35 20.4165 35C19.6116 35 18.9585 34.3469 18.9585 33.5415C18.9585 16.3683 26.0049 2.9165 35 2.9165C43.9951 2.9165 51.0415 16.3683 51.0415 33.5415C51.0415 34.3469 50.3899 35 49.5835 35Z" fill="#0162CA"/>
<path d="M35 35C34.1952 35 33.5415 34.3468 33.5415 33.5415V1.45851C33.5415 0.653152 34.1952 0 35 0C35.8048 0 36.4585 0.653152 36.4585 1.45851V33.5415C36.4585 34.3468 35.8048 35 35 35Z" fill="#0162CA"/>
<path d="M5.83352 35C5.45113 35 5.07088 34.851 4.78463 34.5535C4.22494 33.9746 4.24096 33.0518 4.82148 32.4915C7.04209 30.3478 9.99116 29.1665 13.125 29.1665C13.9298 29.1665 14.5835 29.8202 14.5835 30.625C14.5835 31.4298 13.9298 32.0835 13.125 32.0835C10.7506 32.0835 8.5209 32.9743 6.84556 34.5904C6.56251 34.8644 6.19775 35 5.83352 35Z" fill="#0162CA"/>
<path d="M35 35C34.6352 35 34.271 34.8644 33.988 34.5904C32.3121 32.9743 30.0824 32.0835 27.7085 32.0835C25.3341 32.0835 23.1044 32.9743 21.4285 34.5904C20.8512 35.1517 19.9268 35.1357 19.3665 34.5535C18.8068 33.9746 18.8229 33.0518 19.4034 32.4915C21.6256 30.3478 24.5741 29.1665 27.7085 29.1665C30.8424 29.1665 33.7909 30.3478 36.012 32.4931C36.591 33.0518 36.6086 33.9762 36.0484 34.5551C35.7626 34.851 35.3819 35 35 35Z" fill="#0162CA"/>
<path d="M49.5835 35C49.2187 35 48.854 34.8644 48.5715 34.5904C46.8956 32.9743 44.6659 32.0835 42.2915 32.0835C39.9176 32.0835 37.6879 32.9743 36.012 34.5904C35.4347 35.1517 34.5097 35.1357 33.95 34.5535C33.3898 33.9746 33.4058 33.0518 33.9864 32.4915C36.2091 30.3478 39.1592 29.1665 42.2915 29.1665C45.4243 29.1665 48.3744 30.3478 50.5955 32.4931C51.1745 33.0518 51.1921 33.9762 50.6319 34.5551C50.3461 34.851 49.9654 35 49.5835 35Z" fill="#0162CA"/>
<path d="M64.1665 35C63.8023 35 63.4375 34.8644 63.1545 34.5904C61.4791 32.9743 59.2494 32.0835 56.875 32.0835C54.5006 32.0835 52.2709 32.9743 50.5956 34.5904C50.0177 35.1517 49.0933 35.1357 48.5336 34.5535C47.9733 33.9746 47.991 33.0518 48.5699 32.4915C50.7921 30.3478 53.7428 29.1665 56.875 29.1665C60.0073 29.1665 62.9579 30.3478 65.1785 32.4931C65.7574 33.0518 65.7751 33.9762 65.2154 34.5551C64.9291 34.851 64.5489 35 64.1665 35Z" fill="#0162CA"/>
<path d="M33.5415 49.5835H36.4585V52.5H33.5415V49.5835Z" fill="#0162CA"/>
<path d="M33.5415 43.75H36.4585V46.6665H33.5415V43.75Z" fill="#0162CA"/>
<path d="M33.5415 37.9165H36.4585V40.8335H33.5415V37.9165Z" fill="#0162CA"/>
<path d="M20.4165 55.4165C16.3961 55.4165 13.125 52.1454 13.125 48.125V45.2085C13.125 41.1876 16.3961 37.9165 20.4165 37.9165C24.4374 37.9165 27.7085 41.1876 27.7085 45.2085V48.125C27.7085 52.1454 24.4374 55.4165 20.4165 55.4165ZM20.4165 40.8335C18.0047 40.8335 16.0415 42.7962 16.0415 45.2085V48.125C16.0415 50.5374 18.0047 52.5 20.4165 52.5C22.8288 52.5 24.7915 50.5374 24.7915 48.125V45.2085C24.7915 42.7962 22.8288 40.8335 20.4165 40.8335Z" fill="#0162CA"/>
<path d="M24.7947 70H16.0388C11.1169 69.9984 7.85437 66.793 7.71872 66.6563C7.44475 66.3834 7.29147 66.0127 7.29147 65.625V60.5717C7.29147 59.5918 7.77747 58.6849 8.59244 58.1439L16.0415 53.1783V52.5H18.9585V53.9585C18.9585 54.4456 18.715 54.9006 18.3096 55.1719L10.2085 60.5717V64.9585C11.0833 65.6496 13.2329 67.0819 16.0404 67.0835H24.7947C27.6279 67.0819 29.7571 65.6554 30.625 64.9644V60.5717L22.5239 55.1719C22.1185 54.9006 21.875 54.4456 21.875 53.9585V52.5H24.7915V53.1783L32.2437 58.145C33.0576 58.6876 33.5415 59.595 33.5415 60.5717V65.625C33.5415 66.0127 33.3887 66.3834 33.1142 66.6563C32.9786 66.793 29.715 69.9984 24.7947 70Z" fill="#0162CA"/>
<path d="M49.5835 55.4165C45.5626 55.4165 42.2915 52.1454 42.2915 48.125V45.2085C42.2915 41.1876 45.5626 37.9165 49.5835 37.9165C53.6039 37.9165 56.875 41.1876 56.875 45.2085V48.125C56.875 52.1454 53.6039 55.4165 49.5835 55.4165ZM49.5835 40.8335C47.1712 40.8335 45.2085 42.7962 45.2085 45.2085V48.125C45.2085 50.5374 47.1712 52.5 49.5835 52.5C51.9953 52.5 53.9585 50.5374 53.9585 48.125V45.2085C53.9585 42.7962 51.9953 40.8335 49.5835 40.8335Z" fill="#0162CA"/>
<path d="M53.9612 70H45.2053C40.2834 69.9984 37.0225 66.793 36.8857 66.6563C36.6112 66.3834 36.4585 66.0127 36.4585 65.625V60.5717C36.4585 59.5918 36.9456 58.6833 37.7605 58.1439L45.2085 53.1783V52.5H48.125V53.9585C48.125 54.4456 47.8815 54.9006 47.4761 55.1719L39.375 60.5717V64.9585C40.2498 65.6512 42.3994 67.0819 45.2053 67.0835H53.9612C56.7949 67.0819 58.9242 65.6554 59.7915 64.9644V60.5717L51.6904 55.1719C51.285 54.9006 51.0415 54.4456 51.0415 53.9585V52.5H53.9585V53.1783L61.4091 58.145C62.2225 58.6876 62.7085 59.595 62.7085 60.5717V65.625C62.7085 66.0127 62.5552 66.3834 62.2812 66.6563C62.144 66.793 58.883 69.9984 53.9612 70Z" fill="#0162CA"/>
</g>
<defs>
<clipPath id="clip0_1656_1658">
<rect width="70" height="70" fill="white"/>
</clipPath>
</defs>
</svg>
