<svg width="50" height="50" viewBox="0 0 50 50" fill="none" xmlns="http://www.w3.org/2000/svg">
<g clip-path="url(#clip0_1018_2019)">
<path d="M30.5065 22.1026L37.0165 26.7367C37.3058 26.9427 37.6939 26.9427 37.9832 26.7367L44.4932 22.1026C45.8494 21.142 46.6587 19.5861 46.6665 17.9242V8.06423C46.667 7.73243 46.4706 7.43195 46.1665 7.29923L37.8332 3.69923C37.6226 3.6084 37.3838 3.6084 37.1732 3.69923L28.8398 7.29923C28.5357 7.43195 28.3394 7.73243 28.3398 8.06423V17.9242C28.3463 19.5848 29.153 21.1405 30.5065 22.1026ZM29.9998 8.61173L37.4998 5.37256L44.9998 8.61173V17.9242C44.9938 19.049 44.4447 20.1015 43.5257 20.7501L37.4998 25.0351L31.474 20.7451C30.5561 20.0978 30.0071 19.0473 29.9998 17.9242V8.61173Z" fill="white"/>
<path d="M35.3337 19.8334C35.6937 20.1036 36.2032 20.039 36.4845 19.6875L43.1512 11.3542C43.4388 10.9948 43.3806 10.4702 43.0212 10.1825C42.6617 9.89488 42.1372 9.95309 41.8495 10.3125L35.6828 18.0159L33.0003 16C32.7622 15.8214 32.4468 15.7834 32.173 15.9004C31.8992 16.0173 31.7086 16.2714 31.673 16.567C31.6374 16.8626 31.7622 17.1547 32.0003 17.3334L35.3337 19.8334Z" fill="white"/>
<path d="M1.66667 44.1667H2.5V47.5C2.5 48.8807 3.61929 50 5 50H10C11.3807 50 12.5 48.8807 12.5 47.5V44.1667H32.5V47.5C32.5 48.8807 33.6193 50 35 50H40C41.3807 50 42.5 48.8807 42.5 47.5V44.1667H43.3333C44.2538 44.1667 45 43.4205 45 42.5V30C45.0031 28.7923 44.4764 27.644 43.5592 26.8584L46.4258 24.8184C48.66 23.2318 49.991 20.6644 50 17.9242V5.87337C50.0005 5.54157 49.8041 5.24109 49.5 5.10837L37.8333 0.0683687C37.6227 -0.022464 37.384 -0.022464 37.1733 0.0683687L25.5 5.10837C25.1959 5.24109 24.9995 5.54157 25 5.87337V9.1667H12.3917C10.6249 9.1673 9.0506 10.2821 8.46333 11.9484L3.555 25.895C1.51734 26.1949 0.00568931 27.9404 0 30V42.5C0 43.4205 0.746192 44.1667 1.66667 44.1667ZM10.8333 47.5C10.8333 47.9603 10.4602 48.3334 10 48.3334H5C4.53976 48.3334 4.16667 47.9603 4.16667 47.5V44.1667H10.8333V47.5ZM7.5 42.5H5.83333V40.8334H7.5V42.5ZM40.8333 47.5C40.8333 47.9603 40.4602 48.3334 40 48.3334H35C34.5398 48.3334 34.1667 47.9603 34.1667 47.5V44.1667H40.8333V47.5ZM39.1667 42.5H37.5V40.8334H39.1667V42.5ZM26.6667 6.42087L37.5 1.74087L48.3333 6.42087V17.9209C48.3251 20.1222 47.2547 22.1841 45.4592 23.4575L37.5 29.1267L29.5408 23.46C27.7455 22.1867 26.6752 20.1252 26.6667 17.9242V6.42087ZM39.1667 30.8334C39.6269 30.8334 40 31.2065 40 31.6667V33.3334C40 33.7936 39.6269 34.1667 39.1667 34.1667H34.1667C33.7064 34.1667 33.3333 33.7936 33.3333 33.3334C33.3333 31.9527 34.4526 30.8334 35.8333 30.8334H39.1667ZM25 14.1667V15.8334H19.1667V14.1667H25ZM25 12.5H23.3333V10.8334H25V12.5ZM10.0358 12.5C10.3888 11.5016 11.3326 10.8339 12.3917 10.8334H21.6667V12.5H19.1667C18.2462 12.5 17.5 13.2462 17.5 14.1667V15.8334C17.5 16.7538 18.2462 17.5 19.1667 17.5H25V17.9242C25.009 20.6644 26.34 23.2318 28.5742 24.8184L30 25.8334H5.34333L10.0358 12.5ZM1.66667 30C1.66667 28.6193 2.78595 27.5 4.16667 27.5H32.3417L34.86 29.2934C32.9912 29.7423 31.6719 31.4114 31.6667 33.3334C31.6667 34.7141 32.786 35.8334 34.1667 35.8334H39.1667C40.5474 35.8334 41.6667 34.7141 41.6667 33.3334V31.6667C41.6639 30.6373 41.0305 29.7148 40.0708 29.3425L42.1342 27.8734C42.8815 28.3206 43.3374 29.1291 43.3333 30L43.3334 42.5H40.8333V40.8334C40.8333 39.9129 40.0871 39.1667 39.1667 39.1667H37.5C36.5795 39.1667 35.8333 39.9129 35.8333 40.8334V42.5H9.16667V40.8334C9.16667 39.9129 8.42047 39.1667 7.5 39.1667H5.83333C4.91286 39.1667 4.16667 39.9129 4.16667 40.8334V42.5H1.66667V30Z" fill="white"/>
<path d="M15 12.5H13.5742C12.5148 12.5012 11.5706 13.1685 11.2159 14.1667L8.08752 23.0567C7.93472 23.4909 8.16287 23.9668 8.59711 24.1196C9.03134 24.2724 9.50722 24.0442 9.66002 23.61L12.7884 14.7233C12.9057 14.3899 13.2207 14.1668 13.5742 14.1667H15C15.4603 14.1667 15.8334 13.7936 15.8334 13.3333C15.8334 12.8731 15.4603 12.5 15 12.5Z" fill="white"/>
<path d="M5.83301 35.8334H10.833C12.2137 35.8334 13.333 34.7141 13.333 33.3334C13.3303 31.0334 11.4664 29.1695 9.16634 29.1667H5.83301C4.4523 29.1667 3.33301 30.286 3.33301 31.6667V33.3334C3.33301 34.7141 4.4523 35.8334 5.83301 35.8334ZM4.99967 31.6667C4.99967 31.2065 5.37277 30.8334 5.83301 30.8334H9.16634C10.5471 30.8334 11.6663 31.9527 11.6663 33.3334C11.6663 33.7937 11.2932 34.1667 10.833 34.1667H5.83301C5.37277 34.1667 4.99967 33.7937 4.99967 33.3334V31.6667Z" fill="white"/>
<path d="M16.6667 40.8334H28.3333C29.2538 40.8334 30 40.0872 30 39.1667V35.8334C30 34.9129 29.2538 34.1667 28.3333 34.1667H16.6667C15.7462 34.1667 15 34.9129 15 35.8334V39.1667C15 40.0872 15.7462 40.8334 16.6667 40.8334ZM16.6667 35.8334H28.3333V39.1667H16.6667V35.8334Z" fill="white"/>
</g>
<defs>
<clipPath id="clip0_1018_2019">
<rect width="50" height="50" fill="white"/>
</clipPath>
</defs>
</svg>
