<svg width="70" height="70" viewBox="0 0 70 70" fill="none" xmlns="http://www.w3.org/2000/svg">
<path d="M27.3438 35H22.9688C22.6787 35 22.4005 35.1152 22.1954 35.3204C21.9902 35.5255 21.875 35.8037 21.875 36.0938V43.75C21.875 44.0401 21.9902 44.3183 22.1954 44.5234C22.4005 44.7285 22.6787 44.8438 22.9688 44.8438H27.3438C27.6338 44.8438 27.912 44.7285 28.1171 44.5234C28.3223 44.3183 28.4375 44.0401 28.4375 43.75V36.0938C28.4375 35.8037 28.3223 35.5255 28.1171 35.3204C27.912 35.1152 27.6338 35 27.3438 35ZM26.25 42.6562H24.0625V37.1875H26.25V42.6562Z" fill="#0162CA"/>
<path d="M42.6562 44.8438H47.0312C47.3213 44.8438 47.5995 44.7285 47.8046 44.5234C48.0098 44.3183 48.125 44.0401 48.125 43.75V36.0938C48.125 35.8037 48.0098 35.5255 47.8046 35.3204C47.5995 35.1152 47.3213 35 47.0312 35H42.6562C42.3662 35 42.088 35.1152 41.8829 35.3204C41.6777 35.5255 41.5625 35.8037 41.5625 36.0938V43.75C41.5625 44.0401 41.6777 44.3183 41.8829 44.5234C42.088 44.7285 42.3662 44.8438 42.6562 44.8438ZM43.75 37.1875H45.9375V42.6562H43.75V37.1875Z" fill="#0162CA"/>
<path d="M50.3982 23.0519C51.5818 22.514 52.5345 21.571 53.0845 20.393L60.3918 24.1928C61.1658 24.5953 62.0305 24.7915 62.9024 24.7627C63.7743 24.7339 64.6241 24.4809 65.3698 24.0281C66.1155 23.5754 66.732 22.9381 67.1599 22.1779C67.5877 21.4176 67.8125 20.5599 67.8125 19.6875C67.8125 19.4925 67.7603 19.301 67.6614 19.1329C67.5625 18.9647 67.4204 18.8262 67.2499 18.7314L37.7187 2.32519C37.4728 2.18888 37.1841 2.15227 36.912 2.22292L13.125 8.42804V7.65626C13.125 7.36618 13.0098 7.08798 12.8046 6.88286C12.5995 6.67774 12.3213 6.56251 12.0312 6.56251H3.28125C2.99117 6.56251 2.71297 6.67774 2.50785 6.88286C2.30273 7.08798 2.1875 7.36618 2.1875 7.65626V22.9688C2.1875 23.2588 2.30273 23.537 2.50785 23.7422C2.71297 23.9473 2.99117 24.0625 3.28125 24.0625H12.0312C12.3213 24.0625 12.5995 23.9473 12.8046 23.7422C13.0098 23.537 13.125 23.2588 13.125 22.9688V21.875H19.6875C19.7892 21.875 19.8905 21.8608 19.9883 21.8329L27.9381 19.5616L12.4414 31.9584C12.3214 32.0545 12.223 32.1748 12.1526 32.3115C12.0822 32.4482 12.0414 32.5983 12.0329 32.7518C12.0244 32.9053 12.0484 33.0589 12.1032 33.2025C12.1581 33.3462 12.2426 33.4766 12.3513 33.5854L15.6326 36.8666C15.8199 37.0541 16.069 37.1671 16.3334 37.1847C16.5979 37.2023 16.8597 37.1233 17.0703 36.9623L17.4997 36.6342V48.632C17.2711 48.9355 17.0752 49.2623 16.9153 49.607L9.60818 45.8072C8.83417 45.4047 7.96953 45.2085 7.09761 45.2373C6.22569 45.2662 5.3759 45.5192 4.63019 45.9719C3.88447 46.4246 3.26796 47.0619 2.84012 47.8221C2.41227 48.5824 2.18751 49.4401 2.1875 50.3125C2.18751 50.5076 2.23968 50.6991 2.3386 50.8672C2.43752 51.0353 2.57959 51.1739 2.7501 51.2686L32.2813 67.6748C32.5273 67.8115 32.8164 67.8481 33.0887 67.7771L56.875 61.572V62.3438C56.875 62.6338 56.9902 62.912 57.1954 63.1172C57.4005 63.3223 57.6787 63.4375 57.9688 63.4375H66.7188C67.0088 63.4375 67.287 63.3223 67.4921 63.1172C67.6973 62.912 67.8125 62.6338 67.8125 62.3438V47.0313C67.8125 46.7412 67.6973 46.463 67.4921 46.2579C67.287 46.0527 67.0088 45.9375 66.7188 45.9375H57.9688C57.6787 45.9375 57.4005 46.0527 57.1954 46.2579C56.9902 46.463 56.875 46.7412 56.875 47.0313V48.125H52.5V36.6342L52.9294 36.9623C53.14 37.1233 53.4018 37.2023 53.6663 37.1847C53.9307 37.1671 54.1798 37.0541 54.3672 36.8666L57.6484 33.5854C57.7571 33.4766 57.8416 33.3462 57.8965 33.2025C57.9514 33.0589 57.9753 32.9053 57.9668 32.7518C57.9583 32.5983 57.9175 32.4482 57.8472 32.3115C57.7768 32.1748 57.6783 32.0545 57.5583 31.9584L46.8594 23.3998C48.0445 23.6858 49.2914 23.5634 50.3982 23.0524V23.0519ZM10.9375 21.875H4.375V8.75001H10.9375V21.875ZM59.0625 48.125H65.625V61.25H59.0625V48.125ZM56.875 50.3125V59.3112L32.9606 65.5498L4.4383 49.7041C4.53219 49.2693 4.72511 48.8619 5.00206 48.5138C5.27902 48.1656 5.63254 47.8861 6.03514 47.6968C6.43774 47.5076 6.87857 47.4137 7.32335 47.4226C7.76813 47.4314 8.20487 47.5428 8.59961 47.7479L30.1204 58.9395C30.3778 59.0733 30.6779 59.0994 30.9546 59.012C31.2312 58.9246 31.4619 58.7308 31.5957 58.4734C31.7295 58.2159 31.7556 57.9159 31.6682 57.6392C31.5808 57.3625 31.3871 57.1319 31.1296 56.9981L18.859 50.6175C19.1828 49.8709 19.7728 49.2714 20.5142 48.9359C20.9583 48.7281 21.4441 48.6247 21.9343 48.6337C22.4245 48.6426 22.9062 48.7636 23.3424 48.9874L34.5108 54.5716C34.7556 54.694 35.0374 54.7202 35.3005 54.645L50.4658 50.3125H56.875ZM35.088 31.7197C35.0734 31.7197 35.0585 31.7188 35.0438 31.7188H35C34.9855 31.7188 34.971 31.719 34.9565 31.7196C33.8004 31.7438 32.6996 32.2197 31.89 33.0454C31.0804 33.8712 30.6264 34.9811 30.625 36.1375V50.1834L24.3208 47.0313C23.6051 46.6709 22.8185 46.4733 22.0175 46.4526C21.2165 46.4319 20.4208 46.5887 19.6875 46.9116V34.9615L35 23.2519L50.3125 34.9615V48.125C50.2108 48.125 50.1095 48.1392 50.0117 48.1671L39.375 51.2062V36.1375C39.3792 34.9871 38.933 33.8807 38.1318 33.055C37.3306 32.2294 36.2381 31.7501 35.088 31.7197ZM37.1875 36.1375V51.8313L35.1086 52.4252L32.8125 51.2772V36.1375C32.8131 35.5497 33.0455 34.9858 33.4591 34.5682C33.8727 34.1505 34.4342 33.9127 35.022 33.9063C35.3112 33.9089 35.597 33.969 35.8628 34.0829C36.1286 34.1968 36.3692 34.3623 36.5706 34.5698C36.772 34.7773 36.9302 35.0227 37.0361 35.2918C37.142 35.5609 37.1935 35.8484 37.1875 36.1375ZM55.2375 32.9032L53.498 34.6433L35.6643 21.0063C35.4736 20.8605 35.2401 20.7814 35 20.7814C34.7599 20.7814 34.5264 20.8605 34.3357 21.0063L16.502 34.6433L14.7619 32.9032L33.3849 18.0059L34.8914 17.5755L38.0531 19.1564L55.2375 32.9032ZM46.6576 21.0122L35.4892 15.428C35.2444 15.3056 34.9626 15.2794 34.6995 15.3546L19.5342 19.6875H13.125V10.6888L37.0394 4.4502L65.5617 20.2959C65.4678 20.7308 65.2749 21.1381 64.9979 21.4862C64.721 21.8344 64.3675 22.1139 63.9649 22.3032C63.5623 22.4925 63.1214 22.5863 62.6766 22.5774C62.2319 22.5686 61.7951 22.4572 61.4004 22.2521L39.8796 11.0606C39.6222 10.9267 39.3221 10.9006 39.0454 10.988C38.7688 11.0754 38.5381 11.2692 38.4043 11.5266C38.2705 11.7841 38.2444 12.0841 38.3318 12.3608C38.4192 12.6375 38.6129 12.8681 38.8704 13.002L51.141 19.3826C50.8173 20.1293 50.2272 20.7287 49.4858 21.0643C49.0416 21.272 48.5559 21.3752 48.0656 21.3662C47.5754 21.3572 47.0938 21.2361 46.6576 21.0122Z" fill="#0162CA"/>
</svg>
