<svg width="50" height="50" viewBox="0 0 50 50" fill="none" xmlns="http://www.w3.org/2000/svg">
<g clip-path="url(#clip0_1018_2252)">
<path fill-rule="evenodd" clip-rule="evenodd" d="M17.7291 25.7699C21.1731 25.7699 23.975 22.9682 23.975 19.5241C23.975 16.0801 21.1731 13.2782 17.7291 13.2782C14.2852 13.2782 11.4833 16.0801 11.4833 19.5241C11.4833 22.9682 14.2853 25.7699 17.7291 25.7699ZM17.7291 14.6455C20.4192 14.6455 22.6078 16.8341 22.6078 19.5242C22.6078 22.2143 20.4192 24.4028 17.7291 24.4028C15.039 24.4028 12.8505 22.2143 12.8505 19.5242C12.8505 16.834 15.0391 14.6455 17.7291 14.6455ZM7.84404 31.6532C7.84404 31.2757 8.1501 30.9696 8.52764 30.9696H17.7292C18.1067 30.9696 18.4128 31.2757 18.4128 31.6532C18.4128 32.0308 18.1067 32.3368 17.7292 32.3368H8.52764C8.1501 32.3368 7.84404 32.0308 7.84404 31.6532ZM27.6143 40.1676C27.6143 40.5451 27.3082 40.8512 26.9307 40.8512H8.52764C8.1501 40.8512 7.84404 40.5451 7.84404 40.1676C7.84404 39.79 8.1501 39.484 8.52764 39.484H26.9307C27.3082 39.484 27.6143 39.79 27.6143 40.1676ZM26.9307 35.2269C27.3082 35.2269 27.6143 35.5329 27.6143 35.9104C27.6143 36.288 27.3082 36.594 26.9307 36.594H8.52764C8.1501 36.594 7.84404 36.288 7.84404 35.9104C7.84404 35.5329 8.1501 35.2269 8.52764 35.2269H26.9307ZM48.4916 17.9645C45.5895 17.7336 43.1337 16.3673 41.5846 15.2617C41.4687 15.179 41.3299 15.1346 41.1875 15.1346H35.1796C35.0372 15.1346 34.8983 15.179 34.7825 15.2617C34.7167 15.3087 34.6485 15.3563 34.5795 15.4041V8.36016C34.5795 7.12227 33.5725 6.11514 32.3345 6.11514H25.8584V4.89697C25.8584 4.51943 25.5523 4.21338 25.1748 4.21338H21.6893C21.3636 2.32227 19.7117 0.878906 17.7291 0.878906C15.7465 0.878906 14.0947 2.32227 13.7692 4.21338H10.2836C9.90605 4.21338 9.6 4.51943 9.6 4.89697V6.11504H3.12393C1.88604 6.11504 0.878906 7.12217 0.878906 8.36006V46.876C0.878906 48.1141 1.88604 49.1211 3.12393 49.1211H32.3344C33.5724 49.1211 34.5794 48.1141 34.5794 46.8761V38.5928C35.7483 39.2819 36.9272 39.7892 38.0066 40.0783C38.0646 40.0938 38.124 40.1016 38.1836 40.1016C38.2432 40.1016 38.3026 40.0938 38.3605 40.0783C42.8717 38.8695 49.1211 33.8623 49.1211 27.6049V18.6459C49.1211 18.2894 48.8471 17.9927 48.4916 17.9645ZM32.3344 7.48223C32.8185 7.48223 33.2122 7.87607 33.2122 8.36006V16.2576C32.6774 16.5566 32.0895 16.8454 31.4564 17.0992V9.92158C31.4564 9.54404 31.1504 9.23799 30.7729 9.23799H25.8582V7.48223H32.3344ZM30.0894 34.7942V44.631H5.36904V10.6052H30.0894V17.5644C29.3887 17.7604 28.648 17.9029 27.8754 17.9645C27.5199 17.9928 27.246 18.2894 27.246 18.6459V27.6049C27.246 30.3017 28.4072 32.7658 30.0894 34.7942ZM10.9672 5.58057H14.3947C14.7723 5.58057 15.0783 5.27451 15.0783 4.89697C15.0783 3.43525 16.2675 2.24609 17.7292 2.24609C19.1909 2.24609 20.3802 3.43525 20.3802 4.89697C20.3802 5.27451 20.6862 5.58057 21.0638 5.58057H24.4912V9.23799H10.9672V5.58057ZM33.2122 46.8761C33.2122 47.3602 32.8185 47.7539 32.3344 47.7539H3.12393C2.63994 47.7539 2.24619 47.3602 2.24619 46.8761V8.36006C2.24619 7.87598 2.63994 7.48223 3.12393 7.48223H9.6V9.23799H4.68545C4.30791 9.23799 4.00186 9.54404 4.00186 9.92158V45.3146C4.00186 45.6922 4.30791 45.9982 4.68545 45.9982H30.7729C31.1505 45.9982 31.4565 45.6922 31.4565 45.3146V36.2476C32.0162 36.7747 32.6067 37.2598 33.2123 37.6977V46.8761H33.2122ZM47.7539 27.6049C47.7539 33.0235 42.1588 37.5552 38.1836 38.7083C34.2084 37.5552 28.6132 33.0235 28.6132 27.6049V19.2607C30.8951 18.9604 33.2237 18.0145 35.3963 16.5017H40.9708C43.1434 18.0146 45.4719 18.9604 47.7539 19.2607V27.6049ZM40.4509 17.513H35.9161C35.7825 17.513 35.6518 17.5521 35.5401 17.6257C33.7956 18.7744 31.9825 19.5755 30.1513 20.0065C29.8426 20.0793 29.6243 20.3548 29.6243 20.672V27.6048C29.6243 29.6304 30.5921 31.8163 32.3493 33.7599C33.9146 35.4912 35.9594 36.8824 37.9591 37.5767C38.0316 37.6019 38.1075 37.6145 38.1833 37.6145C38.2591 37.6145 38.335 37.6019 38.4075 37.5767C40.4073 36.8824 42.452 35.4912 44.0172 33.7599C45.7744 31.8163 46.7422 29.6304 46.7422 27.6048V20.672C46.7422 20.3548 46.524 20.0793 46.2152 20.0066C44.3839 19.5755 42.5709 18.7744 40.8265 17.6257C40.7152 17.5522 40.5845 17.513 40.4509 17.513ZM45.3753 27.6049C45.3753 31.1812 41.6989 34.8842 38.1835 36.2042C34.668 34.8843 30.9916 31.1812 30.9916 27.6049V21.204C32.738 20.7301 34.4597 19.95 36.1191 18.8803H40.2478C41.9071 19.9501 43.6286 20.7301 45.3752 21.2039V27.6049H45.3753ZM36.0667 29.4082L42.4977 24.1862C42.7905 23.9483 43.2213 23.993 43.4592 24.2859C43.6973 24.579 43.6525 25.0096 43.3595 25.2476L36.3475 30.9414C36.2249 31.041 36.0726 31.0943 35.9166 31.0943C35.8829 31.0943 35.8491 31.0919 35.8153 31.0868C35.6254 31.0583 35.4562 30.9513 35.3491 30.7918L32.8711 27.1014C32.6606 26.7879 32.7441 26.3632 33.0576 26.1527C33.3712 25.9423 33.7958 26.0259 34.0062 26.3393L36.0667 29.4082ZM16.8503 4.89697C16.8503 4.41289 17.2451 4.01807 17.7292 4.01807C18.2133 4.01807 18.6081 4.41289 18.6081 4.89697C18.6081 5.38105 18.2133 5.77588 17.7292 5.77588C17.2451 5.77588 16.8503 5.38105 16.8503 4.89697Z" fill="#0162CA"/>
</g>
<defs>
<clipPath id="clip0_1018_2252">
<rect width="50" height="50" fill="white"/>
</clipPath>
</defs>
</svg>
