<svg width="50" height="50" viewBox="0 0 50 50" fill="none" xmlns="http://www.w3.org/2000/svg">
<g clip-path="url(#clip0_1413_2390)">
<path d="M25 11.7188C24.4609 11.7188 24.0234 12.1563 24.0234 12.6953C24.0234 13.2344 24.4609 13.6719 25 13.6719C25.5391 13.6719 25.9766 13.2344 25.9766 12.6953C25.9766 12.1563 25.5391 11.7188 25 11.7188Z" fill="#0162CA"/>
<path d="M0.481334 23.3026C0.804577 23.4929 1.2079 23.4811 1.51942 23.2726C4.6788 21.1593 9.43182 21.1292 12.6384 23.1841C12.8115 23.3404 13.0402 23.4364 13.2919 23.4364C13.2954 23.4364 13.2989 23.4359 13.3024 23.4359C13.4979 23.4397 13.6943 23.3862 13.8641 23.2726C16.939 21.2156 20.8723 21.1261 24.0233 23.0008C24.0233 23.9787 24.0233 43.4459 24.0233 45.1172C24.0233 47.8148 26.2086 50 28.9061 50C31.5985 50 33.789 47.8096 33.789 45.1172V41.2109C33.789 40.6717 33.3516 40.2344 32.8124 40.2344C32.2731 40.2344 31.8358 40.6717 31.8358 41.2109V45.1172C31.8358 46.7326 30.5216 48.0469 28.9061 48.0469C27.2879 48.0469 25.9765 46.7354 25.9765 45.1172C25.9765 43.4329 25.9765 23.9695 25.9765 23.0008C29.1273 21.126 33.0607 21.2157 36.1355 23.2727C36.3001 23.3827 36.4893 23.4375 36.6786 23.4375C36.6852 23.4375 36.6918 23.4362 36.6984 23.436C36.7016 23.436 36.7047 23.4365 36.7079 23.4365C36.9595 23.4365 37.1881 23.3405 37.3612 23.1843C40.5678 21.1294 45.3209 21.1595 48.4805 23.2726C48.7921 23.4811 49.1956 23.4927 49.5185 23.3026C49.8417 23.1126 50.0274 22.7543 49.9967 22.3807C48.9661 9.88516 37.8488 0 25 0C12.1581 0 1.03456 9.87754 0.00330702 22.3807C-0.0274547 22.7543 0.158287 23.1126 0.481334 23.3026ZM25.9766 20.7913V16.6016C25.9766 16.0623 25.5392 15.625 25 15.625C24.4607 15.625 24.0234 16.0623 24.0234 16.6016V20.7912C20.9539 19.3498 17.4161 19.3423 14.342 20.7698C14.9726 10.8927 19.076 2.97734 24.0234 2.04609V8.78906C24.0234 9.32832 24.4607 9.76562 25 9.76562C25.5392 9.76562 25.9766 9.32832 25.9766 8.78906V2.04609C30.924 2.97734 35.0273 10.8928 35.6579 20.7698C32.5839 19.3422 29.0462 19.3499 25.9766 20.7913ZM47.8143 20.7038C46.3087 20.0597 44.6092 19.714 42.8708 19.7114C42.8643 19.7114 42.8581 19.7114 42.8517 19.7114C41.002 19.7114 39.1956 20.1013 37.6188 20.8251C37.2568 14.6924 35.3828 7.06191 31.063 2.7793C39.5331 5.11768 46.3239 12.1708 47.8143 20.7038ZM18.937 2.7792C14.6163 7.0627 12.7432 14.6914 12.381 20.825C9.22792 19.3776 5.36092 19.3453 2.18553 20.7038C3.67606 12.1708 10.467 5.11768 18.937 2.7792Z" fill="#0162CA"/>
<path d="M10.8399 42.1182C10.4226 42.1182 9.97218 41.8558 9.5717 41.3795C9.22462 40.9665 8.60851 40.9133 8.19582 41.2604C7.78293 41.6074 7.7297 42.2234 8.07677 42.6362C8.59884 43.2573 9.21271 43.69 9.8633 43.9082V45.0479C9.8633 45.5871 10.3005 46.0244 10.8399 46.0244C11.3792 46.0244 11.8164 45.5871 11.8164 45.0479V43.9033C12.953 43.5002 13.7695 42.4147 13.7695 41.1416C13.7695 39.5262 12.4553 38.2119 10.8399 38.2119C10.3014 38.2119 9.8633 37.7738 9.8633 37.2354C9.8633 36.6969 10.3014 36.2588 10.8399 36.2588C11.1858 36.2588 11.5511 36.4354 11.8961 36.7692C12.2837 37.1443 12.9021 37.1341 13.277 36.7466C13.652 36.3589 13.6418 35.7407 13.2542 35.3656C12.7586 34.886 12.2627 34.6148 11.8163 34.4667V33.3291C11.8163 32.7898 11.3791 32.3525 10.8398 32.3525C10.3004 32.3525 9.8632 32.7898 9.8632 33.3291V34.4736C8.72658 34.8768 7.91007 35.9622 7.91007 37.2354C7.91007 38.8508 9.22433 40.165 10.8398 40.165C11.3782 40.165 11.8163 40.6031 11.8163 41.1416C11.8163 41.6801 11.3783 42.1182 10.8399 42.1182Z" fill="#0162CA"/>
<path d="M10.7422 50C16.6654 50 21.4844 45.1811 21.4844 39.2578C21.4844 33.3346 16.6654 28.5156 10.7422 28.5156C4.81895 28.5156 0 33.3346 0 39.2578C0 45.1811 4.81895 50 10.7422 50ZM10.7422 30.4688C15.5885 30.4688 19.5312 34.4115 19.5312 39.2578C19.5312 44.1041 15.5885 48.0469 10.7422 48.0469C5.8959 48.0469 1.95312 44.1041 1.95312 39.2578C1.95312 34.4115 5.8959 30.4688 10.7422 30.4688Z" fill="#0162CA"/>
</g>
<defs>
<clipPath id="clip0_1413_2390">
<rect width="50" height="50" fill="white"/>
</clipPath>
</defs>
</svg>
