<svg width="50" height="50" viewBox="0 0 50 50" fill="none" xmlns="http://www.w3.org/2000/svg">
<g clip-path="url(#clip0_1018_2081)">
<path d="M45.8332 25C45.2572 25 44.7918 24.5335 44.7918 23.9583C44.7918 13.0448 35.9135 4.16684 25 4.16684C14.0865 4.16684 5.20821 13.0448 5.20821 23.9583C5.20821 24.5335 4.74167 25 4.16679 25C3.59154 25 3.125 24.5335 3.125 23.9583C3.125 11.8958 12.9375 2.08325 25 2.08325C37.0613 2.08325 46.875 11.8958 46.875 23.9583C46.875 24.5335 46.4092 25 45.8332 25Z" fill="white"/>
<path d="M35.417 25C34.841 25 34.3752 24.5335 34.3752 23.9583C34.3752 13.2302 30.0825 4.16684 25.0002 4.16684C19.919 4.16684 15.6252 13.2302 15.6252 23.9583C15.6252 24.5335 15.1587 25 14.5834 25C14.0085 25 13.542 24.5335 13.542 23.9583C13.542 11.6917 18.5751 2.08325 25.0002 2.08325C31.4253 2.08325 36.4584 11.6917 36.4584 23.9583C36.4584 24.5335 35.993 25 35.417 25Z" fill="white"/>
<path d="M24.9998 25C24.4249 25 23.958 24.5335 23.958 23.9582V1.04179C23.958 0.466537 24.4249 0 24.9998 0C25.5747 0 26.0416 0.466537 26.0416 1.04179V23.9582C26.0416 24.5335 25.5747 25 24.9998 25Z" fill="white"/>
<path d="M4.16662 25C3.89349 25 3.62189 24.8936 3.41742 24.6811C3.01764 24.2676 3.02908 23.6084 3.44374 23.2083C5.02989 21.6771 7.13637 20.8333 9.37483 20.8333C9.94971 20.8333 10.4166 21.3002 10.4166 21.875C10.4166 22.4499 9.94971 22.9168 9.37483 22.9168C7.67882 22.9168 6.08618 23.5531 4.88951 24.7075C4.68733 24.9032 4.42679 25 4.16662 25Z" fill="white"/>
<path d="M25.0002 25C24.7397 25 24.4795 24.9032 24.2773 24.7075C23.0803 23.5531 21.4876 22.9168 19.792 22.9168C18.096 22.9168 16.5033 23.5531 15.3063 24.7075C14.8939 25.1084 14.2336 25.0969 13.8334 24.6811C13.4337 24.2676 13.4451 23.6084 13.8598 23.2083C15.4471 21.6771 17.5531 20.8333 19.792 20.8333C22.0305 20.8333 24.1365 21.6771 25.7231 23.2094C26.1366 23.6084 26.1492 24.2688 25.749 24.6823C25.5449 24.8936 25.2729 25 25.0002 25Z" fill="white"/>
<path d="M35.417 25C35.1565 25 34.8959 24.9032 34.6941 24.7075C33.4971 23.5531 31.9045 22.9168 30.2084 22.9168C28.5128 22.9168 26.9202 23.5531 25.7231 24.7075C25.3108 25.1084 24.65 25.0969 24.2503 24.6811C23.8501 24.2676 23.8615 23.6084 24.2762 23.2083C25.8639 21.6771 27.9711 20.8333 30.2084 20.8333C32.4461 20.8333 34.5534 21.6771 36.1399 23.2094C36.5534 23.6084 36.566 24.2688 36.1659 24.6823C35.9618 24.8936 35.6898 25 35.417 25Z" fill="white"/>
<path d="M45.8332 25C45.5731 25 45.3125 24.9032 45.1103 24.7075C43.9137 23.5531 42.321 22.9168 40.625 22.9168C38.929 22.9168 37.3364 23.5531 36.1397 24.7075C35.7269 25.1084 35.0666 25.0969 34.6668 24.6811C34.2667 24.2676 34.2793 23.6084 34.6928 23.2083C36.2801 21.6771 38.3877 20.8333 40.625 20.8333C42.8623 20.8333 44.97 21.6771 46.5561 23.2094C46.9696 23.6084 46.9822 24.2688 46.5824 24.6823C46.378 24.8936 46.1064 25 45.8332 25Z" fill="white"/>
<path d="M23.958 35.4167H26.0416V37.5H23.958V35.4167Z" fill="white"/>
<path d="M23.958 31.25H26.0416V33.3332H23.958V31.25Z" fill="white"/>
<path d="M23.958 27.0833H26.0416V29.1668H23.958V27.0833Z" fill="white"/>
<path d="M14.5832 39.5833C11.7115 39.5833 9.375 37.2467 9.375 34.375V32.2918C9.375 29.4198 11.7115 27.0833 14.5832 27.0833C17.4553 27.0833 19.7918 29.4198 19.7918 32.2918V34.375C19.7918 37.2467 17.4553 39.5833 14.5832 39.5833ZM14.5832 29.1668C12.8605 29.1668 11.4582 30.5687 11.4582 32.2918V34.375C11.4582 36.0981 12.8605 37.5 14.5832 37.5C16.3063 37.5 17.7082 36.0981 17.7082 34.375V32.2918C17.7082 30.5687 16.3063 29.1668 14.5832 29.1668Z" fill="white"/>
<path d="M17.7103 50H11.4561C7.94048 49.9989 5.61008 47.7093 5.51318 47.6116C5.31749 47.4167 5.20801 47.1519 5.20801 46.875V43.2655C5.20801 42.5655 5.55515 41.9178 6.13727 41.5314L11.458 37.9845V37.5H13.5416V38.5418C13.5416 38.8897 13.3676 39.2147 13.0781 39.4085L7.2916 43.2655V46.3989C7.91644 46.8925 9.45186 47.9156 11.4572 47.9168H17.7103C19.734 47.9156 21.2549 46.8967 21.8748 46.4031V43.2655L16.0883 39.4085C15.7988 39.2147 15.6248 38.8897 15.6248 38.5418V37.5H17.708V37.9845L23.031 41.5321C23.6124 41.9197 23.958 42.5678 23.958 43.2655V46.875C23.958 47.1519 23.8489 47.4167 23.6528 47.6116C23.5559 47.7093 21.2248 49.9989 17.7103 50Z" fill="white"/>
<path d="M35.4166 39.5833C32.5445 39.5833 30.208 37.2467 30.208 34.375V32.2918C30.208 29.4198 32.5445 27.0833 35.4166 27.0833C38.2883 27.0833 40.6248 29.4198 40.6248 32.2918V34.375C40.6248 37.2467 38.2883 39.5833 35.4166 39.5833ZM35.4166 29.1668C33.6935 29.1668 32.2916 30.5687 32.2916 32.2918V34.375C32.2916 36.0981 33.6935 37.5 35.4166 37.5C37.1393 37.5 38.5416 36.0981 38.5416 34.375V32.2918C38.5416 30.5687 37.1393 29.1668 35.4166 29.1668Z" fill="white"/>
<path d="M38.5439 50H32.2897C28.7741 49.9989 26.4448 47.7093 26.3472 47.6116C26.1511 47.4167 26.042 47.1519 26.042 46.875V43.2655C26.042 42.5655 26.3899 41.9167 26.972 41.5314L32.292 37.9845V37.5H34.3752V38.5418C34.3752 38.8897 34.2012 39.2147 33.9117 39.4085L28.1252 43.2655V46.3989C28.75 46.8937 30.2855 47.9156 32.2897 47.9168H38.5439C40.568 47.9156 42.0889 46.8967 42.7084 46.4031V43.2655L36.9219 39.4085C36.6324 39.2147 36.4584 38.8897 36.4584 38.5418V37.5H38.542V37.9845L43.8639 41.5321C44.4449 41.9197 44.792 42.5678 44.792 43.2655V46.875C44.792 47.1519 44.6825 47.4167 44.4868 47.6116C44.3888 47.7093 42.0595 49.9989 38.5439 50Z" fill="white"/>
</g>
<defs>
<clipPath id="clip0_1018_2081">
<rect width="50" height="50" fill="white"/>
</clipPath>
</defs>
</svg>
