<svg width="50" height="50" viewBox="0 0 50 50" fill="none" xmlns="http://www.w3.org/2000/svg">
<path d="M37.4939 35.1656C37.3314 35.1656 37.1658 35.1141 37.0252 35.0078C36.6799 34.7484 36.6111 34.2594 36.8705 33.9141C38.8158 31.3281 39.8439 28.2453 39.8439 25C39.8439 23.9812 39.7392 22.9609 39.533 21.9687C39.4455 21.5453 39.7174 21.1328 40.1392 21.0453C40.5596 20.9578 40.9752 21.2297 41.0627 21.6516C41.2908 22.7484 41.4064 23.875 41.4064 25C41.4064 28.5859 40.2689 31.9953 38.1189 34.8547C37.9642 35.0594 37.7299 35.1656 37.4939 35.1656Z" fill="white"/>
<path d="M9.7125 29.0376C9.35156 29.0376 9.02656 28.7844 8.94844 28.4172C8.71406 27.2969 8.59375 26.1469 8.59375 25.0001C8.59375 21.4297 9.72031 18.0344 11.8531 15.1844C12.1109 14.8376 12.6016 14.7657 12.9469 15.0266C13.2922 15.286 13.3641 15.7751 13.1047 16.1204C11.175 18.6985 10.1562 21.7688 10.1562 25.0001C10.1562 26.0391 10.2641 27.0813 10.4781 28.0954C10.5672 28.5172 10.2969 28.9313 9.875 29.0204C9.82031 29.0329 9.76563 29.0376 9.7125 29.0376Z" fill="white"/>
<path d="M27.3438 32.8125H22.6562C22.225 32.8125 21.875 32.4625 21.875 32.0312V28.125H17.9688C17.5375 28.125 17.1875 27.775 17.1875 27.3438V22.6562C17.1875 22.225 17.5375 21.875 17.9688 21.875H21.875V17.9688C21.875 17.5375 22.225 17.1875 22.6562 17.1875H27.3438C27.775 17.1875 28.125 17.5375 28.125 17.9688V21.875H32.0312C32.4625 21.875 32.8125 22.225 32.8125 22.6562V27.3438C32.8125 27.775 32.4625 28.125 32.0312 28.125H28.125V32.0312C28.125 32.4625 27.775 32.8125 27.3438 32.8125ZM23.4375 31.25H26.5625V27.3438C26.5625 26.9125 26.9125 26.5625 27.3438 26.5625H31.25V23.4375H27.3438C26.9125 23.4375 26.5625 23.0875 26.5625 22.6562V18.75H23.4375V22.6562C23.4375 23.0875 23.0875 23.4375 22.6562 23.4375H18.75V26.5625H22.6562C23.0875 26.5625 23.4375 26.9125 23.4375 27.3438V31.25Z" fill="white"/>
<path d="M28.3453 46.875H20.1562C18.6297 46.875 17.1391 46.5343 15.725 45.8625L10.2516 43.2031C8.84844 42.5296 7.35313 42.1875 5.81406 42.1875H2.34375C1.9125 42.1875 1.5625 41.8375 1.5625 41.4062C1.5625 40.975 1.9125 40.625 2.34375 40.625H5.81406C7.58906 40.625 9.31094 41.0187 10.9312 41.7968L16.4031 44.4546C17.6 45.0218 18.8641 45.3125 20.1562 45.3125H28.1891L35.0125 42.4968C35.0125 42.4312 35.1047 41.8265 34.8047 41.3125C34.3469 40.525 33.2891 40.5 32.4875 40.6171C31.3234 40.7968 30.3609 41.1203 29.5125 41.4062L29.1906 41.514C28.7797 41.6468 28.3391 41.4296 28.2031 41.0187C28.0672 40.6093 28.2891 40.1671 28.6984 40.0312L29.0141 39.9265C29.9234 39.6203 30.9531 39.2734 32.2562 39.0734C35.4781 38.6046 36.2828 40.6171 36.4563 41.2437C36.7422 42.2765 36.5047 43.5687 35.6125 43.9421L28.6422 46.8187C28.5484 46.8546 28.4469 46.875 28.3453 46.875Z" fill="white"/>
<path d="M18.1797 35.7453C17.8859 35.7453 17.6031 35.5781 17.4703 35.2937C15.9391 31.9984 11.9609 31.5265 9.00313 32.7531C8.90781 32.7921 8.80625 32.8124 8.70313 32.8124H2.34375C1.9125 32.8124 1.5625 32.4624 1.5625 32.0312C1.5625 31.5999 1.9125 31.2499 2.34375 31.2499H8.55156C12.7812 29.5703 17.2016 31.0124 18.8891 34.6359C19.0703 35.0265 18.9016 35.4921 18.5094 35.6749C18.4016 35.7218 18.2906 35.7453 18.1797 35.7453Z" fill="white"/>
<path d="M25.5846 43.1608C25.483 43.1608 25.3815 43.1405 25.2862 43.1015L16.3393 39.3874C15.9409 39.2218 15.7518 38.7655 15.9174 38.3655C16.083 37.9671 16.5409 37.7796 16.9393 37.9436L25.1002 41.3311C25.4424 39.7202 24.5612 38.4671 22.4674 37.5999L17.869 35.6905C17.4705 35.5249 17.2815 35.0671 17.4471 34.6686C17.6127 34.2702 18.0705 34.0811 18.469 34.2468L23.0659 36.1561C26.2862 37.4905 27.4674 39.8671 26.3065 42.6749C26.2268 42.8671 26.0752 43.0202 25.883 43.0983C25.7877 43.1405 25.6862 43.1608 25.5846 43.1608Z" fill="white"/>
<path d="M16.8297 10.9984C14.3719 10.9984 13.7001 9.32031 13.5438 8.75781C13.2579 7.725 13.4954 6.43281 14.3876 6.05938L21.3579 3.18281C21.4516 3.14531 21.5532 3.125 21.6547 3.125H29.8422C31.3688 3.125 32.8594 3.46562 34.2735 4.1375L39.7469 6.79687C41.1516 7.47031 42.6469 7.8125 44.186 7.8125H47.6563C48.0876 7.8125 48.4376 8.1625 48.4376 8.59375C48.4376 9.025 48.0876 9.375 47.6563 9.375H44.186C42.411 9.375 40.6891 8.98125 39.0688 8.20312L33.5969 5.54688C32.4001 4.97812 31.136 4.6875 29.8438 4.6875H21.811L14.986 7.50313C14.986 7.56875 14.8938 8.17344 15.1938 8.6875C15.6532 9.475 16.7079 9.5 17.511 9.38281C18.6751 9.20312 19.6376 8.87969 20.486 8.59375L20.8079 8.48594C21.2188 8.35156 21.6594 8.57031 21.7954 8.98125C21.9313 9.39062 21.7094 9.83281 21.3001 9.96875L20.9844 10.0734C20.0751 10.3797 19.0454 10.7266 17.7422 10.9266C17.4141 10.9766 17.1094 10.9984 16.8297 10.9984Z" fill="white"/>
<path d="M37.9046 19.4453C34.9515 19.4453 32.3233 17.9703 31.1108 15.364C30.9296 14.9734 31.0983 14.5078 31.4905 14.325C31.8827 14.1437 32.3468 14.314 32.5296 14.7046C34.0593 17.9984 38.0359 18.4687 40.9968 17.2453C41.0921 17.2078 41.1937 17.1875 41.2968 17.1875H47.6562C48.0874 17.1875 48.4374 17.5375 48.4374 17.9687C48.4374 18.4 48.0874 18.75 47.6562 18.75H41.4484C40.2609 19.2203 39.0577 19.4453 37.9046 19.4453Z" fill="white"/>
<path d="M31.8311 15.8125C31.7311 15.8125 31.6296 15.7938 31.5311 15.7532L26.9343 13.8438C23.7139 12.5094 22.5327 10.1328 23.6936 7.32503C23.7733 7.13284 23.9249 6.97971 24.1171 6.90159C24.3093 6.82346 24.5233 6.8219 24.7155 6.90159L33.6624 10.6157C34.0608 10.7813 34.2499 11.2375 34.0843 11.6375C33.9186 12.0375 33.4639 12.2235 33.0624 12.0594L24.9014 8.6719C24.5593 10.2828 25.4405 11.536 27.5343 12.4032L32.1327 14.3125C32.5311 14.4782 32.7202 14.936 32.5546 15.3344C32.428 15.6313 32.1374 15.8125 31.8311 15.8125Z" fill="white"/>
<path d="M35.1796 37.5547C34.9796 37.5547 34.7796 37.4782 34.6265 37.3266C34.3218 37.0219 34.3218 36.5266 34.6265 36.2219C34.9327 35.9172 35.4812 35.8625 35.7858 36.1672C36.0905 36.4719 36.1452 36.9125 35.8405 37.2172L35.7312 37.3266C35.5796 37.4782 35.3796 37.5547 35.1796 37.5547Z" fill="white"/>
<path d="M14.8674 14.1172C14.6658 14.1172 14.4643 14.039 14.3112 13.8843C14.008 13.5765 14.0112 13.0828 14.319 12.7797L14.4299 12.6703C14.7362 12.3672 15.2315 12.3703 15.5346 12.6781C15.8377 12.9859 15.8346 13.4797 15.5268 13.7828L15.4158 13.8922C15.2643 14.0422 15.0658 14.1172 14.8674 14.1172Z" fill="white"/>
</svg>
