<svg width="50" height="50" viewBox="0 0 50 50" fill="none" xmlns="http://www.w3.org/2000/svg">
<path d="M19.5312 25H16.4062C16.199 25 16.0003 25.0823 15.8538 25.2288C15.7073 25.3753 15.625 25.574 15.625 25.7812V31.25C15.625 31.4572 15.7073 31.6559 15.8538 31.8024C16.0003 31.9489 16.199 32.0312 16.4062 32.0312H19.5312C19.7385 32.0312 19.9372 31.9489 20.0837 31.8024C20.2302 31.6559 20.3125 31.4572 20.3125 31.25V25.7812C20.3125 25.574 20.2302 25.3753 20.0837 25.2288C19.9372 25.0823 19.7385 25 19.5312 25ZM18.75 30.4688H17.1875V26.5625H18.75V30.4688Z" fill="#0162CA"/>
<path d="M30.4688 32.0312H33.5938C33.801 32.0312 33.9997 31.9489 34.1462 31.8024C34.2927 31.6559 34.375 31.4572 34.375 31.25V25.7812C34.375 25.574 34.2927 25.3753 34.1462 25.2288C33.9997 25.0823 33.801 25 33.5938 25H30.4688C30.2615 25 30.0628 25.0823 29.9163 25.2288C29.7698 25.3753 29.6875 25.574 29.6875 25.7812V31.25C29.6875 31.4572 29.7698 31.6559 29.9163 31.8024C30.0628 31.9489 30.2615 32.0312 30.4688 32.0312ZM31.25 26.5625H32.8125V30.4688H31.25V26.5625Z" fill="#0162CA"/>
<path d="M35.9987 16.4655C36.8442 16.0812 37.5246 15.4077 37.9175 14.5662L43.137 17.2804C43.6899 17.5679 44.3075 17.7081 44.9303 17.6875C45.5531 17.6669 46.1601 17.4862 46.6927 17.1628C47.2254 16.8394 47.6657 16.3842 47.9713 15.8412C48.2769 15.2981 48.4375 14.6855 48.4375 14.0623C48.4375 13.923 48.4002 13.7862 48.3296 13.6662C48.2589 13.5461 48.1574 13.4471 48.0356 13.3794L26.9419 1.66067C26.7663 1.56331 26.56 1.53716 26.3657 1.58763L9.375 6.01985V5.46858C9.375 5.26138 9.29269 5.06267 9.14618 4.91616C8.99966 4.76964 8.80095 4.68733 8.59375 4.68733H2.34375C2.13655 4.68733 1.93784 4.76964 1.79132 4.91616C1.64481 5.06267 1.5625 5.26138 1.5625 5.46858V16.4061C1.5625 16.6133 1.64481 16.812 1.79132 16.9585C1.93784 17.105 2.13655 17.1873 2.34375 17.1873H8.59375C8.80095 17.1873 8.99966 17.105 9.14618 16.9585C9.29269 16.812 9.375 16.6133 9.375 16.4061V15.6248H14.0625C14.1352 15.6248 14.2075 15.6147 14.2773 15.5948L19.9558 13.9724L8.88672 22.8273C8.80098 22.8959 8.73068 22.9819 8.6804 23.0795C8.63013 23.1771 8.601 23.2843 8.59493 23.394C8.58886 23.5036 8.60597 23.6133 8.64516 23.7159C8.68435 23.8185 8.74473 23.9117 8.82236 23.9894L11.1661 26.3331C11.3 26.467 11.4779 26.5477 11.6667 26.5603C11.8556 26.5729 12.0427 26.5165 12.1931 26.4015L12.4998 26.1671V34.7369C12.3365 34.9537 12.1966 35.1872 12.0823 35.4334L6.86299 32.7193C6.31012 32.4318 5.69252 32.2916 5.06972 32.3122C4.44692 32.3328 3.83993 32.5135 3.30728 32.8369C2.77462 33.1603 2.33426 33.6155 2.02865 34.1585C1.72305 34.7016 1.56251 35.3142 1.5625 35.9373C1.56251 36.0767 1.59977 36.2134 1.67043 36.3335C1.74108 36.4536 1.84257 36.5526 1.96436 36.6202L23.0581 48.339C23.2338 48.4366 23.4403 48.4628 23.6348 48.412L40.625 43.9798V44.5311C40.625 44.7383 40.7073 44.937 40.8538 45.0835C41.0003 45.23 41.199 45.3123 41.4062 45.3123H47.6562C47.8635 45.3123 48.0622 45.23 48.2087 45.0835C48.3552 44.937 48.4375 44.7383 48.4375 44.5311V33.5936C48.4375 33.3864 48.3552 33.1877 48.2087 33.0412C48.0622 32.8946 47.8635 32.8123 47.6562 32.8123H41.4062C41.199 32.8123 41.0003 32.8946 40.8538 33.0412C40.7073 33.1877 40.625 33.3864 40.625 33.5936V34.3748H37.5V26.1671L37.8067 26.4015C37.9571 26.5165 38.1442 26.5729 38.3331 26.5603C38.522 26.5477 38.6999 26.467 38.8337 26.3331L41.1774 23.9894C41.2551 23.9117 41.3155 23.8185 41.3546 23.7159C41.3938 23.6133 41.4109 23.5036 41.4049 23.394C41.3988 23.2843 41.3697 23.1771 41.3194 23.0795C41.2691 22.9819 41.1988 22.8959 41.1131 22.8273L33.471 16.714C34.3175 16.9183 35.2081 16.8308 35.9987 16.4658V16.4655ZM7.8125 15.6248H3.125V6.24983H7.8125V15.6248ZM42.1875 34.3748H46.875V43.7498H42.1875V34.3748ZM40.625 35.9373V42.365L23.5433 46.8211L3.17021 35.5028C3.23728 35.1922 3.37508 34.9012 3.5729 34.6525C3.77073 34.4039 4.02324 34.2042 4.31082 34.069C4.59839 33.9338 4.91327 33.8668 5.23097 33.8731C5.54866 33.8794 5.86062 33.959 6.14258 34.1055L21.5146 42.0994C21.6984 42.195 21.9128 42.2137 22.1104 42.1512C22.308 42.0888 22.4728 41.9504 22.5684 41.7665C22.664 41.5826 22.6826 41.3683 22.6202 41.1707C22.5577 40.9731 22.4193 40.8083 22.2354 40.7127L13.4707 36.1552C13.702 35.6219 14.1234 35.1937 14.653 34.954C14.9702 34.8056 15.3172 34.7318 15.6674 34.7382C16.0175 34.7445 16.3616 34.831 16.6731 34.9909L24.6506 38.9795C24.8254 39.067 25.0267 39.0857 25.2146 39.032L36.047 35.9373H40.625ZM25.0629 22.6568C25.0524 22.6568 25.0418 22.6561 25.0313 22.6561H25C24.9896 22.6561 24.9793 22.6563 24.9689 22.6567C24.1431 22.6739 23.3569 23.0139 22.7786 23.6037C22.2003 24.1935 21.876 24.9863 21.875 25.8123V35.8451L17.372 33.5936C16.8608 33.3362 16.299 33.195 15.7268 33.1803C15.1546 33.1655 14.5863 33.2774 14.0625 33.5081V24.9723L25 16.6083L35.9375 24.9723V34.3748C35.8648 34.3748 35.7925 34.385 35.7227 34.4049L28.125 36.5757V25.8123C28.128 24.9906 27.8093 24.2003 27.237 23.6106C26.6647 23.0208 25.8844 22.6785 25.0629 22.6568ZM26.5625 25.8123V37.0222L25.0775 37.4464L23.4375 36.6264V25.8123C23.438 25.3925 23.6039 24.9897 23.8993 24.6914C24.1948 24.393 24.5959 24.2232 25.0157 24.2186C25.2223 24.2205 25.4264 24.2634 25.6163 24.3447C25.8061 24.4261 25.978 24.5443 26.1218 24.6925C26.2657 24.8408 26.3787 25.0161 26.4544 25.2083C26.53 25.4005 26.5668 25.6058 26.5625 25.8123ZM39.4554 23.5021L38.2129 24.745L25.4745 15.0043C25.3383 14.9002 25.1715 14.8437 25 14.8437C24.8285 14.8437 24.6617 14.9002 24.5255 15.0043L11.7871 24.745L10.5442 23.5021L23.8464 12.8612L24.9225 12.5537L27.1808 13.6829L39.4554 23.5021ZM33.3269 15.0085L25.3494 11.0199C25.1746 10.9324 24.9733 10.9137 24.7854 10.9674L13.953 14.0623H9.375V7.6347L26.4567 3.17854L46.8298 14.4969C46.7627 14.8075 46.6249 15.0985 46.4271 15.3471C46.2293 15.5958 45.9768 15.7955 45.6892 15.9307C45.4016 16.0659 45.0867 16.1329 44.769 16.1266C44.4513 16.1202 44.1394 16.0407 43.8574 15.8942L28.4855 7.90022C28.3016 7.80463 28.0872 7.78599 27.8896 7.84843C27.692 7.91086 27.5272 8.04924 27.4316 8.23313C27.336 8.41702 27.3174 8.63136 27.3798 8.82899C27.4423 9.02661 27.5807 9.19134 27.7645 9.28694L36.5293 13.8446C36.298 14.3779 35.8766 14.8061 35.347 15.0457C35.0297 15.1941 34.6828 15.2679 34.3326 15.2614C33.9824 15.255 33.6384 15.1685 33.3269 15.0085Z" fill="#0162CA"/>
</svg>
