<svg width="50" height="50" viewBox="0 0 50 50" fill="none" xmlns="http://www.w3.org/2000/svg">
<g clip-path="url(#clip0_1413_2371)">
<path d="M45.8332 24.9998C45.2572 24.9998 44.7918 24.5333 44.7918 23.958C44.7918 13.0445 35.9135 4.1666 25 4.1666C14.0865 4.1666 5.20821 13.0445 5.20821 23.958C5.20821 24.5333 4.74167 24.9998 4.16679 24.9998C3.59154 24.9998 3.125 24.5333 3.125 23.958C3.125 11.8956 12.9375 2.08301 25 2.08301C37.0613 2.08301 46.875 11.8956 46.875 23.958C46.875 24.5333 46.4092 24.9998 45.8332 24.9998Z" fill="#0162CA"/>
<path d="M35.417 24.9998C34.841 24.9998 34.3752 24.5333 34.3752 23.958C34.3752 13.2299 30.0825 4.1666 25.0002 4.1666C19.919 4.1666 15.6252 13.2299 15.6252 23.958C15.6252 24.5333 15.1587 24.9998 14.5834 24.9998C14.0085 24.9998 13.542 24.5333 13.542 23.958C13.542 11.6915 18.5751 2.08301 25.0002 2.08301C31.4253 2.08301 36.4584 11.6915 36.4584 23.958C36.4584 24.5333 35.993 24.9998 35.417 24.9998Z" fill="#0162CA"/>
<path d="M24.9998 25C24.4249 25 23.958 24.5335 23.958 23.9582V1.04179C23.958 0.466537 24.4249 0 24.9998 0C25.5747 0 26.0416 0.466537 26.0416 1.04179V23.9582C26.0416 24.5335 25.5747 25 24.9998 25Z" fill="#0162CA"/>
<path d="M4.16662 24.9998C3.89349 24.9998 3.62189 24.8934 3.41742 24.6809C3.01764 24.2674 3.02908 23.6082 3.44374 23.208C5.02989 21.6768 7.13637 20.833 9.37483 20.833C9.94971 20.833 10.4166 21.2999 10.4166 21.8748C10.4166 22.4497 9.94971 22.9166 9.37483 22.9166C7.67882 22.9166 6.08618 23.5529 4.88951 24.7072C4.68733 24.9029 4.42679 24.9998 4.16662 24.9998Z" fill="#0162CA"/>
<path d="M25.0002 24.9998C24.7397 24.9998 24.4795 24.9029 24.2773 24.7072C23.0803 23.5529 21.4876 22.9166 19.792 22.9166C18.096 22.9166 16.5033 23.5529 15.3063 24.7072C14.8939 25.1081 14.2336 25.0967 13.8334 24.6809C13.4337 24.2674 13.4451 23.6082 13.8598 23.208C15.4471 21.6768 17.5531 20.833 19.792 20.833C22.0305 20.833 24.1365 21.6768 25.7231 23.2092C26.1366 23.6082 26.1492 24.2685 25.749 24.682C25.5449 24.8934 25.2729 24.9998 25.0002 24.9998Z" fill="#0162CA"/>
<path d="M35.4165 24.9998C35.156 24.9998 34.8955 24.9029 34.6937 24.7072C33.4966 23.5529 31.904 22.9166 30.208 22.9166C28.5123 22.9166 26.9197 23.5529 25.7226 24.7072C25.3103 25.1081 24.6496 25.0967 24.2498 24.6809C23.8496 24.2674 23.8611 23.6082 24.2757 23.208C25.8634 21.6768 27.9706 20.833 30.208 20.833C32.4457 20.833 34.5529 21.6768 36.1394 23.2092C36.5529 23.6082 36.5655 24.2685 36.1654 24.682C35.9613 24.8934 35.6893 24.9998 35.4165 24.9998Z" fill="#0162CA"/>
<path d="M45.8327 24.9998C45.5726 24.9998 45.312 24.9029 45.1098 24.7072C43.9132 23.5529 42.3205 22.9166 40.6245 22.9166C38.9285 22.9166 37.3359 23.5529 36.1392 24.7072C35.7265 25.1081 35.0661 25.0967 34.6664 24.6809C34.2662 24.2674 34.2788 23.6082 34.6923 23.208C36.2796 21.6768 38.3872 20.833 40.6245 20.833C42.8618 20.833 44.9695 21.6768 46.5556 23.2092C46.9691 23.6082 46.9817 24.2685 46.5819 24.682C46.3775 24.8934 46.1059 24.9998 45.8327 24.9998Z" fill="#0162CA"/>
<path d="M23.958 35.417H26.0416V37.5002H23.958V35.417Z" fill="#0162CA"/>
<path d="M23.958 31.25H26.0416V33.3332H23.958V31.25Z" fill="#0162CA"/>
<path d="M23.958 27.083H26.0416V29.1666H23.958V27.083Z" fill="#0162CA"/>
<path d="M14.5832 39.583C11.7115 39.583 9.375 37.2465 9.375 34.3748V32.2916C9.375 29.4195 11.7115 27.083 14.5832 27.083C17.4553 27.083 19.7918 29.4195 19.7918 32.2916V34.3748C19.7918 37.2465 17.4553 39.583 14.5832 39.583ZM14.5832 29.1666C12.8605 29.1666 11.4582 30.5685 11.4582 32.2916V34.3748C11.4582 36.0979 12.8605 37.4998 14.5832 37.4998C16.3063 37.4998 17.7082 36.0979 17.7082 34.3748V32.2916C17.7082 30.5685 16.3063 29.1666 14.5832 29.1666Z" fill="#0162CA"/>
<path d="M17.7103 50H11.4561C7.94048 49.9989 5.61008 47.7093 5.51318 47.6116C5.31749 47.4167 5.20801 47.1519 5.20801 46.875V43.2655C5.20801 42.5655 5.55515 41.9178 6.13727 41.5314L11.458 37.9845V37.5H13.5416V38.5418C13.5416 38.8897 13.3676 39.2147 13.0781 39.4085L7.2916 43.2655V46.3989C7.91644 46.8925 9.45186 47.9156 11.4572 47.9168H17.7103C19.734 47.9156 21.2549 46.8967 21.8748 46.4031V43.2655L16.0883 39.4085C15.7988 39.2147 15.6248 38.8897 15.6248 38.5418V37.5H17.708V37.9845L23.031 41.5321C23.6124 41.9197 23.958 42.5678 23.958 43.2655V46.875C23.958 47.1519 23.8489 47.4167 23.6528 47.6116C23.5559 47.7093 21.2248 49.9989 17.7103 50Z" fill="#0162CA"/>
<path d="M35.4166 39.583C32.5445 39.583 30.208 37.2465 30.208 34.3748V32.2916C30.208 29.4195 32.5445 27.083 35.4166 27.083C38.2883 27.083 40.6248 29.4195 40.6248 32.2916V34.3748C40.6248 37.2465 38.2883 39.583 35.4166 39.583ZM35.4166 29.1666C33.6935 29.1666 32.2916 30.5685 32.2916 32.2916V34.3748C32.2916 36.0979 33.6935 37.4998 35.4166 37.4998C37.1393 37.4998 38.5416 36.0979 38.5416 34.3748V32.2916C38.5416 30.5685 37.1393 29.1666 35.4166 29.1666Z" fill="#0162CA"/>
<path d="M38.5439 50H32.2897C28.7741 49.9989 26.4448 47.7093 26.3472 47.6116C26.1511 47.4167 26.042 47.1519 26.042 46.875V43.2655C26.042 42.5655 26.3899 41.9167 26.972 41.5314L32.292 37.9845V37.5H34.3752V38.5418C34.3752 38.8897 34.2012 39.2147 33.9117 39.4085L28.1252 43.2655V46.3989C28.75 46.8937 30.2855 47.9156 32.2897 47.9168H38.5439C40.568 47.9156 42.0889 46.8967 42.7084 46.4031V43.2655L36.9219 39.4085C36.6324 39.2147 36.4584 38.8897 36.4584 38.5418V37.5H38.542V37.9845L43.8639 41.5321C44.4449 41.9197 44.792 42.5678 44.792 43.2655V46.875C44.792 47.1519 44.6825 47.4167 44.4868 47.6116C44.3888 47.7093 42.0595 49.9989 38.5439 50Z" fill="#0162CA"/>
</g>
<defs>
<clipPath id="clip0_1413_2371">
<rect width="50" height="50" fill="white"/>
</clipPath>
</defs>
</svg>
