<svg width="70" height="70" viewBox="0 0 70 70" fill="none" xmlns="http://www.w3.org/2000/svg">
<path d="M0.546845 43.4741L8.25477 47.9242C8.37919 47.996 8.51652 48.0426 8.65894 48.0613C8.80136 48.08 8.94607 48.0705 9.0848 48.0333C9.22354 47.996 9.35359 47.9319 9.46753 47.8444C9.58146 47.7569 9.67705 47.6479 9.74884 47.5234L10.0265 47.0425L14.4904 49.656C14.3848 50.0355 14.3314 50.4276 14.3314 50.8215C14.3292 51.3872 14.4393 51.9476 14.6552 52.4705C14.8711 52.9933 15.1886 53.4681 15.5892 53.8675C15.9889 54.2677 16.4638 54.585 16.9865 54.8012C17.5092 55.0174 18.0695 55.1282 18.6351 55.1272C18.7181 55.1272 18.8013 55.1239 18.8842 55.1193C18.8796 55.2013 18.8766 55.2833 18.8766 55.3667C18.8754 55.9322 18.9859 56.4924 19.2017 57.0152C19.4176 57.5379 19.7345 58.0128 20.1344 58.4127C20.5343 58.8126 21.0092 59.1295 21.5319 59.3454C22.0546 59.5612 22.6148 59.6717 23.1804 59.6705C23.2638 59.6705 23.3467 59.6675 23.4295 59.6628C23.4248 59.7456 23.4217 59.8285 23.4217 59.9119C23.4204 60.4775 23.5309 61.0377 23.7467 61.5604C23.9626 62.0831 24.2795 62.5581 24.6794 62.958C25.0793 63.3579 25.5543 63.6749 26.077 63.8907C26.5997 64.1066 27.1599 64.2171 27.7254 64.2158C28.0283 64.2158 28.3304 64.1841 28.6267 64.1215C28.7641 64.9653 29.1977 65.7325 29.8496 66.2855C30.5016 66.8385 31.3292 67.1412 32.1841 67.1392C32.6164 67.1396 33.0453 67.0627 33.4505 66.9119L33.6678 67.1289C34.1365 67.5984 34.7257 67.9295 35.3705 68.0857C36.0153 68.2419 36.6907 68.2171 37.3223 68.0141C37.954 67.8111 38.5174 67.4378 38.9505 66.9352C39.3836 66.4326 39.6696 65.8203 39.7771 65.1656C40.0732 65.2288 40.3751 65.2609 40.6779 65.2613C41.2645 65.2621 41.845 65.1428 42.3838 64.9108C42.9225 64.6788 43.4081 64.3391 43.8107 63.9124C44.2133 63.4858 44.5243 62.9813 44.7246 62.43C44.925 61.8787 45.0104 61.2922 44.9757 60.7067C45.0577 60.7113 45.1397 60.7142 45.2231 60.7142C45.8097 60.7154 46.3902 60.5964 46.9291 60.3647C47.4679 60.133 47.9536 59.7935 48.3563 59.367C48.7589 58.9404 49.07 58.436 49.2703 57.8847C49.4706 57.3334 49.5559 56.747 49.521 56.1615C49.603 56.1661 49.6851 56.169 49.7685 56.169C50.5572 56.1682 51.3306 55.9509 52.0043 55.5408C52.678 55.1307 53.2262 54.5435 53.5891 53.8432C53.952 53.143 54.1157 52.3565 54.0623 51.5696C54.009 50.7827 53.7406 50.0255 53.2865 49.3806L59.3203 45.9113L60.2511 47.5234C60.3961 47.7747 60.635 47.9579 60.9152 48.033C61.1954 48.1081 61.494 48.0688 61.7452 47.9238L69.4531 43.4741C69.7043 43.3291 69.8876 43.0902 69.9627 42.81C70.0378 42.5298 69.9984 42.2313 69.8534 41.98L59.7443 24.4706C59.5992 24.2194 59.3604 24.0362 59.0802 23.9611C58.8001 23.886 58.5016 23.9253 58.2504 24.0703L50.5424 28.5205C50.2912 28.6655 50.1079 28.9044 50.0329 29.1846C49.9578 29.4648 49.9971 29.7633 50.1421 30.0146L51.0361 31.563L49.7583 32.0469C49.1721 32.2815 48.5205 32.2946 47.9252 32.0839L39.4056 29.2442C38.9328 29.0824 38.4326 29.0165 37.934 29.0505C37.4355 29.0845 36.9488 29.2177 36.5024 29.4421L34.8071 30.2777C34.7911 30.2682 34.7756 30.2579 34.7588 30.249L32.7393 29.1826C32.1952 28.891 31.5881 28.7367 30.9708 28.7329C30.3535 28.7291 29.7446 28.8761 29.1969 29.161L26.5011 30.5419C26.2967 30.6562 26.067 30.7177 25.8328 30.7208L19.4071 30.7944L19.8574 30.0142C20.0024 29.7629 20.0417 29.4644 19.9667 29.1842C19.8916 28.904 19.7083 28.6651 19.4571 28.5201L11.7496 24.0703C11.4984 23.9253 11.1999 23.886 10.9197 23.9611C10.6396 24.0362 10.4007 24.2194 10.2557 24.4706L0.146532 41.98C0.00149863 42.2313 -0.0378048 42.5298 0.0372678 42.81C0.11234 43.0902 0.29564 43.3291 0.546845 43.4741ZM17.1359 52.3212C16.7405 51.9224 16.5186 51.3835 16.5186 50.8219C16.5186 50.2603 16.7405 49.7215 17.1359 49.3227L20.9821 45.4765C21.3802 45.0811 21.9188 44.8596 22.4799 44.8606C23.0409 44.8616 23.5788 45.085 23.9755 45.4817C24.3722 45.8785 24.5955 46.4164 24.5964 46.9774C24.5973 47.5385 24.3757 48.0771 23.9803 48.4751L20.1344 52.3212C19.7364 52.7181 19.1973 52.9411 18.6351 52.9411C18.073 52.9411 17.5339 52.7181 17.1359 52.3212ZM21.6812 56.8664C21.286 56.4678 21.0642 55.9292 21.064 55.3678C21.0638 54.8064 21.2853 54.2677 21.6803 53.8688L21.6812 53.8679L25.5274 50.0218C25.926 49.6292 26.4637 49.41 27.0233 49.4121C27.5828 49.4142 28.1189 49.6374 28.5145 50.0331C28.9102 50.4288 29.1334 50.9648 29.1355 51.5243C29.1376 52.0839 28.9185 52.6216 28.5258 53.0202L24.6796 56.8664C24.2817 57.2634 23.7425 57.4863 23.1804 57.4863C22.6183 57.4863 22.0792 57.2634 21.6812 56.8664ZM26.2265 61.4116C25.8294 61.0137 25.6064 60.4745 25.6064 59.9123C25.6064 59.3502 25.8294 58.811 26.2265 58.4131L30.0725 54.5671C30.4701 54.1694 31.0094 53.946 31.5717 53.946C32.1341 53.946 32.6734 54.1694 33.071 54.5671C33.4686 54.9647 33.692 55.504 33.692 56.0663C33.692 56.6286 33.4686 57.1679 33.071 57.5656C33.0343 57.6028 33.0004 57.6426 32.9694 57.6847C32.8546 57.7742 32.7453 57.8707 32.6421 57.9734L29.6327 60.9826C29.5298 61.0861 29.4332 61.1956 29.3434 61.3107C29.3015 61.3416 29.2619 61.3754 29.2248 61.4119C28.8269 61.8089 28.2877 62.0318 27.7256 62.0317C27.1635 62.0317 26.6243 61.8087 26.2265 61.4116ZM31.1798 64.5391C30.9134 64.2724 30.7639 63.911 30.7639 63.5342C30.7639 63.1573 30.9134 62.7959 31.1798 62.5293L34.189 59.5201C34.4555 59.2536 34.8169 59.1039 35.1938 59.1039C35.5707 59.1039 35.9322 59.2536 36.1987 59.5201C36.4652 59.7866 36.615 60.1481 36.615 60.525C36.615 60.9019 36.4652 61.2634 36.1987 61.5299L33.1895 64.5391C32.9221 64.8038 32.561 64.9523 32.1847 64.9523C31.8083 64.9523 31.4472 64.8038 31.1798 64.5391ZM37.224 65.5826C36.9595 65.8464 36.6018 65.9955 36.2283 65.9977C35.8548 65.9999 35.4955 65.855 35.2279 65.5944L37.2361 63.5861C37.4968 63.8538 37.6417 64.2133 37.6394 64.5869C37.6371 64.9605 37.4879 65.3182 37.224 65.5826ZM42.1777 62.4553C41.7798 62.8523 41.2407 63.0752 40.6786 63.0752C40.1165 63.0752 39.5774 62.8523 39.1795 62.4553C39.1422 62.4186 39.1024 62.3847 39.0602 62.3537C38.9707 62.2389 38.8742 62.1296 38.7715 62.0264L38.5622 61.8171C38.7545 61.3175 38.8331 60.7812 38.7922 60.2474C38.7513 59.7136 38.592 59.1956 38.3257 58.7311C38.0595 58.2666 37.6931 57.8673 37.2532 57.5621C36.8133 57.257 36.3109 57.0538 35.7825 56.9672C35.9021 56.4047 35.9088 55.8241 35.8021 55.2591C36.2047 55.0353 36.6693 54.9486 37.1255 55.012C37.5818 55.0754 38.0051 55.2856 38.3314 55.6108L42.1777 59.4569C42.5748 59.8548 42.7978 60.394 42.7978 60.9561C42.7978 61.5183 42.5748 62.0574 42.1777 62.4553ZM46.7231 57.9101C46.3242 58.3054 45.7854 58.5271 45.2239 58.5271C44.6624 58.5271 44.1236 58.3054 43.7248 57.9101L39.8785 54.0639C39.4926 53.6642 39.2791 53.1289 39.2838 52.5732C39.2886 52.0176 39.5113 51.486 39.904 51.0929C40.2967 50.6998 40.828 50.4766 41.3837 50.4713C41.9393 50.466 42.4748 50.679 42.875 51.0645V51.0653L46.7211 54.9113C47.1185 55.3091 47.3417 55.8482 47.342 56.4105C47.3422 56.9727 47.1194 57.512 46.7224 57.9101H46.7231ZM51.2681 53.3649C50.8703 53.7619 50.3312 53.9849 49.7691 53.9849C49.207 53.9849 48.6679 53.7619 48.27 53.3649L44.4237 49.5187C44.0311 49.1201 43.8119 48.5824 43.814 48.0228C43.8161 47.4633 44.0393 46.9273 44.435 46.5316C44.8307 46.1359 45.3667 45.9127 45.9262 45.9106C46.4858 45.9085 47.0235 46.1277 47.4221 46.5203L51.2677 50.3672C51.6631 50.766 51.8849 51.3048 51.8849 51.8664C51.8849 52.4279 51.6631 52.9668 51.2677 53.3656L51.2681 53.3649ZM58.3976 26.5117L67.4128 42.1265L61.5993 45.4829L52.5832 29.868L58.3976 26.5117ZM37.4695 31.4043C37.6597 31.3047 37.8685 31.2458 38.0827 31.2312C38.2969 31.2166 38.5117 31.2467 38.7137 31.3195L47.2334 34.1595C48.3067 34.5275 49.4757 34.504 50.5333 34.0929L52.1445 33.4824L58.227 44.0173L51.7412 47.7464L48.9684 44.9735C48.6747 44.6798 48.34 44.4303 47.9746 44.2328L39.2553 37.6961C38.7012 37.2814 38.0397 37.0346 37.3493 36.9852L36.0682 36.8721C35.3507 36.8032 34.6286 36.9407 33.9867 37.2684C33.3448 37.5961 32.81 38.1005 32.4451 38.722L30.7467 41.5151C30.7216 41.5622 30.6821 41.6002 30.634 41.6234C30.5859 41.6466 30.5316 41.6539 30.4791 41.6441L27.8951 41.3187C27.8561 41.3138 27.8186 41.3005 27.7852 41.2797C27.7517 41.259 27.7232 41.2313 27.7015 41.1985C27.6797 41.1657 27.6653 41.1286 27.6593 41.0897C27.6532 41.0508 27.6556 41.0111 27.6662 40.9733L29.0198 36.1744C29.0773 35.9509 29.1837 35.7429 29.3313 35.5654C29.4789 35.388 29.6641 35.2455 29.8734 35.1482L37.4695 31.4043ZM25.858 32.9082C26.4306 32.9019 26.9932 32.7581 27.4986 32.4889L30.1944 31.108C30.429 30.9818 30.6914 30.9165 30.9578 30.9181C31.2241 30.9197 31.4857 30.9882 31.7187 31.1172L32.3874 31.4701L28.9057 33.1863C28.4209 33.4185 27.992 33.7526 27.6482 34.1658C27.3044 34.5791 27.0539 35.0617 26.9139 35.5807L25.5604 40.3795C25.4642 40.7204 25.4427 41.078 25.4975 41.4279C25.5522 41.7779 25.6818 42.1119 25.8775 42.4071C26.0732 42.7023 26.3302 42.9519 26.6312 43.1386C26.9321 43.3254 27.2698 43.445 27.6213 43.4893L30.2052 43.8145C30.6766 43.8778 31.1561 43.8014 31.5845 43.5949C32.0128 43.3883 32.3712 43.0606 32.6152 42.6524L34.3138 39.8595C34.4681 39.5883 34.6977 39.3676 34.9749 39.2243C35.2521 39.0809 35.5649 39.021 35.8754 39.0518L37.1564 39.1649C37.4408 39.1786 37.7145 39.2769 37.9427 39.4471L44.145 44.0967C43.3904 44.4376 42.7504 44.9894 42.3021 45.6855C41.8537 46.3816 41.6162 47.1925 41.618 48.0206C41.618 48.1034 41.621 48.1858 41.6255 48.268C41.04 48.2331 40.4536 48.3184 39.9023 48.5187C39.351 48.719 38.8466 49.0301 38.4201 49.4327C37.9935 49.8353 37.654 50.321 37.4223 50.8598C37.1906 51.3987 37.0716 51.9792 37.0728 52.5658C37.0728 52.6488 37.0758 52.7311 37.0803 52.8132C36.3104 52.7684 35.5427 52.9306 34.8567 53.2829C34.7807 53.1934 34.7017 53.1051 34.6173 53.0213C34.1878 52.5916 33.672 52.2579 33.1041 52.0421C32.5361 51.8263 31.9289 51.7334 31.3224 51.7695C31.327 51.6875 31.3299 51.6055 31.3299 51.5221C31.3312 50.9356 31.2125 50.355 30.981 49.8162C30.7495 49.2773 30.4102 48.7915 29.9839 48.3887C29.5575 47.986 29.0533 47.6747 28.5022 47.4742C27.951 47.2736 27.3647 47.188 26.7792 47.2227C26.8139 46.6373 26.7284 46.051 26.528 45.5C26.3275 44.9489 26.0165 44.4446 25.6139 44.0183C25.2113 43.592 24.7257 43.2525 24.187 43.0209C23.6483 42.7893 23.0678 42.6703 22.4815 42.6714C21.9158 42.6693 21.3553 42.7793 20.8324 42.9952C20.3096 43.2111 19.8347 43.5286 19.4354 43.9292L15.5962 47.7695L11.1203 45.1485L18.1358 32.9969L25.858 32.9082ZM11.603 26.5117L17.4166 29.868L8.4012 45.4829L2.58778 42.1265L11.603 26.5117ZM35 27.4516C37.535 27.4517 40.0132 26.6999 42.121 25.2916C44.2289 23.8832 45.8718 21.8814 46.8419 19.5393C47.8121 17.1972 48.0659 14.62 47.5714 12.1336C47.0768 9.64726 45.8561 7.36338 44.0635 5.57081C42.271 3.77823 39.9871 2.55747 37.5007 2.06289C35.0144 1.56831 32.4372 1.82213 30.0951 2.79226C27.753 3.76238 25.7512 5.40523 24.3427 7.51307C22.9343 9.6209 22.1826 12.099 22.1826 14.6341C22.1865 18.0323 23.5381 21.2902 25.941 23.6931C28.3439 26.0961 31.6018 27.4477 35 27.4516ZM35 4.00437C37.1024 4.00434 39.1576 4.62776 40.9057 5.79579C42.6539 6.96382 44.0164 8.624 44.8209 10.5664C45.6255 12.5088 45.836 14.6461 45.4259 16.7082C45.0157 18.7702 44.0033 20.6643 42.5167 22.1509C41.03 23.6376 39.1359 24.65 37.0739 25.0602C35.0119 25.4703 32.8745 25.2598 30.9321 24.4552C28.9897 23.6506 27.3295 22.2881 26.1615 20.54C24.9935 18.7919 24.3701 16.7367 24.3701 14.6343C24.3733 11.816 25.4942 9.11408 27.487 7.12126C29.4798 5.12844 32.1817 4.00759 35 4.00437ZM30.1344 14.6857C29.9639 14.451 29.8935 14.1582 29.9389 13.8717C29.9842 13.5852 30.1415 13.3284 30.3761 13.1578C30.6108 12.9873 30.9036 12.9169 31.1901 12.9623C31.4766 13.0076 31.7334 13.1649 31.904 13.3995L33.5781 15.7035L39.1512 11.1382C39.3758 10.9566 39.6631 10.8712 39.9505 10.9007C40.2379 10.9302 40.5019 11.0722 40.6849 11.2956C40.868 11.5191 40.9552 11.8059 40.9276 12.0934C40.8999 12.381 40.7596 12.6459 40.5374 12.8304L34.0677 18.1301C33.9525 18.2245 33.8192 18.2944 33.676 18.3355C33.5328 18.3765 33.3827 18.3879 33.235 18.3689C33.0872 18.3499 32.9449 18.3009 32.8168 18.2249C32.6887 18.1489 32.5774 18.0476 32.4898 17.9271L30.1344 14.6857Z" fill="#0162CA"/>
</svg>
