<svg width="50" height="49" viewBox="0 0 50 49" fill="none" xmlns="http://www.w3.org/2000/svg">
<path fill-rule="evenodd" clip-rule="evenodd" d="M27.071 0C23.4457 0 20.5068 2.93885 20.5068 6.56417V7.54619C20.5068 11.1715 23.4457 14.1104 27.071 14.1104C30.6963 14.1104 33.6351 11.1715 33.6351 7.54619V6.56417C33.6351 2.93885 30.6963 0 27.071 0ZM22.3417 6.56417C22.3417 3.95225 24.4591 1.83486 27.071 1.83486C29.6829 1.83486 31.8003 3.95225 31.8003 6.56417V7.54619C31.8003 10.1581 29.6829 12.2755 27.071 12.2755C24.4591 12.2755 22.3417 10.1581 22.3417 7.54619V6.56417Z" fill="#0162CA"/>
<path fill-rule="evenodd" clip-rule="evenodd" d="M4.58691 9.4036C4.58691 5.98351 7.35948 3.21094 10.7796 3.21094C14.1997 3.21094 16.9722 5.98351 16.9722 9.4036V10.321C16.9722 13.7411 14.1997 16.5137 10.7796 16.5137C7.35948 16.5137 4.58691 13.7411 4.58691 10.321V9.4036ZM10.7796 5.0458C8.37283 5.0458 6.42178 6.99686 6.42178 9.4036V10.321C6.42178 12.7278 8.37283 14.6788 10.7796 14.6788C13.1863 14.6788 15.1374 12.7278 15.1374 10.321V9.4036C15.1374 6.99686 13.1863 5.0458 10.7796 5.0458Z" fill="#0162CA"/>
<path d="M0 24.5412C0 20.361 3.38867 16.9723 7.56881 16.9723H13.0734C14.5428 16.9723 15.916 17.3918 17.0776 18.1173C18.5341 16.0676 20.9277 14.7305 23.6335 14.7305H29.5258C31.4096 14.7305 33.1444 15.3797 34.5149 16.466C34.9119 16.7808 34.9787 17.3578 34.6639 17.7549C34.3492 18.152 33.7722 18.2187 33.375 17.904C32.3172 17.0655 30.9812 16.5653 29.5258 16.5653H23.6335C20.2081 16.5653 17.4312 19.3422 17.4312 22.7677C17.4312 23.2744 17.0205 23.6851 16.5138 23.6851C16.0071 23.6851 15.5963 23.2744 15.5963 22.7677C15.5963 21.692 15.8077 20.6657 16.1911 19.7279C15.2938 19.1453 14.224 18.8072 13.0734 18.8072H7.56881C4.40202 18.8072 1.83486 21.3744 1.83486 24.5412V34.8623C1.83486 35.369 1.42413 35.7797 0.917431 35.7797C0.410748 35.7797 0 35.369 0 34.8623V24.5412Z" fill="#0162CA"/>
<path fill-rule="evenodd" clip-rule="evenodd" d="M41.5819 12.3853C44.3043 12.3853 46.5117 14.5923 46.5117 17.3148V18.0126C46.5117 20.7351 44.3043 22.9422 41.5819 22.9422C38.8594 22.9422 36.6523 20.7351 36.6523 18.0126V17.3148C36.6523 14.5923 38.8594 12.3853 41.5819 12.3853ZM44.6768 17.3148C44.6768 15.6057 43.291 14.2201 41.5819 14.2201C39.8728 14.2201 38.4872 15.6057 38.4872 17.3148V18.0126C38.4872 19.7218 39.8728 21.1073 41.5819 21.1073C43.291 21.1073 44.6768 19.7218 44.6768 18.0126V17.3148Z" fill="#0162CA"/>
<path d="M50.0005 29.3239C50.0005 26.0233 47.3248 23.3477 44.0244 23.3477H39.8377C38.4372 23.3477 37.1469 23.8306 36.1278 24.6383C35.7308 24.953 35.664 25.5301 35.9788 25.9272C36.2935 26.3242 36.8705 26.391 37.2677 26.0762C37.974 25.5163 38.8656 25.1825 39.8377 25.1825H44.0244C46.3115 25.1825 48.1656 27.0367 48.1656 29.3239V37.1738C48.1656 37.6804 48.5762 38.0912 49.0831 38.0912C49.5899 38.0912 50.0005 37.6804 50.0005 37.1738V29.3239Z" fill="#0162CA"/>
<path fill-rule="evenodd" clip-rule="evenodd" d="M21.5597 21.5595V29.587H13.5321C12.5188 29.587 11.6973 30.4085 11.6973 31.4219V36.9264C11.6973 37.9398 12.5188 38.7613 13.5321 38.7613H21.5597V46.7888C21.5597 47.8021 22.3812 48.6237 23.3945 48.6237H28.8991C29.9124 48.6237 30.734 47.8021 30.734 46.7888V38.7613H38.7615C39.7748 38.7613 40.5963 37.9398 40.5963 36.9264V31.4219C40.5963 30.4085 39.7748 29.587 38.7615 29.587H30.734V21.5595C30.734 20.5461 29.9124 19.7246 28.8991 19.7246H23.3945C22.3812 19.7246 21.5597 20.5461 21.5597 21.5595ZM21.5597 31.4219C22.573 31.4219 23.3945 30.6003 23.3945 29.587V21.5595H28.8991V29.587C28.8991 30.6003 29.7206 31.4219 30.734 31.4219H38.7615V36.9264H30.734C29.7206 36.9264 28.8991 37.748 28.8991 38.7613V46.7888H23.3945V38.7613C23.3945 37.748 22.573 36.9264 21.5597 36.9264H13.5321V31.4219H21.5597Z" fill="#0162CA"/>
</svg>
