<svg width="70" height="70" viewBox="0 0 70 70" fill="none" xmlns="http://www.w3.org/2000/svg">
<g clip-path="url(#clip0_1656_1729)">
<path d="M42.7093 30.9435L51.8233 37.4314C52.2284 37.7198 52.7716 37.7198 53.1767 37.4314L62.2907 30.9435C64.1893 29.5988 65.3223 27.4205 65.3333 25.0939V11.2899C65.334 10.8254 65.0591 10.4047 64.6333 10.2189L52.9667 5.17887C52.6718 5.0517 52.3375 5.0517 52.0427 5.17887L40.376 10.2189C39.9503 10.4047 39.6753 10.8254 39.676 11.2899V25.0939C39.685 27.4187 40.8144 29.5966 42.7093 30.9435ZM42 12.0564L52.5 7.52154L63 12.0564V25.0939C62.9915 26.6686 62.2228 28.1421 60.9362 29.05L52.5 35.049L44.0638 29.043C42.7788 28.1369 42.0102 26.6662 42 25.0939V12.0564Z" fill="#0162CA"/>
<path d="M49.4667 27.7668C49.9707 28.1451 50.6841 28.0547 51.0778 27.5626L60.4112 15.896C60.8139 15.3928 60.7324 14.6583 60.2292 14.2556C59.7259 13.8529 58.9915 13.9344 58.5888 14.4376L49.9555 25.2223L46.2 22.4001C45.8665 22.1501 45.425 22.0969 45.0417 22.2606C44.6584 22.4243 44.3916 22.7801 44.3417 23.1939C44.2919 23.6077 44.4666 24.0167 44.8 24.2668L49.4667 27.7668Z" fill="#0162CA"/>
<path d="M2.33333 61.8333H3.5V66.5C3.5 68.433 5.067 70 7 70H14C15.933 70 17.5 68.433 17.5 66.5V61.8333H45.5V66.5C45.5 68.433 47.067 70 49 70H56C57.933 70 59.5 68.433 59.5 66.5V61.8333H60.6667C61.9553 61.8333 63 60.7886 63 59.5V42C63.0043 40.3091 62.267 38.7015 60.9828 37.6016L64.9962 34.7456C68.124 32.5244 69.9874 28.9301 70 25.0938V8.22262C70.0007 7.7581 69.7257 7.33743 69.3 7.15162L52.9667 0.0956186C52.6718 -0.0315473 52.3375 -0.0315473 52.0427 0.0956186L35.7 7.15162C35.2743 7.33743 34.9993 7.7581 35 8.22262V12.8333H17.3483C14.8749 12.8341 12.6708 14.3948 11.8487 16.7276L4.977 36.253C2.12427 36.6728 0.00796503 39.1165 0 42V59.5C0 60.7886 1.04467 61.8333 2.33333 61.8333ZM15.1667 66.5C15.1667 67.1443 14.6443 67.6666 14 67.6666H7C6.35567 67.6666 5.83333 67.1443 5.83333 66.5V61.8333H15.1667V66.5ZM10.5 59.5H8.16667V57.1666H10.5V59.5ZM57.1667 66.5C57.1667 67.1443 56.6443 67.6666 56 67.6666H49C48.3557 67.6666 47.8333 67.1443 47.8333 66.5V61.8333H57.1667V66.5ZM54.8333 59.5H52.5V57.1666H54.8333V59.5ZM37.3333 8.98912L52.5 2.43712L67.6667 8.98912V25.0891C67.6551 28.1709 66.1566 31.0576 63.6428 32.8405L52.5 40.7773L41.3572 32.844C38.8437 31.0613 37.3453 28.1752 37.3333 25.0938V8.98912ZM54.8333 43.1666C55.4777 43.1666 56 43.689 56 44.3333V46.6666C56 47.311 55.4777 47.8333 54.8333 47.8333H47.8333C47.189 47.8333 46.6667 47.311 46.6667 46.6666C46.6667 44.7336 48.2337 43.1666 50.1667 43.1666H54.8333ZM35 19.8333V22.1666H26.8333V19.8333H35ZM35 17.5H32.6667V15.1666H35V17.5ZM14.0502 17.5C14.5444 16.1021 15.8657 15.1673 17.3483 15.1666H30.3333V17.5H26.8333C25.5447 17.5 24.5 18.5446 24.5 19.8333V22.1666C24.5 23.4553 25.5447 24.5 26.8333 24.5H35V25.0938C35.0126 28.9301 36.876 32.5244 40.0038 34.7456L42 36.1666H7.48067L14.0502 17.5ZM2.33333 42C2.33333 40.067 3.90034 38.5 5.83333 38.5H45.2783L48.804 41.0106C46.1876 41.6392 44.3407 43.9758 44.3333 46.6666C44.3333 48.5996 45.9003 50.1666 47.8333 50.1666H54.8333C56.7663 50.1666 58.3333 48.5996 58.3333 46.6666V44.3333C58.3295 42.8921 57.4428 41.6007 56.0992 41.0795L58.9878 39.0226C60.0341 39.6488 60.6723 40.7806 60.6667 42L60.6667 59.5H57.1667V57.1666C57.1667 55.878 56.122 54.8333 54.8333 54.8333H52.5C51.2113 54.8333 50.1667 55.878 50.1667 57.1666V59.5H12.8333V57.1666C12.8333 55.878 11.7887 54.8333 10.5 54.8333H8.16667C6.878 54.8333 5.83333 55.878 5.83333 57.1666V59.5H2.33333V42Z" fill="#0162CA"/>
<path d="M21 17.5H19.0038C17.5207 17.5017 16.1988 18.4358 15.7022 19.8333L11.3225 32.2793C11.1086 32.8873 11.428 33.5535 12.0359 33.7674C12.6438 33.9813 13.3101 33.6619 13.524 33.054L17.9037 20.6127C18.068 20.1458 18.5089 19.8335 19.0038 19.8333H21C21.6443 19.8333 22.1667 19.311 22.1667 18.6667C22.1667 18.0223 21.6443 17.5 21 17.5Z" fill="#0162CA"/>
<path d="M8.16666 50.1666H15.1667C17.0997 50.1666 18.6667 48.5996 18.6667 46.6666C18.6628 43.4465 16.0534 40.8371 12.8333 40.8333H8.16666C6.23366 40.8333 4.66666 42.4003 4.66666 44.3333V46.6666C4.66666 48.5996 6.23366 50.1666 8.16666 50.1666ZM6.99999 44.3333C6.99999 43.6889 7.52232 43.1666 8.16666 43.1666H12.8333C14.7663 43.1666 16.3333 44.7336 16.3333 46.6666C16.3333 47.3109 15.811 47.8333 15.1667 47.8333H8.16666C7.52232 47.8333 6.99999 47.3109 6.99999 46.6666V44.3333Z" fill="#0162CA"/>
<path d="M23.3333 57.1666H39.6667C40.9553 57.1666 42 56.1219 42 54.8333V50.1666C42 48.8779 40.9553 47.8333 39.6667 47.8333H23.3333C22.0447 47.8333 21 48.8779 21 50.1666V54.8333C21 56.1219 22.0447 57.1666 23.3333 57.1666ZM23.3333 50.1666H39.6667V54.8333H23.3333V50.1666Z" fill="#0162CA"/>
</g>
<defs>
<clipPath id="clip0_1656_1729">
<rect width="70" height="70" fill="white"/>
</clipPath>
</defs>
</svg>
