<svg width="70" height="70" viewBox="0 0 70 70" fill="none" xmlns="http://www.w3.org/2000/svg">
<path d="M35.9139 38.2029C35.7844 38.1749 35.6515 38.1699 35.5203 38.1895C34.2056 38.0364 33.2138 36.9241 33.2116 35.601C33.2116 34.9669 32.6975 34.4528 32.0634 34.4528C31.4293 34.4528 30.9152 34.9669 30.9152 35.601C30.9185 37.8105 32.3964 39.7458 34.5268 40.3306V41.4788C34.5268 42.1129 35.0409 42.627 35.675 42.627C36.3091 42.627 36.8232 42.1129 36.8232 41.4788V40.4001C39.2822 39.8854 40.9535 37.5952 40.6951 35.0964C40.436 32.5976 38.3308 30.6987 35.8186 30.6981C34.3788 30.6981 33.2116 29.5309 33.2116 28.0911C33.2116 26.6514 34.3788 25.4841 35.8186 25.4841C37.2583 25.4841 38.4256 26.6514 38.4256 28.0911C38.4256 28.7252 38.9397 29.2393 39.5738 29.2393C40.2079 29.2393 40.722 28.7252 40.722 28.0911C40.7186 25.7712 39.0933 23.7702 36.8232 23.2915V22.2464C36.8232 21.6123 36.3091 21.0982 35.675 21.0982C35.0409 21.0982 34.5268 21.6123 34.5268 22.2464V23.3615C32.1575 24.0085 30.6326 26.3088 30.9589 28.7432C31.2852 31.1775 33.3624 32.9945 35.8186 32.994C37.2392 32.994 38.3981 34.1315 38.4239 35.5516C38.4502 36.9718 37.3334 38.1514 35.9139 38.2029Z" fill="#0162CA"/>
<path d="M19.1685 31.9344C19.1685 41.1301 26.6228 48.5844 35.8185 48.5844C45.0142 48.5844 52.4686 41.1301 52.4686 31.9344C52.4686 22.7387 45.0142 15.2843 35.8185 15.2843C26.6273 15.2944 19.1791 22.7432 19.1685 31.9344ZM35.8185 17.5807C43.746 17.5807 50.1722 24.0069 50.1722 31.9344C50.1722 39.8619 43.746 46.288 35.8185 46.288C27.891 46.288 21.4649 39.8619 21.4649 31.9344C21.4738 24.0108 27.8949 17.5897 35.8185 17.5807Z" fill="#0162CA"/>
<path d="M58.129 51.4151L49.1345 55.6648C47.8927 53.355 45.5105 51.885 42.8889 51.811L34.5858 51.5828C33.2711 51.5452 31.981 51.2122 30.8121 50.6084L29.9672 50.1705C25.6412 47.9156 20.485 47.9212 16.1635 50.1851L16.2162 48.271C16.2336 47.6369 15.7341 47.1088 15.1 47.0914L5.9951 46.8408C5.36101 46.8235 4.83344 47.323 4.81606 47.9571L4.26607 67.9374C4.24869 68.5715 4.74822 69.0996 5.38231 69.117L14.4872 69.3676H14.5186C15.1409 69.3676 15.65 68.8725 15.6668 68.2508L15.6931 67.2949L18.0585 66.0284C18.9869 65.5288 20.0723 65.41 21.0866 65.697L35.2115 69.6613C35.2361 69.6686 35.2608 69.6742 35.286 69.6798C36.307 69.8935 37.3475 70.0005 38.3903 70C40.5993 70.0011 42.7824 69.5251 44.7901 68.6034C44.8394 68.581 44.8871 68.5546 44.9325 68.5249L65.4123 55.278C65.9225 54.9478 66.0873 54.2778 65.7885 53.7485C64.268 51.0507 60.8957 50.0231 58.129 51.4151ZM6.5933 66.8531L7.07995 49.1681L13.889 49.3553L13.4023 67.0409L6.5933 66.8531ZM43.7557 66.5526C41.2614 67.6783 38.4755 67.9889 35.7945 67.4412L21.7077 63.487C20.1222 63.039 18.4252 63.2246 16.9748 64.0044L15.766 64.652L16.0895 52.8936C19.9198 50.346 24.8322 50.0842 28.9115 52.2096L29.7564 52.6474C31.2331 53.4099 32.8618 53.8304 34.523 53.8786L42.8267 54.1068C45.159 54.1741 47.1397 55.8347 47.6129 58.1199L35.2445 57.7785C34.6104 57.7611 34.0829 58.2612 34.0649 58.8947C34.0476 59.5288 34.5477 60.0569 35.1812 60.0743L48.8307 60.4499H48.8626C49.4844 60.4494 49.9929 59.9543 50.0097 59.3331C50.0237 58.8342 49.9867 58.3346 49.8987 57.8435L59.1241 53.4845C59.1331 53.4806 59.142 53.4761 59.151 53.4716C60.4596 52.8095 62.0417 53.0309 63.1181 54.0272L43.7557 66.5526Z" fill="#0162CA"/>
<path d="M36.9668 12.0561V1.1482C36.9668 0.514112 36.4527 0 35.8186 0C35.1845 0 34.6704 0.514112 34.6704 1.1482V12.0561C34.6704 12.6902 35.1845 13.2043 35.8186 13.2043C36.4527 13.2043 36.9668 12.6902 36.9668 12.0561Z" fill="#0162CA"/>
<path d="M45.5781 12.0561V6.8892C45.5781 6.25511 45.064 5.741 44.4299 5.741C43.7959 5.741 43.2817 6.25511 43.2817 6.8892V12.0561C43.2817 12.6902 43.7959 13.2043 44.4299 13.2043C45.064 13.2043 45.5781 12.6902 45.5781 12.0561Z" fill="#0162CA"/>
<path d="M28.355 12.0561V6.8892C28.355 6.25511 27.8409 5.741 27.2068 5.741C26.5727 5.741 26.0586 6.25511 26.0586 6.8892V12.0561C26.0586 12.6902 26.5727 13.2043 27.2068 13.2043C27.8409 13.2043 28.355 12.6902 28.355 12.0561Z" fill="#0162CA"/>
</svg>
