<svg width="70" height="70" viewBox="0 0 70 70" fill="none" xmlns="http://www.w3.org/2000/svg">
<path fill-rule="evenodd" clip-rule="evenodd" d="M24.8207 36.0779C29.6424 36.0779 33.565 32.1554 33.565 27.3338C33.565 22.5121 29.6424 18.5895 24.8207 18.5895C19.9992 18.5895 16.0766 22.5121 16.0766 27.3338C16.0766 32.1554 19.9994 36.0779 24.8207 36.0779ZM24.8207 20.5037C28.5869 20.5037 31.6509 23.5677 31.6509 27.3339C31.6509 31.1 28.5869 34.164 24.8207 34.164C21.0546 34.164 17.9907 31.1 17.9907 27.3339C17.9907 23.5676 21.0547 20.5037 24.8207 20.5037ZM10.9817 44.3145C10.9817 43.786 11.4101 43.3575 11.9387 43.3575H24.8209C25.3494 43.3575 25.7779 43.786 25.7779 44.3145C25.7779 44.8431 25.3494 45.2715 24.8209 45.2715H11.9387C11.4101 45.2715 10.9817 44.8431 10.9817 44.3145ZM38.66 56.2346C38.66 56.7632 38.2315 57.1916 37.7029 57.1916H11.9387C11.4101 57.1916 10.9817 56.7632 10.9817 56.2346C10.9817 55.7061 11.4101 55.2776 11.9387 55.2776H37.7029C38.2315 55.2776 38.66 55.7061 38.66 56.2346ZM37.7029 49.3176C38.2315 49.3176 38.66 49.7461 38.66 50.2746C38.66 50.8032 38.2315 51.2317 37.7029 51.2317H11.9387C11.4101 51.2317 10.9817 50.8032 10.9817 50.2746C10.9817 49.7461 11.4101 49.3176 11.9387 49.3176H37.7029ZM67.8882 25.1502C63.8252 24.827 60.3872 22.9142 58.2184 21.3664C58.0561 21.2506 57.8618 21.1884 57.6625 21.1884H49.2514C49.0521 21.1884 48.8577 21.2506 48.6955 21.3664C48.6034 21.4322 48.5079 21.4989 48.4113 21.5657V11.7042C48.4113 9.97117 47.0014 8.56119 45.2683 8.56119H36.2018V6.85576C36.2018 6.32721 35.7733 5.89873 35.2447 5.89873H30.365C29.909 3.25117 27.5964 1.23047 24.8207 1.23047C22.0451 1.23047 19.7326 3.25117 19.2769 5.89873H14.397C13.8685 5.89873 13.44 6.32721 13.44 6.85576V8.56105H4.3735C2.64045 8.56105 1.23047 9.97104 1.23047 11.7041V65.6264C1.23047 67.3597 2.64045 68.7695 4.3735 68.7695H45.2681C47.0013 68.7695 48.4112 67.3597 48.4112 65.6265V54.0299C50.0477 54.9947 51.6981 55.7048 53.2093 56.1096C53.2905 56.1314 53.3736 56.1422 53.457 56.1422C53.5404 56.1422 53.6237 56.1314 53.7048 56.1096C60.0204 54.4173 68.7695 47.4072 68.7695 38.6468V26.1043C68.7695 25.6051 68.3859 25.1897 67.8882 25.1502ZM45.2681 10.4751C45.9458 10.4751 46.4971 11.0265 46.4971 11.7041V22.7607C45.7484 23.1793 44.9252 23.5836 44.039 23.9389V13.8902C44.039 13.3617 43.6105 12.9332 43.082 12.9332H36.2015V10.4751H45.2681ZM42.1251 48.7119V62.4833H7.51666V14.8472H42.1251V24.5901C41.1441 24.8646 40.1073 25.0641 39.0255 25.1502C38.5279 25.1899 38.1444 25.6051 38.1444 26.1043V38.6468C38.1444 42.4223 39.7701 45.8721 42.1251 48.7119ZM15.3541 7.81279H20.1526C20.6812 7.81279 21.1096 7.38432 21.1096 6.85576C21.1096 4.80936 22.7745 3.14453 24.8209 3.14453C26.8673 3.14453 28.5322 4.80936 28.5322 6.85576C28.5322 7.38432 28.9607 7.81279 29.4893 7.81279H34.2877V12.9332H15.3541V7.81279ZM46.4971 65.6265C46.4971 66.3042 45.9458 66.8555 45.2681 66.8555H4.3735C3.69592 66.8555 3.14467 66.3042 3.14467 65.6265V11.7041C3.14467 11.0264 3.69592 10.4751 4.3735 10.4751H13.44V12.9332H6.55963C6.03107 12.9332 5.6026 13.3617 5.6026 13.8902V63.4405C5.6026 63.9691 6.03107 64.3975 6.55963 64.3975H43.0821C43.6107 64.3975 44.0392 63.9691 44.0392 63.4405V50.7466C44.8227 51.4846 45.6494 52.1637 46.4972 52.7767V65.6265H46.4971ZM66.8555 38.6468C66.8555 46.233 59.0223 52.5772 53.457 54.1916C47.8918 52.5772 40.0585 46.233 40.0585 38.6468V26.965C43.2532 26.5446 46.5132 25.2202 49.5548 23.1023H57.3591C60.4007 25.2204 63.6606 26.5446 66.8555 26.965V38.6468ZM56.6312 24.5182H50.2826C50.0955 24.5182 49.9125 24.573 49.7562 24.676C47.3138 26.2842 44.7755 27.4057 42.2118 28.0092C41.7796 28.111 41.474 28.4967 41.474 28.9408V38.6467C41.474 41.4825 42.8289 44.5428 45.289 47.2638C47.4805 49.6877 50.3431 51.6354 53.1427 52.6073C53.2443 52.6426 53.3505 52.6602 53.4566 52.6602C53.5627 52.6602 53.6689 52.6426 53.7705 52.6073C56.5703 51.6354 59.4327 49.6877 61.6241 47.2638C64.0842 44.5428 65.4391 41.4825 65.4391 38.6467V28.9408C65.4391 28.4967 65.1336 28.111 64.7013 28.0093C62.1374 27.4057 59.5993 26.2842 57.157 24.676C57.0013 24.5731 56.8183 24.5182 56.6312 24.5182ZM63.5254 38.6468C63.5254 43.6536 58.3785 48.8378 53.4569 50.6859C48.5352 48.838 43.3882 43.6536 43.3882 38.6468V29.6856C45.8332 29.0221 48.2435 27.93 50.5668 26.4324H56.3469C58.67 27.9301 61.0801 29.0221 63.5253 29.6855V38.6468H63.5254ZM50.4934 41.1715L59.4967 33.8607C59.9067 33.5277 60.5098 33.5902 60.8429 34.0003C61.1762 34.4106 61.1136 35.0134 60.7033 35.3466L50.8864 43.318C50.7149 43.4574 50.5016 43.5321 50.2832 43.5321C50.2361 43.5321 50.1888 43.5287 50.1415 43.5215C49.8755 43.4816 49.6386 43.3318 49.4888 43.1085L46.0195 37.9419C45.7249 37.503 45.8418 36.9085 46.2807 36.6138C46.7197 36.3192 47.3141 36.4362 47.6086 36.875L50.4934 41.1715ZM23.5904 6.85576C23.5904 6.17805 24.1432 5.62529 24.8209 5.62529C25.4986 5.62529 26.0513 6.17805 26.0513 6.85576C26.0513 7.53348 25.4986 8.08623 24.8209 8.08623C24.1432 8.08623 23.5904 7.53348 23.5904 6.85576Z" fill="#0162CA"/>
</svg>
