<svg width="51" height="51" viewBox="0 0 51 51" fill="none" xmlns="http://www.w3.org/2000/svg">
<path d="M13.6918 11.0482C13.3446 10.6553 12.7447 10.6184 12.3519 10.9656C11.959 11.3128 11.9221 11.9127 12.2693 12.3055L13.6345 13.8501C13.8898 14.1389 14.2578 14.308 14.6485 14.308H18.1009C18.6252 14.308 19.0502 13.883 19.0502 13.3587C19.0502 12.8344 18.6252 12.4094 18.1009 12.4094H14.895L13.6918 11.0482Z" fill="#0162CA"/>
<path d="M38.1002 12.3055C38.4474 11.9127 38.4105 11.3128 38.0176 10.9656C37.6248 10.6184 37.0249 10.6553 36.6777 11.0482L35.4745 12.4094H32.2686C31.7443 12.4094 31.3193 12.8344 31.3193 13.3587C31.3193 13.883 31.7443 14.308 32.2686 14.308H35.721C36.1117 14.308 36.4797 14.1389 36.735 13.8501L38.1002 12.3055Z" fill="#0162CA"/>
<path d="M18.4317 15.4365C17.9074 15.4365 17.4824 15.8616 17.4824 16.3858C17.4824 16.9101 17.9074 17.3351 18.4317 17.3351H31.9389C32.4632 17.3351 32.8882 16.9101 32.8882 16.3858C32.8882 15.8616 32.4632 15.4365 31.9389 15.4365H18.4317Z" fill="#0162CA"/>
<path fill-rule="evenodd" clip-rule="evenodd" d="M17.1994 0.46875C17.0049 0.46875 16.7917 0.510661 16.5874 0.617741C15.6494 1.10919 14.149 2.44893 13.4654 4.74863C13.2492 4.5975 12.985 4.50509 12.6916 4.50509H9.54857C8.07532 4.50509 6.91016 5.71639 6.91016 7.17431C6.91016 8.47816 7.84654 9.60867 9.14484 9.81206L10.5018 10.0247L10.332 10.2667C9.82448 10.9902 9.55289 11.855 9.55289 12.7404V15.9274C9.55289 16.9154 9.88571 17.8296 10.4464 18.5563C10.4027 18.6653 10.3788 18.7843 10.3788 18.9089V21.1182C10.3788 22.5424 11.5171 23.7264 12.9573 23.7264H16.7787C18.1401 23.7264 19.2145 22.6075 19.2145 21.2635C19.2145 20.7392 18.7895 20.3142 18.2653 20.3142C17.741 20.3142 17.316 20.7392 17.316 21.2635C17.316 21.5914 17.0594 21.8278 16.7787 21.8278H12.9573C12.5979 21.8278 12.2774 21.5263 12.2774 21.1182V19.9224C12.7378 20.0983 13.2375 20.1946 13.7607 20.1946H36.6073C37.1306 20.1946 37.6302 20.0983 38.0907 19.9224V21.1182C38.0907 21.5263 37.7702 21.8278 37.4107 21.8278H33.5893C33.3087 21.8278 33.0521 21.5914 33.0521 21.2635C33.0521 20.7392 32.627 20.3142 32.1028 20.3142C31.5785 20.3142 31.1535 20.7392 31.1535 21.2635C31.1535 22.6075 32.228 23.7264 33.5893 23.7264H37.4107C38.8509 23.7264 39.9893 22.5424 39.9893 21.1182V18.9089C39.9893 18.7843 39.9653 18.6653 39.9216 18.5563C40.4823 17.8296 40.8152 16.9154 40.8152 15.9274V12.7404C40.8152 11.855 40.5436 10.9902 40.036 10.2667L39.8662 10.0247L41.2232 9.81206C42.5214 9.60867 43.4579 8.47816 43.4579 7.17431C43.4579 5.71639 42.2927 4.50509 40.8195 4.50509H37.6765C37.383 4.50509 37.1188 4.5975 36.9026 4.74863C36.2191 2.44893 34.7186 1.10919 33.7806 0.617741C33.5763 0.510661 33.3632 0.46875 33.1686 0.46875H25.3307C25.2809 0.46875 25.2318 0.472595 25.184 0.479999C25.1362 0.472595 25.0872 0.46875 25.0373 0.46875H17.1994ZM16.6811 7.70055C16.2755 7.63472 15.5291 7.36146 14.8727 6.72601C14.9784 6.59624 15.0511 6.43685 15.0761 6.259C15.3928 4.00144 16.6868 2.7732 17.3495 2.36733H25.0373C25.0872 2.36733 25.1362 2.36349 25.184 2.35608C25.2318 2.36349 25.2809 2.36733 25.3307 2.36733H33.0186C33.6813 2.7732 34.9753 4.00144 35.292 6.259C35.317 6.43685 35.3897 6.59624 35.4953 6.72601C34.839 7.36146 34.0925 7.63472 33.6869 7.70055H16.6811ZM33.8146 9.59913L33.8744 9.59154C34.9241 9.45793 36.9662 8.63209 38.0242 6.40367H40.8195C41.212 6.40367 41.5593 6.73246 41.5593 7.17431C41.5593 7.56827 41.2791 7.88158 40.9294 7.93635L38.7215 8.28223C37.7054 8.44142 37.2546 9.60782 37.8218 10.4162L38.4817 11.3571C38.7637 11.7591 38.9166 12.2427 38.9166 12.7404V15.9274C38.9166 17.2518 37.8666 18.296 36.6073 18.296H13.7607C12.5014 18.296 11.4515 17.2518 11.4515 15.9274V12.7404C11.4515 12.2427 11.6043 11.7591 11.8863 11.3571L12.5463 10.4162C13.1134 9.60782 12.6627 8.44142 11.6466 8.28223L9.43864 7.93635C9.08892 7.88158 8.80874 7.56827 8.80874 7.17431C8.80874 6.73246 9.15609 6.40367 9.54857 6.40367H12.3438C13.4019 8.63209 15.4439 9.45793 16.4937 9.59154L16.5534 9.59913H33.8146Z" fill="#0162CA"/>
<path d="M5.9437 35.9344C6.27932 35.5316 6.8779 35.4772 7.28068 35.8128L8.70462 36.9995C9.10736 37.3351 9.1618 37.9337 8.82613 38.3364C8.49051 38.7392 7.89193 38.7936 7.48915 38.458L6.06521 37.2713C5.66247 36.9357 5.60803 36.3371 5.9437 35.9344Z" fill="#0162CA"/>
<path fill-rule="evenodd" clip-rule="evenodd" d="M49.1776 22.511C46.7584 21.0133 43.5872 21.7033 42.0088 24.0708L40.3379 26.5771C40.2463 26.7146 40.1203 26.8258 39.9726 26.8997L35.8843 28.9438C34.9496 28.063 33.6901 27.5233 32.3044 27.5233H28.4581C27.5798 27.5233 26.7186 27.2795 25.9705 26.8192L25.6313 26.6104C24.584 25.9659 23.3784 25.6247 22.1487 25.6247H18.5888C16.4899 25.6247 14.4643 26.3973 12.8986 27.7953L8.70756 31.5373L8.00195 30.8316C7.27161 30.1013 6.09145 30.0888 5.34578 30.8034L1.02731 34.9419C0.254116 35.6829 0.246427 36.9164 1.01042 37.667L13.1687 49.6118C13.9121 50.3423 15.105 50.3371 15.8418 49.6L19.9636 45.4782C20.7051 44.7368 20.7051 43.535 19.9636 42.7936L19.2595 42.0892C19.6655 41.8761 20.1197 41.7626 20.5836 41.7626H33.8559C35.3698 41.7626 36.8508 41.2484 38.0206 40.2523C39.8987 38.6528 43.123 35.7925 45.1398 33.3486C46.9283 31.182 48.9536 27.9597 50.0605 26.1323C50.8208 24.8769 50.4046 23.2705 49.1776 22.511ZM17.8798 40.7095C18.6718 40.1605 19.6148 39.864 20.5836 39.864H33.8559C34.9414 39.864 35.9803 39.4961 36.7896 38.8068C38.6686 37.2065 41.7762 34.4415 43.676 32.1401C45.3667 30.0913 47.3294 26.9766 48.4367 25.1486C48.6446 24.8051 48.5406 24.3497 48.1785 24.1253C46.6292 23.1664 44.5992 23.6082 43.5887 25.124L41.9176 27.6303C41.6427 28.0427 41.2649 28.3761 40.8216 28.5978L37.0194 30.499C37.3439 31.1791 37.5255 31.9405 37.5255 32.7444C37.5255 34.055 36.463 35.1176 35.1523 35.1176H24.4728C23.9485 35.1176 23.5235 34.6926 23.5235 34.1683C23.5235 33.644 23.9485 33.219 24.4728 33.219H35.1523C35.4145 33.219 35.627 33.0065 35.627 32.7444C35.627 30.9094 34.1394 29.4218 32.3044 29.4218H28.4581C27.2284 29.4218 26.0228 29.0806 24.9755 28.4361L24.6363 28.2273C23.8882 27.767 23.0271 27.5233 22.1487 27.5233H18.5888C16.9563 27.5233 15.3809 28.1242 14.1631 29.2115L10.0522 32.882L17.8798 40.7095ZM2.34094 36.3126L6.65941 32.1742L18.6212 44.1359L14.4993 48.2577L2.34094 36.3126Z" fill="#0162CA"/>
</svg>
