<svg width="75" height="75" viewBox="0 0 75 75" fill="none" xmlns="http://www.w3.org/2000/svg">
<path d="M56.2407 52.7485C55.9969 52.7485 55.7485 52.6712 55.5375 52.5118C55.0196 52.1227 54.9164 51.3891 55.3055 50.8711C58.2235 46.9922 59.7657 42.368 59.7657 37.5001C59.7657 35.9719 59.6086 34.4415 59.2992 32.9532C59.168 32.318 59.5758 31.6993 60.2086 31.568C60.8391 31.4368 61.4625 31.8446 61.5938 32.4774C61.936 34.1227 62.1094 35.8126 62.1094 37.5001C62.1094 42.879 60.4032 47.993 57.1782 52.2821C56.9461 52.5891 56.5946 52.7485 56.2407 52.7485Z" fill="#0162CA"/>
<path d="M14.5688 43.5563C14.0273 43.5563 13.5398 43.1766 13.4227 42.6258C13.0711 40.9453 12.8906 39.2203 12.8906 37.5C12.8906 32.1446 14.5805 27.0516 17.7797 22.7766C18.1664 22.2563 18.9023 22.1485 19.4203 22.5399C19.9383 22.9289 20.0461 23.6625 19.657 24.1805C16.7625 28.0477 15.2344 32.6532 15.2344 37.5C15.2344 39.0586 15.3961 40.6219 15.7172 42.143C15.8508 42.7758 15.4453 43.3969 14.8125 43.5305C14.7305 43.5492 14.6484 43.5563 14.5688 43.5563Z" fill="#0162CA"/>
<path d="M41.0156 49.2188H33.9844C33.3375 49.2188 32.8125 48.6937 32.8125 48.0469V42.1875H26.9531C26.3063 42.1875 25.7812 41.6625 25.7812 41.0156V33.9844C25.7812 33.3375 26.3063 32.8125 26.9531 32.8125H32.8125V26.9531C32.8125 26.3063 33.3375 25.7812 33.9844 25.7812H41.0156C41.6625 25.7812 42.1875 26.3063 42.1875 26.9531V32.8125H48.0469C48.6937 32.8125 49.2188 33.3375 49.2188 33.9844V41.0156C49.2188 41.6625 48.6937 42.1875 48.0469 42.1875H42.1875V48.0469C42.1875 48.6937 41.6625 49.2188 41.0156 49.2188ZM35.1562 46.875H39.8438V41.0156C39.8438 40.3688 40.3688 39.8438 41.0156 39.8438H46.875V35.1562H41.0156C40.3688 35.1562 39.8438 34.6312 39.8438 33.9844V28.125H35.1562V33.9844C35.1562 34.6312 34.6312 35.1562 33.9844 35.1562H28.125V39.8438H33.9844C34.6312 39.8438 35.1562 40.3688 35.1562 41.0156V46.875Z" fill="#0162CA"/>
<path d="M42.518 70.3126H30.2344C27.9445 70.3126 25.7086 69.8017 23.5875 68.7939L15.3773 64.8048C13.2727 63.7947 11.0297 63.2814 8.72109 63.2814H3.51562C2.86875 63.2814 2.34375 62.7564 2.34375 62.1095C2.34375 61.4626 2.86875 60.9376 3.51562 60.9376H8.72109C11.3836 60.9376 13.9664 61.5282 16.3969 62.6954L24.6047 66.6822C26.4 67.5329 28.2961 67.9689 30.2344 67.9689H42.2836L52.5188 63.7454C52.5188 63.647 52.657 62.74 52.207 61.9689C51.5203 60.7876 49.9336 60.7501 48.7312 60.9259C46.9852 61.1954 45.5414 61.6806 44.2688 62.1095L43.7859 62.2712C43.1695 62.4704 42.5086 62.1447 42.3047 61.5282C42.1008 60.9142 42.4336 60.2509 43.0477 60.047L43.5211 59.89C44.8852 59.4306 46.4297 58.9103 48.3844 58.6103C53.2172 57.9072 54.4242 60.9259 54.6844 61.8657C55.1133 63.415 54.757 65.3532 53.4187 65.9134L42.9633 70.2282C42.8227 70.2822 42.6703 70.3126 42.518 70.3126Z" fill="#0162CA"/>
<path d="M27.2695 53.6181C26.8289 53.6181 26.4047 53.3673 26.2055 52.9407C23.9086 47.9977 17.9414 47.2899 13.5047 49.1298C13.3617 49.1884 13.2094 49.2188 13.0547 49.2188H3.51562C2.86875 49.2188 2.34375 48.6938 2.34375 48.047C2.34375 47.4001 2.86875 46.8751 3.51562 46.8751H12.8273C19.1719 44.3556 25.8023 46.5188 28.3336 51.954C28.6055 52.5399 28.3523 53.2384 27.7641 53.5126C27.6023 53.5829 27.4359 53.6181 27.2695 53.6181Z" fill="#0162CA"/>
<path d="M38.3766 64.7416C38.2242 64.7416 38.0719 64.7111 37.9289 64.6526L24.5086 59.0815C23.9109 58.833 23.6273 58.1486 23.8758 57.5486C24.1242 56.951 24.8109 56.6697 25.4086 56.9158L37.65 61.9971C38.1633 59.5807 36.8414 57.701 33.7008 56.4002L26.8031 53.5361C26.2055 53.2877 25.9219 52.601 26.1703 52.0033C26.4187 51.4057 27.1055 51.1221 27.7031 51.3705L34.5984 54.2346C39.4289 56.2361 41.2008 59.801 39.4594 64.0127C39.3398 64.301 39.1125 64.5307 38.8242 64.6479C38.6812 64.7111 38.5289 64.7416 38.3766 64.7416Z" fill="#0162CA"/>
<path d="M25.2445 16.4977C21.5578 16.4977 20.55 13.9805 20.3156 13.1367C19.8867 11.5875 20.243 9.64922 21.5813 9.08906L32.0367 4.77422C32.1774 4.71797 32.3297 4.6875 32.482 4.6875H44.7633C47.0531 4.6875 49.2891 5.19844 51.4102 6.20625L59.6203 10.1953C61.7274 11.2055 63.9703 11.7188 66.2789 11.7188H71.4844C72.1313 11.7188 72.6563 12.2438 72.6563 12.8906C72.6563 13.5375 72.1313 14.0625 71.4844 14.0625H66.2789C63.6164 14.0625 61.0336 13.4719 58.6031 12.3047L50.3953 8.32031C48.6 7.46719 46.7039 7.03125 44.7656 7.03125H32.7164L22.4789 11.2547C22.4789 11.3531 22.3406 12.2602 22.7906 13.0312C23.4797 14.2125 25.0617 14.25 26.2664 14.0742C28.0125 13.8047 29.4563 13.3195 30.7289 12.8906L31.2117 12.7289C31.8281 12.5273 32.4891 12.8555 32.693 13.4719C32.8969 14.0859 32.5641 14.7492 31.95 14.9531L31.4766 15.1102C30.1125 15.5695 28.568 16.0898 26.6133 16.3898C26.1211 16.4648 25.6641 16.4977 25.2445 16.4977Z" fill="#0162CA"/>
<path d="M56.857 29.1679C52.4273 29.1679 48.4851 26.9554 46.6664 23.046C46.3945 22.4601 46.6476 21.7616 47.2359 21.4874C47.8242 21.2156 48.5203 21.471 48.7945 22.057C51.0891 26.9976 57.0539 27.7031 61.4953 25.8679C61.6383 25.8116 61.7906 25.7812 61.9453 25.7812H71.4844C72.1312 25.7812 72.6562 26.3062 72.6562 26.9531C72.6562 27.5999 72.1312 28.1249 71.4844 28.1249H62.1727C60.3914 28.8304 58.5867 29.1679 56.857 29.1679Z" fill="#0162CA"/>
<path d="M47.7469 23.7189C47.5969 23.7189 47.4445 23.6907 47.2969 23.6298L40.4016 20.7657C35.5711 18.7642 33.7992 15.1993 35.5406 10.9876C35.6602 10.6993 35.8875 10.4696 36.1758 10.3524C36.4641 10.2353 36.7852 10.2329 37.0734 10.3524L50.4938 15.9235C51.0914 16.172 51.375 16.8564 51.1266 17.4564C50.8781 18.0564 50.1961 18.3353 49.5938 18.0892L37.3523 13.0079C36.8391 15.4243 38.1609 17.304 41.3016 18.6048L48.1992 21.4689C48.7969 21.7173 49.0805 22.404 48.832 23.0017C48.6422 23.447 48.2063 23.7189 47.7469 23.7189Z" fill="#0162CA"/>
<path d="M52.7695 56.332C52.4695 56.332 52.1695 56.2172 51.9398 55.9899C51.4828 55.5328 51.4828 54.7899 51.9398 54.3328C52.3992 53.8758 53.2219 53.7938 53.6789 54.2508C54.1359 54.7078 54.2179 55.3688 53.7609 55.8258L53.5969 55.9899C53.3695 56.2172 53.0695 56.332 52.7695 56.332Z" fill="#0162CA"/>
<path d="M22.3008 21.1759C21.9985 21.1759 21.6961 21.0587 21.4664 20.8266C21.0117 20.3649 21.0164 19.6243 21.4781 19.1696L21.6445 19.0055C22.1039 18.5509 22.8469 18.5555 23.3016 19.0173C23.7563 19.479 23.7516 20.2196 23.2899 20.6743L23.1235 20.8384C22.8961 21.0634 22.5985 21.1759 22.3008 21.1759Z" fill="#0162CA"/>
</svg>
