<svg width="60" height="60" viewBox="0 0 60 60" fill="none" xmlns="http://www.w3.org/2000/svg">
<path d="M30.7833 32.7454C30.6722 32.7214 30.5584 32.7171 30.4459 32.7339C29.319 32.6027 28.4689 31.6493 28.467 30.5152C28.467 29.9717 28.0263 29.531 27.4828 29.531C26.9393 29.531 26.4986 29.9717 26.4986 30.5152C26.5015 32.409 27.7683 34.0679 29.5944 34.5691V35.5533C29.5944 36.0968 30.035 36.5375 30.5785 36.5375C31.122 36.5375 31.5627 36.0968 31.5627 35.5533V34.6287C33.6704 34.1876 35.1029 32.2245 34.8814 30.0827C34.6594 27.9409 32.8549 26.3132 30.7016 26.3127C29.4675 26.3127 28.467 25.3122 28.467 24.0782C28.467 22.8441 29.4675 21.8436 30.7016 21.8436C31.9356 21.8436 32.9361 22.8441 32.9361 24.0782C32.9361 24.6217 33.3768 25.0623 33.9203 25.0623C34.4638 25.0623 34.9045 24.6217 34.9045 24.0782C34.9016 22.0896 33.5085 20.3745 31.5627 19.9642V19.0684C31.5627 18.5249 31.122 18.0842 30.5785 18.0842C30.035 18.0842 29.5944 18.5249 29.5944 19.0684V20.0242C27.5635 20.5788 26.2564 22.5505 26.5361 24.6371C26.8158 26.7236 28.5963 28.2811 30.7016 28.2806C31.9193 28.2806 32.9126 29.2557 32.9347 30.4729C32.9573 31.6901 32 32.7012 30.7833 32.7454Z" fill="#0162CA"/>
<path d="M16.4302 27.3723C16.4302 35.2543 22.8196 41.6438 30.7016 41.6438C38.5837 41.6438 44.9731 35.2543 44.9731 27.3723C44.9731 19.4903 38.5837 13.1008 30.7016 13.1008C22.8235 13.1095 16.4393 19.4941 16.4302 27.3723ZM30.7016 15.0692C37.4967 15.0692 43.0048 20.5773 43.0048 27.3723C43.0048 34.1673 37.4967 39.6754 30.7016 39.6754C23.9066 39.6754 18.3985 34.1673 18.3985 27.3723C18.4062 20.5806 23.91 15.0769 30.7016 15.0692Z" fill="#0162CA"/>
<path d="M49.8248 44.0701L42.1153 47.7127C41.0509 45.7329 39.009 44.4728 36.7619 44.4094L29.645 44.2138C28.5181 44.1816 27.4123 43.8962 26.4103 43.3786L25.6862 43.0033C21.9782 41.0705 17.5586 41.0753 13.8544 43.0158L13.8996 41.3752C13.9145 40.8317 13.4863 40.379 12.9428 40.3641L5.13865 40.1493C4.59515 40.1344 4.14295 40.5626 4.12805 41.1061L3.65663 58.232C3.64173 58.7755 4.0699 59.2282 4.61341 59.2431L12.4176 59.4579H12.4445C12.9779 59.4579 13.4143 59.0336 13.4287 58.5007L13.4513 57.6813L15.4787 56.5958C16.2745 56.1676 17.2049 56.0657 18.0742 56.3118L30.1812 59.7097C30.2024 59.716 30.2235 59.7208 30.2452 59.7256C31.1202 59.9087 32.0122 60.0005 32.906 60C34.7994 60.001 36.6706 59.593 38.3915 58.8029C38.4338 58.7837 38.4746 58.7611 38.5136 58.7357L56.0677 47.3811C56.505 47.0981 56.6463 46.5238 56.3901 46.0702C55.0869 43.7578 52.1964 42.8769 49.8248 44.0701ZM5.6514 57.3027L6.06852 42.1441L11.9048 42.3046L11.4877 57.4636L5.6514 57.3027ZM37.5049 57.0451C35.3669 58.01 32.979 58.2763 30.681 57.8068L18.6066 54.4174C17.2476 54.0334 15.793 54.1925 14.5498 54.861L13.5137 55.416L13.791 45.3374C17.0742 43.1537 21.2848 42.9293 24.7813 44.7511L25.5055 45.1264C26.7712 45.7799 28.1672 46.1404 29.5911 46.1817L36.7086 46.3773C38.7077 46.4349 40.4055 47.8583 40.8111 49.8171L30.2096 49.5244C29.6661 49.5095 29.2139 49.9382 29.1985 50.4812C29.1836 51.0247 29.6123 51.4774 30.1553 51.4923L41.8548 51.8143H41.8822C42.4152 51.8138 42.851 51.3894 42.8655 50.857C42.8775 50.4293 42.8457 50.0011 42.7703 49.5802L50.6778 45.8439C50.6855 45.8405 50.6932 45.8367 50.7009 45.8328C51.8225 45.2653 53.1786 45.4551 54.1013 46.309L37.5049 57.0451Z" fill="#0162CA"/>
<path d="M31.6856 10.3338V0.984173C31.6856 0.440667 31.245 0 30.7015 0C30.158 0 29.7173 0.440667 29.7173 0.984173V10.3338C29.7173 10.8773 30.158 11.318 30.7015 11.318C31.245 11.318 31.6856 10.8773 31.6856 10.3338Z" fill="#0162CA"/>
<path d="M39.067 10.3339V5.90507C39.067 5.36157 38.6263 4.9209 38.0828 4.9209C37.5393 4.9209 37.0986 5.36157 37.0986 5.90507V10.3339C37.0986 10.8774 37.5393 11.318 38.0828 11.318C38.6263 11.318 39.067 10.8774 39.067 10.3339Z" fill="#0162CA"/>
<path d="M24.3043 10.3339V5.90507C24.3043 5.36157 23.8636 4.9209 23.3201 4.9209C22.7766 4.9209 22.3359 5.36157 22.3359 5.90507V10.3339C22.3359 10.8774 22.7766 11.318 23.3201 11.318C23.8636 11.318 24.3043 10.8774 24.3043 10.3339Z" fill="#0162CA"/>
</svg>
