<svg width="60" height="60" viewBox="0 0 60 60" fill="none" xmlns="http://www.w3.org/2000/svg">
<path d="M0.468724 37.2636L7.07552 41.0779C7.18216 41.1395 7.29988 41.1794 7.42195 41.1954C7.54402 41.2115 7.66806 41.2033 7.78697 41.1714C7.90589 41.1395 8.01736 41.0845 8.11502 41.0095C8.21268 40.9346 8.29462 40.8411 8.35615 40.7344L8.59415 40.3222L12.4203 42.5623C12.3299 42.8876 12.284 43.2237 12.284 43.5614C12.2822 44.0462 12.3765 44.5266 12.5616 44.9748C12.7467 45.4229 13.0188 45.8299 13.3622 46.1722C13.7048 46.5152 14.1118 46.7872 14.5598 46.9725C15.0079 47.1578 15.4881 47.2528 15.973 47.2519C16.0441 47.2519 16.1154 47.2491 16.1865 47.2451C16.1825 47.3155 16.1799 47.3858 16.1799 47.4572C16.1789 47.942 16.2736 48.4222 16.4586 48.8702C16.6436 49.3182 16.9153 49.7253 17.2581 50.0681C17.6008 50.4108 18.0079 50.6825 18.4559 50.8675C18.904 51.0525 19.3841 51.1472 19.8689 51.1462C19.9404 51.1462 20.0115 51.1436 20.0824 51.1396C20.0784 51.2105 20.0757 51.2817 20.0757 51.3531C20.0747 51.8379 20.1693 52.3181 20.3543 52.7661C20.5394 53.2142 20.811 53.6213 21.1538 53.964C21.4966 54.3068 21.9037 54.5785 22.3517 54.7635C22.7997 54.9486 23.2799 55.0433 23.7647 55.0422C24.0243 55.0421 24.2832 55.015 24.5372 54.9614C24.655 55.6846 25.0266 56.3422 25.5854 56.8162C26.1442 57.2902 26.8536 57.5496 27.5864 57.5479C27.9569 57.5483 28.3246 57.4823 28.6719 57.3531L28.8581 57.5391C29.2599 57.9416 29.7649 58.2253 30.3176 58.3592C30.8703 58.4931 31.4492 58.4718 31.9906 58.2979C32.532 58.1239 33.0149 57.8039 33.3861 57.3731C33.7573 56.9423 34.0025 56.4175 34.0946 55.8563C34.3484 55.9105 34.6072 55.938 34.8668 55.9383C35.3696 55.939 35.8671 55.8367 36.3289 55.6379C36.7907 55.439 37.207 55.1478 37.552 54.7821C37.8971 54.4165 38.1637 53.984 38.3354 53.5115C38.5071 53.0389 38.5803 52.5363 38.5506 52.0344C38.6209 52.0383 38.6912 52.0408 38.7627 52.0408C39.2654 52.0418 39.7631 51.9399 40.2249 51.7413C40.6868 51.5427 41.1031 51.2516 41.4482 50.886C41.7934 50.5204 42.06 50.0881 42.2317 49.6155C42.4034 49.143 42.4765 48.6403 42.4466 48.1385C42.5169 48.1424 42.5872 48.1449 42.6587 48.1449C43.3347 48.1442 43.9976 47.958 44.5751 47.6065C45.1525 47.2549 45.6224 46.7516 45.9335 46.1514C46.2445 45.5512 46.3849 44.8771 46.3391 44.2026C46.2934 43.5281 46.0634 42.8791 45.6742 42.3263L50.846 39.3526L51.6438 40.7344C51.7681 40.9498 51.9729 41.1069 52.2131 41.1712C52.4532 41.2356 52.7091 41.2019 52.9244 41.0776L59.5312 37.2636C59.7465 37.1393 59.9037 36.9345 59.968 36.6943C60.0324 36.4542 59.9987 36.1983 59.8744 35.983L51.2094 20.9749C51.0851 20.7596 50.8803 20.6025 50.6402 20.5381C50.4001 20.4738 50.1442 20.5075 49.9289 20.6317L43.3221 24.4462C43.1068 24.5705 42.9496 24.7753 42.8853 25.0154C42.821 25.2556 42.8546 25.5115 42.979 25.7268L43.7452 27.0541L42.65 27.4688C42.1475 27.6699 41.589 27.6812 41.0788 27.5006L33.7762 25.0665C33.371 24.9278 32.9422 24.8714 32.5149 24.9005C32.0876 24.9296 31.6704 25.0438 31.2878 25.2362L29.8346 25.9524C29.8209 25.9442 29.8077 25.9354 29.7933 25.9278L28.0623 25.0137C27.5959 24.7638 27.0755 24.6315 26.5464 24.6283C26.0173 24.625 25.4954 24.751 25.026 24.9952L22.7152 26.1788C22.54 26.2768 22.3432 26.3295 22.1424 26.3322L16.6346 26.3953L17.0206 25.7265C17.145 25.5111 17.1786 25.2553 17.1143 25.0151C17.0499 24.7749 16.8928 24.5702 16.6775 24.4458L10.0711 20.6317C9.85575 20.5075 9.5999 20.4738 9.35976 20.5381C9.11963 20.6025 8.91488 20.7596 8.79056 20.9749L0.125599 35.983C0.00128454 36.1983 -0.0324041 36.4542 0.0319438 36.6943C0.0962918 36.9345 0.253406 37.1393 0.468724 37.2636ZM14.6879 44.8468C14.349 44.505 14.1588 44.0431 14.1588 43.5617C14.1588 43.0803 14.349 42.6185 14.6879 42.2766L17.9846 38.9799C18.3259 38.641 18.7875 38.4512 19.2684 38.452C19.7494 38.4529 20.2104 38.6443 20.5504 38.9844C20.8905 39.3245 21.0818 39.7855 21.0826 40.2664C21.0834 40.7474 20.8935 41.209 20.5545 41.5502L17.2581 44.8468C16.9169 45.187 16.4548 45.3781 15.973 45.3781C15.4912 45.3781 15.029 45.187 14.6879 44.8468ZM18.5839 48.7427C18.2451 48.401 18.055 47.9394 18.0548 47.4582C18.0547 46.977 18.2445 46.5152 18.5831 46.1733L18.5839 46.1725L21.8806 42.8759C22.2223 42.5394 22.6832 42.3515 23.1628 42.3533C23.6424 42.3551 24.1019 42.5464 24.441 42.8856C24.7802 43.2247 24.9715 43.6842 24.9733 44.1638C24.9751 44.6434 24.7872 45.1043 24.4507 45.446L21.154 48.7427C20.8129 49.083 20.3507 49.2741 19.8689 49.2741C19.3871 49.2741 18.925 49.083 18.5839 48.7427ZM22.4798 52.6386C22.1395 52.2975 21.9483 51.8353 21.9483 51.3535C21.9483 50.8717 22.1395 50.4095 22.4798 50.0684L25.7764 46.7718C26.1172 46.431 26.5795 46.2395 27.0615 46.2395C27.5435 46.2395 28.0058 46.431 28.3466 46.7718C28.6874 47.1126 28.8789 47.5749 28.8789 48.0569C28.8789 48.5389 28.6874 49.0012 28.3466 49.342C28.3152 49.3739 28.2861 49.408 28.2595 49.444C28.1611 49.5208 28.0674 49.6035 27.979 49.6915L25.3994 52.2708C25.3112 52.3596 25.2284 52.4535 25.1515 52.5521C25.1156 52.5786 25.0816 52.6075 25.0499 52.6388C24.7088 52.9791 24.2466 53.1702 23.7648 53.1701C23.283 53.1701 22.8209 52.9789 22.4798 52.6386ZM26.7255 55.3192C26.4972 55.0907 26.369 54.7809 26.369 54.4579C26.369 54.1349 26.4972 53.8251 26.7255 53.5966L29.3048 51.0173C29.5333 50.7888 29.8431 50.6605 30.1661 50.6605C30.4892 50.6605 30.799 50.7889 31.0275 51.0173C31.2559 51.2457 31.3842 51.5556 31.3842 51.8786C31.3842 52.2017 31.2559 52.5115 31.0275 52.7399L28.4482 55.3192C28.2189 55.5462 27.9094 55.6735 27.5869 55.6735C27.2643 55.6735 26.9548 55.5462 26.7255 55.3192ZM31.9063 56.2137C31.6796 56.4398 31.373 56.5676 31.0529 56.5695C30.7327 56.5714 30.4247 56.4472 30.1953 56.2238L31.9167 54.5024C32.1401 54.7319 32.2643 55.04 32.2624 55.3602C32.2604 55.6805 32.1325 55.9871 31.9063 56.2137ZM36.1523 53.5332C35.8112 53.8735 35.3491 54.0646 34.8674 54.0646C34.3856 54.0646 33.9235 53.8735 33.5824 53.5332C33.5505 53.5017 33.5163 53.4726 33.4802 53.4461C33.4034 53.3477 33.3208 53.254 33.2327 53.1656L33.0533 52.9862C33.2182 52.5579 33.2855 52.0983 33.2505 51.6407C33.2154 51.1832 33.0788 50.7392 32.8506 50.341C32.6224 49.9429 32.3084 49.6006 31.9313 49.339C31.5542 49.0775 31.1236 48.9033 30.6708 48.829C30.7733 48.347 30.779 47.8493 30.6875 47.365C31.0326 47.1732 31.4308 47.0988 31.8219 47.1532C32.213 47.2076 32.5758 47.3877 32.8555 47.6664L36.1523 50.9632C36.4927 51.3042 36.6838 51.7663 36.6838 52.2482C36.6838 52.73 36.4927 53.1921 36.1523 53.5332ZM40.0483 49.6373C39.7065 49.9761 39.2447 50.1662 38.7634 50.1662C38.2821 50.1662 37.8203 49.9761 37.4784 49.6373L34.1816 46.3406C33.8508 45.9979 33.6678 45.5391 33.6719 45.0628C33.6759 44.5866 33.8668 44.131 34.2034 43.794C34.54 43.4571 34.9955 43.2657 35.4717 43.2612C35.948 43.2566 36.407 43.4392 36.75 43.7696V43.7703L40.0467 47.0669C40.3872 47.4078 40.5786 47.87 40.5788 48.3519C40.579 48.8338 40.388 49.2961 40.0477 49.6373H40.0483ZM43.9441 45.7414C43.6031 46.0817 43.141 46.2728 42.6592 46.2728C42.1774 46.2728 41.7153 46.0817 41.3743 45.7414L38.0775 42.4447C37.7409 42.103 37.553 41.6421 37.5549 41.1625C37.5567 40.6829 37.748 40.2234 38.0871 39.8843C38.4263 39.5452 38.8857 39.3538 39.3653 39.352C39.8449 39.3502 40.3058 39.5381 40.6475 39.8746L43.9438 43.1719C44.2826 43.5138 44.4727 43.9756 44.4727 44.457C44.4727 44.9383 44.2826 45.4001 43.9438 45.742L43.9441 45.7414ZM50.0551 22.7244L57.7824 36.1085L52.7994 38.9854L45.0713 25.6012L50.0551 22.7244ZM32.1167 26.918C32.2797 26.8327 32.4587 26.7822 32.6423 26.7697C32.8259 26.7571 33.0101 26.7829 33.1831 26.8454L40.4858 29.2796C41.4058 29.5951 42.4077 29.5749 43.3142 29.2225L44.6953 28.6993L49.9088 37.7292L44.3496 40.9256L41.9729 38.5488C41.7212 38.297 41.4342 38.0832 41.1211 37.9139L33.6474 32.311C33.1725 31.9555 32.6054 31.744 32.0137 31.7016L30.9156 31.6047C30.3006 31.5456 29.6816 31.6635 29.1314 31.9444C28.5813 32.2253 28.1228 32.6576 27.8101 33.1904L26.3543 35.5844C26.3328 35.6248 26.299 35.6574 26.2577 35.6773C26.2165 35.6971 26.17 35.7034 26.1249 35.695L23.9101 35.4161C23.8766 35.4119 23.8445 35.4005 23.8158 35.3827C23.7872 35.3649 23.7627 35.3411 23.7441 35.313C23.7255 35.2849 23.7131 35.2531 23.7079 35.2198C23.7027 35.1865 23.7048 35.1524 23.7139 35.12L24.8741 31.0067C24.9234 30.8151 25.0146 30.6368 25.1411 30.4847C25.2677 30.3326 25.4264 30.2105 25.6058 30.1271L32.1167 26.918ZM22.164 28.2071C22.6548 28.2017 23.1371 28.0784 23.5702 27.8477L25.881 26.6641C26.082 26.5559 26.3069 26.4999 26.5352 26.5013C26.7635 26.5027 26.9878 26.5614 27.1875 26.6719L27.7606 26.9744L24.7763 28.4455C24.3608 28.6445 23.9931 28.9309 23.6985 29.2851C23.4038 29.6393 23.1891 30.0529 23.069 30.4978L21.9089 34.611C21.8265 34.9032 21.8081 35.2098 21.855 35.5097C21.9019 35.8097 22.013 36.0959 22.1807 36.349C22.3484 36.6021 22.5688 36.8159 22.8267 36.976C23.0847 37.1361 23.3742 37.2386 23.6754 37.2766L25.8902 37.5554C26.2942 37.6096 26.7052 37.5441 27.0724 37.3671C27.4396 37.19 27.7467 36.9092 27.9559 36.5593L29.4118 34.1654C29.5441 33.9329 29.7409 33.7437 29.9785 33.6208C30.216 33.498 30.4842 33.4466 30.7503 33.473L31.8484 33.5699C32.0921 33.5817 32.3267 33.666 32.5223 33.8118L37.8385 37.7973C37.1917 38.0895 36.6432 38.5624 36.2589 39.1591C35.8746 39.7558 35.671 40.4508 35.6726 41.1605C35.6726 41.2315 35.6751 41.3022 35.679 41.3726C35.1771 41.3427 34.6745 41.4158 34.202 41.5875C33.7294 41.7592 33.2971 42.0258 32.9315 42.3709C32.5659 42.7161 32.2748 43.1324 32.0762 43.5942C31.8776 44.0561 31.7757 44.5537 31.7767 45.0564C31.7767 45.1276 31.7792 45.1981 31.7831 45.2685C31.1232 45.2301 30.4651 45.3691 29.8772 45.6711C29.812 45.5944 29.7443 45.5187 29.672 45.4469C29.3038 45.0786 28.8617 44.7925 28.3749 44.6076C27.8881 44.4226 27.3676 44.343 26.8477 44.3739C26.8517 44.3036 26.8542 44.2333 26.8542 44.1618C26.8553 43.6591 26.7536 43.1615 26.5552 42.6996C26.3567 42.2377 26.0659 41.8214 25.7004 41.4761C25.335 41.1309 24.9028 40.8641 24.4304 40.6922C23.958 40.5203 23.4554 40.447 22.9536 40.4766C22.9833 39.9749 22.91 39.4724 22.7382 39C22.5665 38.5277 22.2998 38.0955 21.9547 37.73C21.6097 37.3646 21.1934 37.0736 20.7317 36.8751C20.2699 36.6766 19.7724 36.5746 19.2698 36.5756C18.785 36.5737 18.3045 36.6681 17.8564 36.8531C17.4082 37.0382 17.0012 37.3103 16.6589 37.6537L13.3681 40.9454L9.53165 38.6988L15.545 28.2831L22.164 28.2071ZM9.94544 22.7244L14.9285 25.6012L7.20103 38.9854L2.2181 36.1085L9.94544 22.7244ZM30 23.53C32.1729 23.53 34.297 22.8857 36.1037 21.6785C37.9105 20.4713 39.3187 18.7555 40.1502 16.748C40.9818 14.7405 41.1994 12.5315 40.7754 10.4003C40.3515 8.26913 39.3052 6.31152 37.7687 4.77503C36.2322 3.23854 34.2747 2.19217 32.1435 1.76824C30.0123 1.34432 27.8033 1.56188 25.7958 2.39342C23.7883 3.22495 22.0724 4.63311 20.8652 6.43983C19.658 8.24654 19.0136 10.3707 19.0136 12.5436C19.017 15.4563 20.1755 18.2488 22.2351 20.3085C24.2947 22.3681 27.0872 23.5267 30 23.53ZM30 3.43237C31.8021 3.43234 33.5637 3.96671 35.0621 4.96787C36.5605 5.96904 37.7283 7.39206 38.4179 9.05696C39.1076 10.7219 39.288 12.5539 38.9365 14.3213C38.5849 16.0888 37.7171 17.7123 36.4429 18.9866C35.1686 20.2608 33.5451 21.1286 31.7776 21.4802C30.0102 21.8318 28.1781 21.6513 26.5132 20.9617C24.8483 20.272 23.4253 19.1042 22.4242 17.6058C21.423 16.1074 20.8886 14.3458 20.8886 12.5437C20.8914 10.128 21.8522 7.81212 23.5603 6.10399C25.2684 4.39585 27.5843 3.43513 30 3.43237ZM25.8295 12.5878C25.6833 12.3866 25.623 12.1357 25.6619 11.8901C25.7007 11.6445 25.8356 11.4244 26.0367 11.2782C26.2378 11.132 26.4888 11.0717 26.7344 11.1106C26.98 11.1494 27.2001 11.2842 27.3463 11.4854L28.7812 13.4602L33.5581 9.5471C33.7507 9.39143 33.997 9.31824 34.2433 9.34352C34.4896 9.3688 34.7159 9.49049 34.8728 9.68203C35.0297 9.87357 35.1045 10.1194 35.0808 10.3659C35.0571 10.6123 34.9368 10.8394 34.7463 10.9975L29.2009 15.5402C29.1021 15.6211 28.9879 15.681 28.8651 15.7162C28.7424 15.7513 28.6138 15.7611 28.4871 15.7448C28.3605 15.7285 28.2385 15.6865 28.1287 15.6214C28.0189 15.5563 27.9235 15.4694 27.8484 15.3662L25.8295 12.5878Z" fill="white"/>
</svg>
