<svg width="60" height="60" viewBox="0 0 60 60" fill="none" xmlns="http://www.w3.org/2000/svg">
<path d="M3.0001 54.1619H37.9381C38.4361 54.1619 38.8381 53.7599 38.8381 53.2619V35.1119L57.6361 16.3199C57.8041 16.1519 57.9001 15.9239 57.9001 15.6839C57.9001 15.5039 57.8461 15.3299 57.7501 15.1859C57.7201 15.1379 57.6781 15.0899 57.6361 15.0479L51.9901 9.40189C51.6361 9.04789 51.0661 9.04789 50.7181 9.40189L47.8501 12.2699L47.8441 12.2759L38.8381 21.2819V6.73789C38.8381 6.23989 38.4361 5.83789 37.9381 5.83789H17.3941C17.3821 5.83789 17.3701 5.84389 17.3581 5.84389C17.2921 5.84389 17.2261 5.86189 17.1601 5.87989C17.1301 5.88589 17.1001 5.89189 17.0701 5.90389C16.9801 5.93989 16.8901 5.98789 16.8121 6.05389L2.4421 18.2759C2.4421 18.2759 2.4421 18.2819 2.4361 18.2819C2.2321 18.4439 2.1001 18.6959 2.1001 18.9719V53.2619C2.1001 53.7599 2.5021 54.1619 3.0001 54.1619ZM16.0501 9.06589L13.9861 20.2019C11.9941 18.0539 9.2701 17.5019 6.9901 17.5019C6.6781 17.5019 6.3781 17.5139 6.0901 17.5319L16.0501 9.06589ZM29.4541 39.2459L27.7861 37.5779L28.8301 34.5899L30.6361 36.3959L32.4421 38.2019L29.4541 39.2459ZM48.4861 14.1779L50.0341 15.7259L31.2781 34.4879L29.7301 32.9399L48.4861 14.1779ZM37.3021 34.0979C37.3021 34.1039 37.3021 34.1039 37.3021 34.0979L34.0981 37.3019L32.5501 35.7539L51.3061 16.9979L52.8541 18.5459L37.3021 34.0979ZM51.3541 11.3099L55.7221 15.6779L54.1261 17.2739L49.7581 12.9059L51.3541 11.3099ZM26.8921 40.1459L27.1321 39.4679L27.5761 39.9119L26.8921 40.1459ZM37.0381 23.0759L29.8141 30.2999H8.3941C7.8961 30.2999 7.4941 30.7019 7.4941 31.1999C7.4941 31.6979 7.8961 32.0999 8.3941 32.0999H28.0141L27.8281 32.2859C27.8221 32.2919 27.8161 32.2919 27.8101 32.2979C27.7981 32.3099 27.7981 32.3219 27.7861 32.3339C27.7261 32.3999 27.6781 32.4719 27.6421 32.5499C27.6301 32.5799 27.6121 32.6099 27.6061 32.6399V32.6459L25.9021 37.5119C25.9021 37.5179 25.8961 37.5179 25.8961 37.5239L25.0981 39.8099L24.5701 41.3219C24.5401 41.4059 24.5281 41.4899 24.5221 41.5739C24.5161 41.7419 24.5521 41.9039 24.6301 42.0539H8.3941C7.8961 42.0539 7.4941 42.4559 7.4941 42.9539C7.4941 43.4519 7.8961 43.8539 8.3941 43.8539H32.5441C33.0421 43.8539 33.4441 43.4519 33.4441 42.9539C33.4441 42.4559 33.0421 42.0539 32.5441 42.0539H26.9221L29.5201 41.1479C29.5321 41.1419 29.5381 41.1359 29.5501 41.1299L34.3921 39.4379C34.3981 39.4379 34.3981 39.4319 34.4041 39.4319C34.4161 39.4259 34.4341 39.4259 34.4461 39.4199C34.5481 39.3779 34.6441 39.3119 34.7281 39.2339C34.7281 39.2339 34.7341 39.2339 34.7341 39.2279L37.0381 36.9239V52.3739H3.9001V19.6739C5.8321 19.2299 11.3221 18.4199 13.6861 22.8959C13.8421 23.1959 14.1541 23.3759 14.4841 23.3759C14.5321 23.3759 14.5741 23.3699 14.6221 23.3639C15.0001 23.3039 15.3001 23.0159 15.3721 22.6379L18.1501 7.64989H37.0441V23.0759H37.0381Z" fill="#0162CA"/>
<path d="M23.2262 14.496H32.5442C33.0422 14.496 33.4442 14.094 33.4442 13.596C33.4442 13.098 33.0422 12.696 32.5442 12.696H23.2262C22.7282 12.696 22.3262 13.098 22.3262 13.596C22.3262 14.094 22.7282 14.496 23.2262 14.496Z" fill="#0162CA"/>
<path d="M32.5441 18.564H17.3941C16.8961 18.564 16.4941 18.966 16.4941 19.464C16.4941 19.962 16.8961 20.364 17.3941 20.364H32.5441C33.0421 20.364 33.4441 19.962 33.4441 19.464C33.4441 18.966 33.0421 18.564 32.5441 18.564Z" fill="#0162CA"/>
<path d="M32.5438 24.4319H23.7838C23.2858 24.4319 22.8838 24.8339 22.8838 25.3319C22.8838 25.8299 23.2858 26.2319 23.7838 26.2319H32.5438C33.0418 26.2319 33.4438 25.8299 33.4438 25.3319C33.4438 24.8339 33.0418 24.4319 32.5438 24.4319Z" fill="#0162CA"/>
<path d="M8.39414 37.9741H20.4661C20.9641 37.9741 21.3661 37.5721 21.3661 37.0741C21.3661 36.5761 20.9641 36.1741 20.4661 36.1741H8.39414C7.89614 36.1741 7.49414 36.5761 7.49414 37.0741C7.49414 37.5721 7.89614 37.9741 8.39414 37.9741Z" fill="#0162CA"/>
<path d="M8.39414 49.7099H21.1381C21.6361 49.7099 22.0381 49.3079 22.0381 48.8099C22.0381 48.3119 21.6361 47.9099 21.1381 47.9099H8.39414C7.89614 47.9099 7.49414 48.3119 7.49414 48.8099C7.49414 49.3079 7.89614 49.7099 8.39414 49.7099Z" fill="#0162CA"/>
</svg>
