<svg width="60" height="60" viewBox="0 0 60 60" fill="none" xmlns="http://www.w3.org/2000/svg">
<path d="M16.875 19.6875H43.125C43.2481 19.6876 43.3701 19.6634 43.4839 19.6163C43.5976 19.5692 43.701 19.5001 43.7881 19.4131C43.8751 19.326 43.9442 19.2226 43.9913 19.1089C44.0384 18.9951 44.0626 18.8731 44.0625 18.75V11.25C44.0626 11.1269 44.0384 11.0049 43.9913 10.8912C43.9442 10.7774 43.8751 10.674 43.7881 10.5869C43.701 10.4999 43.5976 10.4308 43.4839 10.3837C43.3701 10.3366 43.2481 10.3124 43.125 10.3125H16.875C16.7519 10.3124 16.6299 10.3366 16.5161 10.3837C16.4024 10.4308 16.299 10.4999 16.2119 10.5869C16.1249 10.674 16.0558 10.7774 16.0087 10.8912C15.9616 11.0049 15.9374 11.1269 15.9375 11.25V18.75C15.9374 18.8731 15.9616 18.9951 16.0087 19.1089C16.0558 19.2226 16.1249 19.326 16.2119 19.4131C16.299 19.5001 16.4024 19.5692 16.5161 19.6163C16.6299 19.6634 16.7519 19.6876 16.875 19.6875ZM17.8125 12.1875H42.1875V17.8125H17.8125V12.1875Z" fill="#0162CA"/>
<path d="M16.875 34.6875H26.3077C26.5563 34.6875 26.7948 34.5887 26.9706 34.4129C27.1464 34.2371 27.2452 33.9986 27.2452 33.75C27.2452 33.5014 27.1464 33.2629 26.9706 33.0871C26.7948 32.9113 26.5563 32.8125 26.3077 32.8125H17.8125V27.1875H42.1875V32.8125H33.7903C33.5416 32.8125 33.3032 32.9113 33.1274 33.0871C32.9515 33.2629 32.8528 33.5014 32.8528 33.75C32.8528 33.9986 32.9515 34.2371 33.1274 34.4129C33.3032 34.5887 33.5416 34.6875 33.7903 34.6875H43.125C43.2481 34.6876 43.3701 34.6634 43.4839 34.6163C43.5976 34.5692 43.701 34.5001 43.7881 34.4131C43.8751 34.326 43.9442 34.2226 43.9913 34.1089C44.0384 33.9951 44.0626 33.8731 44.0625 33.75V26.25C44.0626 26.1269 44.0384 26.0049 43.9913 25.8911C43.9442 25.7774 43.8751 25.674 43.7881 25.5869C43.701 25.4999 43.5976 25.4308 43.4839 25.3837C43.3701 25.3366 43.2481 25.3124 43.125 25.3125H16.875C16.7519 25.3124 16.6299 25.3366 16.5161 25.3837C16.4024 25.4308 16.299 25.4999 16.2119 25.5869C16.1249 25.674 16.0558 25.7774 16.0087 25.8911C15.9616 26.0049 15.9374 26.1269 15.9375 26.25V33.75C15.9374 33.8731 15.9616 33.9951 16.0087 34.1089C16.0558 34.2226 16.1249 34.326 16.2119 34.4131C16.299 34.5001 16.4024 34.5692 16.5161 34.6163C16.6299 34.6634 16.7519 34.6876 16.875 34.6875Z" fill="#0162CA"/>
<path d="M16.875 49.6875H43.125C43.2481 49.6876 43.3701 49.6634 43.4839 49.6163C43.5976 49.5692 43.701 49.5001 43.7881 49.4131C43.8751 49.326 43.9442 49.2226 43.9913 49.1089C44.0384 48.9951 44.0626 48.8731 44.0625 48.75V41.25C44.0626 41.1269 44.0384 41.0049 43.9913 40.8911C43.9442 40.7774 43.8751 40.674 43.7881 40.5869C43.701 40.4999 43.5976 40.4308 43.4839 40.3837C43.3701 40.3366 43.2481 40.3124 43.125 40.3125H16.875C16.7519 40.3124 16.6299 40.3366 16.5161 40.3837C16.4024 40.4308 16.299 40.4999 16.2119 40.5869C16.1249 40.674 16.0558 40.7774 16.0087 40.8911C15.9616 41.0049 15.9374 41.1269 15.9375 41.25V48.75C15.9374 48.8731 15.9616 48.9951 16.0087 49.1089C16.0558 49.2226 16.1249 49.326 16.2119 49.4131C16.299 49.5001 16.4024 49.5692 16.5161 49.6163C16.6299 49.6634 16.7519 49.6876 16.875 49.6875ZM17.8125 42.1875H42.1875V47.8125H17.8125V42.1875Z" fill="#0162CA"/>
<path d="M48.75 14.0625H46.875C46.6264 14.0625 46.3879 14.1613 46.2121 14.3371C46.0363 14.5129 45.9375 14.7514 45.9375 15C45.9375 15.2486 46.0363 15.4871 46.2121 15.6629C46.3879 15.8387 46.6264 15.9375 46.875 15.9375H48.75C50.4905 15.9375 52.1597 16.6289 53.3904 17.8596C54.6211 19.0903 55.3125 20.7595 55.3125 22.5C55.3125 24.2405 54.6211 25.9097 53.3904 27.1404C52.1597 28.3711 50.4905 29.0625 48.75 29.0625H46.875C46.6264 29.0625 46.3879 29.1613 46.2121 29.3371C46.0363 29.5129 45.9375 29.7514 45.9375 30C45.9375 30.2486 46.0363 30.4871 46.2121 30.6629C46.3879 30.8387 46.6264 30.9375 46.875 30.9375H48.75C50.9878 30.9375 53.1339 30.0486 54.7162 28.4662C56.2986 26.8839 57.1875 24.7378 57.1875 22.5C57.1875 20.2622 56.2986 18.1161 54.7162 16.5338C53.1339 14.9514 50.9878 14.0625 48.75 14.0625Z" fill="#0162CA"/>
<path d="M11.25 45.9375H13.125C13.3736 45.9375 13.6121 45.8387 13.7879 45.6629C13.9637 45.4871 14.0625 45.2486 14.0625 45C14.0625 44.7514 13.9637 44.5129 13.7879 44.3371C13.6121 44.1613 13.3736 44.0625 13.125 44.0625H11.25C9.50952 44.0625 7.84032 43.3711 6.60961 42.1404C5.3789 40.9097 4.6875 39.2405 4.6875 37.5C4.6875 35.7595 5.3789 34.0903 6.60961 32.8596C7.84032 31.6289 9.50952 30.9375 11.25 30.9375H13.125C13.3736 30.9375 13.6121 30.8387 13.7879 30.6629C13.9637 30.4871 14.0625 30.2486 14.0625 30C14.0625 29.7514 13.9637 29.5129 13.7879 29.3371C13.6121 29.1613 13.3736 29.0625 13.125 29.0625H11.25C9.01224 29.0625 6.86612 29.9514 5.28379 31.5338C3.70145 33.1161 2.8125 35.2622 2.8125 37.5C2.8125 39.7378 3.70145 41.8839 5.28379 43.4662C6.86612 45.0486 9.01224 45.9375 11.25 45.9375Z" fill="#0162CA"/>
<path d="M55.0378 42.4621C54.861 42.2914 54.6242 42.1969 54.3784 42.199C54.1326 42.2011 53.8975 42.2997 53.7236 42.4736C53.5498 42.6474 53.4512 42.8825 53.4491 43.1283C53.447 43.3741 53.5415 43.611 53.7122 43.7878L53.9869 44.0625H46.875C46.6264 44.0625 46.3879 44.1613 46.2121 44.3371C46.0363 44.5129 45.9375 44.7514 45.9375 45C45.9375 45.2486 46.0363 45.4871 46.2121 45.6629C46.3879 45.8387 46.6264 45.9375 46.875 45.9375H53.9869L53.7122 46.2121C53.6227 46.2986 53.5512 46.4021 53.5021 46.5164C53.453 46.6308 53.4271 46.7538 53.426 46.8783C53.425 47.0028 53.4487 47.1263 53.4958 47.2415C53.543 47.3567 53.6126 47.4614 53.7006 47.5494C53.7886 47.6374 53.8933 47.707 54.0085 47.7542C54.1237 47.8013 54.2472 47.825 54.3716 47.8239C54.4961 47.8229 54.6191 47.797 54.7335 47.7479C54.8479 47.6987 54.9514 47.6273 55.0378 47.5378L56.9128 45.6628C56.9999 45.5757 57.069 45.4724 57.1161 45.3587C57.1632 45.245 57.1875 45.1231 57.1875 45C57.1875 44.8769 57.1632 44.755 57.1161 44.6412C57.069 44.5275 56.9999 44.4242 56.9128 44.3371L55.0378 42.4621Z" fill="#0162CA"/>
<path d="M3.75 15.9375H10.8619L10.5872 16.2121C10.4977 16.2986 10.4262 16.4021 10.3771 16.5164C10.328 16.6308 10.3021 16.7538 10.301 16.8783C10.3 17.0028 10.3237 17.1263 10.3708 17.2415C10.418 17.3567 10.4876 17.4614 10.5756 17.5494C10.6636 17.6374 10.7683 17.707 10.8835 17.7542C10.9987 17.8013 11.1222 17.825 11.2466 17.8239C11.3711 17.8229 11.4941 17.797 11.6085 17.7479C11.7229 17.6987 11.8264 17.6273 11.9128 17.5378L13.7878 15.6628C13.8749 15.5757 13.944 15.4724 13.9911 15.3587C14.0382 15.245 14.0625 15.1231 14.0625 15C14.0625 14.8769 14.0382 14.755 13.9911 14.6412C13.944 14.5275 13.8749 14.4242 13.7878 14.3371L11.9128 12.4621C11.736 12.2914 11.4992 12.1969 11.2534 12.199C11.0076 12.2011 10.7724 12.2997 10.5986 12.4736C10.4248 12.6474 10.3262 12.8825 10.3241 13.1283C10.3219 13.3741 10.4164 13.611 10.5872 13.7878L10.8619 14.0625H3.75C3.50136 14.0625 3.2629 14.1613 3.08709 14.3371C2.91127 14.5129 2.8125 14.7514 2.8125 15C2.8125 15.2486 2.91127 15.4871 3.08709 15.6629C3.2629 15.8387 3.50136 15.9375 3.75 15.9375Z" fill="#0162CA"/>
<path d="M30 34.6875C30.5178 34.6875 30.9375 34.2678 30.9375 33.75C30.9375 33.2322 30.5178 32.8125 30 32.8125C29.4822 32.8125 29.0625 33.2322 29.0625 33.75C29.0625 34.2678 29.4822 34.6875 30 34.6875Z" fill="#0162CA"/>
</svg>
