<svg width="1200" height="467" viewBox="0 0 1200 467" fill="none" xmlns="http://www.w3.org/2000/svg">
<ellipse cx="600" cy="395" rx="600" ry="72" fill="#F3F3F3"/>
<path d="M236.97 34L217.188 46.402L236.97 54.661V34Z" fill="#363739"/>
<path d="M366.507 303.965L348.297 316.341L334.902 301.194L366.507 303.965Z" fill="#363739"/>
<path d="M310.972 371.625L291.19 384L278.027 365.653L310.972 371.625Z" fill="#363739"/>
<path d="M225.763 371.625V303.965H37.7812V247.551L237.045 34.0269H310.997V247.336H367.999V303.965H310.971V371.625H225.763ZM225.763 247.309V132.409L120.181 247.309H225.763Z" fill="#363739"/>
<path d="M206.008 384V316.341H18V259.926L217.264 46.402H291.215V259.711H348.244V316.341H291.215V384H206.008ZM206.008 259.684V144.784L100.426 259.684H206.008Z" fill="#121212"/>
<path d="M573 34C625.198 34 666.001 45.4337 695.44 68.3013C730.5 95.377 748 140.292 748 203.018C748 265.586 730.349 310.58 695.047 337.947C665.88 360.524 625.198 371.799 573 371.799C520.56 371.799 478.276 359.439 446.148 334.692C414.049 309.945 398 265.825 398 202.357C398 140.08 415.651 95.2447 450.953 67.8778C480.12 45.3014 520.802 34 573 34ZM573 86.59C555.772 86.59 540.388 89.025 526.847 93.9214C513.337 98.8178 502.849 107.578 495.414 120.203C485.621 136.613 480.725 164.191 480.725 203.018C480.725 241.846 485.107 268.498 493.902 283.002C502.698 297.506 513.76 307.193 527.119 312.01C540.478 316.827 555.772 319.235 573 319.235C590.228 319.235 605.612 316.8 619.153 311.904C632.663 307.007 643.151 298.247 650.586 285.622C660.379 269.371 665.275 241.846 665.275 203.045C665.275 164.244 660.893 137.565 652.098 123.062C643.302 108.558 632.24 98.8442 618.881 93.9478C605.522 89.025 590.228 86.59 573 86.59Z" fill="#363739"/>
<path d="M573 46.2013C625.198 46.2013 666.001 57.6351 695.44 80.5026C730.5 107.578 748 152.493 748 215.22C748 277.788 730.349 322.782 695.047 350.149C665.88 372.725 625.198 384 573 384C520.56 384 478.276 371.64 446.148 346.893C414.049 322.147 398 278.026 398 214.558C398 152.281 415.651 107.446 450.953 80.0791C480.12 57.4763 520.802 46.2013 573 46.2013ZM573 98.7648C555.772 98.7648 540.388 101.2 526.847 106.096C513.307 110.993 502.849 119.753 495.414 132.378C485.621 148.788 480.725 176.366 480.725 215.193C480.725 253.994 485.107 280.673 493.902 295.177C502.698 309.681 513.76 319.368 527.119 324.185C540.478 329.002 555.772 331.41 573 331.41C590.228 331.41 605.612 328.975 619.153 324.079C632.693 319.182 643.151 310.422 650.586 297.797C660.379 281.546 665.275 254.02 665.275 215.22C665.275 176.419 660.893 149.74 652.098 135.236C643.302 120.732 632.24 111.019 618.881 106.123C605.522 101.226 590.228 98.7648 573 98.7648Z" fill="#121212"/>
<path d="M535.375 408.472C535.375 408.472 537.3 419.798 537.47 421.441C537.64 423.083 556.782 421.837 556.782 421.837C556.782 421.837 557.15 411.133 558.396 408.132C558.396 408.132 543.105 410.765 535.375 408.472Z" fill="url(#paint0_radial_789_4185)"/>
<path d="M535.371 408.472C535.371 408.472 537.297 419.798 537.466 421.441C537.636 423.083 556.778 421.837 556.778 421.837C556.778 421.837 557.146 411.133 558.392 408.132C558.392 408.132 543.101 410.765 535.371 408.472Z" fill="url(#paint1_radial_789_4185)"/>
<path d="M520.762 442.309C515.41 443.017 507.708 442.423 503.744 438.374C503.064 440.271 503.348 441.488 503.348 441.488C503.348 441.488 502.979 446.783 507.595 449.19C512.21 451.597 527.303 449.898 533.702 447.35C537.214 445.934 558.394 437.439 558.394 437.439V433.333L558.196 429.256C547.011 436.306 534.07 440.554 520.762 442.309Z" fill="white"/>
<path d="M557.741 416.174L558.392 429.964V434.069C558.392 434.069 537.269 442.763 533.701 443.98C527.047 446.245 512.237 448.228 507.593 445.821C502.978 443.414 503.346 438.119 503.346 438.119C503.346 438.119 500.684 426.424 531.775 419.883L533.814 419.09L534.239 414.73C534.239 414.73 544.914 416.627 545.848 416.627C546.783 416.627 546.783 416.627 546.783 416.627L547.038 419.77C547.038 419.77 552.276 419.713 552.588 418.467C552.899 417.221 553.097 415.947 557.741 416.174Z" fill="#0162CA"/>
<path d="M534.243 414.73L533.819 419.09C533.819 419.09 532.148 421.242 515.611 427.642C515.611 427.642 515.328 432.427 521.529 431.408C533.479 429.482 546.617 424.187 546.957 422.771C547.297 421.384 546.759 416.598 546.759 416.598L534.243 414.73Z" fill="#B80813"/>
<path d="M515.412 426.424C515.525 426.736 516.12 426.821 516.714 426.566C517.309 426.311 517.705 425.886 517.564 425.546C517.45 425.235 516.856 425.15 516.261 425.405C515.666 425.66 515.27 426.113 515.412 426.424Z" fill="#121212"/>
<path d="M520.451 424.442C520.564 424.754 521.159 424.838 521.753 424.584C522.348 424.357 522.744 423.904 522.603 423.564C522.489 423.253 521.895 423.168 521.3 423.423C520.705 423.678 520.309 424.131 520.451 424.442Z" fill="#121212"/>
<path d="M525.662 422.602C525.775 422.913 526.37 422.998 526.964 422.743C527.559 422.488 527.955 422.064 527.814 421.724C527.672 421.384 527.106 421.327 526.511 421.582C525.916 421.837 525.52 422.262 525.662 422.602Z" fill="#121212"/>
<path d="M530.222 420.789C530.307 421.016 530.874 421.016 531.468 420.789C532.063 420.563 532.488 420.166 532.374 419.94C532.289 419.713 531.723 419.713 531.128 419.94C530.534 420.195 530.137 420.563 530.222 420.789Z" fill="#121212"/>
<path d="M524.073 432.569C524.158 432.909 524.725 433.05 525.348 432.909C525.97 432.767 526.424 432.37 526.339 432.031C526.254 431.691 525.687 431.549 525.064 431.691C524.413 431.832 523.988 432.229 524.073 432.569Z" fill="#121212"/>
<path d="M530.616 430.983C530.701 431.323 531.267 431.464 531.89 431.323C532.513 431.181 532.966 430.785 532.881 430.445C532.796 430.105 532.23 429.964 531.607 430.105C530.984 430.247 530.531 430.643 530.616 430.983Z" fill="#121212"/>
<path d="M536.761 429.001C536.846 429.341 537.412 429.482 538.035 429.341C538.658 429.199 539.111 428.803 539.026 428.463C538.941 428.123 538.375 427.982 537.752 428.123C537.101 428.293 536.676 428.661 536.761 429.001Z" fill="#121212"/>
<path d="M543.44 426.311C543.525 426.651 544.091 426.792 544.714 426.651C545.337 426.509 545.79 426.113 545.705 425.773C545.62 425.433 545.054 425.292 544.431 425.433C543.808 425.575 543.355 425.971 543.44 426.311Z" fill="#121212"/>
<path d="M533.814 419.09C533.616 419.317 533.418 419.515 533.191 419.685C532.965 419.883 532.738 420.025 532.512 420.223C532.03 420.563 531.549 420.874 531.068 421.186C530.586 421.497 530.076 421.78 529.567 422.063C529.057 422.347 528.547 422.63 528.038 422.913C525.942 423.904 523.819 424.81 521.695 425.688C520.619 426.113 519.571 426.566 518.495 426.99L516.881 427.613L516.485 427.783L516.428 427.812H516.4C516.371 427.812 516.371 427.84 516.343 427.84C516.315 427.868 516.287 427.897 516.258 427.925C516.145 428.038 516.088 428.208 516.117 428.35C516.117 428.378 516.145 428.463 516.145 428.52C516.145 428.576 516.173 428.661 516.202 428.718C516.23 428.831 516.286 428.973 516.315 429.086C516.371 429.199 516.428 429.312 516.485 429.426C516.541 429.539 516.598 429.652 516.683 429.765C516.966 430.19 517.363 430.53 517.816 430.756C518.722 431.238 519.854 431.266 520.93 431.125C521.468 431.068 522.035 430.926 522.601 430.813C523.167 430.7 523.734 430.587 524.272 430.473C525.404 430.218 526.509 429.964 527.613 429.68C529.85 429.114 532.059 428.491 534.239 427.812C536.419 427.132 538.6 426.396 540.723 425.575C541.828 425.235 542.904 424.838 543.951 424.442C544.489 424.244 545.027 424.017 545.537 423.762C545.792 423.649 546.047 423.508 546.302 423.366C546.415 423.281 546.556 423.224 546.641 423.139C546.755 423.055 546.868 422.941 546.924 422.828C546.896 422.97 546.783 423.083 546.698 423.196C546.585 423.309 546.5 423.394 546.358 423.479C546.132 423.649 545.877 423.819 545.65 423.989C545.169 424.3 544.659 424.584 544.15 424.867C543.13 425.405 542.082 425.914 541.006 426.367C538.854 427.189 536.674 427.925 534.465 428.633C532.257 429.312 530.048 429.935 527.811 430.502C526.679 430.785 525.574 431.04 524.441 431.294C523.875 431.408 523.309 431.521 522.743 431.634C522.176 431.748 521.61 431.861 521.015 431.946C520.732 432.002 520.421 432.002 520.109 432.031C519.968 432.059 519.798 432.031 519.656 432.031C519.515 432.031 519.345 432.031 519.203 432.002C518.58 431.946 517.957 431.776 517.391 431.493C516.825 431.21 516.315 430.757 515.947 430.218C515.862 430.077 515.777 429.935 515.692 429.822C515.635 429.68 515.55 429.539 515.494 429.397C515.437 429.256 515.38 429.114 515.352 428.944C515.324 428.859 515.295 428.803 515.295 428.718C515.267 428.633 515.267 428.576 515.239 428.463C515.182 428.038 515.324 427.613 515.635 427.33C515.72 427.245 515.805 427.189 515.89 427.132C515.947 427.104 515.975 427.075 516.032 427.047L516.117 427.019L516.173 426.99L516.57 426.821L518.184 426.198C519.26 425.773 520.307 425.32 521.383 424.895C523.507 424.017 525.602 423.111 527.67 422.12C528.717 421.695 529.793 421.242 530.813 420.761C531.322 420.506 531.86 420.28 532.342 419.996C532.597 419.855 532.851 419.742 533.078 419.572C533.361 419.458 533.588 419.288 533.814 419.09Z" fill="#121212"/>
<path d="M531.408 431.068C525.858 426.084 516.599 426.481 516.514 426.509L516.457 425.461C516.853 425.433 526.226 425.037 532.087 430.303L531.408 431.068Z" fill="#E6E6E6"/>
<path d="M524.67 432.342C523.934 426.764 521.216 424.414 521.188 424.385L521.839 423.593C521.952 423.706 524.897 426.169 525.69 432.201L524.67 432.342Z" fill="#E6E6E6"/>
<path d="M531.407 430.756C531.068 427.868 526.424 422.573 526.367 422.517L527.132 421.837C527.33 422.063 532.059 427.444 532.427 430.643L531.407 430.756Z" fill="#E6E6E6"/>
<path d="M537.637 429.199C537.524 429.142 526.622 423.536 521.61 424.272L521.469 423.253C526.82 422.432 537.666 428.038 538.119 428.265L537.637 429.199Z" fill="#E6E6E6"/>
<path d="M537.609 428.689C536.533 424.357 531.068 420.846 531.012 420.818L531.578 419.94C531.805 420.081 537.411 423.706 538.6 428.435L537.609 428.689Z" fill="#E6E6E6"/>
<path d="M544.379 426.509C540.528 424.895 529.881 421.016 526.965 422.403L526.512 421.469C530.391 419.657 543.303 424.952 544.776 425.575L544.379 426.509Z" fill="#E6E6E6"/>
<path d="M545.085 429.397C544.632 429.397 544.32 429.199 544.292 429.171C544.037 429.001 537.694 424.81 537.609 421.044V420.648L537.977 420.534C538.261 420.449 544.745 418.581 547.265 420.818C548.115 421.582 548.426 422.686 548.171 424.102C547.662 427.047 546.812 428.803 545.708 429.256C545.481 429.369 545.255 429.397 545.085 429.397ZM538.657 421.384C539.11 423.989 543.216 427.217 544.83 428.293C544.858 428.293 545.028 428.406 545.283 428.293C545.623 428.123 546.501 427.387 547.124 423.932C547.322 422.856 547.124 422.092 546.557 421.582C544.943 420.138 540.668 420.874 538.657 421.384Z" fill="#E6E6E6"/>
<path d="M525.149 423.706C524.753 423.706 524.186 423.621 523.903 423.083C523.45 422.262 524.045 420.987 525.857 418.949C530.019 414.248 538.118 420.336 538.458 420.591L539.392 421.327L525.517 423.678C525.46 423.678 525.319 423.706 525.149 423.706ZM529.963 418.213C528.717 418.213 527.528 418.609 526.621 419.628C524.526 422.007 524.809 422.573 524.809 422.573C524.837 422.63 525.121 422.686 525.347 422.63L536.759 420.704C535.286 419.77 532.483 418.213 529.963 418.213Z" fill="#E6E6E6"/>
<path d="M536.984 430.926L536.503 429.992C536.588 429.964 537.239 429.511 537.267 425.461C537.267 424.159 537.211 422.885 537.182 422.035C535.965 422.856 533.586 424.385 531.774 424.754C530.358 425.037 529.537 424.98 529.141 424.584C528.914 424.357 528.914 424.074 528.943 423.904L529.934 424.187C529.99 423.989 529.877 423.876 529.849 423.876C529.849 423.876 530.16 424.046 531.548 423.762C533.813 423.309 537.267 420.704 537.296 420.676L538.032 420.11L538.117 421.044C538.117 421.072 538.287 423.224 538.287 425.461C538.287 429.709 537.579 430.615 536.984 430.926Z" fill="#E6E6E6"/>
<path d="M598.517 408.472C598.517 408.472 596.592 419.798 596.422 421.44C596.252 423.083 577.11 421.837 577.11 421.837C577.11 421.837 576.742 411.133 575.496 408.132C575.524 408.132 590.815 410.765 598.517 408.472Z" fill="url(#paint2_radial_789_4185)"/>
<path d="M598.517 408.472C598.517 408.472 596.592 419.798 596.422 421.44C596.252 423.083 577.11 421.837 577.11 421.837C577.11 421.837 576.742 411.133 575.496 408.132C575.524 408.132 590.815 410.765 598.517 408.472Z" fill="url(#paint3_radial_789_4185)"/>
<path d="M613.155 442.309C618.507 443.017 626.209 442.423 630.173 438.373C630.853 440.271 630.57 441.488 630.57 441.488C630.57 441.488 630.938 446.783 626.322 449.19C621.707 451.597 606.614 449.898 600.215 447.35C596.704 445.934 575.523 437.439 575.523 437.439V433.333L575.722 429.256C586.906 436.306 599.819 440.554 613.155 442.309Z" fill="white"/>
<path d="M576.175 416.174L575.523 429.964V434.069C575.523 434.069 596.647 442.762 600.215 443.98C606.869 446.245 621.679 448.227 626.322 445.821C630.938 443.414 630.57 438.119 630.57 438.119C630.57 438.119 633.232 426.424 602.141 419.883L600.102 419.09L599.677 414.729C599.677 414.729 589.002 416.627 588.067 416.627C587.133 416.627 587.133 416.627 587.133 416.627L586.878 419.77C586.878 419.77 581.64 419.713 581.328 418.467C581.017 417.25 580.819 415.947 576.175 416.174Z" fill="#0162CA"/>
<path d="M599.647 414.729L600.071 419.09C600.071 419.09 601.742 421.242 618.279 427.642C618.279 427.642 618.562 432.427 612.361 431.408C600.411 429.482 587.273 424.187 586.933 422.771C586.593 421.384 587.131 416.598 587.131 416.598L599.647 414.729Z" fill="#B80813"/>
<path d="M618.505 426.424C618.392 426.736 617.797 426.82 617.202 426.566C616.608 426.339 616.211 425.886 616.353 425.546C616.466 425.235 617.061 425.15 617.656 425.405C618.25 425.66 618.618 426.113 618.505 426.424Z" fill="#121212"/>
<path d="M613.466 424.442C613.353 424.753 612.758 424.838 612.163 424.583C611.569 424.357 611.172 423.904 611.314 423.564C611.427 423.253 612.022 423.168 612.616 423.423C613.211 423.677 613.579 424.13 613.466 424.442Z" fill="#121212"/>
<path d="M608.259 422.601C608.146 422.913 607.551 422.998 606.956 422.743C606.362 422.516 605.965 422.063 606.107 421.724C606.248 421.384 606.815 421.327 607.409 421.582C608.004 421.837 608.372 422.262 608.259 422.601Z" fill="#121212"/>
<path d="M603.698 420.789C603.613 421.016 603.046 421.016 602.452 420.789C601.857 420.563 601.432 420.166 601.546 419.94C601.631 419.713 602.197 419.713 602.792 419.94C603.386 420.195 603.783 420.563 603.698 420.789Z" fill="#121212"/>
<path d="M609.842 432.569C609.757 432.908 609.191 433.05 608.568 432.908C607.945 432.767 607.492 432.37 607.577 432.031C607.662 431.691 608.228 431.549 608.851 431.691C609.474 431.832 609.927 432.229 609.842 432.569Z" fill="#121212"/>
<path d="M603.276 430.983C603.191 431.323 602.624 431.464 602.001 431.323C601.378 431.181 600.925 430.785 601.01 430.445C601.095 430.105 601.662 429.964 602.284 430.105C602.936 430.247 603.36 430.643 603.276 430.983Z" fill="#121212"/>
<path d="M597.158 429.001C597.073 429.341 596.507 429.482 595.884 429.341C595.261 429.199 594.808 428.803 594.893 428.463C594.978 428.123 595.544 427.981 596.167 428.123C596.79 428.293 597.243 428.661 597.158 429.001Z" fill="#121212"/>
<path d="M590.475 426.311C590.39 426.651 589.823 426.792 589.201 426.651C588.578 426.509 588.125 426.113 588.209 425.773C588.294 425.433 588.861 425.291 589.484 425.433C590.107 425.575 590.56 425.971 590.475 426.311Z" fill="#121212"/>
<path d="M600.103 419.09C600.301 419.317 600.499 419.515 600.725 419.685C600.952 419.883 601.179 420.025 601.405 420.223C601.886 420.563 602.368 420.874 602.849 421.186C603.331 421.497 603.84 421.78 604.35 422.063C604.86 422.347 605.369 422.63 605.879 422.913C607.974 423.904 610.098 424.81 612.222 425.688C613.298 426.113 614.345 426.566 615.421 426.99L617.035 427.613L617.432 427.783L617.489 427.812H617.517C617.545 427.812 617.545 427.84 617.574 427.84C617.602 427.868 617.63 427.896 617.658 427.925C617.772 428.038 617.828 428.208 617.8 428.35C617.8 428.378 617.772 428.463 617.772 428.519C617.772 428.576 617.743 428.661 617.715 428.718C617.687 428.831 617.63 428.973 617.602 429.086C617.545 429.199 617.489 429.312 617.432 429.426C617.375 429.539 617.319 429.652 617.234 429.765C616.951 430.19 616.554 430.53 616.101 430.756C615.195 431.238 614.062 431.266 612.986 431.125C612.448 431.068 611.882 430.926 611.316 430.813C610.749 430.7 610.183 430.587 609.645 430.473C608.512 430.218 607.408 429.964 606.304 429.68C604.067 429.114 601.858 428.491 599.678 427.812C597.497 427.132 595.317 426.396 593.193 425.575C592.089 425.235 591.013 424.838 589.965 424.442C589.427 424.244 588.889 424.017 588.38 423.762C588.125 423.649 587.87 423.508 587.615 423.366C587.502 423.281 587.36 423.224 587.275 423.139C587.162 423.054 587.049 422.941 586.992 422.828C587.021 422.969 587.134 423.083 587.219 423.196C587.332 423.309 587.417 423.394 587.559 423.479C587.785 423.649 588.04 423.819 588.266 423.989C588.748 424.3 589.257 424.584 589.767 424.867C590.787 425.405 591.834 425.914 592.91 426.367C595.062 427.189 597.243 427.925 599.451 428.633C601.66 429.312 603.869 429.935 606.106 430.502C607.238 430.785 608.342 431.04 609.475 431.294C610.041 431.408 610.608 431.521 611.174 431.634C611.74 431.748 612.307 431.861 612.901 431.946C613.185 432.002 613.496 432.002 613.807 432.031C613.949 432.059 614.119 432.031 614.261 432.031C614.402 432.031 614.572 432.031 614.714 432.002C615.337 431.946 615.96 431.776 616.526 431.493C617.092 431.209 617.602 430.756 617.97 430.218C618.055 430.077 618.14 429.935 618.225 429.822C618.281 429.68 618.366 429.539 618.423 429.397C618.48 429.256 618.536 429.114 618.565 428.944C618.593 428.859 618.621 428.803 618.621 428.718C618.65 428.633 618.65 428.576 618.678 428.463C618.734 428.038 618.593 427.613 618.281 427.33C618.196 427.245 618.111 427.189 618.027 427.132C617.97 427.104 617.942 427.075 617.885 427.047L617.8 427.019L617.743 426.99L617.347 426.821L615.733 426.198C614.657 425.773 613.609 425.32 612.533 424.895C610.41 424.017 608.314 423.111 606.247 422.12C605.199 421.695 604.123 421.242 603.104 420.761C602.594 420.506 602.056 420.279 601.575 419.996C601.32 419.855 601.065 419.741 600.839 419.572C600.556 419.458 600.301 419.288 600.103 419.09Z" fill="#121212"/>
<path d="M602.508 431.068C608.058 426.084 617.317 426.481 617.402 426.509L617.459 425.461C617.062 425.433 607.69 425.037 601.828 430.303L602.508 431.068Z" fill="#E6E6E6"/>
<path d="M609.219 432.342C609.955 426.764 612.673 424.414 612.702 424.385L612.05 423.592C611.937 423.706 608.992 426.169 608.199 432.201L609.219 432.342Z" fill="#E6E6E6"/>
<path d="M602.508 430.756C602.847 427.868 607.491 422.573 607.548 422.516L606.783 421.837C606.585 422.063 601.856 427.443 601.488 430.643L602.508 430.756Z" fill="#E6E6E6"/>
<path d="M596.278 429.199C596.392 429.142 607.293 423.536 612.305 424.272L612.447 423.253C607.095 422.431 596.25 428.038 595.797 428.265L596.278 429.199Z" fill="#E6E6E6"/>
<path d="M596.307 428.689C597.383 424.357 602.848 420.846 602.905 420.817L602.339 419.94C602.112 420.081 596.506 423.706 595.316 428.435L596.307 428.689Z" fill="#E6E6E6"/>
<path d="M589.537 426.509C593.388 424.895 604.035 421.016 606.951 422.403L607.404 421.469C603.525 419.657 590.613 424.952 589.141 425.575L589.537 426.509Z" fill="#E6E6E6"/>
<path d="M588.206 429.256C587.073 428.774 586.252 427.047 585.743 424.102C585.488 422.686 585.799 421.554 586.649 420.817C589.169 418.58 595.653 420.449 595.936 420.534L596.304 420.648V421.044C596.22 424.81 589.877 429.001 589.622 429.171C589.565 429.199 589.282 429.397 588.829 429.397C588.631 429.397 588.433 429.369 588.206 429.256ZM587.328 421.582C586.762 422.092 586.564 422.856 586.762 423.932C587.357 427.415 588.234 428.151 588.603 428.293C588.857 428.406 589.056 428.321 589.056 428.293C590.67 427.217 594.804 424.017 595.228 421.384C593.246 420.874 588.942 420.138 587.328 421.582Z" fill="#E6E6E6"/>
<path d="M608.398 423.677L594.523 421.327L595.458 420.591C595.798 420.336 603.896 414.22 608.059 418.949C609.871 420.987 610.465 422.262 610.012 423.083C609.729 423.592 609.135 423.706 608.766 423.706C608.568 423.706 608.427 423.677 608.398 423.677ZM597.157 420.704L608.568 422.63C608.795 422.658 609.078 422.63 609.106 422.573C609.106 422.573 609.389 422.007 607.294 419.628C606.388 418.609 605.199 418.212 603.953 418.212C601.433 418.212 598.629 419.77 597.157 420.704Z" fill="#E6E6E6"/>
<path d="M596.9 430.926L597.382 429.992C597.297 429.964 596.645 429.51 596.617 425.461C596.617 424.159 596.674 422.885 596.702 422.035C597.92 422.856 600.298 424.385 602.11 424.753C603.526 425.037 604.347 424.98 604.744 424.584C604.97 424.357 604.97 424.074 604.942 423.904L603.951 424.187C603.894 423.989 604.008 423.876 604.036 423.876C604.036 423.876 603.724 424.045 602.337 423.762C600.072 423.309 596.617 420.704 596.589 420.676L595.853 420.11L595.768 421.044C595.768 421.072 595.598 423.224 595.598 425.461C595.626 429.709 596.306 430.615 596.9 430.926Z" fill="#E6E6E6"/>
<path d="M609.926 281.644C609.926 281.587 609.926 281.531 609.898 281.474C609.671 279.973 608.454 278.926 607.038 279.011L569.463 281.389C568.783 281.446 567.877 281.446 566.971 281.446C566.065 281.446 565.187 281.418 564.479 281.389L526.904 279.011C525.516 278.926 524.27 280.002 524.044 281.474C524.044 281.531 524.015 281.587 524.015 281.644C524.015 281.729 523.93 282.522 523.93 282.55C523.874 283.088 526.847 320.834 529.027 355.266C529.537 363.421 536.22 369.82 544.375 369.99C544.516 369.99 544.658 369.99 544.799 369.99C555.135 370.217 563.601 361.948 563.715 351.613C563.743 349.461 563.799 347.337 563.884 345.185C563.941 343.883 564.054 342.58 564.196 341.306L566.971 318.483L569.746 341.306C569.916 342.609 570.001 343.883 570.057 345.185C570.142 347.337 570.199 349.461 570.227 351.613C570.341 361.948 578.807 370.217 589.142 369.99C589.284 369.99 589.425 369.99 589.567 369.99C597.722 369.82 604.405 363.421 604.914 355.266C607.095 320.862 610.04 283.117 610.011 282.55C610.011 282.494 609.926 281.729 609.926 281.644Z" fill="#363739"/>
<path d="M563.745 355.889C563.745 355.577 563.745 355.181 563.773 354.643C564.169 344.024 556.382 335.133 546.5 334.935C546.387 334.935 546.245 334.935 546.132 334.935C536.25 334.737 528.349 343.713 529.029 354.303C529.057 354.841 529.086 355.351 529.142 355.889C530.785 382.081 531.974 406.178 531.039 410.284C530.926 410.765 530.303 413.116 531.323 415.324C531.974 416.74 533.078 417.646 533.984 418.184L559.242 418.637C560.601 418.666 561.791 417.59 561.989 416.117C562.98 408.67 565.585 386.47 564.396 370.33C563.999 365.545 563.801 360.731 563.745 355.889Z" fill="#363739"/>
<path d="M570.257 355.889C570.257 355.577 570.257 355.181 570.229 354.643C569.832 344.024 577.619 335.133 587.502 334.935C587.615 334.935 587.756 334.935 587.87 334.935C597.752 334.737 605.652 343.713 604.973 354.303C604.944 354.841 604.916 355.351 604.859 355.889C603.217 382.081 602.028 406.178 602.962 410.284C603.075 410.765 603.698 413.116 602.679 415.324C602.028 416.74 600.923 417.646 600.017 418.184L574.759 418.637C573.4 418.666 572.211 417.59 572.013 416.117C571.022 408.67 568.416 386.47 569.606 370.33C569.974 365.545 570.2 360.731 570.257 355.889Z" fill="#363739"/>
<path d="M599.876 291.13C599.451 290.111 598.97 288.978 598.46 287.732C595.883 281.418 595.005 279.152 595.005 279.152H578.525H555.448H538.968C538.968 279.152 538.09 281.418 535.513 287.732C535.004 288.978 534.522 290.111 534.098 291.13C529.227 306.817 532.738 323.75 533.616 340.003C533.871 341.561 534.098 343.09 534.296 344.647C534.947 349.688 535.089 350.679 535.343 355.776C535.627 361.354 540.186 365.573 545.792 365.714C545.764 365.714 545.764 365.714 545.792 365.714C545.82 365.714 545.82 365.714 545.792 365.714C552.05 365.884 557.77 362.147 557.94 355.917C558.11 349.065 558.733 345.327 560.488 338.701C560.885 337.115 561.338 335.53 561.791 333.916C562.499 331.452 563.263 328.96 563.999 326.468C564.028 326.355 564.084 326.214 564.113 326.1C564.226 325.704 564.339 325.307 564.452 324.911C564.481 324.798 564.537 324.656 564.566 324.543C564.707 324.033 564.849 323.552 564.99 323.042C565.019 322.957 565.019 322.901 565.047 322.816C565.16 322.391 565.274 321.966 565.387 321.57C565.415 321.428 565.472 321.287 565.5 321.145C565.613 320.749 565.727 320.324 565.812 319.927C565.84 319.842 565.868 319.729 565.896 319.644C566.01 319.163 566.151 318.681 566.265 318.172C566.293 318.059 566.321 317.945 566.35 317.804C566.434 317.436 566.519 317.039 566.604 316.671C566.633 316.529 566.661 316.388 566.689 316.246C566.803 315.765 566.888 315.255 567.001 314.774C567.086 315.255 567.199 315.765 567.312 316.246C567.341 316.388 567.369 316.529 567.397 316.671C567.482 317.039 567.567 317.436 567.652 317.804C567.68 317.917 567.709 318.03 567.737 318.172C567.85 318.653 567.964 319.135 568.105 319.644C568.133 319.729 568.162 319.842 568.19 319.927C568.303 320.324 568.388 320.749 568.502 321.145C568.53 321.287 568.586 321.428 568.615 321.57C568.728 321.994 568.841 322.419 568.955 322.816C568.983 322.901 568.983 322.957 569.011 323.042C569.153 323.552 569.294 324.033 569.436 324.543C569.464 324.656 569.521 324.798 569.549 324.911C569.662 325.307 569.776 325.704 569.889 326.1C569.917 326.214 569.974 326.355 570.002 326.468C570.739 328.96 571.503 331.424 572.211 333.916C572.664 335.501 573.117 337.115 573.513 338.701C575.269 345.327 575.892 349.036 576.062 355.917C576.204 362.175 581.952 365.884 588.21 365.714C588.181 365.714 588.181 365.714 588.21 365.714C588.238 365.714 588.238 365.714 588.21 365.714C593.816 365.573 598.347 361.354 598.658 355.776C598.941 350.679 599.083 349.688 599.706 344.647C599.904 343.09 600.131 341.561 600.385 340.003C601.235 323.75 604.746 306.817 599.876 291.13Z" fill="#363739"/>
<path d="M559.188 385.875C558.281 375.993 557.404 365.856 557.913 355.889C557.942 355.464 557.97 355.039 557.998 354.615C558.423 348.074 553.326 342.524 546.785 342.41C546.7 342.41 546.615 342.41 546.53 342.41C539.961 342.297 534.694 347.904 535.261 354.445C535.289 354.926 535.345 355.379 535.374 355.747C536.082 366.083 536.138 376.475 536.676 386.81C536.733 387.886 536.79 388.962 536.875 390.038C537.781 405.895 538.064 418.269 538.064 418.269L558.281 418.637C559.499 409.208 559.726 399.609 559.471 390.972C559.329 389.217 559.273 387.518 559.188 385.875Z" fill="#363739"/>
<path d="M574.791 385.875C575.697 375.993 576.574 365.856 576.065 355.889C576.036 355.464 576.008 355.039 575.98 354.615C575.555 348.074 580.652 342.524 587.193 342.41C587.278 342.41 587.363 342.41 587.448 342.41C594.017 342.297 599.284 347.904 598.718 354.445C598.689 354.926 598.633 355.379 598.604 355.747C597.896 366.083 597.84 376.475 597.302 386.81C597.245 387.886 597.189 388.962 597.104 390.038C596.197 405.895 595.914 418.269 595.914 418.269L575.697 418.637C574.479 409.208 574.253 399.609 574.507 390.972C574.649 389.217 574.706 387.518 574.791 385.875Z" fill="#363739"/>
<path d="M600.982 283.881C600.982 283.881 605.003 297.728 608.939 299.568L608.684 303.108C608.684 303.108 604.352 304.212 598.547 284.193" fill="#023342"/>
<path d="M533.164 283.881C533.164 283.881 529.143 297.728 525.207 299.568L525.462 303.108C525.462 303.108 529.794 304.212 535.599 284.193" fill="#023342"/>
<path d="M558.254 310.866C558.254 310.866 566.72 321.202 573.771 310.866C573.771 310.866 567.428 317.124 558.254 310.866Z" fill="#363739"/>
<path d="M590.791 174.355C589.063 173.477 587.025 173.845 585.297 173.279C585.043 173.222 584.816 173.137 584.561 173.052C583.797 172.797 583.032 172.457 582.211 172.004C581.503 171.608 580.739 171.268 580.427 170.504C578.53 165.69 581.022 161.074 581.022 161.074L567.147 159.12H567.119H567.09L553.215 161.074C553.215 161.074 555.707 165.69 553.81 170.504C553.498 171.268 552.762 171.636 552.026 172.004C549.874 173.052 545.23 174.156 543.333 174.298C543.276 174.298 543.191 174.326 543.163 174.383C542.484 175.374 553.329 190.013 567.09 190.495C581.107 191.033 591.98 176.563 590.791 174.355Z" fill="url(#paint4_radial_789_4185)"/>
<path d="M609.308 209.013C624.117 198.055 612.309 182.198 612.309 182.198C603.106 176.591 586.173 173.165 583.342 172.627C583.851 182.028 576.263 189.985 567.003 190.013C557.744 189.985 550.155 182.028 550.665 172.627C547.833 173.137 530.9 176.591 521.698 182.198C521.698 182.198 509.918 198.027 524.699 209.013C524.699 209.013 520.82 278.133 519.546 281.672C518.64 284.221 543.558 285.155 557.659 285.495C562.699 285.608 566.352 285.637 566.89 285.665C566.89 285.665 566.89 285.665 566.918 285.665C566.947 285.665 566.947 285.665 566.947 285.665C566.947 285.665 566.947 285.665 566.975 285.665C567.003 285.665 567.003 285.665 567.003 285.665C567.541 285.665 571.194 285.608 576.234 285.495C590.336 285.184 615.282 284.221 614.348 281.672C613.187 278.105 609.308 209.013 609.308 209.013Z" fill="#121212"/>
<path d="M567.03 191.429C578.328 191.457 587.644 183.217 587.502 173.363C585.577 172.995 584.133 172.74 583.453 172.627C583.963 180.782 576.346 187.72 567.03 187.72C557.77 187.691 550.182 180.782 550.691 172.627C550.012 172.74 548.596 172.967 546.642 173.363C546.501 183.189 555.76 191.401 567.03 191.429Z" fill="#121212"/>
<path d="M567.034 191.429C578.332 191.457 587.648 183.217 587.506 173.363C585.581 172.995 584.137 172.74 583.457 172.627C583.967 180.782 576.35 187.72 567.034 187.72C557.774 187.691 550.186 180.782 550.695 172.627C550.016 172.74 548.6 172.967 546.646 173.363C546.505 183.189 555.764 191.401 567.034 191.429Z" fill="#121212"/>
<path opacity="0.15" d="M587.502 173.477C585.718 173.024 585.548 173.279 583.453 172.627C582.631 172.372 580.564 171.636 580.168 169.824C578.809 164.869 581.017 161.103 581.017 161.103L567.142 159.149H567.114H567.086L553.211 161.103C553.211 161.103 555.278 164.925 554.23 169.229C565.783 171.183 576.487 174.496 586.114 181.264C587.757 177.441 587.672 174.326 587.502 173.477Z" fill="#121212"/>
<path opacity="0.15" d="M526.455 242.681C529.089 247.976 534.638 248.939 534.638 248.939C527.22 244.097 527.078 221.189 527.078 221.189C529.117 224.332 533.619 215.951 533.619 215.951C523.086 223.936 531.892 199.103 531.892 199.103L524.728 208.957C524.728 208.957 521.84 257.207 520.311 274.735C520.282 275.188 520.226 275.641 520.197 276.066V276.094C520.141 276.717 520.084 277.283 520.027 277.821C520.027 277.85 520.027 277.85 520.027 277.878C519.999 278.218 519.971 278.558 519.942 278.841C519.942 278.869 519.942 278.869 519.942 278.897C519.942 279.039 519.914 279.152 519.914 279.294V279.322C519.886 279.464 519.886 279.605 519.858 279.719C519.858 279.747 519.858 279.747 519.858 279.775C519.858 279.888 519.829 279.973 519.829 280.087C519.829 280.115 519.829 280.143 519.829 280.143C519.801 280.37 519.773 280.568 519.744 280.738C519.744 280.766 519.744 280.766 519.744 280.795C519.744 280.851 519.716 280.936 519.716 280.993C519.716 281.021 519.716 281.021 519.716 281.049C519.716 281.134 519.688 281.191 519.688 281.248V281.276C519.688 281.333 519.659 281.361 519.659 281.418C519.659 281.446 519.659 281.446 519.659 281.446C519.659 281.503 519.631 281.531 519.631 281.559C519.461 282.182 520.027 283.145 531.297 283.003C530.051 282.041 527.616 277.793 526.682 270.941C525.351 259.189 526.455 242.681 526.455 242.681Z" fill="#121212"/>
<path opacity="0.15" d="M583.172 234.696C583.172 234.696 577.311 247.721 567.57 252.082L583.172 234.696Z" fill="#121212"/>
<path opacity="0.15" d="M543.16 263.975C543.16 263.975 551.683 273.234 559.187 273.829L543.16 263.975Z" fill="#121212"/>
<path opacity="0.15" d="M607.605 242.681C604.972 247.976 599.422 248.939 599.422 248.939C606.841 244.097 606.982 221.189 606.982 221.189C604.943 224.332 600.441 215.951 600.441 215.951C610.975 223.936 602.169 199.103 602.169 199.103L609.332 208.957C609.332 208.957 612.221 257.207 613.75 274.735C613.778 275.188 613.835 275.641 613.863 276.066V276.094C613.92 276.717 613.976 277.283 614.033 277.821C614.033 277.85 614.033 277.85 614.033 277.878C614.061 278.218 614.09 278.558 614.118 278.841C614.118 278.869 614.118 278.869 614.118 278.897C614.118 279.039 614.146 279.152 614.146 279.294V279.322C614.175 279.464 614.175 279.605 614.203 279.719C614.203 279.747 614.203 279.747 614.203 279.775C614.203 279.888 614.231 279.973 614.231 280.087C614.231 280.115 614.231 280.143 614.231 280.143C614.26 280.37 614.288 280.568 614.316 280.738C614.316 280.766 614.316 280.766 614.316 280.795C614.316 280.851 614.344 280.936 614.344 280.993C614.344 281.021 614.344 281.021 614.344 281.049C614.344 281.134 614.373 281.191 614.373 281.248V281.276C614.373 281.333 614.401 281.361 614.401 281.418C614.401 281.446 614.401 281.446 614.401 281.446C614.401 281.503 614.429 281.531 614.429 281.559C614.599 282.182 614.033 283.145 602.763 283.003C604.009 282.041 606.444 277.793 607.379 270.941C608.71 259.189 607.605 242.681 607.605 242.681Z" fill="#121212"/>
<path d="M610.383 197.46C604.239 201.028 603.531 210.712 608.854 219.066C609.958 220.793 611.204 222.322 612.564 223.624C615.933 226.853 618.935 230.364 621.54 234.101C624.145 237.811 629.78 238.745 634.565 236.282C634.622 236.253 634.707 236.225 634.763 236.197C640.087 233.45 642.324 227.56 639.662 223.285C637.142 219.236 635.018 214.988 633.348 210.542C632.781 209.07 632.045 207.598 631.139 206.153C625.844 197.772 616.528 193.893 610.383 197.46Z" fill="url(#paint5_radial_789_4185)"/>
<path d="M643.342 211.392C640.284 213.006 638.188 213.572 632.44 217.621C629.75 219.519 626.947 221.246 624.059 222.775C620.491 224.672 619.245 229.628 621.199 233.988C621.227 234.073 621.255 234.13 621.284 234.215C624.087 240.501 630.77 243.332 635.753 240.359C639.519 238.122 643.484 236.225 647.589 234.696C650.251 233.705 651.639 232.799 652.516 232.402C656.764 230.42 663.39 226.569 674.037 218.329C674.235 217.763 674.461 216.97 674.546 216.007C674.603 215.583 674.744 213.94 674.206 211.76C673.81 210.118 673.357 208.249 671.715 206.89C670.837 206.153 669.902 205.814 669.279 205.644C655.206 206.125 647.306 209.297 643.342 211.392Z" fill="url(#paint6_radial_789_4185)"/>
<path d="M588.863 179.253C592.346 178.432 597.67 177.639 604.041 178.489C605.003 178.63 607.014 178.885 608.911 179.48C615.48 181.547 620.379 188.286 624.287 193.751C629.214 200.632 636.434 208.702 639.634 216.319C636.859 219.292 633.829 222.322 630.261 224.163C625.278 226.711 620.294 226.343 615.141 227.73C612.111 223.285 610.327 221.727 607.071 216.715C603.899 211.845 600.841 205.87 597.783 199.216C594.272 191.542 591.27 184.775 588.863 179.253Z" fill="#363739"/>
<path opacity="0.15" d="M597.953 199.952C599.256 206.238 603.815 212.1 607.099 216.772C610.242 221.274 612.196 223.596 615.141 227.674C615.651 227.419 616.302 227.419 616.868 227.221C610.724 217.197 602.37 208.39 597.5 197.63C597.557 198.197 597.868 199.471 597.953 199.952Z" fill="#121212"/>
<path d="M694.596 207.201C694.596 207.201 701.335 209.976 707.565 204.426C707.565 204.426 710.963 204.115 709.406 206.125C707.848 208.136 706.319 211.703 701.817 212.043C697.315 212.383 691.68 210.882 691.68 210.882L694.596 207.201Z" fill="url(#paint7_linear_789_4185)"/>
<path d="M707.565 204.398C707.565 204.398 708.811 204.285 709.434 204.624C709.406 204.851 709.292 205.106 709.038 205.474C707.48 207.513 705.951 211.052 701.449 211.392C697.909 211.675 693.69 210.797 692.02 210.401L694.596 207.173C694.596 207.201 701.336 209.976 707.565 204.398Z" fill="url(#paint8_linear_789_4185)"/>
<path d="M693.746 210.684C693.746 210.684 702.863 213.884 713.142 206.493C713.142 206.493 717.673 206.578 715.209 209.41C712.746 212.241 701.448 219.037 692.302 214.96C692.302 214.988 689.612 212.949 693.746 210.684Z" fill="url(#paint9_linear_789_4185)"/>
<path d="M713.144 206.493C713.144 206.493 714.447 206.522 715.268 206.975C715.495 207.399 715.41 208.022 714.645 208.9C712.182 211.732 700.969 218.471 691.851 214.507C691.313 213.77 690.803 212.298 693.748 210.684C693.748 210.684 702.866 213.884 713.144 206.493Z" fill="url(#paint10_linear_789_4185)"/>
<path d="M692.869 213.487C692.869 213.487 699.382 214.365 702.921 212.666C706.461 210.967 707.905 207.286 707.905 207.286C707.905 207.286 712.974 206.267 710.878 210.061C708.811 213.855 704.167 217.282 704.167 217.282C704.167 217.282 693.464 221.642 690.462 218.358C687.489 215.101 692.869 213.487 692.869 213.487Z" fill="url(#paint11_linear_789_4185)"/>
<path d="M702.922 212.666C706.462 210.996 707.906 207.286 707.906 207.286C707.906 207.286 710.114 206.833 711.02 207.626C711.105 208.051 710.992 208.645 710.539 209.41C708.472 213.204 703.828 216.63 703.828 216.63C703.828 216.63 693.125 220.991 690.123 217.706C689.982 217.537 689.84 217.395 689.755 217.225C688.707 214.677 692.87 213.431 692.87 213.431C692.87 213.431 699.383 214.337 702.922 212.666Z" fill="url(#paint12_linear_789_4185)"/>
<path d="M693.18 214.507C693.18 214.507 699.749 209.042 700.372 207.484C700.966 205.927 704.789 206.21 703.317 208.532C701.844 210.854 699.834 214.309 698.843 215.073C697.88 215.866 689.81 221.756 687.12 219.349C684.402 216.914 693.18 214.507 693.18 214.507Z" fill="url(#paint13_linear_789_4185)"/>
<path d="M700.345 207.484C700.742 206.437 702.611 206.238 703.318 206.89C703.347 207.173 703.233 207.513 702.979 207.909C701.506 210.231 699.496 213.686 698.505 214.45C697.542 215.243 690.123 221.161 687.433 218.726C687.292 218.613 688.537 218.556 688.453 218.443C688.028 216.376 693.125 214.478 693.125 214.478C693.125 214.478 699.751 209.042 700.345 207.484Z" fill="url(#paint14_linear_789_4185)"/>
<path d="M694.596 207.201C694.596 207.201 692.217 219.49 688.225 219.887C684.232 220.311 674.208 217.706 673.302 218.556C672.396 219.405 669.536 220.566 669.536 220.566C669.536 220.566 667.384 207.06 667.979 206.691C668.545 206.323 671.518 205.785 674.123 203.662C676.757 201.566 681.033 199.896 686.016 204.285L694.596 207.201Z" fill="url(#paint15_linear_789_4185)"/>
<path d="M685.252 205.927L688.933 201.963C688.933 201.963 694.115 201.283 696.182 198.083C698.249 194.855 695.984 193.779 693.464 195.139C690.944 196.498 684.658 198.14 683.044 198.253C681.43 198.367 678.655 199.952 676.135 202.416C673.614 204.908 685.252 205.927 685.252 205.927Z" fill="url(#paint16_linear_789_4185)"/>
<path d="M688.563 201.736C691.678 200.462 696.35 198.452 696.35 194.77C697.143 195.195 697.313 196.328 696.18 198.083C694.113 201.311 688.931 201.963 688.931 201.963L686.156 204.964C686.298 203.463 687.487 202.246 688.563 201.736Z" fill="url(#paint17_linear_789_4185)"/>
<path d="M523.935 197.46C530.08 201.028 530.788 210.712 525.464 219.066C524.36 220.793 523.114 222.322 521.755 223.624C518.385 226.852 515.384 230.364 512.75 234.101C510.145 237.811 504.51 238.745 499.725 236.282C499.668 236.253 499.583 236.225 499.527 236.197C494.203 233.45 491.966 227.56 494.628 223.285C497.148 219.235 499.272 214.988 500.942 210.542C501.509 209.07 502.245 207.598 503.151 206.153C508.475 197.772 517.762 193.893 523.935 197.46Z" fill="url(#paint18_radial_789_4185)"/>
<path d="M490.975 211.392C494.033 213.006 496.129 213.572 501.877 217.621C504.567 219.519 507.37 221.246 510.258 222.775C513.826 224.672 515.072 229.627 513.118 233.988C513.09 234.073 513.062 234.13 513.033 234.215C510.23 240.501 503.547 243.332 498.564 240.359C494.798 238.122 490.833 236.225 486.728 234.696C484.066 233.705 482.678 232.799 481.801 232.402C477.553 230.42 470.927 226.569 460.28 218.329C460.082 217.763 459.856 216.97 459.771 216.007C459.714 215.583 459.573 213.94 460.111 211.76C460.507 210.118 460.96 208.249 462.602 206.89C463.48 206.153 464.415 205.814 465.038 205.644C479.082 206.125 486.982 209.297 490.975 211.392Z" fill="url(#paint19_radial_789_4185)"/>
<path d="M545.454 179.253C541.971 178.432 536.648 177.639 530.277 178.489C529.314 178.63 527.304 178.885 525.407 179.48C518.837 181.547 513.939 188.286 510.031 193.751C505.104 200.632 497.883 208.702 494.684 216.319C497.459 219.292 500.488 222.322 504.056 224.162C509.04 226.711 514.023 226.343 519.177 227.73C522.207 223.285 523.991 221.727 527.247 216.715C530.418 211.845 533.477 205.87 536.535 199.216C540.018 191.542 543.019 184.775 545.454 179.253Z" fill="#6F6E77"/>
<path opacity="0.15" d="M536.337 199.952C535.034 206.238 530.476 212.1 527.191 216.772C524.048 221.274 522.094 223.596 519.149 227.674C518.639 227.419 517.988 227.419 517.422 227.221C523.566 217.197 531.92 208.39 536.79 197.63C536.733 198.197 536.45 199.471 536.337 199.952Z" fill="#121212"/>
<path d="M439.726 207.201C439.726 207.201 432.986 209.976 426.757 204.426C426.757 204.426 423.359 204.115 424.916 206.125C426.474 208.136 428.003 211.703 432.505 212.043C437.007 212.383 442.642 210.882 442.642 210.882L439.726 207.201Z" fill="url(#paint20_linear_789_4185)"/>
<path d="M426.756 204.398C426.756 204.398 425.51 204.285 424.887 204.624C424.915 204.851 425.028 205.106 425.283 205.474C426.84 207.513 428.37 211.052 432.872 211.392C436.411 211.675 440.63 210.797 442.301 210.401L439.724 207.173C439.724 207.201 432.985 209.976 426.756 204.398Z" fill="url(#paint21_linear_789_4185)"/>
<path d="M440.572 210.684C440.572 210.684 431.454 213.884 421.176 206.493C421.176 206.493 416.645 206.578 419.109 209.41C421.572 212.241 432.87 219.037 442.016 214.96C442.016 214.988 444.706 212.949 440.572 210.684Z" fill="url(#paint22_linear_789_4185)"/>
<path d="M421.175 206.493C421.175 206.493 419.872 206.522 419.051 206.975C418.825 207.399 418.91 208.022 419.674 208.9C422.138 211.732 433.351 218.471 442.469 214.507C443.007 213.77 443.516 212.298 440.572 210.684C440.572 210.684 431.454 213.884 421.175 206.493Z" fill="url(#paint23_linear_789_4185)"/>
<path d="M441.45 213.487C441.45 213.487 434.938 214.365 431.398 212.666C427.859 210.995 426.414 207.286 426.414 207.286C426.414 207.286 421.346 206.267 423.441 210.061C425.508 213.855 430.152 217.282 430.152 217.282C430.152 217.282 440.856 221.642 443.857 218.358C446.83 215.101 441.45 213.487 441.45 213.487Z" fill="url(#paint24_linear_789_4185)"/>
<path d="M431.398 212.666C427.858 210.995 426.414 207.286 426.414 207.286C426.414 207.286 424.206 206.833 423.299 207.626C423.215 208.051 423.328 208.645 423.781 209.41C425.848 213.204 430.492 216.63 430.492 216.63C430.492 216.63 441.195 220.991 444.197 217.706C444.338 217.537 444.48 217.395 444.565 217.225C445.613 214.677 441.45 213.431 441.45 213.431C441.45 213.431 434.937 214.337 431.398 212.666Z" fill="url(#paint25_linear_789_4185)"/>
<path d="M441.136 214.507C441.136 214.507 434.567 209.042 433.944 207.484C433.349 205.927 429.527 206.21 430.999 208.532C432.472 210.854 434.482 214.308 435.473 215.073C436.436 215.866 444.506 221.756 447.196 219.349C449.886 216.914 441.136 214.507 441.136 214.507Z" fill="url(#paint26_linear_789_4185)"/>
<path d="M433.946 207.484C433.55 206.437 431.681 206.238 430.973 206.89C430.945 207.173 431.058 207.513 431.313 207.909C432.785 210.231 434.796 213.686 435.787 214.45C436.749 215.243 444.168 221.161 446.858 218.726C447 218.613 445.754 218.556 445.839 218.443C446.264 216.376 441.167 214.478 441.167 214.478C441.167 214.478 434.541 209.042 433.946 207.484Z" fill="url(#paint27_linear_789_4185)"/>
<path d="M439.723 207.201C439.723 207.201 442.101 219.49 446.094 219.887C450.086 220.311 460.11 217.706 461.016 218.556C461.922 219.405 464.782 220.566 464.782 220.566C464.782 220.566 466.934 207.06 466.34 206.691C465.773 206.323 462.8 205.785 460.195 203.662C457.562 201.566 453.286 199.896 448.302 204.285L439.723 207.201Z" fill="url(#paint28_linear_789_4185)"/>
<path d="M449.065 205.927L445.384 201.963C445.384 201.963 440.202 201.283 438.135 198.083C436.068 194.884 438.334 193.779 440.854 195.139C443.374 196.498 449.66 198.14 451.274 198.253C452.888 198.367 455.663 199.952 458.183 202.416C460.703 204.879 449.065 205.927 449.065 205.927Z" fill="url(#paint29_linear_789_4185)"/>
<path d="M445.756 201.736C442.641 200.462 437.969 198.451 437.969 194.77C437.176 195.195 437.006 196.328 438.139 198.083C440.206 201.311 445.388 201.963 445.388 201.963L448.163 204.964C447.993 203.463 446.804 202.246 445.756 201.736Z" fill="url(#paint30_linear_789_4185)"/>
<path d="M610.405 110.643C611.283 109.766 612.614 108.548 614.37 107.33C617.937 104.867 621.675 102.234 624.478 103.678C627.14 105.065 627.876 109.624 627.536 112.654C627.027 117.184 623.884 119.988 621.76 121.404C620.486 122.253 619.466 123.386 618.674 124.745C617.088 127.435 614.115 131.003 611.17 126.444L610.094 125.424L610.405 110.643Z" fill="url(#paint31_linear_789_4185)"/>
<path d="M614.906 111.436L618.219 108.859C620.796 106.877 624.534 109.256 623.684 112.399C623.656 112.484 623.656 112.541 623.627 112.626L623.174 114.07C622.835 115.146 622.098 116.023 621.136 116.59C620.541 116.93 619.89 117.524 619.408 118.515C618.276 120.781 618.021 122.536 616.633 122.763C615.784 122.904 615.161 121.573 614.821 120.582C614.623 119.959 614.793 119.28 615.274 118.855C615.926 118.289 616.718 117.468 616.605 116.958V116.93C616.464 116.25 616.039 115.655 615.416 115.344C615.104 115.174 614.736 114.976 614.538 114.806C614.255 114.579 614.227 113.532 614.227 112.739C614.255 112.229 614.51 111.748 614.906 111.436Z" fill="url(#paint32_linear_789_4185)"/>
<path d="M512.008 122.196C510.961 121.545 509.375 120.667 507.393 119.903C503.372 118.317 499.096 116.646 496.718 118.713C494.452 120.667 494.792 125.283 495.811 128.171C497.369 132.475 501.078 134.485 503.457 135.363C504.873 135.873 506.147 136.779 507.251 137.883C509.403 140.12 513.141 142.895 514.953 137.798L515.774 136.553L512.008 122.196Z" fill="url(#paint33_linear_789_4185)"/>
<path d="M507.817 124.009L503.994 122.281C501.021 120.95 497.935 124.122 499.492 126.982C499.52 127.038 499.577 127.123 499.605 127.18L500.398 128.454C500.993 129.417 501.899 130.097 502.975 130.436C503.626 130.635 504.391 131.059 505.098 131.909C506.712 133.863 507.392 135.505 508.78 135.42C509.657 135.363 509.94 133.948 510.025 132.871C510.082 132.22 509.742 131.597 509.176 131.314C508.411 130.918 507.449 130.295 507.449 129.785V129.757C507.42 129.077 507.704 128.398 508.242 127.916C508.525 127.661 508.808 127.378 508.949 127.208C509.176 126.925 508.949 125.877 508.78 125.141C508.638 124.632 508.27 124.207 507.817 124.009Z" fill="url(#paint34_linear_789_4185)"/>
<path d="M613.579 50.2735C605.084 30.2258 586.084 25.1855 571.105 24.421C561.93 23.9113 554.285 25.0156 551.453 25.3271C551.425 25.3271 551.425 25.3271 551.397 25.3271C551.085 25.3554 550.774 25.3837 550.462 25.4403C550.151 25.4687 549.839 25.5253 549.528 25.5536C549.499 25.5536 549.499 25.5536 549.471 25.5536C546.64 25.8934 538.938 26.6013 530.131 29.2064C515.747 33.4255 498.417 42.7132 494.793 64.205C492.471 77.9383 493.773 89.6045 496.379 98.8356C497.256 101.922 498.247 104.725 499.323 107.274C500.569 110.417 501.957 113.362 504.165 116.052C510.452 123.952 513.255 132.985 518.04 141.395C524.553 152.721 534.633 163.651 546.894 168.465C549.952 169.654 553.152 170.475 556.465 170.843C560.316 171.41 563.997 171.381 567.508 170.9C571.048 170.56 574.616 169.739 578.24 168.295C581.383 167.191 584.3 165.661 587.018 163.764C597.835 156.261 605.112 143.292 608.822 130.748C611.54 121.432 612.163 112.031 616.439 102.885C617.968 99.77 618.647 96.5703 619.129 93.229C619.582 90.5107 619.921 87.5375 620.035 84.3378C620.431 74.7386 619.015 63.1007 613.579 50.2735Z" fill="url(#paint35_radial_789_4185)"/>
<path d="M605.111 102.602C604.46 97.1083 603.837 92.4078 603.837 92.4078L602.166 80.0054C601.543 75.4182 600.383 70.9159 598.684 66.6402L598.089 65.1395C595.739 59.1931 592.624 53.6715 588.801 48.7728C588.716 48.6878 588.66 48.5746 588.575 48.4896C586.989 46.5924 584.752 45.4032 582.317 45.0917L577.05 44.3555C576.399 44.2139 575.719 44.1573 575.04 44.1856L559.126 44.3555C558.758 44.3838 558.39 44.4121 558.05 44.4687L552.812 45.3749L547.516 45.7146C547.148 45.743 546.78 45.7713 546.44 45.8562L530.923 49.3957C530.272 49.5373 529.621 49.7355 528.998 50.0187L524.042 51.9442C521.749 52.822 519.823 54.5209 518.747 56.7013C518.691 56.8145 518.634 56.8995 518.606 57.0127C518.039 58.2587 517.501 59.5612 517.02 60.8637C516.624 61.2602 516.256 61.6849 515.887 62.138L514.245 65.819C512.574 69.5851 511.385 73.5777 510.677 77.7118L510.507 78.6462C510.168 80.685 509.941 82.7521 509.856 84.8191C509.601 90.2275 510.168 95.6925 511.583 100.931L512.971 106.113C513.792 111.946 515.066 117.779 516.907 123.414C521.098 140.602 532.311 157.676 547.828 165.095C550.716 166.483 553.746 167.502 556.917 168.153C560.344 169.059 563.883 169.258 567.366 168.805C570.849 168.408 574.275 167.417 577.39 165.746C580.335 164.387 583.025 162.66 585.517 160.65C601.515 147.709 608.283 122.649 605.111 102.602Z" fill="url(#paint36_radial_789_4185)"/>
<path d="M613.583 50.2735C599.821 17.8233 558.565 24.7041 551.401 25.3554C550.834 25.412 550.268 25.497 549.702 25.5536C542.934 26.4031 500.828 29.4612 494.967 64.205C490.323 91.6999 500.205 110.785 505.897 119.11C508.049 122.253 509.776 125.679 511.022 129.304L510.087 120.384L507.539 108.973L505.982 103.536C504.481 98.2976 503.914 92.8609 504.283 87.4242C504.424 85.3571 504.707 83.2901 505.104 81.2513L505.302 80.2886C506.151 76.1261 507.539 72.1052 509.464 68.3109L511.333 64.6015C517.704 57.9472 525.831 54.5493 534.269 51.8876L543.33 49.0276C543.812 48.886 544.293 48.7728 544.803 48.6878L558.961 46.3376C559.357 46.281 559.782 46.2243 560.179 46.196L578.046 45.7996C578.81 45.7713 579.547 45.7996 580.283 45.9412L587.192 46.7057C589.599 47.1021 591.808 48.348 593.393 50.1886C597.612 55.059 601.039 60.5239 603.587 66.442L604.21 67.9144C606.051 72.1902 607.296 76.6641 607.919 81.2513L609.618 93.6537L612.223 119.11L612.875 118.742C613.158 114.438 614.064 110.219 615.621 106.198C619.274 96.7968 624.456 75.9279 613.583 50.2735Z" fill="#0162CA"/>
<path d="M508.926 87.9056C508.926 87.9056 516.742 74.9651 511.135 71.7654C511.135 71.7654 527.842 72.2751 527.813 62.591C527.813 62.591 547.436 74.4554 555.676 56.9278C555.676 56.9278 561.962 65.1678 575.497 54.6059C575.497 54.6059 581.869 63.0441 591.751 56.8995L598.405 60.9204L605.399 41.4389L574.535 32.1796L530.192 45.6297L500.375 64.9129L508.926 87.9056Z" fill="url(#paint37_radial_789_4185)"/>
<path d="M506.914 100.903C506.914 100.903 510.963 93.6821 504.564 91.1902C504.564 91.1902 516.91 78.5896 503.686 68.8772C503.686 68.8772 522.573 74.9935 526.282 58.7684C526.282 58.7684 546.5 74.7669 554.995 50.6133C554.995 50.6133 563.291 66.4137 576.6 49.2825C576.6 49.2825 582.15 60.977 591.522 56.1066C591.522 56.1066 600.329 60.3257 603.217 56.4464C603.217 56.4464 597.978 63.9785 603.528 69.1887C603.528 69.1887 601.801 82.7237 607.946 83.0635C607.946 83.0635 605.284 86.4331 608.88 87.226C612.448 87.9905 618.309 86.7729 617.545 81.9592C617.545 81.9592 627.116 72.3034 618.706 68.3109C618.706 68.3109 627.682 50.8682 615.846 47.0738C615.846 47.0738 622.16 10.2346 590.078 16.2659C590.078 16.2659 572.89 -18.3646 545.99 13.4343C545.99 13.4343 527.953 -11.6537 520.109 19.9753C520.109 19.9753 498.589 14.3688 501.619 33.5387C501.619 33.5387 484.233 40.7876 493.832 50.2169C493.832 50.2169 482.902 66.7535 493.039 76.6075C493.039 76.6075 491.906 92.4361 497.711 96.004C497.711 96.004 496.522 101.78 502.214 103.196C507.877 104.669 506.914 100.903 506.914 100.903Z" fill="#0162CA"/>
<path d="M618.253 67.9428C625.898 51.0381 617.148 47.9516 615.308 47.4986L614.515 46.3942C614.515 46.3942 621.566 11.5088 590.163 17.4269L588.889 16.181C568.785 -16.4108 546.811 13.6326 546.811 13.6326L545.112 14.3405C527.273 -9.10525 521.78 16.4925 521.129 20.032L519.571 20.5417C497.768 16.3792 502.214 33.7653 502.214 33.7653C484.912 42.3167 494.54 50.1036 494.54 50.1036L493.294 52.0291L493.152 54.4926C493.011 52.9069 493.294 52.0291 493.294 52.0291C493.294 52.0291 484.12 67.4897 493.775 75.9562C493.775 75.9562 492.19 86.2633 495.871 92.153C495.871 92.153 496.805 105.773 508.726 122.14C508.726 122.14 504.139 103.961 504.167 103.168C504.196 102.375 505.923 101.441 505.187 100.365C504.451 99.2887 508.67 97.7029 503.261 91.7566C503.261 91.7566 513.285 78.7312 502.214 68.9621C500.175 67.1499 498.561 65.451 497.343 63.8369L495.219 59.7311L497.372 61.9398C498.787 63.667 500.854 65.2244 503.856 66.2438C515.579 70.2647 523.819 54.1812 523.819 54.1812C523.507 53.6431 523.224 53.0485 522.969 52.4256L523.819 54.1812L523.337 49.9904L525.688 53.7564C541.771 65.6492 553.041 46.7623 553.041 46.7623L554.117 42.7698L555.561 46.0544C561.734 55.2289 569.776 51.3779 576.657 45.4598C577.336 44.8652 577.987 44.129 578.639 43.2512L577.591 46.0544C577.591 46.0544 586.142 57.2959 591.324 53.0768C591.579 52.8786 591.862 52.6804 592.174 52.4822C593.59 51.8026 595.543 52.4256 595.543 52.4256C593.731 53.1051 592.598 53.5865 592.598 53.5865C595.628 55.5403 602.311 55.7385 602.311 55.7385L604.803 60.4956C603.925 63.7237 606.105 68.8772 606.105 68.8772C604.633 79.0427 610.268 81.9026 610.268 81.9026C607.663 85.4704 611.938 86.7729 611.938 86.7729C613.439 88.8683 613.043 113.617 613.043 113.617L613.666 110.7C619.923 97.2782 619.499 78.4197 619.499 78.4197C624.964 72.9547 618.253 67.9428 618.253 67.9428Z" fill="url(#paint38_radial_789_4185)"/>
<path d="M493.776 76.0978C493.606 77.2587 492.446 86.6597 495.9 92.1813C495.9 92.1813 495.9 92.3512 495.957 92.691C498.165 90.5673 501.79 90.5956 503.885 92.4928C503.687 92.2662 503.489 92.0397 503.262 91.7849C503.262 91.7849 511.361 81.2513 504.933 72.0486C500.714 71.6238 497.004 73.7475 493.776 76.0978Z" fill="#0162CA"/>
<path d="M497.37 63.8936L495.246 59.7877L495.869 60.4107C494.793 58.8533 492.5 58.3719 491.027 57.2393C489.158 62.5061 487.743 70.6328 493.831 75.9845C493.831 75.9845 493.831 76.0128 493.802 76.0978C497.002 73.7476 500.74 71.5955 504.987 72.0203C504.279 71.0009 503.373 69.9815 502.24 68.9905C500.202 67.2065 498.588 65.4793 497.37 63.8936Z" fill="#0162CA"/>
<path d="M544.656 13.7741C527.185 -8.62387 521.777 16.5491 521.126 20.0603L520.078 20.4001C525.373 28.4419 522.372 39.4851 522.23 48.6312C522.712 49.509 523.108 50.3868 523.476 51.3212L523.334 50.0187L525.685 53.7847C541.768 65.6775 553.038 46.7907 553.038 46.7907L554.114 42.7981L554.256 43.0813C553.378 40.0514 552.755 36.88 552.019 33.737C550.235 26.8845 548.054 20.032 544.656 13.7741Z" fill="url(#paint39_radial_789_4185)"/>
<path d="M544.66 13.7741C527.189 -8.62387 521.781 16.5491 521.13 20.0603L520.082 20.4001C525.377 28.4419 522.376 39.4851 522.234 48.6312C522.715 49.509 523.112 50.3868 523.48 51.3212L523.338 50.0187L525.689 53.7847C541.772 65.6775 553.042 46.7907 553.042 46.7907L554.118 42.7981L554.26 43.0813C553.382 40.0514 552.759 36.88 552.023 33.737C550.239 26.8845 548.058 20.032 544.66 13.7741Z" fill="#0162CA"/>
<path d="M585.318 31.8681C587.583 27.2809 587.583 22.9485 590.104 18.5879C590.273 18.1914 590.387 17.795 590.472 17.3986C590.358 17.4269 590.273 17.4269 590.16 17.4552L588.886 16.2093C568.782 -16.3825 546.808 13.6609 546.808 13.6609L545.109 14.3688C544.968 14.1706 544.798 13.9723 544.656 13.7741C548.026 20.0603 550.235 26.8845 551.962 33.7653C552.726 36.9084 553.321 40.0798 554.199 43.1096L555.53 46.1111C561.702 55.2855 569.744 51.4345 576.625 45.5164C577.305 44.9218 577.956 44.1856 578.607 43.3078L577.56 46.1111C577.56 46.1111 577.673 46.2527 577.871 46.5075C580.419 42.4866 582.232 38.3525 583.987 33.7936C584.214 33.2839 584.893 32.6893 585.318 31.8681Z" fill="#0162CA"/>
<path d="M590.471 17.3986C590.386 17.795 590.273 18.1914 590.103 18.5879C587.554 22.9485 587.554 27.2809 585.317 31.8681C584.892 32.6893 584.213 33.2556 584.015 33.7936C582.259 38.3525 580.447 42.4866 577.898 46.5075C579.484 48.4896 586.705 56.8429 591.32 53.1335C591.575 52.9352 591.858 52.737 592.17 52.5388C593.586 51.8592 595.539 52.4822 595.539 52.4822C593.727 53.1618 592.595 53.6431 592.595 53.6431C595.624 55.597 602.307 55.7952 602.307 55.7952C607.206 53.5865 611.028 49.6223 614.681 45.5731C615.502 40.278 618.589 12.3017 590.471 17.3986Z" fill="#0162CA"/>
<path d="M619.469 78.4763C623.915 74.0307 620.347 69.8966 618.846 68.4808C614.684 69.9532 610.011 70.8593 606.047 69.3019C604.773 79.1559 610.266 81.9592 610.266 81.9592C610.266 81.9875 610.238 81.9875 610.238 82.0158C613.466 81.3929 616.552 80.4868 619.497 79.1842C619.497 78.7312 619.469 78.4763 619.469 78.4763Z" fill="#0162CA"/>
<path d="M610.236 82.0158C607.716 85.5553 611.935 86.8296 611.935 86.8296C613.436 88.925 613.04 113.673 613.04 113.673L613.663 110.757C619.184 98.8639 619.496 82.6954 619.496 79.1842C616.551 80.4868 613.436 81.3929 610.236 82.0158Z" fill="url(#paint40_radial_789_4185)"/>
<path d="M610.24 82.0158C607.72 85.5553 611.939 86.8296 611.939 86.8296C613.44 88.925 613.044 113.673 613.044 113.673L613.666 110.757C619.188 98.8639 619.5 82.6954 619.5 79.1842C616.555 80.4868 613.44 81.3929 610.24 82.0158Z" fill="#0162CA"/>
<path d="M604.716 60.8071C608.822 63.9785 613.126 67.9428 618.365 68.056C618.28 67.9994 618.251 67.9428 618.251 67.9428C625.897 51.0381 617.147 47.9516 615.307 47.4986L614.514 46.3942C614.514 46.3942 614.57 46.0828 614.655 45.5448C611.031 49.6223 607.18 53.5582 602.281 55.7669L604.773 60.524C604.773 60.6372 604.745 60.7222 604.716 60.8071Z" fill="#0162CA"/>
<path d="M520.108 20.3718L519.598 20.5417C497.795 16.3792 502.24 33.7653 502.24 33.7653C502.099 33.8219 501.957 33.9068 501.844 33.9635C509.97 36.1721 518.267 41.1841 522.26 48.6029C522.373 39.4851 525.403 28.4135 520.108 20.3718Z" fill="#0162CA"/>
<path d="M522.233 48.9427C522.233 48.8294 522.233 48.7162 522.233 48.6029C518.212 41.2124 509.915 36.1721 501.817 33.9635C485.082 42.43 494.568 50.1036 494.568 50.1036L493.322 52.0291L493.18 54.4926C493.039 52.9069 493.322 52.0291 493.322 52.0291C493.322 52.0291 492.076 54.1245 491 57.211C492.472 58.3436 494.794 58.825 495.842 60.3824L497.371 61.9398C498.787 63.667 500.854 65.2244 503.855 66.2438C515.578 70.2647 523.818 54.1812 523.818 54.1812C523.507 53.6431 523.224 53.0485 522.969 52.4256L523.818 54.1812L523.479 51.2929C523.139 50.3585 522.714 49.4524 522.233 48.6029C522.261 48.7162 522.233 48.8294 522.233 48.9427Z" fill="#0162CA"/>
<path d="M495.953 92.691C496.265 95.2961 498.19 107.642 508.752 122.196C508.752 122.196 504.165 104.017 504.193 103.225C504.221 102.432 505.949 101.497 505.212 100.421C504.59 99.4868 507.534 98.2409 505.128 94.2201C504.816 93.7104 504.42 93.144 503.91 92.5211C501.786 90.5956 498.162 90.5673 495.953 92.691Z" fill="#0162CA"/>
<path d="M600.246 110.672C599.708 101.837 592.488 95.0129 584.219 95.5226C576.036 96.0323 570.005 103.564 570.713 112.229C570.713 112.342 570.741 112.512 570.798 112.909C571.137 116.59 571.222 117.864 571.449 119.11C571.534 119.563 571.562 119.591 571.619 120.073C571.647 120.299 571.647 120.412 571.675 120.526C571.675 120.554 571.675 120.554 571.675 120.582C571.704 120.781 571.732 120.922 571.732 120.922C571.732 120.922 571.845 120.95 571.902 120.95C572.27 120.95 572.95 120.979 573.318 120.95C573.403 120.95 573.488 120.95 573.573 120.95C574.507 120.922 574.535 120.922 576.178 120.922C576.263 120.922 576.348 120.922 576.461 120.922C582.832 121.12 597.33 121.602 599.878 115.457C600.586 113.645 600.331 112.059 600.246 110.672Z" fill="white"/>
<mask id="mask0_789_4185" style="mask-type:luminance" maskUnits="userSpaceOnUse" x="570" y="95" width="31" height="27">
<path d="M600.246 110.672C599.708 101.837 592.488 95.0129 584.219 95.5226C576.036 96.0323 570.005 103.564 570.713 112.229C570.713 112.342 570.741 112.512 570.798 112.909C571.137 116.59 571.222 117.864 571.449 119.11C571.534 119.563 571.562 119.591 571.619 120.073C571.647 120.299 571.647 120.412 571.675 120.526C571.675 120.554 571.675 120.554 571.675 120.582C571.704 120.781 571.732 120.922 571.732 120.922C571.732 120.922 571.845 120.95 571.902 120.95C572.27 120.95 572.95 120.979 573.318 120.95C573.403 120.95 573.488 120.95 573.573 120.95C574.507 120.922 574.535 120.922 576.178 120.922C576.263 120.922 576.348 120.922 576.461 120.922C582.832 121.12 597.33 121.602 599.878 115.457C600.586 113.645 600.331 112.059 600.246 110.672Z" fill="white"/>
</mask>
<g mask="url(#mask0_789_4185)">
<path d="M583.571 120.242C589.545 120.242 594.387 115.4 594.387 109.426C594.387 103.452 589.545 98.609 583.571 98.609C577.597 98.609 572.754 103.452 572.754 109.426C572.754 115.4 577.597 120.242 583.571 120.242Z" fill="#121212"/>
</g>
<mask id="mask1_789_4185" style="mask-type:luminance" maskUnits="userSpaceOnUse" x="570" y="95" width="31" height="27">
<path d="M600.246 110.672C599.708 101.837 592.488 95.0129 584.219 95.5226C576.036 96.0323 570.005 103.564 570.713 112.229C570.713 112.342 570.741 112.512 570.798 112.909C571.137 116.59 571.222 117.864 571.449 119.11C571.534 119.563 571.562 119.591 571.619 120.073C571.647 120.299 571.647 120.412 571.675 120.526C571.675 120.554 571.675 120.554 571.675 120.582C571.704 120.781 571.732 120.922 571.732 120.922C571.732 120.922 571.845 120.95 571.902 120.95C572.27 120.95 572.95 120.979 573.318 120.95C573.403 120.95 573.488 120.95 573.573 120.95C574.507 120.922 574.535 120.922 576.178 120.922C576.263 120.922 576.348 120.922 576.461 120.922C582.832 121.12 597.33 121.602 599.878 115.457C600.586 113.645 600.331 112.059 600.246 110.672Z" fill="white"/>
</mask>
<g mask="url(#mask1_789_4185)">
<path d="M579.747 104.895C579.888 106.056 578.274 107.189 576.122 107.444C573.999 107.698 572.158 106.962 572.016 105.801C571.875 104.64 573.489 103.508 575.641 103.253C577.765 102.998 579.605 103.734 579.747 104.895Z" fill="white"/>
</g>
<mask id="mask2_789_4185" style="mask-type:luminance" maskUnits="userSpaceOnUse" x="570" y="95" width="31" height="27">
<path d="M600.246 110.672C599.708 101.837 592.488 95.0129 584.219 95.5226C576.036 96.0323 570.005 103.564 570.713 112.229C570.713 112.342 570.741 112.512 570.798 112.909C571.137 116.59 571.222 117.864 571.449 119.11C571.534 119.563 571.562 119.591 571.619 120.073C571.647 120.299 571.647 120.412 571.675 120.526C571.675 120.554 571.675 120.554 571.675 120.582C571.704 120.781 571.732 120.922 571.732 120.922C571.732 120.922 571.845 120.95 571.902 120.95C572.27 120.95 572.95 120.979 573.318 120.95C573.403 120.95 573.488 120.95 573.573 120.95C574.507 120.922 574.535 120.922 576.178 120.922C576.263 120.922 576.348 120.922 576.461 120.922C582.832 121.12 597.33 121.602 599.878 115.457C600.586 113.645 600.331 112.059 600.246 110.672Z" fill="white"/>
</mask>
<g mask="url(#mask2_789_4185)">
<path d="M589.741 111.578C590.081 112.059 589.713 112.937 588.891 113.56C588.07 114.183 587.107 114.296 586.739 113.815C586.4 113.333 586.768 112.456 587.589 111.833C588.438 111.21 589.401 111.096 589.741 111.578Z" fill="white"/>
</g>
<mask id="mask3_789_4185" style="mask-type:luminance" maskUnits="userSpaceOnUse" x="570" y="95" width="31" height="27">
<path d="M600.246 110.672C599.708 101.837 592.488 95.0129 584.219 95.5226C576.036 96.0323 570.005 103.564 570.713 112.229C570.713 112.342 570.741 112.512 570.798 112.909C571.137 116.59 571.222 117.864 571.449 119.11C571.534 119.563 571.562 119.591 571.619 120.073C571.647 120.299 571.647 120.412 571.675 120.526C571.675 120.554 571.675 120.554 571.675 120.582C571.704 120.781 571.732 120.922 571.732 120.922C571.732 120.922 571.845 120.95 571.902 120.95C572.27 120.95 572.95 120.979 573.318 120.95C573.403 120.95 573.488 120.95 573.573 120.95C574.507 120.922 574.535 120.922 576.178 120.922C576.263 120.922 576.348 120.922 576.461 120.922C582.832 121.12 597.33 121.602 599.878 115.457C600.586 113.645 600.331 112.059 600.246 110.672Z" fill="white"/>
</mask>
<g mask="url(#mask3_789_4185)">
<path opacity="0.36" d="M570.885 109.086C570.885 109.086 572.697 102.545 576.774 99.7983C580.88 97.0234 585.269 97.2782 585.269 97.2782C585.269 97.2782 590.111 97.618 592.773 99.9116C595.435 102.205 597.162 104.754 597.7 106.962C598.238 109.143 598.861 113.135 598.493 114.126C598.125 115.117 597.728 116.675 596.143 117.581C594.557 118.487 593.169 119.053 593.877 119.28C594.585 119.506 599.172 120.865 599.342 120.837C599.512 120.809 605.77 110.927 605.77 110.927L602.287 101.356L592.858 94.3616L578.332 95.0129L570.375 104.527L570.885 109.086Z" fill="#FC356F"/>
</g>
<path d="M576.431 120.922C579.716 120.865 583.029 120.809 586.285 120.497C587.928 120.356 589.542 120.129 591.127 119.818C591.92 119.648 592.713 119.478 593.478 119.223C594.242 118.997 595.007 118.713 595.715 118.402C596.423 118.062 597.102 117.666 597.668 117.184C598.263 116.703 598.744 116.137 599.056 115.514C599.226 115.202 599.339 114.862 599.424 114.494C599.509 114.126 599.566 113.786 599.594 113.39C599.651 112.654 599.566 111.861 599.509 111.04L599.481 110.728L599.452 110.445C599.424 110.247 599.424 110.049 599.396 109.851L599.311 109.256C599.283 109.058 599.254 108.859 599.198 108.661C599.056 107.897 598.858 107.132 598.575 106.396C598.32 105.66 598.008 104.924 597.64 104.244C597.272 103.564 596.847 102.885 596.394 102.262C594.554 99.7134 591.92 97.7313 588.919 96.8251C588.551 96.7119 588.154 96.5986 587.786 96.5137L587.22 96.4004C587.022 96.3721 586.823 96.3438 586.654 96.3154C585.889 96.2022 585.096 96.1739 584.303 96.2022C582.746 96.2871 581.189 96.5986 579.716 97.2216C578.98 97.533 578.272 97.9011 577.621 98.3259C576.969 98.7506 576.318 99.232 575.752 99.77C574.563 100.846 573.572 102.12 572.779 103.508C571.193 106.311 570.513 109.624 570.74 112.909C570.174 109.652 570.627 106.198 572.099 103.14C572.835 101.639 573.826 100.223 575.044 99.0055C576.233 97.7879 577.677 96.7968 579.235 96.0889C582.349 94.6165 586.031 94.4183 589.344 95.381C590.165 95.6359 590.986 95.9473 591.75 96.3154C592.515 96.7119 593.251 97.1649 593.959 97.6463C594.667 98.156 595.318 98.7223 595.941 99.317C596.564 99.9399 597.13 100.591 597.64 101.271C598.15 101.979 598.603 102.715 598.999 103.479C599.396 104.244 599.736 105.037 600.019 105.858C600.302 106.679 600.5 107.5 600.67 108.35C600.698 108.548 600.755 108.775 600.783 108.973L600.868 109.624C600.897 109.851 600.897 110.049 600.925 110.275L600.953 110.587L600.981 110.898C601.038 111.691 601.095 112.569 601.01 113.475C600.953 113.928 600.896 114.381 600.755 114.806C600.642 115.259 600.472 115.655 600.245 116.08C599.821 116.901 599.169 117.609 598.461 118.147C597.753 118.685 596.961 119.11 596.168 119.45C594.582 120.101 592.94 120.497 591.269 120.752C589.627 121.007 587.956 121.149 586.285 121.205C583.029 121.347 579.716 121.205 576.431 120.922Z" fill="#9E2508"/>
<path d="M521.5 119.931C519.971 111.21 525.407 102.885 533.563 101.469C541.661 100.053 549.25 106 550.58 114.608C550.609 114.721 550.609 114.891 550.665 115.287C551.175 118.94 551.402 120.214 551.487 121.488C551.515 121.942 551.487 121.998 551.543 122.451C551.572 122.678 551.572 122.791 551.6 122.904C551.6 122.933 551.6 122.933 551.6 122.961C551.628 123.159 551.628 123.301 551.628 123.301C551.628 123.301 551.543 123.357 551.458 123.357C551.09 123.442 550.439 123.612 550.099 123.697C550.014 123.725 549.929 123.725 549.844 123.754C548.938 123.924 548.91 123.952 547.296 124.32C547.211 124.348 547.126 124.377 547.041 124.405C540.896 126.076 526.908 129.898 523.001 124.518C521.84 122.904 521.726 121.29 521.5 119.931Z" fill="white"/>
<mask id="mask4_789_4185" style="mask-type:luminance" maskUnits="userSpaceOnUse" x="521" y="101" width="31" height="27">
<path d="M521.5 119.931C519.971 111.21 525.407 102.885 533.563 101.469C541.661 100.053 549.25 106 550.58 114.608C550.609 114.721 550.609 114.891 550.665 115.287C551.175 118.94 551.402 120.214 551.487 121.488C551.515 121.942 551.487 121.998 551.543 122.451C551.572 122.678 551.572 122.791 551.6 122.904C551.6 122.933 551.6 122.933 551.6 122.961C551.628 123.159 551.628 123.301 551.628 123.301C551.628 123.301 551.543 123.357 551.458 123.357C551.09 123.442 550.439 123.612 550.099 123.697C550.014 123.725 549.929 123.725 549.844 123.754C548.938 123.924 548.91 123.952 547.296 124.32C547.211 124.348 547.126 124.377 547.041 124.405C540.896 126.076 526.908 129.898 523.001 124.518C521.84 122.904 521.726 121.29 521.5 119.931Z" fill="white"/>
</mask>
<g mask="url(#mask4_789_4185)">
<path d="M537.41 125.651C543.384 125.651 548.227 120.808 548.227 114.834C548.227 108.86 543.384 104.017 537.41 104.017C531.437 104.017 526.594 108.86 526.594 114.834C526.594 120.808 531.437 125.651 537.41 125.651Z" fill="#121212"/>
</g>
<mask id="mask5_789_4185" style="mask-type:luminance" maskUnits="userSpaceOnUse" x="521" y="101" width="31" height="27">
<path d="M521.5 119.931C519.971 111.21 525.407 102.885 533.563 101.469C541.661 100.053 549.25 106 550.58 114.608C550.609 114.721 550.609 114.891 550.665 115.287C551.175 118.94 551.402 120.214 551.487 121.488C551.515 121.942 551.487 121.998 551.543 122.451C551.572 122.678 551.572 122.791 551.6 122.904C551.6 122.933 551.6 122.933 551.6 122.961C551.628 123.159 551.628 123.301 551.628 123.301C551.628 123.301 551.543 123.357 551.458 123.357C551.09 123.442 550.439 123.612 550.099 123.697C550.014 123.725 549.929 123.725 549.844 123.754C548.938 123.924 548.91 123.952 547.296 124.32C547.211 124.348 547.126 124.377 547.041 124.405C540.896 126.076 526.908 129.898 523.001 124.518C521.84 122.904 521.726 121.29 521.5 119.931Z" fill="white"/>
</mask>
<g mask="url(#mask5_789_4185)">
<path d="M525.977 111.21C526.119 112.371 527.96 113.107 530.083 112.852C532.207 112.597 533.849 111.465 533.708 110.304C533.566 109.143 531.726 108.406 529.602 108.661C527.45 108.916 525.836 110.049 525.977 111.21Z" fill="white"/>
</g>
<mask id="mask6_789_4185" style="mask-type:luminance" maskUnits="userSpaceOnUse" x="521" y="101" width="31" height="27">
<path d="M521.5 119.931C519.971 111.21 525.407 102.885 533.563 101.469C541.661 100.053 549.25 106 550.58 114.608C550.609 114.721 550.609 114.891 550.665 115.287C551.175 118.94 551.402 120.214 551.487 121.488C551.515 121.942 551.487 121.998 551.543 122.451C551.572 122.678 551.572 122.791 551.6 122.904C551.6 122.933 551.6 122.933 551.6 122.961C551.628 123.159 551.628 123.301 551.628 123.301C551.628 123.301 551.543 123.357 551.458 123.357C551.09 123.442 550.439 123.612 550.099 123.697C550.014 123.725 549.929 123.725 549.844 123.754C548.938 123.924 548.91 123.952 547.296 124.32C547.211 124.348 547.126 124.377 547.041 124.405C540.896 126.076 526.908 129.898 523.001 124.518C521.84 122.904 521.726 121.29 521.5 119.931Z" fill="white"/>
</mask>
<g mask="url(#mask6_789_4185)">
<path d="M543.247 117.524C543.615 118.006 543.218 118.912 542.369 119.535C541.519 120.158 540.557 120.271 540.188 119.79C539.82 119.308 540.217 118.402 541.066 117.779C541.916 117.156 542.878 117.043 543.247 117.524Z" fill="white"/>
</g>
<mask id="mask7_789_4185" style="mask-type:luminance" maskUnits="userSpaceOnUse" x="521" y="101" width="31" height="27">
<path d="M521.5 119.931C519.971 111.21 525.407 102.885 533.563 101.469C541.661 100.053 549.25 106 550.58 114.608C550.609 114.721 550.609 114.891 550.665 115.287C551.175 118.94 551.402 120.214 551.487 121.488C551.515 121.942 551.487 121.998 551.543 122.451C551.572 122.678 551.572 122.791 551.6 122.904C551.6 122.933 551.6 122.933 551.6 122.961C551.628 123.159 551.628 123.301 551.628 123.301C551.628 123.301 551.543 123.357 551.458 123.357C551.09 123.442 550.439 123.612 550.099 123.697C550.014 123.725 549.929 123.725 549.844 123.754C548.938 123.924 548.91 123.952 547.296 124.32C547.211 124.348 547.126 124.377 547.041 124.405C540.896 126.076 526.908 129.898 523.001 124.518C521.84 122.904 521.726 121.29 521.5 119.931Z" fill="white"/>
</mask>
<g mask="url(#mask7_789_4185)">
<path opacity="0.36" d="M549.704 111.55C549.704 111.55 546.419 105.603 541.832 103.876C537.217 102.12 532.998 103.394 532.998 103.394C532.998 103.394 528.354 104.839 526.315 107.699C524.276 110.558 523.144 113.418 523.144 115.684C523.144 117.949 523.427 121.97 524.05 122.848C524.644 123.725 525.38 125.141 527.136 125.651C528.892 126.161 530.364 126.415 529.741 126.784C529.118 127.152 524.956 129.53 524.786 129.559C524.616 129.587 516.234 121.404 516.234 121.404L517.424 111.295L524.956 102.29L539.227 99.5435L549.166 106.934L549.704 111.55Z" fill="#FC356F"/>
</g>
<path d="M519.772 98.156L519.688 97.9861C532.6 90.539 541.378 92.1247 541.463 92.1247L541.434 92.3229C541.321 92.3229 532.6 90.7655 519.772 98.156Z" fill="#FC356F"/>
<path d="M547.008 124.377C543.865 125.396 540.694 126.33 537.437 127.01C535.823 127.35 534.153 127.576 532.51 127.718C530.84 127.86 529.141 127.86 527.442 127.576C526.592 127.435 525.743 127.208 524.922 126.84C524.1 126.472 523.336 125.962 522.713 125.254C522.401 124.886 522.147 124.518 521.92 124.122C521.693 123.725 521.524 123.301 521.382 122.876C521.099 122.026 520.957 121.149 520.816 120.356L520.759 120.073L520.702 119.761C520.674 119.563 520.617 119.336 520.617 119.11L520.561 118.459C520.533 118.232 520.533 118.034 520.533 117.807C520.504 116.958 520.504 116.08 520.589 115.231C520.674 114.381 520.816 113.532 521.014 112.682C521.212 111.833 521.495 111.04 521.835 110.219C522.175 109.426 522.571 108.661 523.024 107.925C523.477 107.189 523.987 106.481 524.553 105.83C525.12 105.178 525.743 104.555 526.394 104.017C527.074 103.479 527.781 102.97 528.518 102.545C531.519 100.818 535.144 100.166 538.513 100.874C540.212 101.214 541.826 101.837 543.27 102.743C544.714 103.621 546.017 104.782 547.093 106.084C549.217 108.69 550.491 111.974 550.689 115.259C550.151 112.003 548.735 108.944 546.527 106.566C545.422 105.377 544.176 104.357 542.761 103.621C542.053 103.253 541.345 102.913 540.58 102.658C539.844 102.403 539.051 102.205 538.287 102.064C536.729 101.809 535.144 101.837 533.586 102.149C532.822 102.29 532.057 102.517 531.321 102.8C531.151 102.885 530.953 102.941 530.783 103.026L530.245 103.281C529.905 103.451 529.537 103.649 529.226 103.848C526.536 105.433 524.44 107.982 523.223 110.87C522.911 111.606 522.656 112.342 522.458 113.107C522.26 113.871 522.118 114.636 522.033 115.429C521.948 116.222 521.92 116.986 521.977 117.779C521.977 117.977 522.005 118.175 522.005 118.374L522.062 118.968C522.09 119.167 522.118 119.365 522.147 119.563L522.175 119.846L522.232 120.158C522.345 120.979 522.458 121.743 522.685 122.479C522.798 122.848 522.939 123.187 523.109 123.499C523.279 123.81 523.477 124.15 523.704 124.405C524.157 124.943 524.752 125.368 525.431 125.708C526.111 126.047 526.847 126.274 527.612 126.444C528.376 126.614 529.169 126.699 529.99 126.727C530.783 126.784 531.604 126.755 532.397 126.755C534.011 126.699 535.653 126.529 537.267 126.302C540.58 125.792 543.808 125.085 547.008 124.377Z" fill="#9E2508"/>
<path d="M570.374 126.699C569.836 123.782 565.334 122.111 561.907 122.508C558.594 122.904 554.545 125.424 554.659 128.539C554.715 130.465 556.329 131.909 556.612 132.135C558.056 133.353 559.755 133.155 563.125 132.73C566.24 132.333 567.854 132.107 569.015 130.691C569.241 130.38 570.714 128.596 570.374 126.699Z" fill="url(#paint41_radial_789_4185)"/>
<path d="M570.373 126.699C570.26 126.076 569.948 125.509 569.524 125C569.778 127.888 567.966 129.842 565.758 130.097C562.671 130.748 559.132 131.682 555.904 129.332C555.281 128.936 554.941 128.143 554.884 127.095C554.714 127.548 554.601 128.058 554.629 128.539C554.686 130.465 556.3 131.909 556.583 132.135C558.027 133.353 559.726 133.155 563.096 132.73C566.211 132.333 567.825 132.107 568.986 130.691C569.24 130.38 570.713 128.596 570.373 126.699Z" fill="url(#paint42_linear_789_4185)"/>
<path d="M567.398 123.64C567.115 122.366 564.141 121.743 561.848 122.026C559.611 122.281 556.864 123.527 556.836 124.886C556.836 125.736 557.855 126.33 558.025 126.415C558.96 126.925 560.092 126.784 562.358 126.5C564.453 126.246 565.529 126.104 566.35 125.453C566.548 125.311 567.568 124.462 567.398 123.64Z" fill="url(#paint43_linear_789_4185)"/>
<path d="M585.547 121.262C585.547 121.262 597.44 121.63 600.271 116.137C603.103 110.643 604.377 116.222 604.377 116.222C604.377 116.222 606.897 121.545 585.547 121.262Z" fill="url(#paint44_radial_789_4185)"/>
<path d="M538.23 126.812C538.23 126.812 526.762 129.927 522.713 125.226C518.664 120.526 518.749 126.274 518.749 126.274C518.749 126.274 517.503 132.05 538.23 126.812Z" fill="url(#paint45_radial_789_4185)"/>
<path d="M517.306 94.4749C518.241 94.305 519.147 93.9652 520.166 93.9652C520.732 94.0218 521.299 94.0785 521.865 94.1351C527.726 95.7775 535.513 95.4093 539.279 90.0576C539.704 89.6045 540.129 89.0949 540.497 88.5569C540.865 88.0189 541.205 87.4525 541.516 86.8296C540.893 86.8579 540.27 86.688 539.676 86.6314C539.081 86.5747 538.543 86.6314 538.09 87.1127C534.069 92.2379 527.188 93.2573 521.016 92.9742C520.308 93.0308 519.685 93.1441 519.062 93.314C518.467 93.4838 517.872 93.767 517.306 94.1917C517.278 94.2767 517.25 94.39 517.306 94.4749Z" fill="#0162CA"/>
<path d="M597.325 80.8832C597.24 80.9681 597.127 80.9398 597.013 80.8832C595.145 79.6656 593.276 78.2498 591.407 77.1172C589.481 75.9279 587.471 75.1634 585.319 74.7386C584.243 74.5121 583.252 74.4838 582.232 74.4838C581.213 74.4838 580.505 74.597 579.542 74.9368C578.523 75.3616 577.957 75.758 576.881 76.2677C575.833 76.749 574.389 76.9473 573.171 76.6641C573.03 76.6358 572.973 76.6075 572.945 76.4942C572.916 76.3809 572.973 76.296 573.086 76.2394C574.134 75.7014 574.983 75.3899 575.776 74.4555C576.626 73.4644 577.589 72.3601 578.75 71.7371C579.91 71.1141 581.213 70.8593 582.459 71.1425C583.705 71.4256 584.809 71.7937 585.97 72.1902C588.32 73.0113 590.529 74.2006 592.426 75.7863C594.267 77.3154 595.711 79.0143 597.353 80.685C597.41 80.7133 597.41 80.7982 597.325 80.8832Z" fill="#0162CA"/>
<path d="M554.031 147.454C554.598 147.086 555.277 146.548 555.815 146.208C560.827 143.179 568.812 142.103 574.532 143.575C575.467 143.801 576.628 144.396 577.59 144.736C576.939 144.339 576.344 143.943 575.721 143.49C575.098 143.037 574.419 142.556 573.768 142.103C570.341 139.894 566.575 140.064 562.696 140.602C561.79 140.857 561.139 140.913 560.204 141.366C559.779 141.565 559.1 141.876 558.562 142.301C557.061 143.49 555.957 145.302 554.711 146.775C554.484 147.03 554.229 147.228 554.031 147.454Z" fill="#510B0B"/>
<path d="M555.193 146.123C555.108 146.237 555.024 146.378 554.91 146.463C554.797 146.548 554.769 146.576 554.627 146.633C554.485 146.69 554.372 146.775 554.146 146.803C553.664 146.888 553.098 146.661 552.588 146.803C552.192 146.916 551.852 147.426 551.994 147.851C552.05 148.049 552.107 148.19 552.277 148.36C552.56 148.672 552.956 148.757 553.353 148.615C553.494 148.559 553.579 148.502 553.693 148.389C553.806 148.304 553.891 148.19 553.976 148.106C554.061 148.021 554.146 147.907 554.259 147.822C554.627 147.511 554.939 147.114 555.25 146.746C555.108 146.831 554.939 146.916 554.797 147.001C554.655 147.086 554.485 147.171 554.344 147.228C554.457 147.001 554.655 146.888 554.769 146.661C554.91 146.492 555.052 146.293 555.193 146.123Z" fill="#FCA68B"/>
<path d="M555.136 146.18C554.995 146.322 554.881 146.492 554.74 146.633C554.598 146.775 554.4 147.03 554.258 147.114C554.088 147.199 554.004 147.143 553.862 147.143C553.635 147.143 553.409 147.199 553.211 147.284C552.984 147.369 552.843 147.596 552.899 147.794C552.984 148.049 553.154 148.134 553.352 148.162C553.551 148.162 553.692 148.049 553.805 147.964C553.947 147.879 554.032 147.822 554.117 147.737C554.23 147.652 554.343 147.568 554.428 147.483C554.655 147.313 554.825 147.171 554.995 146.973C554.881 147.03 554.796 147.086 554.655 147.114C554.57 147.143 554.4 147.171 554.315 147.171C554.372 147.001 554.655 146.86 554.74 146.746C554.91 146.52 554.966 146.378 555.136 146.18Z" fill="#B24040"/>
<path d="M575.836 143.547C576.261 143.83 576.459 143.971 577.082 143.971C577.393 143.971 578.13 143.603 578.611 143.66C578.979 143.688 579.489 144.085 579.404 144.538C579.375 144.764 579.375 144.878 579.234 145.076C578.922 145.557 578.356 145.727 577.846 145.444C577.563 145.302 577.223 145.047 576.997 144.934C576.572 144.736 576.317 144.594 575.921 144.368C576.232 144.396 576.572 144.424 576.884 144.453C576.544 144.141 576.204 143.83 575.836 143.547Z" fill="#FCA68B"/>
<path d="M575.922 143.603C576.262 143.83 576.63 144.17 576.998 144.283C577.168 144.339 577.253 144.255 577.423 144.226C577.649 144.198 577.876 144.17 578.102 144.226C578.329 144.255 578.555 144.453 578.527 144.623C578.442 145.161 578.017 145.132 577.649 144.962C577.394 144.849 577.224 144.679 576.941 144.651C576.658 144.594 576.318 144.453 576.035 144.368C576.318 144.396 576.602 144.424 576.885 144.453C576.573 144.17 576.262 143.886 575.922 143.603Z" fill="#B24040"/>
<path d="M567.962 138.903C566.404 138.45 566.376 138.733 565.357 138.875C564.337 139.016 564.734 138.988 563.714 139.101C562.695 139.214 562.553 139.044 561.251 139.866C558.504 141.621 556.126 144.708 554.172 147.511C557.457 144.028 559.071 142.074 563.941 140.913C564.564 140.772 564.989 140.687 565.64 140.658C570.822 140.29 573.2 142.103 577.334 144.736C574.559 142.357 571.275 139.866 567.962 138.903Z" fill="#E25350"/>
<path d="M577.28 144.623C572.749 142.187 569.408 141.111 564.339 142.103C559.271 143.094 557.827 144.481 553.891 147.454C555.505 146.775 554.315 147.199 556.354 146.208C558.648 145.076 561.253 144.424 565.16 143.915C566.718 143.717 572.353 142.697 574.731 144.028C575.241 144.283 576.77 144.594 577.28 144.623Z" fill="#E07777"/>
<path d="M561.453 149.889C561.453 149.889 566.295 147.03 570.514 148.813C570.514 148.813 566.04 144.424 561.453 149.889Z" fill="#F7937C"/>
<path d="M778 307.573L796.289 317.938L808.861 300.645L778 307.573Z" fill="#363739"/>
<path d="M966.766 375.608L985.08 386L991.47 371.467L966.766 375.608Z" fill="#363739"/>
<path d="M1109.68 250.579L1127.97 260.944L1111.21 270.632L1106.14 259.104L1109.68 250.579Z" fill="#363739"/>
<path d="M1052.34 36C1052.34 36 1071.97 46.392 1070.65 46.392C1069.33 46.392 1041.53 56.0804 1041.53 56.0804L1039.09 47.5557L1052.34 36Z" fill="#363739"/>
<path d="M966.811 375.608V307.546H778.023V250.795L978.142 36H1052.41V250.579H1109.68V307.573H1052.41V375.635H966.811V375.608ZM966.811 250.579V134.995L860.777 250.579H966.811Z" fill="#363739"/>
<path d="M985.128 386V317.938H796.34V261.188L996.458 46.392H1070.73V260.971H1128V317.938H1070.73V386H985.128ZM985.128 260.944V145.36L879.093 260.944H985.128Z" fill="#121212"/>
<defs>
<radialGradient id="paint0_radial_789_4185" cx="0" cy="0" r="1" gradientUnits="userSpaceOnUse" gradientTransform="translate(547.475 412.876) rotate(84.534) scale(12.9412 9.48331)">
<stop stop-color="#D1D1D1"/>
<stop offset="0.2573" stop-color="#CDCCCF"/>
<stop offset="0.5426" stop-color="#BFBFCA"/>
<stop offset="0.8401" stop-color="#AAA9C2"/>
<stop offset="1" stop-color="#9B9ABC"/>
</radialGradient>
<radialGradient id="paint1_radial_789_4185" cx="0" cy="0" r="1" gradientUnits="userSpaceOnUse" gradientTransform="translate(547.471 412.876) rotate(84.534) scale(12.9412 9.48331)">
<stop stop-color="#D1D1D1"/>
<stop offset="0.2573" stop-color="#CDCCCF"/>
<stop offset="0.5426" stop-color="#BFBFCA"/>
<stop offset="0.8401" stop-color="#AAA9C2"/>
<stop offset="1" stop-color="#9B9ABC"/>
</radialGradient>
<radialGradient id="paint2_radial_789_4185" cx="0" cy="0" r="1" gradientUnits="userSpaceOnUse" gradientTransform="translate(586.436 412.872) rotate(95.466) scale(12.9412 9.48331)">
<stop stop-color="#D1D1D1"/>
<stop offset="0.2573" stop-color="#CDCCCF"/>
<stop offset="0.5426" stop-color="#BFBFCA"/>
<stop offset="0.8401" stop-color="#AAA9C2"/>
<stop offset="1" stop-color="#9B9ABC"/>
</radialGradient>
<radialGradient id="paint3_radial_789_4185" cx="0" cy="0" r="1" gradientUnits="userSpaceOnUse" gradientTransform="translate(586.436 412.872) rotate(95.466) scale(12.9412 9.48331)">
<stop stop-color="#D1D1D1"/>
<stop offset="0.2573" stop-color="#CDCCCF"/>
<stop offset="0.5426" stop-color="#BFBFCA"/>
<stop offset="0.8401" stop-color="#AAA9C2"/>
<stop offset="1" stop-color="#9B9ABC"/>
</radialGradient>
<radialGradient id="paint4_radial_789_4185" cx="0" cy="0" r="1" gradientUnits="userSpaceOnUse" gradientTransform="translate(566.215 190.918) scale(25.0046 25.0046)">
<stop offset="4.1e-07" stop-color="#FCC29A"/>
<stop offset="0.2895" stop-color="#F6B992"/>
<stop offset="0.7591" stop-color="#E5A17C"/>
<stop offset="1" stop-color="#DB926E"/>
</radialGradient>
<radialGradient id="paint5_radial_789_4185" cx="0" cy="0" r="1" gradientUnits="userSpaceOnUse" gradientTransform="translate(628.317 232.403) rotate(161.404) scale(27.7521 27.7521)">
<stop stop-color="#FCCC97"/>
<stop offset="1" stop-color="#F9AB80"/>
</radialGradient>
<radialGradient id="paint6_radial_789_4185" cx="0" cy="0" r="1" gradientUnits="userSpaceOnUse" gradientTransform="translate(640.558 225.867) rotate(74.6032) scale(27.7513 27.7513)">
<stop stop-color="#FCCC97"/>
<stop offset="1" stop-color="#F9AB80"/>
</radialGradient>
<linearGradient id="paint7_linear_789_4185" x1="706.418" y1="205.645" x2="691.791" y2="213.292" gradientUnits="userSpaceOnUse">
<stop stop-color="#E56B4A"/>
<stop offset="1" stop-color="#FCC29A"/>
</linearGradient>
<linearGradient id="paint8_linear_789_4185" x1="694.97" y1="204.01" x2="703.852" y2="209.481" gradientUnits="userSpaceOnUse">
<stop offset="0.358" stop-color="#FCCC97"/>
<stop offset="1" stop-color="#F9AB80"/>
</linearGradient>
<linearGradient id="paint9_linear_789_4185" x1="706.438" y1="209.081" x2="699.352" y2="213.493" gradientUnits="userSpaceOnUse">
<stop stop-color="#E56B4A"/>
<stop offset="1" stop-color="#FCC29A"/>
</linearGradient>
<linearGradient id="paint10_linear_789_4185" x1="694.619" y1="205.263" x2="707.863" y2="213.422" gradientUnits="userSpaceOnUse">
<stop offset="0.358" stop-color="#FCCC97"/>
<stop offset="1" stop-color="#F9AB80"/>
</linearGradient>
<linearGradient id="paint11_linear_789_4185" x1="701.947" y1="213.834" x2="684.428" y2="220.328" gradientUnits="userSpaceOnUse">
<stop stop-color="#E56B4A"/>
<stop offset="1" stop-color="#FCC29A"/>
</linearGradient>
<linearGradient id="paint12_linear_789_4185" x1="693.145" y1="208.187" x2="703.917" y2="214.823" gradientUnits="userSpaceOnUse">
<stop offset="0.358" stop-color="#FCCC97"/>
<stop offset="1" stop-color="#F9AB80"/>
</linearGradient>
<linearGradient id="paint13_linear_789_4185" x1="698.182" y1="212.149" x2="673.909" y2="224.669" gradientUnits="userSpaceOnUse">
<stop stop-color="#E56B4A"/>
<stop offset="1" stop-color="#FCC29A"/>
</linearGradient>
<linearGradient id="paint14_linear_789_4185" x1="691.817" y1="210.635" x2="697.464" y2="214.114" gradientUnits="userSpaceOnUse">
<stop offset="0.358" stop-color="#FCCC97"/>
<stop offset="1" stop-color="#F9AB80"/>
</linearGradient>
<linearGradient id="paint15_linear_789_4185" x1="692.711" y1="209.684" x2="668.144" y2="212.405" gradientUnits="userSpaceOnUse">
<stop offset="0.358" stop-color="#FCCC97"/>
<stop offset="1" stop-color="#F9AB80"/>
</linearGradient>
<linearGradient id="paint16_linear_789_4185" x1="690.843" y1="207.165" x2="683.2" y2="193.852" gradientUnits="userSpaceOnUse">
<stop offset="0.358" stop-color="#FCCC97"/>
<stop offset="1" stop-color="#F9AB80"/>
</linearGradient>
<linearGradient id="paint17_linear_789_4185" x1="685.168" y1="201.677" x2="674.641" y2="204.771" gradientUnits="userSpaceOnUse">
<stop stop-color="#E56B4A"/>
<stop offset="1" stop-color="#FCC29A"/>
</linearGradient>
<radialGradient id="paint18_radial_789_4185" cx="0" cy="0" r="1" gradientUnits="userSpaceOnUse" gradientTransform="translate(505.992 232.403) rotate(18.5962) scale(27.7521 27.7521)">
<stop stop-color="#FCCC97"/>
<stop offset="1" stop-color="#F9AB80"/>
</radialGradient>
<radialGradient id="paint19_radial_789_4185" cx="0" cy="0" r="1" gradientUnits="userSpaceOnUse" gradientTransform="translate(493.75 225.867) rotate(105.397) scale(27.7513 27.7513)">
<stop stop-color="#FCCC97"/>
<stop offset="1" stop-color="#F9AB80"/>
</radialGradient>
<linearGradient id="paint20_linear_789_4185" x1="427.895" y1="205.645" x2="442.522" y2="213.292" gradientUnits="userSpaceOnUse">
<stop stop-color="#E56B4A"/>
<stop offset="1" stop-color="#FCC29A"/>
</linearGradient>
<linearGradient id="paint21_linear_789_4185" x1="439.341" y1="204.01" x2="430.46" y2="209.482" gradientUnits="userSpaceOnUse">
<stop offset="0.358" stop-color="#FCCC97"/>
<stop offset="1" stop-color="#F9AB80"/>
</linearGradient>
<linearGradient id="paint22_linear_789_4185" x1="427.87" y1="209.081" x2="434.956" y2="213.493" gradientUnits="userSpaceOnUse">
<stop stop-color="#E56B4A"/>
<stop offset="1" stop-color="#FCC29A"/>
</linearGradient>
<linearGradient id="paint23_linear_789_4185" x1="439.691" y1="205.263" x2="426.447" y2="213.422" gradientUnits="userSpaceOnUse">
<stop offset="0.358" stop-color="#FCCC97"/>
<stop offset="1" stop-color="#F9AB80"/>
</linearGradient>
<linearGradient id="paint24_linear_789_4185" x1="432.363" y1="213.834" x2="449.882" y2="220.328" gradientUnits="userSpaceOnUse">
<stop stop-color="#E56B4A"/>
<stop offset="1" stop-color="#FCC29A"/>
</linearGradient>
<linearGradient id="paint25_linear_789_4185" x1="441.165" y1="208.187" x2="430.393" y2="214.823" gradientUnits="userSpaceOnUse">
<stop offset="0.358" stop-color="#FCCC97"/>
<stop offset="1" stop-color="#F9AB80"/>
</linearGradient>
<linearGradient id="paint26_linear_789_4185" x1="436.125" y1="212.149" x2="460.397" y2="224.669" gradientUnits="userSpaceOnUse">
<stop stop-color="#E56B4A"/>
<stop offset="1" stop-color="#FCC29A"/>
</linearGradient>
<linearGradient id="paint27_linear_789_4185" x1="442.493" y1="210.635" x2="436.846" y2="214.114" gradientUnits="userSpaceOnUse">
<stop offset="0.358" stop-color="#FCCC97"/>
<stop offset="1" stop-color="#F9AB80"/>
</linearGradient>
<linearGradient id="paint28_linear_789_4185" x1="441.598" y1="209.684" x2="466.166" y2="212.405" gradientUnits="userSpaceOnUse">
<stop offset="0.358" stop-color="#FCCC97"/>
<stop offset="1" stop-color="#F9AB80"/>
</linearGradient>
<linearGradient id="paint29_linear_789_4185" x1="443.465" y1="207.165" x2="451.108" y2="193.852" gradientUnits="userSpaceOnUse">
<stop offset="0.358" stop-color="#FCCC97"/>
<stop offset="1" stop-color="#F9AB80"/>
</linearGradient>
<linearGradient id="paint30_linear_789_4185" x1="449.142" y1="201.677" x2="459.669" y2="204.771" gradientUnits="userSpaceOnUse">
<stop stop-color="#E56B4A"/>
<stop offset="1" stop-color="#FCC29A"/>
</linearGradient>
<linearGradient id="paint31_linear_789_4185" x1="621.282" y1="115.564" x2="608.243" y2="117.289" gradientUnits="userSpaceOnUse">
<stop stop-color="#FCCC97"/>
<stop offset="1" stop-color="#F9AB80"/>
</linearGradient>
<linearGradient id="paint32_linear_789_4185" x1="635.922" y1="112.676" x2="626.171" y2="114.21" gradientUnits="userSpaceOnUse">
<stop stop-color="#FCCC97"/>
<stop offset="1" stop-color="#F9AB80"/>
</linearGradient>
<linearGradient id="paint33_linear_789_4185" x1="498.309" y1="129.917" x2="519.356" y2="127.835" gradientUnits="userSpaceOnUse">
<stop stop-color="#FCCC97"/>
<stop offset="1" stop-color="#F9AB80"/>
</linearGradient>
<linearGradient id="paint34_linear_789_4185" x1="492.39" y1="129.554" x2="499.863" y2="129.067" gradientUnits="userSpaceOnUse">
<stop stop-color="#FCCC97"/>
<stop offset="1" stop-color="#F9AB80"/>
</linearGradient>
<radialGradient id="paint35_radial_789_4185" cx="0" cy="0" r="1" gradientUnits="userSpaceOnUse" gradientTransform="translate(557.907 106.898) rotate(-6.69578) scale(92.0979 92.0979)">
<stop stop-color="#FCCC97"/>
<stop offset="1" stop-color="#EF9B75"/>
</radialGradient>
<radialGradient id="paint36_radial_789_4185" cx="0" cy="0" r="1" gradientUnits="userSpaceOnUse" gradientTransform="translate(561.723 116.186) rotate(-6.69578) scale(103.277 103.277)">
<stop offset="0.358" stop-color="#FCCC97"/>
<stop offset="1" stop-color="#F9AB80"/>
</radialGradient>
<radialGradient id="paint37_radial_789_4185" cx="0" cy="0" r="1" gradientUnits="userSpaceOnUse" gradientTransform="translate(548.775 34.6217) rotate(-6.69578) scale(72.2118 72.2118)">
<stop stop-color="#E08369"/>
<stop offset="1" stop-color="#E08468"/>
</radialGradient>
<radialGradient id="paint38_radial_789_4185" cx="0" cy="0" r="1" gradientUnits="userSpaceOnUse" gradientTransform="translate(547.096 -6.20176) rotate(-6.69578) scale(129.446 129.446)">
<stop stop-color="#F76321"/>
<stop offset="1" stop-color="#FC2F00"/>
</radialGradient>
<radialGradient id="paint39_radial_789_4185" cx="0" cy="0" r="1" gradientUnits="userSpaceOnUse" gradientTransform="translate(536.308 29.8573) rotate(81.4446) scale(23.8652 13.2074)">
<stop stop-color="#FF7757"/>
<stop offset="0.3148" stop-color="#FE623A"/>
<stop offset="0.7609" stop-color="#FC4717"/>
<stop offset="1" stop-color="#FB3D09"/>
</radialGradient>
<radialGradient id="paint40_radial_789_4185" cx="0" cy="0" r="1" gradientUnits="userSpaceOnUse" gradientTransform="translate(615.265 79.0094) rotate(82.2967) scale(15.4732 5.13237)">
<stop stop-color="#FF7757"/>
<stop offset="0.3148" stop-color="#FE623A"/>
<stop offset="0.7609" stop-color="#FC4717"/>
<stop offset="1" stop-color="#FB3D09"/>
</radialGradient>
<radialGradient id="paint41_radial_789_4185" cx="0" cy="0" r="1" gradientUnits="userSpaceOnUse" gradientTransform="translate(565.398 128.429) rotate(-6.69578) scale(38.5425 38.5425)">
<stop stop-color="#FCC29A"/>
<stop offset="0.4821" stop-color="#ECA983"/>
<stop offset="1" stop-color="#DD936F"/>
</radialGradient>
<linearGradient id="paint42_linear_789_4185" x1="561.954" y1="123.502" x2="563.503" y2="135.104" gradientUnits="userSpaceOnUse">
<stop stop-color="#FCC29A"/>
<stop offset="0.1077" stop-color="#F8B28B"/>
<stop offset="0.345" stop-color="#F0936F"/>
<stop offset="0.577" stop-color="#EA7D5A"/>
<stop offset="0.7989" stop-color="#E6704E"/>
<stop offset="1" stop-color="#E56B4A"/>
</linearGradient>
<linearGradient id="paint43_linear_789_4185" x1="562.65" y1="124.184" x2="578.442" y2="121.732" gradientUnits="userSpaceOnUse">
<stop stop-color="#FCE4DE"/>
<stop offset="1" stop-color="#FCC29A"/>
</linearGradient>
<radialGradient id="paint44_radial_789_4185" cx="0" cy="0" r="1" gradientUnits="userSpaceOnUse" gradientTransform="translate(598.497 125.307) rotate(-6.69578) scale(12.8244 12.8244)">
<stop stop-color="#CC725A"/>
<stop offset="1" stop-color="#CC7256"/>
</radialGradient>
<radialGradient id="paint45_radial_789_4185" cx="0" cy="0" r="1" gradientUnits="userSpaceOnUse" gradientTransform="translate(525.976 134.559) rotate(-6.69577) scale(13.9197 13.9197)">
<stop stop-color="#CC725A"/>
<stop offset="1" stop-color="#CC7256"/>
</radialGradient>
</defs>
</svg>
